<svg width="100" height="99" viewBox="0 0 100 99" fill="none" xmlns="http://www.w3.org/2000/svg">
<path d="M50 0.730469L0.5 31.668V45.707L2.79688 44.2715L5 42.8887V47.5059L3.41797 47.1426L0.40625 60.2969L1.86523 60.6367L5 61.3516V68.1484L0.40625 69.2031L3.41797 82.3574L5 81.9941V98.5H95V82L96.582 82.3691L99.5996 69.209L95 68.1543V61.3516L99.5938 60.2969L96.5762 47.1426L95 47.5059V42.8945L99.5 45.707V31.668L50 0.730469ZM50 4.26953L96.5 33.332V40.2988L50 11.2305L3.5 40.2988V33.332L50 4.26953ZM50 14.7695L92 41.0195V48.1914L49.9883 57.8301L8 48.1973V41.0137L50 14.7695ZM5.67383 50.7344L96.0078 71.459L94.3262 78.7715L3.99805 58.0469L5.67383 50.7344ZM94.3262 50.7344L96.002 58.0469L73.4668 63.2148L56.6973 59.3652L94.3262 50.7344ZM14 55C13.1738 55 12.5 55.6738 12.5 56.5C12.5 57.3262 13.1738 58 14 58C14.8262 58 15.5 57.3262 15.5 56.5C15.5 55.6738 14.8262 55 14 55ZM84.5 55C83.6738 55 83 55.6738 83 56.5C83 57.3262 83.6738 58 84.5 58C85.3262 58 86 57.3262 86 56.5C86 55.6738 85.3262 55 84.5 55ZM8 62.043L19.8008 64.75L8 67.457V62.043ZM92 62.043V67.4688L80.1816 64.75L92 62.043ZM26.5098 66.291L43.2852 70.1406L5.67383 78.7656L3.99805 71.4531L26.5098 66.291ZM14 71.5C13.1738 71.5 12.5 72.1738 12.5 73C12.5 73.8262 13.1738 74.5 14 74.5C14.8262 74.5 15.5 73.8262 15.5 73C15.5 72.1738 14.8262 71.5 14 71.5ZM84.5 71.5C83.6738 71.5 83 72.1738 83 73C83 73.8262 83.6738 74.5 84.5 74.5C85.3262 74.5 86 73.8262 86 73C86 72.1738 85.3262 71.5 84.5 71.5ZM49.9941 71.6816L92 81.3145V88C91.1738 88 90.5 88.6738 90.5 89.5C90.5 90.3262 91.1738 91 92 91V95.5H8V91C8.82617 91 9.5 90.3262 9.5 89.5C9.5 88.6738 8.82617 88 8 88V81.3086L49.9941 71.6816ZM14 88C13.1738 88 12.5 88.6738 12.5 89.5C12.5 90.3262 13.1738 91 14 91C14.8262 91 15.5 90.3262 15.5 89.5C15.5 88.6738 14.8262 88 14 88ZM20 88C19.1738 88 18.5 88.6738 18.5 89.5C18.5 90.3262 19.1738 91 20 91C20.8262 91 21.5 90.3262 21.5 89.5C21.5 88.6738 20.8262 88 20 88ZM26 88C25.1738 88 24.5 88.6738 24.5 89.5C24.5 90.3262 25.1738 91 26 91C26.8262 91 27.5 90.3262 27.5 89.5C27.5 88.6738 26.8262 88 26 88ZM32 88C31.1738 88 30.5 88.6738 30.5 89.5C30.5 90.3262 31.1738 91 32 91C32.8262 91 33.5 90.3262 33.5 89.5C33.5 88.6738 32.8262 88 32 88ZM38 88C37.1738 88 36.5 88.6738 36.5 89.5C36.5 90.3262 37.1738 91 38 91C38.8262 91 39.5 90.3262 39.5 89.5C39.5 88.6738 38.8262 88 38 88ZM44 88C43.1738 88 42.5 88.6738 42.5 89.5C42.5 90.3262 43.1738 91 44 91C44.8262 91 45.5 90.3262 45.5 89.5C45.5 88.6738 44.8262 88 44 88ZM50 88C49.1738 88 48.5 88.6738 48.5 89.5C48.5 90.3262 49.1738 91 50 91C50.8262 91 51.5 90.3262 51.5 89.5C51.5 88.6738 50.8262 88 50 88ZM56 88C55.1738 88 54.5 88.6738 54.5 89.5C54.5 90.3262 55.1738 91 56 91C56.8262 91 57.5 90.3262 57.5 89.5C57.5 88.6738 56.8262 88 56 88ZM62 88C61.1738 88 60.5 88.6738 60.5 89.5C60.5 90.3262 61.1738 91 62 91C62.8262 91 63.5 90.3262 63.5 89.5C63.5 88.6738 62.8262 88 62 88ZM68 88C67.1738 88 66.5 88.6738 66.5 89.5C66.5 90.3262 67.1738 91 68 91C68.8262 91 69.5 90.3262 69.5 89.5C69.5 88.6738 68.8262 88 68 88ZM74 88C73.1738 88 72.5 88.6738 72.5 89.5C72.5 90.3262 73.1738 91 74 91C74.8262 91 75.5 90.3262 75.5 89.5C75.5 88.6738 74.8262 88 74 88ZM80 88C79.1738 88 78.5 88.6738 78.5 89.5C78.5 90.3262 79.1738 91 80 91C80.8262 91 81.5 90.3262 81.5 89.5C81.5 88.6738 80.8262 88 80 88ZM86 88C85.1738 88 84.5 88.6738 84.5 89.5C84.5 90.3262 85.1738 91 86 91C86.8262 91 87.5 90.3262 87.5 89.5C87.5 88.6738 86.8262 88 86 88Z" fill="white"/>
</svg>
