<svg width="73" height="81" viewBox="0 0 73 81" fill="none" xmlns="http://www.w3.org/2000/svg">
<path d="M1.41802 0C0.645994 0.145547 0.0891185 0.828985 0.101774 1.62V71.28C0.101774 72.1723 0.829509 72.9 1.72177 72.9H33.8687C37.2732 74.9377 41.2156 76.14 45.4618 76.14C51.1381 76.14 56.3145 74.0264 60.2949 70.5713L70.7237 81L73.0018 78.7219L62.5731 68.2931C66.0282 64.3127 68.1418 59.1363 68.1418 53.46C68.1418 45.7713 64.288 38.9876 58.4218 34.8806V1.62C58.4218 0.727735 57.6941 0 56.8018 0H1.72177C1.67115 0 1.62052 0 1.5699 0C1.51927 0 1.46865 0 1.41802 0ZM3.34178 3.24H55.1818V33.0075C52.2266 31.5963 48.9486 30.78 45.4618 30.78C40.1715 30.78 35.2988 32.5962 31.4387 35.64H14.6818V38.88H28.0974C26.4901 40.7911 25.2118 42.987 24.3005 45.36H14.6818V48.6H23.3387C22.9906 50.1694 22.7818 51.783 22.7818 53.46C22.7818 54.0105 22.7944 54.5421 22.8324 55.08H14.6818V58.32H23.288C24.2436 62.6991 26.4774 66.6288 29.5655 69.66H3.34178V3.24ZM14.6818 16.2V19.44H45.4618V16.2H14.6818ZM14.6818 25.92V29.16H45.4618V25.92H14.6818ZM45.4618 34.02C49.303 34.02 52.8784 35.0958 55.8906 37.0069C55.9412 37.0448 55.9918 37.0765 56.0424 37.1081C61.3834 40.5696 64.9018 46.6066 64.9018 53.46C64.9018 64.2178 56.2196 72.9 45.4618 72.9C41.5573 72.9 37.925 71.7862 34.8812 69.8119C29.5402 66.3504 26.0218 60.3134 26.0218 53.46C26.0218 42.7022 34.704 34.02 45.4618 34.02ZM32.5018 43.74C31.3691 45.1955 30.5591 46.8155 30.0718 48.6H53.5618V43.74H32.5018ZM29.5655 56.7C29.8883 58.4845 30.578 60.1045 31.388 61.56H53.5618V56.7H29.5655Z" fill="white"/>
</svg>
