<svg width="70" height="54" viewBox="0 0 70 54" fill="none" xmlns="http://www.w3.org/2000/svg">
<path d="M27.1406 0C25.4705 0 23.9073 0.836271 22.9805 2.22656L19.3535 7.66797L15.543 8.26953C14.486 7.13913 13.0123 6.3906 11.3418 6.61328H11.3398L4.3418 7.54492C1.86406 7.87504 0 10.0035 0 12.502V49C0 51.7495 2.25048 54 5 54H65C67.7495 54 70 51.7495 70 49V13.4453C70 10.9774 68.1824 8.86641 65.7422 8.5H65.7402L63.7988 8.20898L63.707 8.97266C63.88 7.40027 62.7785 5.94821 61.2188 5.6875L56.8906 4.96484H56.8887C55.2746 4.69646 53.7213 5.79757 53.4414 7.41016V7.40234L53.5742 6.67578L49.5879 6.07812L47.0195 2.22656C46.0936 0.835705 44.5302 0 42.8594 0H27.1406ZM27.1406 2H42.8594C43.8645 2 44.7994 2.50078 45.3555 3.33594L48.4648 8H48.9258L55.1973 8.94141L55.4102 7.75586L55.4121 7.75195C55.5081 7.19921 56.0074 6.84514 56.5605 6.9375L60.8887 7.66016C61.4229 7.74945 61.7779 8.2163 61.7188 8.75391L61.5801 9.89844L65.4453 10.4785C66.9211 10.7001 68 11.9532 68 13.4453V49C68 50.6685 66.6685 52 65 52H5C3.33152 52 2 50.6685 2 49V12.502C2 10.9904 3.10525 9.72722 4.60547 9.52734L11.6055 8.5957C12.7858 8.43787 13.8497 8.98236 14.4688 9.88672L14.8262 10.4082L20.5312 9.50781L24.6445 3.33594C25.2017 2.50023 26.1367 2 27.1406 2ZM35 13C34.8675 12.9981 34.7359 13.0226 34.613 13.072C34.49 13.1214 34.3781 13.1948 34.2837 13.2878C34.1893 13.3809 34.1144 13.4918 34.0632 13.614C34.0121 13.7363 33.9858 13.8675 33.9858 14C33.9858 14.1325 34.0121 14.2637 34.0632 14.386C34.1144 14.5082 34.1893 14.6191 34.2837 14.7122C34.3781 14.8052 34.49 14.8786 34.613 14.928C34.7359 14.9774 34.8675 15.0019 35 15C42.0624 15 47.8717 20.2098 48.8418 27H46L50 32L54 27H50.8613C49.8728 19.1183 43.1459 13 35 13ZM32.0156 13.332L31.6641 13.3516L31.5664 13.375L30.8809 13.9512L30.9316 14.8457L31.6777 15.3398L32.0293 15.3203L32.127 15.2969L32.8145 14.7207L32.7637 13.8262L32.0156 13.332ZM27.9121 14.7207L27.5762 14.8301L27.4883 14.877L26.9746 15.6113L27.2539 16.4629L28.1035 16.748L28.4375 16.6387L28.5254 16.5898L29.041 15.8574L28.7617 15.0059L27.9121 14.7207ZM24.3398 17.1602L24.043 17.3496L23.9707 17.418L23.6562 18.2578L24.1406 19.0117L25.0352 19.0742L25.332 18.8828L25.4043 18.8145L25.7188 17.9746L25.2344 17.2227L24.3398 17.1602ZM22.4297 20.2988L21.5488 20.4609L21.3105 20.7207L21.2559 20.8047L21.1641 21.6953L21.8223 22.3047L22.7031 22.1406L22.9414 21.8809L22.9961 21.7969L23.0879 20.9062L22.4297 20.2988ZM21 26L17 31H20.1387C21.1272 38.8817 27.8541 45 36 45C36.1325 45.0019 36.2641 44.9774 36.387 44.928C36.51 44.8786 36.6219 44.8052 36.7163 44.7122C36.8107 44.6191 36.8856 44.5082 36.9368 44.386C36.9879 44.2637 37.0142 44.1325 37.0142 44C37.0142 43.8675 36.9879 43.7363 36.9368 43.614C36.8856 43.4918 36.8107 43.3809 36.7163 43.2878C36.6219 43.1948 36.51 43.1214 36.387 43.072C36.2641 43.0226 36.1325 42.9981 36 43C28.9376 43 23.1283 37.7902 22.1582 31H25L21 26ZM49.1777 35.6953L48.2969 35.8594L48.0586 36.1191L48.0039 36.2031L47.9121 37.0938L48.5703 37.7012L49.4512 37.5391L49.6895 37.2793L49.7441 37.1953L49.8359 36.3047L49.1777 35.6953ZM45.9648 38.9258L45.668 39.1172L45.5957 39.1855L45.2812 40.0254L45.7656 40.7773L46.6602 40.8398L46.957 40.6504L47.0293 40.582L47.3438 39.7422L46.8594 38.9883L45.9648 38.9258ZM42.8965 41.252L42.5625 41.3613L42.4746 41.4102L41.959 42.1426L42.2383 42.9941L43.0879 43.2793L43.4238 43.1699L43.5117 43.123L44.0254 42.3887L43.7461 41.5371L42.8965 41.252ZM39.3223 42.6602L38.9707 42.6797L38.873 42.7031L38.1855 43.2793L38.2363 44.1738L38.9844 44.668L39.3359 44.6484L39.4336 44.625L40.1191 44.0488L40.0684 43.1543L39.3223 42.6602Z" fill="white"/>
</svg>
