<svg width="94" height="96" viewBox="0 0 94 96" fill="none" xmlns="http://www.w3.org/2000/svg">
<path d="M23.4277 0C19.1152 0 15.353 2.32522 12.6406 4.53809C9.92828 6.75095 8.19629 8.97949 8.19629 8.97949L7.20605 10.251L8.52148 11.1299C8.51864 11.1298 8.51056 11.1259 8.5332 11.1504C8.59877 11.2213 8.72087 11.3717 8.86133 11.6396C9.14229 12.1755 9.5 13.1923 9.5 15V22.5H9.5293C9.51947 22.6 9.5 22.6957 9.5 22.7988C9.5 23.5928 9.71314 24.1377 9.875 24.6885C9.95592 24.9639 10.0311 25.2171 10.0801 25.3975C10.129 25.5778 10.127 25.769 10.127 25.5C10.127 27.0262 11.3585 28.1429 12.8135 28.3477C13.2974 31.2952 14.8198 33.8851 17 35.707V37.9922C15.7157 38.4398 12.9905 39.4246 9.64355 41.0859C7.50596 42.147 5.34802 43.3856 3.6377 44.8066C1.92737 46.2277 0.5 47.8931 0.5 50.0303V55.5H48.5H93.5V50.0303C93.5 47.8931 92.0726 46.2277 90.3623 44.8066C88.652 43.3856 86.494 42.147 84.3564 41.0859C81.0095 39.4246 78.2843 38.4398 77 37.9922V35.7012C79.1765 33.8767 80.7031 31.2924 81.1865 28.3477C82.6414 28.1431 83.873 27.0279 83.873 25.5C83.873 25.769 83.8709 25.5779 83.9199 25.3975C83.9689 25.2171 84.0441 24.9639 84.125 24.6885C84.2869 24.1377 84.5 23.5928 84.5 22.7988C84.5 22.6955 84.4807 22.5998 84.4707 22.5H84.5V12C84.5 8.75349 83.0054 6.35068 81.1484 4.94238C79.5115 3.70098 77.714 3.22142 76.1533 3.10547C75.8647 2.72578 75.701 2.37497 74.791 1.75781C73.455 0.851759 71.3585 0 68.4277 0C64.1152 0 60.353 2.32522 57.6406 4.53809C54.9283 6.75095 53.1963 8.97949 53.1963 8.97949L52.2061 10.251L53.5215 11.1299C53.5186 11.1298 53.5106 11.1259 53.5332 11.1504C53.5988 11.2213 53.7209 11.3717 53.8613 11.6396C54.1423 12.1755 54.5 13.1923 54.5 15V22.5H54.5293C54.5195 22.6 54.5 22.6957 54.5 22.7988C54.5 23.5928 54.7131 24.1377 54.875 24.6885C54.9559 24.9639 55.0311 25.2171 55.0801 25.3975C55.129 25.5778 55.127 25.769 55.127 25.5C55.127 27.0262 56.3585 28.1429 57.8135 28.3477C58.297 31.2931 59.8234 33.8769 62 35.7012V37.9922C60.7157 38.4398 57.9905 39.4246 54.6436 41.0859C52.506 42.147 50.348 43.3856 48.6377 44.8066C48.0391 45.304 47.4802 45.8334 47 46.4004C46.5198 45.8334 45.9609 45.304 45.3623 44.8066C43.652 43.3856 41.494 42.147 39.3564 41.0859C36.0095 39.4246 33.2843 38.4398 32 37.9922V35.707C34.1803 33.8849 35.7028 31.2947 36.1865 28.3477C37.6414 28.1431 38.873 27.0279 38.873 25.5C38.873 25.769 38.8709 25.5779 38.9199 25.3975C38.9689 25.2171 39.0441 24.9639 39.125 24.6885C39.2869 24.1377 39.5 23.5928 39.5 22.7988C39.5 22.6955 39.4807 22.5998 39.4707 22.5H39.5V12C39.5 8.75349 38.0054 6.35068 36.1484 4.94238C34.5115 3.70098 32.714 3.22142 31.1533 3.10547C30.8647 2.72578 30.701 2.37497 29.791 1.75781C28.455 0.851759 26.3585 0 23.4277 0ZM23.4277 3C25.7919 3 27.2336 3.64824 28.1094 4.24219C28.9851 4.83613 29.208 5.26465 29.208 5.26465L29.6445 6H30.5C31.4698 6 33.1034 6.39905 34.335 7.33301C35.5665 8.26696 36.5 9.61551 36.5 12V17.376C36.5 14.2171 35.1824 12.0117 33.8545 10.7256C32.5265 9.43952 31.1035 8.95312 31.1035 8.95312L30.2422 8.66309L29.5859 9.29297C29.5859 9.29297 29.1368 9.75022 27.8809 10.3242C26.625 10.8982 24.6627 11.502 21.875 11.502C20.1406 11.502 17.986 12.0875 16.0654 13.4297C14.2529 14.6963 12.7907 16.8442 12.6201 19.6025C12.5792 19.6061 12.5406 19.6181 12.5 19.623V15C12.5 12.7892 12.0476 11.2575 11.5186 10.248C11.4665 10.1487 11.4162 10.1145 11.3633 10.0254C11.8372 9.45473 12.5934 8.44869 14.5391 6.86133C16.9747 4.8742 20.2343 3 23.4277 3ZM68.4277 3C70.7919 3 72.2336 3.64824 73.1094 4.24219C73.9851 4.83613 74.208 5.26465 74.208 5.26465L74.6445 6H75.5C76.4698 6 78.1034 6.39905 79.335 7.33301C80.5665 8.26696 81.5 9.61551 81.5 12V17.376C81.5 14.2171 80.1824 12.0117 78.8545 10.7256C77.5265 9.43952 76.1035 8.95312 76.1035 8.95312L75.2422 8.66309L74.5859 9.29297C74.5859 9.29297 74.1368 9.75022 72.8809 10.3242C71.6249 10.8982 69.6627 11.502 66.875 11.502C65.1406 11.502 62.986 12.0875 61.0654 13.4297C59.2529 14.6963 57.7907 16.8442 57.6201 19.6025C57.5792 19.6061 57.5406 19.6181 57.5 19.623V15C57.5 12.7892 57.0476 11.2575 56.5186 10.248C56.4665 10.1487 56.4162 10.1145 56.3633 10.0254C56.8372 9.45473 57.5934 8.44869 59.5391 6.86133C61.9747 4.8742 65.2343 3 68.4277 3ZM30.6201 12.1143C30.8956 12.2382 31.16 12.2925 31.7686 12.8818C32.6284 13.7145 33.5 15.0089 33.5 17.376V24.1992L35.7676 22.8516C35.9484 22.744 36.0943 22.6635 36.2334 22.5879C36.3595 22.6408 36.5 22.6926 36.5 22.7988C36.5 22.7294 36.3989 23.3283 36.248 23.8418C36.1726 24.0985 36.0937 24.3575 36.0254 24.6094C35.9571 24.8613 35.873 25.0217 35.873 25.5C35.873 25.482 35.8949 25.5 35.8115 25.5H33.5498L33.4766 26.9209C33.2562 31.142 30.1464 34.5733 26.0879 35.2969L25.6631 35.373L25.3408 35.666C25.1057 35.8803 24.8256 36 24.5 36C24.1744 36 23.8944 35.8803 23.6592 35.666L23.3369 35.373L22.9121 35.2969C18.8549 34.5733 15.7438 31.1434 15.5234 26.9209L15.4502 25.5H13.1885C13.1023 25.5 13.127 25.4838 13.127 25.5C13.127 25.0217 13.043 24.8613 12.9746 24.6094C12.9063 24.3575 12.8274 24.0985 12.752 23.8418C12.6011 23.3283 12.5 22.7294 12.5 22.7988C12.5 22.6926 12.6405 22.6408 12.7666 22.5879C12.9057 22.6635 13.0516 22.744 13.2324 22.8516L15.5 24.1992V20.0449C15.5 18.0789 16.4407 16.8252 17.7822 15.8877C19.1237 14.9502 20.9079 14.502 21.875 14.502C25.0993 14.502 27.5131 13.7903 29.1289 13.0518C30.0796 12.6172 30.1971 12.4317 30.6201 12.1143ZM75.6201 12.1143C75.8956 12.2382 76.16 12.2925 76.7686 12.8818C77.6284 13.7145 78.5 15.0089 78.5 17.376V24.1992L80.7676 22.8516C80.9484 22.744 81.0943 22.6635 81.2334 22.5879C81.3595 22.6408 81.5 22.6926 81.5 22.7988C81.5 22.7294 81.3989 23.3283 81.248 23.8418C81.1726 24.0985 81.0937 24.3575 81.0254 24.6094C80.9571 24.8613 80.873 25.0217 80.873 25.5C80.873 25.482 80.8949 25.5 80.8115 25.5H78.5498L78.4766 26.9209C78.2562 31.142 75.1464 34.5733 71.0879 35.2969L70.6631 35.373L70.3408 35.666C70.1057 35.8803 69.8256 36 69.5 36C69.1744 36 68.8943 35.8803 68.6592 35.666L68.3369 35.373L67.9121 35.2969C63.8549 34.5733 60.7438 31.1434 60.5234 26.9209L60.4502 25.5H58.1885C58.1023 25.5 58.127 25.4838 58.127 25.5C58.127 25.0217 58.043 24.8613 57.9746 24.6094C57.9063 24.3575 57.8274 24.0985 57.752 23.8418C57.6011 23.3283 57.5 22.7294 57.5 22.7988C57.5 22.6926 57.6405 22.6408 57.7666 22.5879C57.9057 22.6635 58.0516 22.744 58.2324 22.8516L60.5 24.1992V20.0449C60.5 18.0789 61.4407 16.8252 62.7822 15.8877C64.1237 14.9502 65.9079 14.502 66.875 14.502C70.0993 14.502 72.5131 13.7903 74.1289 13.0518C75.0796 12.6172 75.1971 12.4317 75.6201 12.1143ZM20 22.5C19.6022 22.5 19.2206 22.658 18.9393 22.9393C18.658 23.2206 18.5 23.6022 18.5 24C18.5 24.3978 18.658 24.7794 18.9393 25.0607C19.2206 25.342 19.6022 25.5 20 25.5C20.3978 25.5 20.7794 25.342 21.0607 25.0607C21.342 24.7794 21.5 24.3978 21.5 24C21.5 23.6022 21.342 23.2206 21.0607 22.9393C20.7794 22.658 20.3978 22.5 20 22.5ZM29 22.5C28.6022 22.5 28.2206 22.658 27.9393 22.9393C27.658 23.2206 27.5 23.6022 27.5 24C27.5 24.3978 27.658 24.7794 27.9393 25.0607C28.2206 25.342 28.6022 25.5 29 25.5C29.3978 25.5 29.7794 25.342 30.0607 25.0607C30.342 24.7794 30.5 24.3978 30.5 24C30.5 23.6022 30.342 23.2206 30.0607 22.9393C29.7794 22.658 29.3978 22.5 29 22.5ZM65 22.5C64.6022 22.5 64.2206 22.658 63.9393 22.9393C63.658 23.2206 63.5 23.6022 63.5 24C63.5 24.3978 63.658 24.7794 63.9393 25.0607C64.2206 25.342 64.6022 25.5 65 25.5C65.3978 25.5 65.7794 25.342 66.0607 25.0607C66.342 24.7794 66.5 24.3978 66.5 24C66.5 23.6022 66.342 23.2206 66.0607 22.9393C65.7794 22.658 65.3978 22.5 65 22.5ZM74 22.5C73.6022 22.5 73.2206 22.658 72.9393 22.9393C72.658 23.2206 72.5 23.6022 72.5 24C72.5 24.3978 72.658 24.7794 72.9393 25.0607C73.2206 25.342 73.6022 25.5 74 25.5C74.3978 25.5 74.7794 25.342 75.0607 25.0607C75.342 24.7794 75.5 24.3978 75.5 24C75.5 23.6022 75.342 23.2206 75.0607 22.9393C74.7794 22.658 74.3978 22.5 74 22.5ZM65 37.5176C65.6465 37.7861 66.3098 38.0186 67.0127 38.168C67.7091 38.6752 68.5654 39 69.5 39C70.4346 39 71.2909 38.6752 71.9873 38.168C72.6897 38.0188 73.354 37.7887 74 37.5205V41.502C73.9339 41.6201 73.8326 41.8602 73.2471 42.3281C72.5366 42.8959 71.4124 43.5 69.5 43.5C67.5876 43.5 66.4634 42.8959 65.7529 42.3281C65.1674 41.8602 65.0661 41.6201 65 41.502V37.5176ZM20 37.5234C20.6449 37.7906 21.3118 38.0191 22.0127 38.168C22.7091 38.6752 23.5654 39 24.5 39C25.4346 39 26.2909 38.6752 26.9873 38.168C27.6884 38.0191 28.355 37.7906 29 37.5234V41.502C28.9339 41.6201 28.8326 41.8602 28.2471 42.3281C27.5366 42.8959 26.4124 43.5 24.5 43.5C22.5876 43.5 21.4634 42.8959 20.7529 42.3281C20.1674 41.8602 20.0661 41.6201 20 41.502V37.5234ZM17 41.1826V42.3545L17.1611 42.6738C17.1611 42.6738 17.7115 43.7397 18.8779 44.6719C20.0443 45.6041 21.9199 46.5 24.5 46.5C27.0801 46.5 28.9557 45.6041 30.1221 44.6719C31.2885 43.7397 31.8389 42.6738 31.8389 42.6738L32 42.3545V41.1826C33.5642 41.7656 35.646 42.5923 38.0234 43.7725C40.0408 44.7739 42.0374 45.9471 43.4434 47.1152C44.8493 48.2834 45.5 49.388 45.5 50.0303V52.5H3.5V50.0303C3.5 49.388 4.15071 48.2834 5.55664 47.1152C6.96257 45.9471 8.95915 44.7739 10.9766 43.7725C13.354 42.5923 15.4358 41.7656 17 41.1826ZM62 41.1826V42.3545L62.1611 42.6738C62.1611 42.6738 62.7115 43.7397 63.8779 44.6719C65.0443 45.6041 66.9199 46.5 69.5 46.5C72.0801 46.5 73.9557 45.6041 75.1221 44.6719C76.2885 43.7397 76.8389 42.6738 76.8389 42.6738L77 42.3545V41.1826C78.5642 41.7656 80.646 42.5923 83.0234 43.7725C85.0408 44.7739 87.0374 45.9471 88.4434 47.1152C89.8493 48.2834 90.5 49.388 90.5 50.0303V52.5H48.5V50.0303C48.5 49.388 49.1507 48.2834 50.5566 47.1152C51.9626 45.9471 53.9592 44.7739 55.9766 43.7725C58.354 42.5923 60.4358 41.7656 62 41.1826ZM54.5 61.5V67.5H29C28.8012 67.4972 28.6039 67.5339 28.4194 67.608C28.235 67.6822 28.0671 67.7922 27.9255 67.9318C27.784 68.0713 27.6716 68.2376 27.5949 68.421C27.5181 68.6044 27.4786 68.8012 27.4786 69C27.4786 69.1988 27.5181 69.3956 27.5949 69.579C27.6716 69.7624 27.784 69.9287 27.9255 70.0682C28.0671 70.2078 28.235 70.3178 28.4194 70.392C28.6039 70.4661 28.8012 70.5028 29 70.5H54.5V76.5L65 69L54.5 61.5ZM3.5 67.5C3.10218 67.5 2.72064 67.658 2.43934 67.9393C2.15804 68.2206 2 68.6022 2 69C2 69.3978 2.15804 69.7794 2.43934 70.0607C2.72064 70.342 3.10218 70.5 3.5 70.5C3.89782 70.5 4.27936 70.342 4.56066 70.0607C4.84196 69.7794 5 69.3978 5 69C5 68.6022 4.84196 68.2206 4.56066 67.9393C4.27936 67.658 3.89782 67.5 3.5 67.5ZM11 67.5C10.6022 67.5 10.2206 67.658 9.93934 67.9393C9.65804 68.2206 9.5 68.6022 9.5 69C9.5 69.3978 9.65804 69.7794 9.93934 70.0607C10.2206 70.342 10.6022 70.5 11 70.5C11.3978 70.5 11.7794 70.342 12.0607 70.0607C12.342 69.7794 12.5 69.3978 12.5 69C12.5 68.6022 12.342 68.2206 12.0607 67.9393C11.7794 67.658 11.3978 67.5 11 67.5ZM17 67.5C16.6022 67.5 16.2206 67.658 15.9393 67.9393C15.658 68.2206 15.5 68.6022 15.5 69C15.5 69.3978 15.658 69.7794 15.9393 70.0607C16.2206 70.342 16.6022 70.5 17 70.5C17.3978 70.5 17.7794 70.342 18.0607 70.0607C18.342 69.7794 18.5 69.3978 18.5 69C18.5 68.6022 18.342 68.2206 18.0607 67.9393C17.7794 67.658 17.3978 67.5 17 67.5ZM23 67.5C22.6022 67.5 22.2206 67.658 21.9393 67.9393C21.658 68.2206 21.5 68.6022 21.5 69C21.5 69.3978 21.658 69.7794 21.9393 70.0607C22.2206 70.342 22.6022 70.5 23 70.5C23.3978 70.5 23.7794 70.342 24.0607 70.0607C24.342 69.7794 24.5 69.3978 24.5 69C24.5 68.6022 24.342 68.2206 24.0607 67.9393C23.7794 67.658 23.3978 67.5 23 67.5ZM36.5 81L26 88.5L36.5 96V90H65C65.1988 90.0028 65.3961 89.9661 65.5806 89.892C65.765 89.8178 65.9329 89.7078 66.0744 89.5682C66.216 89.4287 66.3284 89.2624 66.4051 89.079C66.4819 88.8956 66.5214 88.6988 66.5214 88.5C66.5214 88.3012 66.4819 88.1044 66.4051 87.921C66.3284 87.7376 66.216 87.5713 66.0744 87.4318C65.9329 87.2922 65.765 87.1822 65.5806 87.108C65.3961 87.0339 65.1988 86.9972 65 87H36.5V81ZM71 87C70.6022 87 70.2206 87.158 69.9393 87.4393C69.658 87.7206 69.5 88.1022 69.5 88.5C69.5 88.8978 69.658 89.2794 69.9393 89.5607C70.2206 89.842 70.6022 90 71 90C71.3978 90 71.7794 89.842 72.0607 89.5607C72.342 89.2794 72.5 88.8978 72.5 88.5C72.5 88.1022 72.342 87.7206 72.0607 87.4393C71.7794 87.158 71.3978 87 71 87ZM77 87C76.6022 87 76.2206 87.158 75.9393 87.4393C75.658 87.7206 75.5 88.1022 75.5 88.5C75.5 88.8978 75.658 89.2794 75.9393 89.5607C76.2206 89.842 76.6022 90 77 90C77.3978 90 77.7794 89.842 78.0607 89.5607C78.342 89.2794 78.5 88.8978 78.5 88.5C78.5 88.1022 78.342 87.7206 78.0607 87.4393C77.7794 87.158 77.3978 87 77 87ZM83 87C82.6022 87 82.2206 87.158 81.9393 87.4393C81.658 87.7206 81.5 88.1022 81.5 88.5C81.5 88.8978 81.658 89.2794 81.9393 89.5607C82.2206 89.842 82.6022 90 83 90C83.3978 90 83.7794 89.842 84.0607 89.5607C84.342 89.2794 84.5 88.8978 84.5 88.5C84.5 88.1022 84.342 87.7206 84.0607 87.4393C83.7794 87.158 83.3978 87 83 87ZM90.5 87C90.1022 87 89.7206 87.158 89.4393 87.4393C89.158 87.7206 89 88.1022 89 88.5C89 88.8978 89.158 89.2794 89.4393 89.5607C89.7206 89.842 90.1022 90 90.5 90C90.8978 90 91.2794 89.842 91.5607 89.5607C91.842 89.2794 92 88.8978 92 88.5C92 88.1022 91.842 87.7206 91.5607 87.4393C91.2794 87.158 90.8978 87 90.5 87Z" fill="white"/>
</svg>
