<svg width="50" height="50" viewBox="0 0 50 50" fill="none" xmlns="http://www.w3.org/2000/svg">
<path d="M25.0002 0.160156C11.2942 0.160156 0.160156 11.2942 0.160156 25.0002C0.160156 38.7061 11.2942 49.8402 25.0002 49.8402C38.7061 49.8402 49.8402 38.7061 49.8402 25.0002C49.8402 11.2942 38.7061 0.160156 25.0002 0.160156ZM25.0002 2.32016C37.5388 2.32016 47.6802 12.4615 47.6802 25.0002C47.6802 37.5388 37.5388 47.6802 25.0002 47.6802C12.4615 47.6802 2.32016 37.5388 2.32016 25.0002C2.32016 12.4615 12.4615 2.32016 25.0002 2.32016ZM19.6002 12.0402V28.2402H16.3602V30.4002H19.6002V32.5602H16.3602V34.7202H19.6002V39.0402H21.7602V34.7202H26.0802V32.5602H21.7602V30.4002H26.6202C31.2944 30.4002 35.0207 26.8268 35.5808 22.3002H35.8002V21.2202C35.8002 16.1631 31.6772 12.0402 26.6202 12.0402H19.6002ZM21.7602 14.2002H26.6202C30.5098 14.2002 33.6402 17.3305 33.6402 21.2202C33.6402 25.1098 30.5098 28.2402 26.6202 28.2402H21.7602V14.2002Z" fill="black"/>
</svg>
