<svg width="94" height="92" viewBox="0 0 94 92" fill="none" xmlns="http://www.w3.org/2000/svg">
<path d="M30.5 0.5C29.7852 0.5 29.1582 0.669921 28.5371 0.851562C28.3555 0.839844 28.168 0.863282 27.9922 0.921875L1.53711 9.64062C0.921875 9.83984 0.51172 10.4141 0.51172 11.0645L0.5 30.5C0.5 31.0859 0.839845 31.6191 1.37305 31.8594C1.37305 31.8594 4.68945 33.3828 8.82031 34.9062C12.9453 36.4297 17.8145 38 21.5 38C25.2266 38 28.4492 37.6133 31.0215 37.2324C33.5996 36.8574 35.5859 36.5 36.5 36.5C38.2754 36.5 40.5078 36.7695 42.5 37.0625V41.6211L46.3789 45.5H48.5V59.6211L50.8789 62H55.1211L57.5 59.6211V45.5H59.6211L63.5 41.6211V32.8789L62.0176 31.3965C62.9258 30.3418 63.5 28.9883 63.5 27.5C63.5 25.8301 62.8086 24.3066 61.7012 23.2227L61.8066 23.334L51.0254 10.3613C50.8965 10.209 50.7383 10.0801 50.5625 9.99219L34.1152 1.44336C34.0449 1.4082 33.9688 1.37305 33.8926 1.34961C32.8906 0.833984 31.7422 0.5 30.5 0.5ZM30.5 3.5C31.2734 3.5 31.9941 3.7168 32.6621 4.08594C32.8379 4.18555 33.0312 4.24414 33.2363 4.26758L33.002 4.24414L48.9102 12.5117L59.498 25.25C59.5332 25.291 59.5625 25.3262 59.6035 25.3672C60.1602 25.9121 60.5 26.6562 60.5 27.5C60.5 29.1758 59.1758 30.5 57.5 30.5C56.5391 30.5 55.707 30.0488 55.1504 29.334C55.0918 29.2637 55.0332 29.1992 54.9688 29.1406L44.4863 17.5859C44.293 17.375 44.0469 17.2227 43.7656 17.1465L32.3926 14.0527C32.2637 14.0176 32.1348 14 32 14C31.3203 14 30.9629 14.1641 30.4004 14.3926C29.8379 14.6211 29.2051 14.9551 28.5781 15.4121C27.3184 16.3262 26 17.8789 26 20V23C26 23.8262 26.6738 24.5 27.5 24.5H33.5C42.1484 24.5 49.9062 29.3516 49.9824 29.3984C50.0059 29.416 50.0293 29.4336 50.0527 29.4512C50.9258 29.9844 51.5 30.9102 51.5 32C51.5 33.6758 50.1758 35 48.5 35C48.2891 35 48.0723 34.9707 47.8262 34.9121C47.8203 34.9121 47.8086 34.9121 47.7969 34.9121L47.6797 34.8887C47.6738 34.8887 47.668 34.8887 47.668 34.8887C47.4512 34.8418 41.1113 33.5 36.5 33.5C34.9707 33.5 33.0898 33.8926 30.5879 34.2676C28.0801 34.6367 25.0215 35 21.5 35C18.7461 35 13.8652 33.5703 9.85156 32.0938C6.33008 30.793 4.15039 29.791 3.5 29.4922L3.50586 12.1484L28.6367 3.86914L28.4082 3.85156C28.6191 3.86914 28.8359 3.83985 29.041 3.76953C29.5332 3.59961 30.0137 3.5 30.5 3.5ZM31.9121 17.0293L42.5586 19.9297L46.5781 24.3594C43.2324 22.9355 38.7031 21.5 33.5 21.5H29V20C29 19.1211 29.5449 18.4238 30.3418 17.8379C30.7402 17.5449 31.1855 17.3164 31.5371 17.1699C31.8242 17.0527 31.9648 17.041 31.9121 17.0293ZM55.1621 32.9316C55.877 33.2715 56.6504 33.5 57.5 33.5C58.2031 33.5 58.877 33.3535 59.5098 33.125L60.5 34.1211V40.3789L58.3789 42.5H54.5V58.3789L53.8789 59H52.1211L51.5 58.3789V42.5H47.6211L45.5 40.3789V37.5547C46.0449 37.6543 47.1875 37.8535 47.1875 37.8535C47.2871 37.8711 47.3926 37.8828 47.498 37.8828C47.8203 37.9414 48.1367 38 48.5 38C49.4551 38 50.3457 37.748 51.1426 37.3379C51.6523 37.748 52.291 38 53 38C54.6582 38 56 36.6582 56 35C56 34.1973 55.6777 33.4648 55.1621 32.9316ZM74 60.5C72.3477 60.5 70.7656 60.834 69.3359 61.4375L49.0859 68.2168C48.9629 68.2637 48.8516 68.3164 48.7402 68.3867C46.0977 69.2246 44.1465 71.5977 44.0234 74.4746C44.0059 74.5684 44 74.6562 44 74.75C44 75.1484 44.041 75.5352 44.1172 75.916C44.1758 76.2617 44.2754 76.5898 44.3926 76.9121C44.3926 76.918 44.3926 76.918 44.3926 76.9238L44.1875 76.9531L24.0547 68.5801C23.8613 68.5039 23.6621 68.4629 23.4629 68.4688C22.8418 68.2402 22.2148 68 21.5 68C18.2012 68 15.5 70.7012 15.5 74C15.5 76.1094 16.7129 77.8262 18.3652 78.8984C18.5176 79.1328 18.7285 79.3203 18.9863 79.4434L43.7832 91.2734C43.8711 91.3145 43.9648 91.3496 44.0645 91.373C44.9551 91.7598 45.9453 92 47 92C47.4805 92 47.9141 91.918 48.3359 91.8359C48.4883 91.8477 48.6406 91.8359 48.7871 91.8008L78.4766 84.5469L91.5957 88.2441C92.0469 88.3672 92.5332 88.2793 92.9082 87.9922C93.2773 87.7109 93.5 87.2656 93.5 86.7969V65.7031C93.5 65 93.0078 64.3906 92.3223 64.2383L76.7305 60.8105C76.6133 60.7871 76.4961 60.7812 76.3848 60.7812C75.6172 60.623 74.832 60.5 74 60.5ZM74 63.5C74.6914 63.5 75.3711 63.5879 76.0391 63.7402C76.0977 63.7578 76.1562 63.7637 76.2207 63.7754L90.5 66.9102V84.8164L78.9043 81.5527C78.6582 81.4883 78.3945 81.4824 78.1484 81.5469L48.3359 88.8184L48.5234 88.8418C48.3535 88.8242 48.1836 88.8301 48.0137 88.8711C47.6621 88.9531 47.3223 89 47 89C46.332 89 45.6992 88.8418 45.1074 88.5605C44.9727 88.502 44.8262 88.4551 44.6797 88.4375L44.8438 88.4551L21.5469 77.3457L21.0254 78.6406C21.3242 77.8965 20.9844 77.0527 20.2578 76.7188C19.2207 76.2441 18.5 75.2188 18.5 74C18.5 72.3242 19.8242 71 21.5 71C21.957 71 22.3906 71.1113 22.8125 71.3223C23.5508 71.6855 24.4414 71.3809 24.8105 70.6484L24.1953 71.8906L43.4199 79.8828C43.6777 79.9941 43.959 80.0234 44.2344 79.9824L46.1797 79.6777C47.3867 80.8027 48.9863 81.5 50.75 81.5C51.7578 81.5 52.7012 81.2656 53.4746 81.0371C54.2539 80.8086 54.9863 80.5391 54.9863 80.5391C55.5137 80.4102 55.9297 79.9941 56.0703 79.4609C56.2051 78.9336 56.041 78.3711 55.6426 77.9961C55.2441 77.6152 54.6699 77.4922 54.1484 77.6621C53.7031 77.791 53.2754 77.9727 52.6309 78.1602C51.9863 78.3477 51.2422 78.5 50.75 78.5C49.6426 78.5 48.6641 78.0195 47.9785 77.2637C47.9434 77.2109 47.9082 77.1582 47.8672 77.1113C47.5977 76.7832 47.3809 76.4199 47.2344 76.0332C47.2227 75.998 47.2168 75.9629 47.2051 75.9336C47.1465 75.7754 47.1055 75.6113 47.0703 75.4414C47.0293 75.2188 47 74.9844 47 74.75C47 72.9629 48.2363 71.498 49.9004 71.1113C50.4453 70.9824 50.8789 70.5605 51.0137 70.0156L50.8145 70.8066L70.3906 64.25C70.4316 64.2324 70.4668 64.2207 70.502 64.2031C71.5742 63.752 72.752 63.5 74 63.5ZM68 72.5C67.1738 72.5 66.5 73.1738 66.5 74C66.5 74.8262 67.1738 75.5 68 75.5C68.8262 75.5 69.5 74.8262 69.5 74C69.5 73.1738 68.8262 72.5 68 72.5ZM63.5 74C62.6738 74 62 74.6738 62 75.5C62 76.3262 62.6738 77 63.5 77C64.3262 77 65 76.3262 65 75.5C65 74.6738 64.3262 74 63.5 74ZM59 75.5C58.1738 75.5 57.5 76.1738 57.5 77C57.5 77.8262 58.1738 78.5 59 78.5C59.8262 78.5 60.5 77.8262 60.5 77C60.5 76.1738 59.8262 75.5 59 75.5Z" fill="white"/>
</svg>
