<svg width="58" height="56" viewBox="0 0 58 56" fill="none" xmlns="http://www.w3.org/2000/svg">
<path d="M29.002 0.910156L28.3164 2.44531L21.7334 17.2109C21.5928 17.3457 21.5107 17.5303 21.502 17.7236L20.7021 19.5195L0.4375 21.6611L15.5723 35.3047L11.3477 55.2383L29.002 45.0635L46.6562 55.2383L42.4316 35.3047L57.5664 21.6611L37.3018 19.5195L29.002 0.910156ZM29.002 4.59277L30.6543 8.2959C30.5547 8.42773 30.502 8.58594 30.502 8.75C30.502 9.13965 30.8008 9.46484 31.1904 9.49707L33.5342 14.75C33.5225 14.75 33.5137 14.75 33.502 14.75C33.0889 14.75 32.752 15.0869 32.752 15.5C32.752 15.9131 33.0889 16.25 33.502 16.25C33.7246 16.25 33.9355 16.1504 34.0791 15.9775L36.2822 20.9199L44.1895 21.7578C44.0693 21.8926 44.002 22.0684 44.002 22.25C44.002 22.6631 44.3389 23 44.752 23C45.165 23 45.502 22.6631 45.502 22.25C45.502 22.1211 45.4697 21.9951 45.4053 21.8838L48.502 22.2119C48.502 22.2236 48.502 22.2383 48.502 22.25C48.502 22.6631 48.8389 23 49.252 23C49.6211 23 49.9346 22.7334 49.9932 22.3672L53.1543 22.7041C53.2949 22.8887 53.5176 23 53.752 23C53.7842 23 53.8164 22.9971 53.8486 22.9912L52.249 24.4355C52.2139 24.0488 51.8916 23.75 51.502 23.75C51.0889 23.75 50.752 24.0869 50.752 24.5C50.752 24.8604 51.0068 25.168 51.3613 25.2383L49.958 26.501C49.8525 26.1992 49.5684 26 49.252 26C48.8389 26 48.502 26.3369 48.502 26.75C48.502 27.04 48.6689 27.3037 48.9297 27.4268L47.6348 28.5957C47.4941 28.3818 47.2568 28.25 47.002 28.25C46.5889 28.25 46.252 28.5869 46.252 29C46.252 29.2285 46.3574 29.4424 46.5332 29.5859L45.2793 30.7168C45.1387 30.5791 44.9482 30.5 44.752 30.5C44.3389 30.5 44.002 30.8369 44.002 31.25C44.002 31.4199 44.0605 31.5869 44.166 31.7188L42.9004 32.8643C42.7803 32.791 42.6426 32.75 42.502 32.75C42.0889 32.75 41.752 33.0869 41.752 33.5C41.752 33.6143 41.7783 33.7256 41.8281 33.8281L40.7822 34.7686L40.9199 35.4102C40.791 35.1582 40.5332 35 40.252 35C39.8389 35 39.502 35.3369 39.502 35.75C39.502 36.1631 39.8389 36.5 40.252 36.5C40.6504 36.5 40.9785 36.1895 41.002 35.7939L42.2705 41.7852C41.96 41.8877 41.752 42.1748 41.752 42.5C41.752 42.9131 42.0889 43.25 42.502 43.25C42.5283 43.25 42.5547 43.2471 42.5811 43.2471L44.4912 52.2617L43.252 51.5469C43.252 51.5293 43.252 51.5146 43.252 51.5C43.252 51.0869 42.915 50.75 42.502 50.75C42.3555 50.75 42.2119 50.7939 42.0889 50.876L40.498 49.9561C40.7998 49.8535 41.002 49.5693 41.002 49.25C41.002 48.8369 40.665 48.5 40.252 48.5C39.8389 48.5 39.502 48.8369 39.502 49.25C39.502 49.2969 39.5049 49.3467 39.5137 49.3906L31.9463 45.0283C31.9844 44.9404 32.002 44.8467 32.002 44.75C32.002 44.3369 31.665 44 31.252 44C31.0205 44 30.8037 44.1055 30.6631 44.2871L29.002 43.332L27.3408 44.2871C27.2002 44.1055 26.9834 44 26.752 44C26.3389 44 26.002 44.3369 26.002 44.75C26.002 44.8467 26.0195 44.9404 26.0576 45.0283L18.4902 49.3906C18.499 49.3467 18.502 49.2969 18.502 49.25C18.502 48.8369 18.165 48.5 17.752 48.5C17.3389 48.5 17.002 48.8369 17.002 49.25C17.002 49.5693 17.2041 49.8535 17.5059 49.9561L15.915 50.876C15.7949 50.7939 15.6484 50.75 15.502 50.75C15.0889 50.75 14.752 51.0869 14.752 51.5C14.752 51.5146 14.7549 51.5293 14.7549 51.5439L13.5127 52.2617L15.4229 43.2471C15.4492 43.2471 15.4756 43.25 15.502 43.25C15.915 43.25 16.252 42.9131 16.252 42.5C16.252 42.1748 16.041 41.8877 15.7334 41.7881L17.0049 35.7881C17.0254 36.1865 17.3535 36.5 17.752 36.5C18.165 36.5 18.502 36.1631 18.502 35.75C18.502 35.3369 18.165 35 17.752 35C17.4707 35 17.2129 35.1582 17.084 35.4102L17.2217 34.7686L16.1758 33.8281C16.2256 33.7256 16.252 33.6143 16.252 33.5C16.252 33.0869 15.915 32.75 15.502 32.75C15.3613 32.75 15.2236 32.791 15.1064 32.8643L13.8379 31.7188C13.9434 31.5869 14.002 31.4199 14.002 31.25C14.002 30.8369 13.665 30.5 13.252 30.5C13.0557 30.5 12.8652 30.5791 12.7246 30.7168L11.4707 29.5859C11.6465 29.4424 11.752 29.2285 11.752 29C11.752 28.5869 11.415 28.25 11.002 28.25C10.7471 28.25 10.5098 28.3789 10.3691 28.5928L9.07422 27.4268C9.33496 27.3037 9.50195 27.04 9.50195 26.75C9.50195 26.3369 9.16504 26 8.75195 26C8.43555 26 8.15137 26.1992 8.0459 26.501L6.64258 25.2383C6.99707 25.168 7.25195 24.8604 7.25195 24.5C7.25195 24.0869 6.91504 23.75 6.50195 23.75C6.1123 23.75 5.79004 24.0459 5.75488 24.4326L4.1582 22.9941C4.1875 22.9971 4.21973 23 4.25195 23C4.48633 23 4.70605 22.8916 4.84961 22.7041L8.01367 22.3672C8.06934 22.7334 8.38281 23 8.75195 23C9.16504 23 9.50195 22.6631 9.50195 22.25C9.50195 22.2383 9.49902 22.2236 9.49902 22.2119L12.5986 21.8838C12.5342 21.9951 12.502 22.1211 12.502 22.25C12.502 22.6631 12.8389 23 13.252 23C13.665 23 14.002 22.6631 14.002 22.25C14.002 22.0684 13.9346 21.8926 13.8145 21.7549L21.7217 20.9199L23.9248 15.9805C24.0654 16.1504 24.2793 16.25 24.502 16.25C24.915 16.25 25.252 15.9131 25.252 15.5C25.252 15.0869 24.915 14.75 24.502 14.75C24.4902 14.75 24.4814 14.75 24.4697 14.75L26.8135 9.49707C27.2031 9.46191 27.502 9.13965 27.502 8.75C27.502 8.58594 27.4492 8.42773 27.3496 8.2959L29.002 4.59277ZM29.002 5.75C28.5889 5.75 28.252 6.08691 28.252 6.5C28.252 6.91309 28.5889 7.25 29.002 7.25C29.415 7.25 29.752 6.91309 29.752 6.5C29.752 6.08691 29.415 5.75 29.002 5.75ZM29.002 10.25C28.5889 10.25 28.252 10.5869 28.252 11C28.252 11.4131 28.5889 11.75 29.002 11.75C29.415 11.75 29.752 11.4131 29.752 11C29.752 10.5869 29.415 10.25 29.002 10.25ZM26.752 12.5C26.3389 12.5 26.002 12.8369 26.002 13.25C26.002 13.6631 26.3389 14 26.752 14C27.165 14 27.502 13.6631 27.502 13.25C27.502 12.8369 27.165 12.5 26.752 12.5ZM31.252 12.5C30.8389 12.5 30.502 12.8369 30.502 13.25C30.502 13.6631 30.8389 14 31.252 14C31.665 14 32.002 13.6631 32.002 13.25C32.002 12.8369 31.665 12.5 31.252 12.5ZM29.002 14.75C28.5889 14.75 28.252 15.0869 28.252 15.5C28.252 15.9131 28.5889 16.25 29.002 16.25C29.415 16.25 29.752 15.9131 29.752 15.5C29.752 15.0869 29.415 14.75 29.002 14.75ZM26.752 17C26.3389 17 26.002 17.3369 26.002 17.75C26.002 18.1631 26.3389 18.5 26.752 18.5C27.165 18.5 27.502 18.1631 27.502 17.75C27.502 17.3369 27.165 17 26.752 17ZM31.252 17C30.8389 17 30.502 17.3369 30.502 17.75C30.502 18.1631 30.8389 18.5 31.252 18.5C31.665 18.5 32.002 18.1631 32.002 17.75C32.002 17.3369 31.665 17 31.252 17ZM24.502 19.25C24.0889 19.25 23.752 19.5869 23.752 20C23.752 20.4131 24.0889 20.75 24.502 20.75C24.915 20.75 25.252 20.4131 25.252 20C25.252 19.5869 24.915 19.25 24.502 19.25ZM29.002 19.25C28.5889 19.25 28.252 19.5869 28.252 20C28.252 20.4131 28.5889 20.75 29.002 20.75C29.415 20.75 29.752 20.4131 29.752 20C29.752 19.5869 29.415 19.25 29.002 19.25ZM33.502 19.25C33.0889 19.25 32.752 19.5869 32.752 20C32.752 20.4131 33.0889 20.75 33.502 20.75C33.915 20.75 34.252 20.4131 34.252 20C34.252 19.5869 33.915 19.25 33.502 19.25ZM17.752 21.5C17.3389 21.5 17.002 21.8369 17.002 22.25C17.002 22.6631 17.3389 23 17.752 23C18.165 23 18.502 22.6631 18.502 22.25C18.502 21.8369 18.165 21.5 17.752 21.5ZM22.252 21.5C21.8389 21.5 21.502 21.8369 21.502 22.25C21.502 22.6631 21.8389 23 22.252 23C22.665 23 23.002 22.6631 23.002 22.25C23.002 21.8369 22.665 21.5 22.252 21.5ZM26.752 21.5C26.3389 21.5 26.002 21.8369 26.002 22.25C26.002 22.6631 26.3389 23 26.752 23C27.165 23 27.502 22.6631 27.502 22.25C27.502 21.8369 27.165 21.5 26.752 21.5ZM31.252 21.5C30.8389 21.5 30.502 21.8369 30.502 22.25C30.502 22.6631 30.8389 23 31.252 23C31.665 23 32.002 22.6631 32.002 22.25C32.002 21.8369 31.665 21.5 31.252 21.5ZM35.752 21.5C35.3389 21.5 35.002 21.8369 35.002 22.25C35.002 22.6631 35.3389 23 35.752 23C36.165 23 36.502 22.6631 36.502 22.25C36.502 21.8369 36.165 21.5 35.752 21.5ZM40.252 21.5C39.8389 21.5 39.502 21.8369 39.502 22.25C39.502 22.6631 39.8389 23 40.252 23C40.665 23 41.002 22.6631 41.002 22.25C41.002 21.8369 40.665 21.5 40.252 21.5ZM11.002 23.75C10.5889 23.75 10.252 24.0869 10.252 24.5C10.252 24.9131 10.5889 25.25 11.002 25.25C11.415 25.25 11.752 24.9131 11.752 24.5C11.752 24.0869 11.415 23.75 11.002 23.75ZM15.502 23.75C15.0889 23.75 14.752 24.0869 14.752 24.5C14.752 24.9131 15.0889 25.25 15.502 25.25C15.915 25.25 16.252 24.9131 16.252 24.5C16.252 24.0869 15.915 23.75 15.502 23.75ZM20.002 23.75C19.5889 23.75 19.252 24.0869 19.252 24.5C19.252 24.9131 19.5889 25.25 20.002 25.25C20.415 25.25 20.752 24.9131 20.752 24.5C20.752 24.0869 20.415 23.75 20.002 23.75ZM24.502 23.75C24.0889 23.75 23.752 24.0869 23.752 24.5C23.752 24.9131 24.0889 25.25 24.502 25.25C24.915 25.25 25.252 24.9131 25.252 24.5C25.252 24.0869 24.915 23.75 24.502 23.75ZM29.002 23.75C28.5889 23.75 28.252 24.0869 28.252 24.5C28.252 24.9131 28.5889 25.25 29.002 25.25C29.415 25.25 29.752 24.9131 29.752 24.5C29.752 24.0869 29.415 23.75 29.002 23.75ZM33.502 23.75C33.0889 23.75 32.752 24.0869 32.752 24.5C32.752 24.9131 33.0889 25.25 33.502 25.25C33.915 25.25 34.252 24.9131 34.252 24.5C34.252 24.0869 33.915 23.75 33.502 23.75ZM38.002 23.75C37.5889 23.75 37.252 24.0869 37.252 24.5C37.252 24.9131 37.5889 25.25 38.002 25.25C38.415 25.25 38.752 24.9131 38.752 24.5C38.752 24.0869 38.415 23.75 38.002 23.75ZM42.502 23.75C42.0889 23.75 41.752 24.0869 41.752 24.5C41.752 24.9131 42.0889 25.25 42.502 25.25C42.915 25.25 43.252 24.9131 43.252 24.5C43.252 24.0869 42.915 23.75 42.502 23.75ZM47.002 23.75C46.5889 23.75 46.252 24.0869 46.252 24.5C46.252 24.9131 46.5889 25.25 47.002 25.25C47.415 25.25 47.752 24.9131 47.752 24.5C47.752 24.0869 47.415 23.75 47.002 23.75ZM13.252 26C12.8389 26 12.502 26.3369 12.502 26.75C12.502 27.1631 12.8389 27.5 13.252 27.5C13.665 27.5 14.002 27.1631 14.002 26.75C14.002 26.3369 13.665 26 13.252 26ZM17.752 26C17.3389 26 17.002 26.3369 17.002 26.75C17.002 27.1631 17.3389 27.5 17.752 27.5C18.165 27.5 18.502 27.1631 18.502 26.75C18.502 26.3369 18.165 26 17.752 26ZM22.252 26C21.8389 26 21.502 26.3369 21.502 26.75C21.502 27.1631 21.8389 27.5 22.252 27.5C22.665 27.5 23.002 27.1631 23.002 26.75C23.002 26.3369 22.665 26 22.252 26ZM26.752 26C26.3389 26 26.002 26.3369 26.002 26.75C26.002 27.1631 26.3389 27.5 26.752 27.5C27.165 27.5 27.502 27.1631 27.502 26.75C27.502 26.3369 27.165 26 26.752 26ZM31.252 26C30.8389 26 30.502 26.3369 30.502 26.75C30.502 27.1631 30.8389 27.5 31.252 27.5C31.665 27.5 32.002 27.1631 32.002 26.75C32.002 26.3369 31.665 26 31.252 26ZM35.752 26C35.3389 26 35.002 26.3369 35.002 26.75C35.002 27.1631 35.3389 27.5 35.752 27.5C36.165 27.5 36.502 27.1631 36.502 26.75C36.502 26.3369 36.165 26 35.752 26ZM40.252 26C39.8389 26 39.502 26.3369 39.502 26.75C39.502 27.1631 39.8389 27.5 40.252 27.5C40.665 27.5 41.002 27.1631 41.002 26.75C41.002 26.3369 40.665 26 40.252 26ZM44.752 26C44.3389 26 44.002 26.3369 44.002 26.75C44.002 27.1631 44.3389 27.5 44.752 27.5C45.165 27.5 45.502 27.1631 45.502 26.75C45.502 26.3369 45.165 26 44.752 26ZM15.502 28.25C15.0889 28.25 14.752 28.5869 14.752 29C14.752 29.4131 15.0889 29.75 15.502 29.75C15.915 29.75 16.252 29.4131 16.252 29C16.252 28.5869 15.915 28.25 15.502 28.25ZM20.002 28.25C19.5889 28.25 19.252 28.5869 19.252 29C19.252 29.4131 19.5889 29.75 20.002 29.75C20.415 29.75 20.752 29.4131 20.752 29C20.752 28.5869 20.415 28.25 20.002 28.25ZM24.502 28.25C24.0889 28.25 23.752 28.5869 23.752 29C23.752 29.4131 24.0889 29.75 24.502 29.75C24.915 29.75 25.252 29.4131 25.252 29C25.252 28.5869 24.915 28.25 24.502 28.25ZM29.002 28.25C28.5889 28.25 28.252 28.5869 28.252 29C28.252 29.4131 28.5889 29.75 29.002 29.75C29.415 29.75 29.752 29.4131 29.752 29C29.752 28.5869 29.415 28.25 29.002 28.25ZM33.502 28.25C33.0889 28.25 32.752 28.5869 32.752 29C32.752 29.4131 33.0889 29.75 33.502 29.75C33.915 29.75 34.252 29.4131 34.252 29C34.252 28.5869 33.915 28.25 33.502 28.25ZM38.002 28.25C37.5889 28.25 37.252 28.5869 37.252 29C37.252 29.4131 37.5889 29.75 38.002 29.75C38.415 29.75 38.752 29.4131 38.752 29C38.752 28.5869 38.415 28.25 38.002 28.25ZM42.502 28.25C42.0889 28.25 41.752 28.5869 41.752 29C41.752 29.4131 42.0889 29.75 42.502 29.75C42.915 29.75 43.252 29.4131 43.252 29C43.252 28.5869 42.915 28.25 42.502 28.25ZM17.752 30.5C17.3389 30.5 17.002 30.8369 17.002 31.25C17.002 31.6631 17.3389 32 17.752 32C18.165 32 18.502 31.6631 18.502 31.25C18.502 30.8369 18.165 30.5 17.752 30.5ZM22.252 30.5C21.8389 30.5 21.502 30.8369 21.502 31.25C21.502 31.6631 21.8389 32 22.252 32C22.665 32 23.002 31.6631 23.002 31.25C23.002 30.8369 22.665 30.5 22.252 30.5ZM26.752 30.5C26.3389 30.5 26.002 30.8369 26.002 31.25C26.002 31.6631 26.3389 32 26.752 32C27.165 32 27.502 31.6631 27.502 31.25C27.502 30.8369 27.165 30.5 26.752 30.5ZM31.252 30.5C30.8389 30.5 30.502 30.8369 30.502 31.25C30.502 31.6631 30.8389 32 31.252 32C31.665 32 32.002 31.6631 32.002 31.25C32.002 30.8369 31.665 30.5 31.252 30.5ZM35.752 30.5C35.3389 30.5 35.002 30.8369 35.002 31.25C35.002 31.6631 35.3389 32 35.752 32C36.165 32 36.502 31.6631 36.502 31.25C36.502 30.8369 36.165 30.5 35.752 30.5ZM40.252 30.5C39.8389 30.5 39.502 30.8369 39.502 31.25C39.502 31.6631 39.8389 32 40.252 32C40.665 32 41.002 31.6631 41.002 31.25C41.002 30.8369 40.665 30.5 40.252 30.5ZM20.002 32.75C19.5889 32.75 19.252 33.0869 19.252 33.5C19.252 33.9131 19.5889 34.25 20.002 34.25C20.415 34.25 20.752 33.9131 20.752 33.5C20.752 33.0869 20.415 32.75 20.002 32.75ZM24.502 32.75C24.0889 32.75 23.752 33.0869 23.752 33.5C23.752 33.9131 24.0889 34.25 24.502 34.25C24.915 34.25 25.252 33.9131 25.252 33.5C25.252 33.0869 24.915 32.75 24.502 32.75ZM29.002 32.75C28.5889 32.75 28.252 33.0869 28.252 33.5C28.252 33.9131 28.5889 34.25 29.002 34.25C29.415 34.25 29.752 33.9131 29.752 33.5C29.752 33.0869 29.415 32.75 29.002 32.75ZM33.502 32.75C33.0889 32.75 32.752 33.0869 32.752 33.5C32.752 33.9131 33.0889 34.25 33.502 34.25C33.915 34.25 34.252 33.9131 34.252 33.5C34.252 33.0869 33.915 32.75 33.502 32.75ZM38.002 32.75C37.5889 32.75 37.252 33.0869 37.252 33.5C37.252 33.9131 37.5889 34.25 38.002 34.25C38.415 34.25 38.752 33.9131 38.752 33.5C38.752 33.0869 38.415 32.75 38.002 32.75ZM22.252 35C21.8389 35 21.502 35.3369 21.502 35.75C21.502 36.1631 21.8389 36.5 22.252 36.5C22.665 36.5 23.002 36.1631 23.002 35.75C23.002 35.3369 22.665 35 22.252 35ZM26.752 35C26.3389 35 26.002 35.3369 26.002 35.75C26.002 36.1631 26.3389 36.5 26.752 36.5C27.165 36.5 27.502 36.1631 27.502 35.75C27.502 35.3369 27.165 35 26.752 35ZM31.252 35C30.8389 35 30.502 35.3369 30.502 35.75C30.502 36.1631 30.8389 36.5 31.252 36.5C31.665 36.5 32.002 36.1631 32.002 35.75C32.002 35.3369 31.665 35 31.252 35ZM35.752 35C35.3389 35 35.002 35.3369 35.002 35.75C35.002 36.1631 35.3389 36.5 35.752 36.5C36.165 36.5 36.502 36.1631 36.502 35.75C36.502 35.3369 36.165 35 35.752 35ZM20.002 37.25C19.5889 37.25 19.252 37.5869 19.252 38C19.252 38.4131 19.5889 38.75 20.002 38.75C20.415 38.75 20.752 38.4131 20.752 38C20.752 37.5869 20.415 37.25 20.002 37.25ZM24.502 37.25C24.0889 37.25 23.752 37.5869 23.752 38C23.752 38.4131 24.0889 38.75 24.502 38.75C24.915 38.75 25.252 38.4131 25.252 38C25.252 37.5869 24.915 37.25 24.502 37.25ZM29.002 37.25C28.5889 37.25 28.252 37.5869 28.252 38C28.252 38.4131 28.5889 38.75 29.002 38.75C29.415 38.75 29.752 38.4131 29.752 38C29.752 37.5869 29.415 37.25 29.002 37.25ZM33.502 37.25C33.0889 37.25 32.752 37.5869 32.752 38C32.752 38.4131 33.0889 38.75 33.502 38.75C33.915 38.75 34.252 38.4131 34.252 38C34.252 37.5869 33.915 37.25 33.502 37.25ZM38.002 37.25C37.5889 37.25 37.252 37.5869 37.252 38C37.252 38.4131 37.5889 38.75 38.002 38.75C38.415 38.75 38.752 38.4131 38.752 38C38.752 37.5869 38.415 37.25 38.002 37.25ZM17.752 39.5C17.3389 39.5 17.002 39.8369 17.002 40.25C17.002 40.6631 17.3389 41 17.752 41C18.165 41 18.502 40.6631 18.502 40.25C18.502 39.8369 18.165 39.5 17.752 39.5ZM22.252 39.5C21.8389 39.5 21.502 39.8369 21.502 40.25C21.502 40.6631 21.8389 41 22.252 41C22.665 41 23.002 40.6631 23.002 40.25C23.002 39.8369 22.665 39.5 22.252 39.5ZM26.752 39.5C26.3389 39.5 26.002 39.8369 26.002 40.25C26.002 40.6631 26.3389 41 26.752 41C27.165 41 27.502 40.6631 27.502 40.25C27.502 39.8369 27.165 39.5 26.752 39.5ZM31.252 39.5C30.8389 39.5 30.502 39.8369 30.502 40.25C30.502 40.6631 30.8389 41 31.252 41C31.665 41 32.002 40.6631 32.002 40.25C32.002 39.8369 31.665 39.5 31.252 39.5ZM35.752 39.5C35.3389 39.5 35.002 39.8369 35.002 40.25C35.002 40.6631 35.3389 41 35.752 41C36.165 41 36.502 40.6631 36.502 40.25C36.502 39.8369 36.165 39.5 35.752 39.5ZM40.252 39.5C39.8389 39.5 39.502 39.8369 39.502 40.25C39.502 40.6631 39.8389 41 40.252 41C40.665 41 41.002 40.6631 41.002 40.25C41.002 39.8369 40.665 39.5 40.252 39.5ZM20.002 41.75C19.5889 41.75 19.252 42.0869 19.252 42.5C19.252 42.9131 19.5889 43.25 20.002 43.25C20.415 43.25 20.752 42.9131 20.752 42.5C20.752 42.0869 20.415 41.75 20.002 41.75ZM24.502 41.75C24.0889 41.75 23.752 42.0869 23.752 42.5C23.752 42.9131 24.0889 43.25 24.502 43.25C24.915 43.25 25.252 42.9131 25.252 42.5C25.252 42.0869 24.915 41.75 24.502 41.75ZM29.002 41.75C28.5889 41.75 28.252 42.0869 28.252 42.5C28.252 42.9131 28.5889 43.25 29.002 43.25C29.415 43.25 29.752 42.9131 29.752 42.5C29.752 42.0869 29.415 41.75 29.002 41.75ZM33.502 41.75C33.0889 41.75 32.752 42.0869 32.752 42.5C32.752 42.9131 33.0889 43.25 33.502 43.25C33.915 43.25 34.252 42.9131 34.252 42.5C34.252 42.0869 33.915 41.75 33.502 41.75ZM38.002 41.75C37.5889 41.75 37.252 42.0869 37.252 42.5C37.252 42.9131 37.5889 43.25 38.002 43.25C38.415 43.25 38.752 42.9131 38.752 42.5C38.752 42.0869 38.415 41.75 38.002 41.75ZM17.752 44C17.3389 44 17.002 44.3369 17.002 44.75C17.002 45.1631 17.3389 45.5 17.752 45.5C18.165 45.5 18.502 45.1631 18.502 44.75C18.502 44.3369 18.165 44 17.752 44ZM22.252 44C21.8389 44 21.502 44.3369 21.502 44.75C21.502 45.1631 21.8389 45.5 22.252 45.5C22.665 45.5 23.002 45.1631 23.002 44.75C23.002 44.3369 22.665 44 22.252 44ZM35.752 44C35.3389 44 35.002 44.3369 35.002 44.75C35.002 45.1631 35.3389 45.5 35.752 45.5C36.165 45.5 36.502 45.1631 36.502 44.75C36.502 44.3369 36.165 44 35.752 44ZM40.252 44C39.8389 44 39.502 44.3369 39.502 44.75C39.502 45.1631 39.8389 45.5 40.252 45.5C40.665 45.5 41.002 45.1631 41.002 44.75C41.002 44.3369 40.665 44 40.252 44ZM15.502 46.25C15.0889 46.25 14.752 46.5869 14.752 47C14.752 47.4131 15.0889 47.75 15.502 47.75C15.915 47.75 16.252 47.4131 16.252 47C16.252 46.5869 15.915 46.25 15.502 46.25ZM20.002 46.25C19.5889 46.25 19.252 46.5869 19.252 47C19.252 47.4131 19.5889 47.75 20.002 47.75C20.415 47.75 20.752 47.4131 20.752 47C20.752 46.5869 20.415 46.25 20.002 46.25ZM38.002 46.25C37.5889 46.25 37.252 46.5869 37.252 47C37.252 47.4131 37.5889 47.75 38.002 47.75C38.415 47.75 38.752 47.4131 38.752 47C38.752 46.5869 38.415 46.25 38.002 46.25ZM42.502 46.25C42.0889 46.25 41.752 46.5869 41.752 47C41.752 47.4131 42.0889 47.75 42.502 47.75C42.915 47.75 43.252 47.4131 43.252 47C43.252 46.5869 42.915 46.25 42.502 46.25Z" fill="white"/>
</svg>
