<svg width="84" height="94" viewBox="0 0 84 94" fill="none" xmlns="http://www.w3.org/2000/svg">
<path d="M9 0.5V3.5H0V90.5H9V93.5H84V22.3789L62.1211 0.5H9ZM12 3.5H60V24.5H81V90.5H12V3.5ZM63 5.6211L78.8789 21.5H63V5.6211ZM3 6.5H9V87.5H3V6.5ZM19.5 6.5C18.6738 6.5 18 7.17383 18 8C18 8.82617 18.6738 9.5 19.5 9.5C20.3262 9.5 21 8.82617 21 8C21 7.17383 20.3262 6.5 19.5 6.5ZM19.5 12.5C18.6738 12.5 18 13.1738 18 14C18 14.8262 18.6738 15.5 19.5 15.5C20.3262 15.5 21 14.8262 21 14C21 13.1738 20.3262 12.5 19.5 12.5ZM19.5 18.5C18.6738 18.5 18 19.1738 18 20C18 20.8262 18.6738 21.5 19.5 21.5C20.3262 21.5 21 20.8262 21 20C21 19.1738 20.3262 18.5 19.5 18.5ZM19.5 24.5C18.6738 24.5 18 25.1738 18 26C18 26.8262 18.6738 27.5 19.5 27.5C20.3262 27.5 21 26.8262 21 26C21 25.1738 20.3262 24.5 19.5 24.5ZM19.5 30.5C18.6738 30.5 18 31.1738 18 32C18 32.8262 18.6738 33.5 19.5 33.5C20.3262 33.5 21 32.8262 21 32C21 31.1738 20.3262 30.5 19.5 30.5ZM19.5 36.5C18.6738 36.5 18 37.1738 18 38C18 38.8262 18.6738 39.5 19.5 39.5C20.3262 39.5 21 38.8262 21 38C21 37.1738 20.3262 36.5 19.5 36.5ZM28.5 38V41H69V38H28.5ZM19.5 42.5C18.6738 42.5 18 43.1738 18 44C18 44.8262 18.6738 45.5 19.5 45.5C20.3262 45.5 21 44.8262 21 44C21 43.1738 20.3262 42.5 19.5 42.5ZM28.5 47V50H63V47H28.5ZM19.5 48.5C18.6738 48.5 18 49.1738 18 50C18 50.8262 18.6738 51.5 19.5 51.5C20.3262 51.5 21 50.8262 21 50C21 49.1738 20.3262 48.5 19.5 48.5ZM19.5 54.5C18.6738 54.5 18 55.1738 18 56C18 56.8262 18.6738 57.5 19.5 57.5C20.3262 57.5 21 56.8262 21 56C21 55.1738 20.3262 54.5 19.5 54.5ZM28.5 56V59H69V56H28.5ZM19.5 60.5C18.6738 60.5 18 61.1738 18 62C18 62.8262 18.6738 63.5 19.5 63.5C20.3262 63.5 21 62.8262 21 62C21 61.1738 20.3262 60.5 19.5 60.5ZM28.5 65V68H63V65H28.5ZM19.5 66.5C18.6738 66.5 18 67.1738 18 68C18 68.8262 18.6738 69.5 19.5 69.5C20.3262 69.5 21 68.8262 21 68C21 67.1738 20.3262 66.5 19.5 66.5ZM19.5 72.5C18.6738 72.5 18 73.1738 18 74C18 74.8262 18.6738 75.5 19.5 75.5C20.3262 75.5 21 74.8262 21 74C21 73.1738 20.3262 72.5 19.5 72.5ZM19.5 78.5C18.6738 78.5 18 79.1738 18 80C18 80.8262 18.6738 81.5 19.5 81.5C20.3262 81.5 21 80.8262 21 80C21 79.1738 20.3262 78.5 19.5 78.5ZM19.5 84.5C18.6738 84.5 18 85.1738 18 86C18 86.8262 18.6738 87.5 19.5 87.5C20.3262 87.5 21 86.8262 21 86C21 85.1738 20.3262 84.5 19.5 84.5Z" fill="white"/>
</svg>
