<svg width="98" height="94" viewBox="0 0 98 94" fill="none" xmlns="http://www.w3.org/2000/svg">
<path d="M37.0898 0.5C23.1152 0.5 11.3086 15.4414 10.8164 16.0801L9.51562 17.7734L11.5547 18.4297C11.7129 18.4824 15.4102 19.7422 15.4102 25.625C15.4102 29.8555 16.043 33.2129 16.3652 34.6484C15.5332 35.4102 15 36.4941 15 37.7012C15 38.5391 15.3223 39.6113 15.627 40.6484C15.75 41.0645 15.9199 41.6387 15.9375 41.75C15.9375 43.7305 17.5254 45.3594 19.5234 45.4941C19.7988 51.3008 22.6289 56.498 27 59.9082V65.375C24.8379 66.0312 19.6465 67.707 14.3613 70.2031C10.9102 71.832 7.44141 73.7949 4.74023 76.1211C2.03906 78.4473 0 81.2305 0 84.5V93.5H78V84.5C78 81.2305 75.9609 78.4473 73.2598 76.1211C70.5586 73.7949 67.0898 71.832 63.6387 70.2031C58.3535 67.707 53.1621 66.0312 51 65.375V59.9082C55.3711 56.498 58.2012 51.3008 58.4766 45.4941C60.4805 45.3594 62.0625 43.7363 62.0625 41.8145C62.0801 41.6504 62.2207 41.1758 62.3379 40.7715C61.3359 40.5664 60.3867 40.209 59.5137 39.7344C59.5078 39.752 59.502 39.7754 59.4961 39.793C59.209 40.7598 59.0625 41.2871 59.0625 41.75C59.0625 42.166 58.6816 42.5 58.2188 42.5H55.5V44.5566C55.5 52.5547 49.7871 59.375 41.9121 60.7812L41.4844 60.8574L41.1621 61.1504C39.9551 62.2461 38.0449 62.2461 36.832 61.1504L36.5156 60.8574L36.0879 60.7812C28.2188 59.375 22.5 52.5488 22.5 44.5508V42.5H19.7812C19.3125 42.5 18.9375 42.166 18.9375 41.75C18.9375 41.2812 18.791 40.7598 18.5039 39.793C18.3164 39.1602 18 38.0996 18 37.7012C18 37.1035 18.4805 36.6055 19.1074 36.5176C19.2773 36.5938 19.6113 36.7695 20.2441 37.1328L22.5 38.457V33.5762C22.5 26.1934 30.4453 23 34.5 23C42.9844 23 47.9121 20.082 49.7344 18.7344C50.7656 19.2617 52.6641 20.4863 54 22.8477V18.0957C52.582 16.7715 51.0879 15.957 49.9746 15.582L49.125 15.3008L48.4688 15.916C48.4277 15.9512 43.9922 20 34.5 20C29.2793 20 19.5469 23.9668 19.5 33.5059C19.4355 33.5 19.3711 33.5 19.3125 33.5C19.2715 33.5 19.2363 33.5117 19.1953 33.5117C18.8906 32.0234 18.4102 29.1465 18.4102 25.6309C18.4102 20.4219 16.0957 17.7969 14.3438 16.5547C17.543 12.957 26.9121 3.5 37.0898 3.5C45.4102 3.5 48.0527 8.46289 48.1582 8.66211L48.5684 9.5H49.5C50.8828 9.5 52.7285 9.86328 54.4922 10.8359C54.7969 9.86914 55.2363 8.9668 55.7871 8.14648C53.9824 7.17383 52.0723 6.6582 50.3555 6.5293C49.1074 4.71875 45.3223 0.5 37.0898 0.5ZM64.5 8C61.2012 8 58.5 10.7012 58.5 14V30.5C58.5 33.7988 61.2012 36.5 64.5 36.5H66V44.1055L73.6055 36.5H91.5C94.7988 36.5 97.5 33.7988 97.5 30.5V14C97.5 10.7012 94.7988 8 91.5 8H64.5ZM64.5 11H91.5C93.1758 11 94.5 12.3242 94.5 14V30.5C94.5 32.1758 93.1758 33.5 91.5 33.5H72.3633L69 36.8633V33.5H64.5C62.8242 33.5 61.5 32.1758 61.5 30.5V14C61.5 12.3242 62.8242 11 64.5 11ZM72 21.5C71.1738 21.5 70.5 22.1738 70.5 23C70.5 23.8262 71.1738 24.5 72 24.5C72.8262 24.5 73.5 23.8262 73.5 23C73.5 22.1738 72.8262 21.5 72 21.5ZM78 21.5C77.1738 21.5 76.5 22.1738 76.5 23C76.5 23.8262 77.1738 24.5 78 24.5C78.8262 24.5 79.5 23.8262 79.5 23C79.5 22.1738 78.8262 21.5 78 21.5ZM84 21.5C83.1738 21.5 82.5 22.1738 82.5 23C82.5 23.8262 83.1738 24.5 84 24.5C84.8262 24.5 85.5 23.8262 85.5 23C85.5 22.1738 84.8262 21.5 84 21.5ZM30.75 36.5C29.5078 36.5 28.5 37.5078 28.5 38.75C28.5 39.9922 29.5078 41 30.75 41C31.9922 41 33 39.9922 33 38.75C33 37.5078 31.9922 36.5 30.75 36.5ZM47.25 36.5C46.0078 36.5 45 37.5078 45 38.75C45 39.9922 46.0078 41 47.25 41C48.4922 41 49.5 39.9922 49.5 38.75C49.5 37.5078 48.4922 36.5 47.25 36.5ZM30 61.8301C31.5938 62.6562 33.3223 63.2891 35.1562 63.6582C36.2578 64.5254 37.6055 65 39 65C40.3945 65 41.7422 64.5254 42.8438 63.6582C44.6777 63.2891 46.4062 62.6562 48 61.8301V70.5312C47.8184 70.8945 45.4453 75.5 39 75.5C32.5547 75.5 30.1816 70.8945 30 70.5312V61.8301ZM27 68.5332V71.3516L27.1582 71.6738C27.1582 71.6738 30.6973 78.5 39 78.5C47.3027 78.5 50.8418 71.6738 50.8418 71.6738L51 71.3516V68.5332C53.4082 69.2891 57.8203 70.7773 62.3613 72.9219C65.6602 74.4805 68.9414 76.3613 71.3027 78.3945C73.6641 80.4277 75 82.5195 75 84.5V90.5H3V84.5C3 82.5195 4.33594 80.4277 6.69727 78.3945C9.05859 76.3613 12.3398 74.4805 15.6387 72.9219C20.1797 70.7773 24.5918 69.2891 27 68.5332ZM9 84.5C8.17383 84.5 7.5 85.1738 7.5 86C7.5 86.8262 8.17383 87.5 9 87.5C9.82617 87.5 10.5 86.8262 10.5 86C10.5 85.1738 9.82617 84.5 9 84.5ZM15 84.5C14.1738 84.5 13.5 85.1738 13.5 86C13.5 86.8262 14.1738 87.5 15 87.5C15.8262 87.5 16.5 86.8262 16.5 86C16.5 85.1738 15.8262 84.5 15 84.5ZM21 84.5C20.1738 84.5 19.5 85.1738 19.5 86C19.5 86.8262 20.1738 87.5 21 87.5C21.8262 87.5 22.5 86.8262 22.5 86C22.5 85.1738 21.8262 84.5 21 84.5ZM27 84.5C26.1738 84.5 25.5 85.1738 25.5 86C25.5 86.8262 26.1738 87.5 27 87.5C27.8262 87.5 28.5 86.8262 28.5 86C28.5 85.1738 27.8262 84.5 27 84.5ZM33 84.5C32.1738 84.5 31.5 85.1738 31.5 86C31.5 86.8262 32.1738 87.5 33 87.5C33.8262 87.5 34.5 86.8262 34.5 86C34.5 85.1738 33.8262 84.5 33 84.5ZM39 84.5C38.1738 84.5 37.5 85.1738 37.5 86C37.5 86.8262 38.1738 87.5 39 87.5C39.8262 87.5 40.5 86.8262 40.5 86C40.5 85.1738 39.8262 84.5 39 84.5ZM45 84.5C44.1738 84.5 43.5 85.1738 43.5 86C43.5 86.8262 44.1738 87.5 45 87.5C45.8262 87.5 46.5 86.8262 46.5 86C46.5 85.1738 45.8262 84.5 45 84.5ZM51 84.5C50.1738 84.5 49.5 85.1738 49.5 86C49.5 86.8262 50.1738 87.5 51 87.5C51.8262 87.5 52.5 86.8262 52.5 86C52.5 85.1738 51.8262 84.5 51 84.5ZM57 84.5C56.1738 84.5 55.5 85.1738 55.5 86C55.5 86.8262 56.1738 87.5 57 87.5C57.8262 87.5 58.5 86.8262 58.5 86C58.5 85.1738 57.8262 84.5 57 84.5ZM63 84.5C62.1738 84.5 61.5 85.1738 61.5 86C61.5 86.8262 62.1738 87.5 63 87.5C63.8262 87.5 64.5 86.8262 64.5 86C64.5 85.1738 63.8262 84.5 63 84.5ZM69 84.5C68.1738 84.5 67.5 85.1738 67.5 86C67.5 86.8262 68.1738 87.5 69 87.5C69.8262 87.5 70.5 86.8262 70.5 86C70.5 85.1738 69.8262 84.5 69 84.5Z" fill="white"/>
</svg>
