<svg width="63" height="66" viewBox="0 0 63 66" fill="none" xmlns="http://www.w3.org/2000/svg">
<path d="M43.293 0.222656L35.5156 8L43.293 15.7773L44.707 14.3633L39.3438 9H53C56.8789 9 60 12.1211 60 16V22C59.9961 22.3594 60.1836 22.6953 60.4961 22.8789C60.8086 23.0586 61.1914 23.0586 61.5039 22.8789C61.8164 22.6953 62.0039 22.3594 62 22V16C62 11.043 57.957 7 53 7H39.3438L44.707 1.63672L43.293 0.222656ZM13.1641 3.00781C11.4805 3.00781 9.80078 3.64453 8.52344 4.92188L6.22266 7.22266C5.43359 8.01172 4.84766 9.17969 4.25391 10.5625C3.66406 11.9453 3.11328 13.5312 2.63672 15.0352C1.68359 18.0508 1.02734 20.7656 1.02734 20.7656L0.957031 21.0625L1.0625 21.3477C1.0625 21.3477 6.35156 35.6367 18.3594 47.6406C30.3633 59.6484 44.6523 64.9375 44.6523 64.9375L44.9375 65.043L45.2344 64.9727C45.2344 64.9727 47.9492 64.3164 50.9648 63.3633C52.4688 62.8867 54.0547 62.3359 55.4375 61.7461C56.8203 61.1523 57.9883 60.5664 58.7773 59.7773L61.0781 57.4805C63.6328 54.9219 63.6328 50.75 61.0781 48.1953L53.8125 40.9297C51.4766 38.5938 47.6602 38.5938 45.3281 40.9297L37.5898 48.668C36.6953 48.2422 30.668 45.3242 25.6719 40.3281C20.6797 35.332 17.7578 29.3047 17.332 28.4102L25.0703 20.6719C27.4062 18.3398 27.4062 14.5234 25.0703 12.1875L17.8047 4.92188C16.5273 3.64453 14.8477 3.00781 13.1641 3.00781ZM13.1641 4.99609C14.3281 4.99609 15.4961 5.44141 16.3906 6.33984L23.6562 13.6055C25.2266 15.1758 25.2266 17.6875 23.6562 19.2617L14.8984 28.0156L15.1875 28.6523C15.1875 28.6523 18.5508 36.0352 24.2617 41.7422C29.9688 47.4492 37.3516 50.8125 37.3516 50.8125L37.9844 51.1016L46.7383 42.3438C48.3125 40.7734 50.8281 40.7734 52.3984 42.3438L59.6641 49.6094C61.3438 51.2891 61.4258 53.9102 59.9531 55.707C59.8281 55.2891 59.4414 55 59 55C58.4492 55 58 55.4492 58 56C58 56.457 58.3125 56.8594 58.7578 56.9688L57.3633 58.3633C56.9844 58.7422 55.9375 59.3555 54.6523 59.9062C53.3633 60.457 51.8281 60.9922 50.3594 61.457C47.5781 62.3359 45.3281 62.8789 45.0625 62.9414C44.2656 62.6406 31.0742 57.5312 19.7695 46.2305C8.46875 34.9258 3.35937 21.7344 3.05859 20.9375C3.12109 20.6719 3.66406 18.4219 4.54297 15.6406C5.00781 14.1719 5.54297 12.6367 6.09375 11.3477C6.64453 10.0625 7.25781 9.01562 7.63672 8.63672L9.03125 7.24609C9.14453 7.6875 9.54297 8 10 8C10.5508 8 11 7.55078 11 7C11 6.5625 10.7148 6.17578 10.2969 6.04688C11.1328 5.35938 12.1445 4.99609 13.1641 4.99609ZM13 9C12.4492 9 12 9.44922 12 10C12 10.5508 12.4492 11 13 11C13.5508 11 14 10.5508 14 10C14 9.44922 13.5508 9 13 9ZM16 12C15.4492 12 15 12.4492 15 13C15 13.5508 15.4492 14 16 14C16.5508 14 17 13.5508 17 13C17 12.4492 16.5508 12 16 12ZM19 15C18.4492 15 18 15.4492 18 16C18 16.5508 18.4492 17 19 17C19.5508 17 20 16.5508 20 16C20 15.4492 19.5508 15 19 15ZM22 18C21.4492 18 21 18.4492 21 19C21 19.5508 21.4492 20 22 20C22.5508 20 23 19.5508 23 19C23 18.4492 22.5508 18 22 18ZM61 25C60.4492 25 60 25.4492 60 26C60 26.5508 60.4492 27 61 27C61.5508 27 62 26.5508 62 26C62 25.4492 61.5508 25 61 25ZM61 29C60.4492 29 60 29.4492 60 30C60 30.5508 60.4492 31 61 31C61.5508 31 62 30.5508 62 30C62 29.4492 61.5508 29 61 29ZM61 33C60.4492 33 60 33.4492 60 34C60 34.5508 60.4492 35 61 35C61.5508 35 62 34.5508 62 34C62 33.4492 61.5508 33 61 33ZM47 43C46.4492 43 46 43.4492 46 44C46 44.5508 46.4492 45 47 45C47.5508 45 48 44.5508 48 44C48 43.4492 47.5508 43 47 43ZM50 46C49.4492 46 49 46.4492 49 47C49 47.5508 49.4492 48 50 48C50.5508 48 51 47.5508 51 47C51 46.4492 50.5508 46 50 46ZM53 49C52.4492 49 52 49.4492 52 50C52 50.5508 52.4492 51 53 51C53.5508 51 54 50.5508 54 50C54 49.4492 53.5508 49 53 49ZM56 52C55.4492 52 55 52.4492 55 53C55 53.5508 55.4492 54 56 54C56.5508 54 57 53.5508 57 53C57 52.4492 56.5508 52 56 52Z" fill="white"/>
</svg>
