<svg width="65" height="62" viewBox="0 0 65 62" fill="none" xmlns="http://www.w3.org/2000/svg">
<path d="M24.7266 0C15.4102 0 7.53906 9.96094 7.21094 10.3867L6.34375 11.5156L7.70312 11.9531C7.80859 11.9883 10.2734 12.8281 10.2734 16.75C10.2734 19.5703 10.6953 21.8086 10.9102 22.7656C10.3555 23.2734 10 23.9961 10 24.8008C10 25.3594 10.2148 26.0742 10.418 26.7656C10.5 27.043 10.6133 27.4258 10.625 27.5C10.625 28.8203 11.6836 29.9062 13.0156 29.9961C13.1992 33.8672 15.0859 37.332 18 39.6055V43.25C16.5586 43.6875 13.0977 44.8047 9.57422 46.4688C7.27344 47.5547 4.96094 48.8633 3.16016 50.4141C1.35938 51.9648 0 53.8203 0 56V62H52V56C52 53.8203 50.6406 51.9648 48.8398 50.4141C47.0391 48.8633 44.7266 47.5547 42.4258 46.4688C38.9023 44.8047 35.4414 43.6875 34 43.25V39.6055C36.9141 37.332 38.8008 33.8672 38.9844 29.9961C40.3203 29.9062 41.375 28.8242 41.375 27.543C41.3867 27.4336 41.4805 27.1172 41.5586 26.8477C40.8906 26.7109 40.2578 26.4727 39.6758 26.1562C39.6719 26.168 39.668 26.1836 39.6641 26.1953C39.4727 26.8398 39.375 27.1914 39.375 27.5C39.375 27.7773 39.1211 28 38.8125 28H37V29.3711C37 34.7031 33.1914 39.25 27.9414 40.1875L27.6562 40.2383L27.4414 40.4336C26.6367 41.1641 25.3633 41.1641 24.5547 40.4336L24.3438 40.2383L24.0586 40.1875C18.8125 39.25 15 34.6992 15 29.3672V28H13.1875C12.875 28 12.625 27.7773 12.625 27.5C12.625 27.1875 12.5273 26.8398 12.3359 26.1953C12.2109 25.7734 12 25.0664 12 24.8008C12 24.4023 12.3203 24.0703 12.7383 24.0117C12.8516 24.0625 13.0742 24.1797 13.4961 24.4219L15 25.3047V22.0508C15 17.1289 20.2969 15 23 15C28.6562 15 31.9414 13.0547 33.1562 12.1562C33.8438 12.5078 35.1094 13.3242 36 14.8984V11.7305C35.0547 10.8477 34.0586 10.3047 33.3164 10.0547L32.75 9.86719L32.3125 10.2773C32.2852 10.3008 29.3281 13 23 13C19.5195 13 13.0312 15.6445 13 22.0039C12.957 22 12.9141 22 12.875 22C12.8477 22 12.8242 22.0078 12.7969 22.0078C12.5938 21.0156 12.2734 19.0977 12.2734 16.7539C12.2734 13.2812 10.7305 11.5312 9.5625 10.7031C11.6953 8.30469 17.9414 2 24.7266 2C30.2734 2 32.0352 5.30859 32.1055 5.44141L32.3789 6H33C33.9219 6 35.1523 6.24219 36.3281 6.89062C36.5312 6.24609 36.8242 5.64453 37.1914 5.09766C35.9883 4.44922 34.7148 4.10547 33.5703 4.01953C32.7383 2.8125 30.2148 0 24.7266 0ZM43 5C40.8008 5 39 6.80078 39 9V20C39 22.1992 40.8008 24 43 24H44V29.0703L49.0703 24H61C63.1992 24 65 22.1992 65 20V9C65 6.80078 63.1992 5 61 5H43ZM43 7H61C62.1172 7 63 7.88281 63 9V20C63 21.1172 62.1172 22 61 22H48.2422L46 24.2422V22H43C41.8828 22 41 21.1172 41 20V9C41 7.88281 41.8828 7 43 7ZM48 14C47.4492 14 47 14.4492 47 15C47 15.5508 47.4492 16 48 16C48.5508 16 49 15.5508 49 15C49 14.4492 48.5508 14 48 14ZM52 14C51.4492 14 51 14.4492 51 15C51 15.5508 51.4492 16 52 16C52.5508 16 53 15.5508 53 15C53 14.4492 52.5508 14 52 14ZM56 14C55.4492 14 55 14.4492 55 15C55 15.5508 55.4492 16 56 16C56.5508 16 57 15.5508 57 15C57 14.4492 56.5508 14 56 14ZM20.5 24C19.6719 24 19 24.6719 19 25.5C19 26.3281 19.6719 27 20.5 27C21.3281 27 22 26.3281 22 25.5C22 24.6719 21.3281 24 20.5 24ZM31.5 24C30.6719 24 30 24.6719 30 25.5C30 26.3281 30.6719 27 31.5 27C32.3281 27 33 26.3281 33 25.5C33 24.6719 32.3281 24 31.5 24ZM20 40.8867C21.0625 41.4375 22.2148 41.8594 23.4375 42.1055C24.1719 42.6836 25.0703 43 26 43C26.9297 43 27.8281 42.6836 28.5625 42.1055C29.7852 41.8594 30.9375 41.4375 32 40.8867V46.6875C31.8789 46.9297 30.2969 50 26 50C21.7031 50 20.1211 46.9297 20 46.6875V40.8867ZM18 45.3555V47.2344L18.1055 47.4492C18.1055 47.4492 20.4648 52 26 52C31.5352 52 33.8945 47.4492 33.8945 47.4492L34 47.2344V45.3555C35.6055 45.8594 38.5469 46.8516 41.5742 48.2812C43.7734 49.3203 45.9609 50.5742 47.5352 51.9297C49.1094 53.2852 50 54.6797 50 56V60H2V56C2 54.6797 2.89062 53.2852 4.46484 51.9297C6.03906 50.5742 8.22656 49.3203 10.4258 48.2812C13.4531 46.8516 16.3945 45.8594 18 45.3555ZM6 56C5.44922 56 5 56.4492 5 57C5 57.5508 5.44922 58 6 58C6.55078 58 7 57.5508 7 57C7 56.4492 6.55078 56 6 56ZM10 56C9.44922 56 9 56.4492 9 57C9 57.5508 9.44922 58 10 58C10.5508 58 11 57.5508 11 57C11 56.4492 10.5508 56 10 56ZM14 56C13.4492 56 13 56.4492 13 57C13 57.5508 13.4492 58 14 58C14.5508 58 15 57.5508 15 57C15 56.4492 14.5508 56 14 56ZM18 56C17.4492 56 17 56.4492 17 57C17 57.5508 17.4492 58 18 58C18.5508 58 19 57.5508 19 57C19 56.4492 18.5508 56 18 56ZM22 56C21.4492 56 21 56.4492 21 57C21 57.5508 21.4492 58 22 58C22.5508 58 23 57.5508 23 57C23 56.4492 22.5508 56 22 56ZM26 56C25.4492 56 25 56.4492 25 57C25 57.5508 25.4492 58 26 58C26.5508 58 27 57.5508 27 57C27 56.4492 26.5508 56 26 56ZM30 56C29.4492 56 29 56.4492 29 57C29 57.5508 29.4492 58 30 58C30.5508 58 31 57.5508 31 57C31 56.4492 30.5508 56 30 56ZM34 56C33.4492 56 33 56.4492 33 57C33 57.5508 33.4492 58 34 58C34.5508 58 35 57.5508 35 57C35 56.4492 34.5508 56 34 56ZM38 56C37.4492 56 37 56.4492 37 57C37 57.5508 37.4492 58 38 58C38.5508 58 39 57.5508 39 57C39 56.4492 38.5508 56 38 56ZM42 56C41.4492 56 41 56.4492 41 57C41 57.5508 41.4492 58 42 58C42.5508 58 43 57.5508 43 57C43 56.4492 42.5508 56 42 56ZM46 56C45.4492 56 45 56.4492 45 57C45 57.5508 45.4492 58 46 58C46.5508 58 47 57.5508 47 57C47 56.4492 46.5508 56 46 56Z" fill="white"/>
</svg>
