<svg width="97" height="96" viewBox="0 0 97 96" fill="none" xmlns="http://www.w3.org/2000/svg">
<path d="M55.502 0C53.8556 0 52.3438 0.673828 51.2599 1.75781L33.2599 19.7578C32.1759 20.8418 31.502 22.3535 31.502 24C31.502 27.2988 34.2032 30 37.502 30C38.6036 30 39.5821 29.6191 40.4786 29.0918L50.2755 38.8945L2.32235 83.4141C-0.677645 86.2031 -0.771396 90.9785 2.129 93.873C5.02353 96.7676 9.79892 96.6797 12.588 93.6797L57.1134 45.7266L66.9044 55.5234C66.3829 56.4199 66.002 57.3984 66.002 58.5C66.002 61.7988 68.7032 64.5 72.002 64.5C73.6485 64.5 75.1602 63.8262 76.2442 62.7422L94.2442 44.7422C95.3282 43.6582 96.002 42.1465 96.002 40.5C96.002 37.2012 93.3009 34.5 90.002 34.5C88.9005 34.5 87.922 34.8809 87.0255 35.4082L60.5938 8.97656C61.1212 8.08008 61.502 7.10156 61.502 6C61.502 2.70117 58.8009 0 55.502 0ZM55.502 3C57.1778 3 58.502 4.32422 58.502 6C58.502 6.83789 58.1681 7.57617 57.6231 8.1211L56.7208 9.02344C56.0118 9.16406 55.502 9.7793 55.502 10.5C55.502 11.3262 56.1759 12 57.002 12C57.629 12 58.1856 11.6133 58.4083 11.0215L84.9806 37.5938C84.3888 37.8164 84.002 38.373 84.002 39C84.002 39.8262 84.6759 40.5 85.502 40.5C86.2169 40.5 86.838 39.9902 86.9727 39.2871L87.881 38.3789C88.4259 37.834 89.1642 37.5 90.002 37.5C91.6778 37.5 93.002 38.8242 93.002 40.5C93.002 41.3379 92.6681 42.0762 92.1231 42.6211L74.1231 60.6211C73.5782 61.166 72.8399 61.5 72.002 61.5C70.3263 61.5 69.002 60.1758 69.002 58.5C69.002 57.6621 69.336 56.9238 69.881 56.373L70.7833 55.4766C71.4864 55.3418 72.002 54.7207 72.002 54C72.002 53.1738 71.3282 52.5 70.502 52.5C69.8751 52.5 69.3185 52.8867 69.0958 53.4785L59.1524 43.5293L52.4727 36.8496L42.5235 26.9062C43.1153 26.6836 43.502 26.127 43.502 25.5C43.502 24.6738 42.8282 24 42.002 24C41.2872 24 40.6661 24.5098 40.5313 25.2129L39.6231 26.1211C39.0782 26.666 38.3399 27 37.502 27C35.8263 27 34.502 25.6758 34.502 24C34.502 23.1621 34.836 22.4238 35.381 21.8789L53.381 3.87891C53.9259 3.33398 54.6642 3 55.502 3ZM54.002 12C53.1759 12 52.502 12.6738 52.502 13.5C52.502 14.3262 53.1759 15 54.002 15C54.8282 15 55.502 14.3262 55.502 13.5C55.502 12.6738 54.8282 12 54.002 12ZM51.002 15C50.1759 15 49.502 15.6738 49.502 16.5C49.502 17.3262 50.1759 18 51.002 18C51.8282 18 52.502 17.3262 52.502 16.5C52.502 15.6738 51.8282 15 51.002 15ZM48.002 18C47.1759 18 46.502 18.6738 46.502 19.5C46.502 20.3262 47.1759 21 48.002 21C48.8282 21 49.502 20.3262 49.502 19.5C49.502 18.6738 48.8282 18 48.002 18ZM64.502 18C63.6759 18 63.002 18.6738 63.002 19.5C63.002 20.3262 63.6759 21 64.502 21C65.3282 21 66.002 20.3262 66.002 19.5C66.002 18.6738 65.3282 18 64.502 18ZM45.002 21C44.1759 21 43.502 21.6738 43.502 22.5C43.502 23.3262 44.1759 24 45.002 24C45.8282 24 46.502 23.3262 46.502 22.5C46.502 21.6738 45.8282 21 45.002 21ZM60.002 22.5C59.1759 22.5 58.502 23.1738 58.502 24C58.502 24.8262 59.1759 25.5 60.002 25.5C60.8282 25.5 61.502 24.8262 61.502 24C61.502 23.1738 60.8282 22.5 60.002 22.5ZM55.502 27C54.6759 27 54.002 27.6738 54.002 28.5C54.002 29.3262 54.6759 30 55.502 30C56.3282 30 57.002 29.3262 57.002 28.5C57.002 27.6738 56.3282 27 55.502 27ZM76.502 30C75.6759 30 75.002 30.6738 75.002 31.5C75.002 32.3262 75.6759 33 76.502 33C77.3282 33 78.002 32.3262 78.002 31.5C78.002 30.6738 77.3282 30 76.502 30ZM51.002 31.5C50.1759 31.5 49.502 32.1738 49.502 33C49.502 33.8262 50.1759 34.5 51.002 34.5C51.8282 34.5 52.502 33.8262 52.502 33C52.502 32.1738 51.8282 31.5 51.002 31.5ZM72.002 34.5C71.1759 34.5 70.502 35.1738 70.502 36C70.502 36.8262 71.1759 37.5 72.002 37.5C72.8282 37.5 73.502 36.8262 73.502 36C73.502 35.1738 72.8282 34.5 72.002 34.5ZM67.502 39C66.6759 39 66.002 39.6738 66.002 40.5C66.002 41.3262 66.6759 42 67.502 42C68.3282 42 69.002 41.3262 69.002 40.5C69.002 39.6738 68.3282 39 67.502 39ZM82.502 40.5C81.6759 40.5 81.002 41.1738 81.002 42C81.002 42.8262 81.6759 43.5 82.502 43.5C83.3282 43.5 84.002 42.8262 84.002 42C84.002 41.1738 83.3282 40.5 82.502 40.5ZM52.3966 41.0156L54.9864 43.6055L29.5802 70.9629C29.2989 70.6699 28.9122 70.5 28.502 70.5C27.6759 70.5 27.002 71.1738 27.002 72C27.002 72.4453 27.2013 72.873 27.547 73.1543L10.3849 91.6406C8.72665 93.4219 5.97275 93.4746 4.25009 91.752C2.52743 90.0293 2.58017 87.2754 4.36142 85.6172L22.8477 68.4551C23.1349 68.8008 23.5567 69 24.002 69C24.8282 69 25.502 68.3262 25.502 67.5C25.502 67.0898 25.3321 66.7031 25.0392 66.4219L52.3966 41.0156ZM63.002 43.5C62.1759 43.5 61.502 44.1738 61.502 45C61.502 45.8262 62.1759 46.5 63.002 46.5C63.8282 46.5 64.502 45.8262 64.502 45C64.502 44.1738 63.8282 43.5 63.002 43.5ZM79.502 43.5C78.6759 43.5 78.002 44.1738 78.002 45C78.002 45.8262 78.6759 46.5 79.502 46.5C80.3282 46.5 81.002 45.8262 81.002 45C81.002 44.1738 80.3282 43.5 79.502 43.5ZM76.502 46.5C75.6759 46.5 75.002 47.1738 75.002 48C75.002 48.8262 75.6759 49.5 76.502 49.5C77.3282 49.5 78.002 48.8262 78.002 48C78.002 47.1738 77.3282 46.5 76.502 46.5ZM73.502 49.5C72.6759 49.5 72.002 50.1738 72.002 51C72.002 51.8262 72.6759 52.5 73.502 52.5C74.3282 52.5 75.002 51.8262 75.002 51C75.002 50.1738 74.3282 49.5 73.502 49.5Z" fill="white"/>
</svg>
