<svg width="42" height="43" viewBox="0 0 42 43" fill="none" xmlns="http://www.w3.org/2000/svg">
<path d="M30.625 0.0319183C29.8438 0.0436373 28.9805 0.215512 27.9062 0.500668C24.8242 1.31317 7.09375 6.21942 7.09375 6.21942C7.0625 6.22723 7.03125 6.23895 7 6.25067C4.19141 7.30926 2.42188 8.30536 1.34375 9.75067C0.273438 11.1882 0.035156 12.9147 0.03125 14.9694C0.03125 14.9811 0.03125 14.9889 0.03125 15.0007V15.6257C0.019531 15.7507 0 15.8757 0 16.0007V37.3757C0 40.4655 2.53516 43.0007 5.625 43.0007H36.375C39.4648 43.0007 42 40.4655 42 37.3757V15.8444C42 12.6569 39.1484 10.0007 36 10.0007H6C4.87891 10.0007 3.87109 10.321 3.03125 10.8444C3.75781 9.94989 5.12891 9.10614 7.625 8.15692C7.65234 8.1452 7.66016 8.13739 7.6875 8.12567C7.80078 8.09442 25.4258 3.22332 28.4062 2.43817C29.3984 2.17645 30.1406 2.03973 30.6562 2.03192C31.1719 2.02411 31.4141 2.10223 31.5312 2.18817C31.6484 2.27411 31.7461 2.44207 31.8438 2.84442C31.9414 3.24676 32 3.86004 32 4.65692V8.00067H34V4.65692C34 3.78973 33.9453 3.05536 33.7812 2.37567C33.6172 1.69598 33.2969 1.02801 32.7188 0.594418C32.1406 0.160824 31.4062 0.0201993 30.625 0.0319183ZM6 12.0007H36C37.9492 12.0007 40 13.9382 40 15.8444V37.3757C40 39.3835 38.3828 41.0007 36.375 41.0007H5.625C3.61328 41.0007 2 39.3874 2 37.3757V17.4694L2.03125 15.8132C2.08984 15.1335 2.4375 14.1647 3.09375 13.4069C3.80859 12.5788 4.78516 12.0007 6 12.0007ZM34.5 24.0007C33.1172 24.0007 32 25.1179 32 26.5007C32 27.8835 33.1172 29.0007 34.5 29.0007C35.8789 29.0007 37 27.8835 37 26.5007C37 25.1179 35.8789 24.0007 34.5 24.0007Z" fill="white"/>
</svg>
