<svg width="66" height="62" viewBox="0 0 66 62" fill="none" xmlns="http://www.w3.org/2000/svg">
<path d="M24.7266 0C19.8867 0 15.5352 2.64844 12.3789 5.22266C9.22266 7.80078 7.21094 10.3867 7.21094 10.3867L6.30859 11.543L7.71875 11.957C7.71875 11.957 8.26562 12.1094 8.92188 12.7812C9.57422 13.4492 10.2734 14.5898 10.2734 16.75C10.2734 19.5508 10.7031 21.8125 10.918 22.7695C10.3594 23.2773 10 23.9961 10 24.8008C10 25.4492 10.1953 26.0039 10.3555 26.5469C10.4336 26.8203 10.5117 27.0742 10.5625 27.2656C10.6133 27.457 10.625 27.6445 10.625 27.5C10.625 28.8594 11.7656 29.9219 13.1094 29.9688C13.293 33.8438 15.1602 37.2656 18 39.5195V43.25C16.5586 43.6875 13.0977 44.8047 9.57422 46.4688C7.27344 47.5547 4.96094 48.8633 3.16016 50.4141C1.35938 51.9648 0 53.8203 0 56V62H52V58H66V52.5C66 50.4961 64.7539 48.8008 63.1211 47.3945C61.4883 45.9922 59.3984 44.8125 57.3281 43.832C54.2305 42.3711 51.1602 41.3672 49.8008 40.9531V37.7109C52.3359 35.6758 54.0039 32.6094 54.1875 29.1367C55.4062 29.043 56.4375 28.0977 56.4375 26.8477C56.4375 27.0039 56.4414 26.8359 56.4883 26.6641C56.5352 26.4922 56.6055 26.2656 56.6758 26.0195C56.8203 25.5312 57 25.0352 57 24.4219C57 23.6719 56.668 23.0039 56.1562 22.5312C56.2734 21.8555 57 17.7031 57 14.6992C57 11.4414 55.7773 9.08984 54.125 7.63672C52.6172 6.3125 50.8477 5.78516 49.2812 5.6875C49.082 5.34766 48.8398 4.80859 47.8164 4.01172C46.5078 2.98828 44.4023 2 41.3555 2C38.6562 2 36.1328 2.92187 33.9297 4.15234C33.8203 4.14062 33.7109 4.11328 33.6055 4.10938C33.332 3.67578 32.8477 2.99609 31.8438 2.21094C30.4023 1.08984 28.0898 0 24.7266 0ZM24.7266 2C27.6641 2 29.4883 2.91016 30.6094 3.78906C31.7344 4.66797 32.1055 5.44141 32.1055 5.44141L32.3789 6H33C34.332 6 36.125 6.50781 37.5195 7.73828C38.918 8.96875 40 10.8906 40 14C40 16.7891 39.3359 20.8594 39.1406 22C39.1367 22 39.1328 22 39.125 22C39.0391 22 39.0547 22.0195 39 22.0273V19C39 15.5781 37.6016 13.2773 36.1953 11.9141C34.7891 10.5508 33.3164 10.0508 33.3164 10.0508L32.7461 9.85938L32.3086 10.2773C32.3086 10.2773 31.6797 10.8945 30.1602 11.5898C28.6406 12.2852 26.2891 13 23 13C21.1992 13 18.8281 13.6367 16.7695 15.0742C14.7188 16.5078 13.0117 18.8516 13.0039 22.0312C12.9492 22.0234 12.9609 22 12.875 22C12.8516 22 12.8281 22.0078 12.8047 22.0078C12.6016 21.043 12.2734 19.1602 12.2734 16.75C12.2734 14.1328 11.3359 12.3945 10.3555 11.3867C9.9375 10.957 9.84375 11.0312 9.48047 10.8164C10.1719 10.0039 11.457 8.5625 13.6445 6.77734C16.6172 4.35156 20.6328 2 24.7266 2ZM41.3555 4C43.9766 4 45.5938 4.80859 46.5898 5.58984C47.582 6.36719 47.9023 7.04297 47.9023 7.04297L48.1758 7.59766H48.8008C49.9766 7.59766 51.5664 8.05078 52.8008 9.14062C54.0391 10.2266 55 11.9258 55 14.6992C55 16.9648 54.5312 20 54.2969 21.4219V19.1992C54.2969 16.0938 53.0234 13.9922 51.7461 12.75C50.4648 11.5078 49.1172 11.0508 49.1172 11.0508L48.543 10.8594L48.1055 11.2773C48.1055 11.2773 47.6406 11.7383 46.4766 12.3125C45.4766 12.8008 43.9727 13.3125 41.9805 13.5508C41.8711 10.1992 40.5781 7.76172 38.8438 6.23438C38.2188 5.6875 37.5547 5.26953 36.875 4.94922C38.3164 4.36719 39.8281 4 41.3555 4ZM33 12.1562C33.2422 12.25 33.875 12.4492 34.8047 13.3477C35.8984 14.4102 37 16.1055 37 19V25.3047L38.5039 24.4219C38.7617 24.2734 39 24.1406 39.168 24.0547C39.1875 24.043 39.1953 24.043 39.2148 24.0312C39.6719 24.0781 40 24.3984 40 24.8008C40 24.875 39.8828 25.4609 39.7305 25.9844C39.6523 26.2422 39.5742 26.5039 39.5078 26.7422C39.4414 26.9805 39.375 27.1484 39.375 27.5C39.375 27.7656 39.1562 28 38.8125 28H37V29.3672C37 34.7891 33.0898 39.2695 27.9414 40.1875L27.6562 40.2344L27.4414 40.4336C27.0508 40.7891 26.5586 41 26 41C25.4414 41 24.9492 40.7891 24.5586 40.4336L24.3438 40.2344L24.0586 40.1875C18.9102 39.2695 15 34.7891 15 29.3672V28H13.1875C12.8438 28 12.625 27.7656 12.625 27.5C12.625 27.1484 12.5586 26.9805 12.4922 26.7422C12.4258 26.5039 12.3477 26.2422 12.2695 25.9844C12.1172 25.4609 12 24.875 12 24.8008C12 24.3984 12.3281 24.0781 12.7852 24.0312C12.8047 24.043 12.8125 24.043 12.832 24.0547C13 24.1406 13.2383 24.2734 13.4961 24.4219L15 25.3047V22.0508C15 19.5586 16.2422 17.8828 17.9141 16.7148C19.5859 15.5469 21.7109 15 23 15C26.582 15 29.2305 14.2148 30.9922 13.4102C32.3008 12.8125 32.6445 12.4453 33 12.1562ZM48.8086 13.168C49.0508 13.2617 49.5547 13.4141 50.3516 14.1875C51.3203 15.125 52.2969 16.6211 52.2969 19.1992V25.0469L53.8008 24.168C54.0234 24.0391 54.2227 23.9297 54.3672 23.8555C54.7266 23.8945 55 24.1133 55 24.4219C55 24.4609 54.8945 24.9922 54.7578 25.457C54.6875 25.6914 54.6172 25.9219 54.5586 26.1406C54.5 26.3594 54.4375 26.5078 54.4375 26.8477C54.4375 27.0352 54.2891 27.1992 54.0312 27.1992H52.2969V28.5312C52.2969 33.3633 48.8125 37.3516 44.2305 38.1719L43.9414 38.2188L43.7305 38.4141C43.3984 38.7188 42.9727 38.9023 42.5 38.9023C42.0234 38.9023 41.6016 38.7188 41.2656 38.4141L41.0508 38.2188L40.7695 38.1719C39.3008 37.9062 37.9531 37.3008 36.7891 36.4609C38.0195 34.582 38.7773 32.3633 38.8906 29.9688C40.2344 29.9219 41.375 28.8594 41.375 27.5C41.375 27.6445 41.3867 27.457 41.4375 27.2656C41.4883 27.0742 41.5664 26.8203 41.6445 26.5469C41.8047 26.0039 42 25.4492 42 24.8008C42 23.9805 41.6289 23.2578 41.0586 22.7461C41.2109 21.8594 41.7695 18.5195 41.9414 15.5898C44.3203 15.3398 46.1211 14.7148 47.3594 14.1055C48.2969 13.6445 48.4883 13.4219 48.8086 13.168ZM20.5 24C19.6719 24 19 24.6719 19 25.5C19 26.3281 19.6719 27 20.5 27C21.3281 27 22 26.3281 22 25.5C22 24.6719 21.3281 24 20.5 24ZM31.5 24C30.6719 24 30 24.6719 30 25.5C30 26.3281 30.6719 27 31.5 27C32.3281 27 33 26.3281 33 25.5C33 24.6719 32.3281 24 31.5 24ZM47.5 24C46.6719 24 46 24.6719 46 25.5C46 26.3281 46.6719 27 47.5 27C48.3281 27 49 26.3281 49 25.5C49 24.6719 48.3281 24 47.5 24ZM35.5586 38.0352C36.918 39.0234 38.4883 39.7266 40.1992 40.0664C40.8398 40.5586 41.6211 40.9023 42.5 40.9023C43.3906 40.9023 44.1875 40.5508 44.8359 40.0469C45.8867 39.832 46.8789 39.4727 47.8008 39.0039V44.0898C47.6797 44.3203 46.4844 46.5547 43.375 46.9414C43.0586 46.7852 42.7422 46.6211 42.4258 46.4688C38.9023 44.8047 35.4414 43.6875 34 43.25V39.5234C34.5625 39.0742 35.0781 38.5703 35.5586 38.0352ZM20 40.8242C21.0664 41.3828 22.2188 41.8125 23.4414 42.0586C24.1484 42.6211 25.0234 43 26 43C26.9727 43 27.8438 42.6211 28.5469 42.0625C29.7734 41.8203 30.9297 41.3906 32 40.8281V46.6875C31.8789 46.9297 30.2969 50 26 50C21.7031 50 20.1211 46.9297 20 46.6875V40.8242ZM49.8008 43.0586C51.2695 43.5234 53.8281 44.3945 56.4727 45.6406C58.4492 46.5781 60.4102 47.7031 61.8164 48.9102C63.2227 50.1211 64 51.3555 64 52.5V56H52C52 55.2422 51.8242 54.5234 51.5352 53.8438C51.8242 53.6602 52 53.3438 52 53C52 52.4492 51.5508 52 51 52C50.8242 52 50.6562 52.0469 50.5039 52.1328C50.0234 51.5234 49.4609 50.9492 48.8398 50.4141C47.9531 49.6523 46.9414 48.9492 45.8711 48.3008C48.5234 47.1172 49.6953 44.8477 49.6953 44.8477L49.8008 44.6367V43.0586ZM18 45.3555V47.2344L18.1055 47.4492C18.1055 47.4492 20.4648 52 26 52C31.5352 52 33.8945 47.4492 33.8945 47.4492L34 47.2344V45.3555C35.6055 45.8594 38.5469 46.8516 41.5742 48.2812C43.7734 49.3203 45.9609 50.5742 47.5352 51.9297C49.1094 53.2852 50 54.6797 50 56V60H2V56C2 54.6797 2.89062 53.2852 4.46484 51.9297C6.03906 50.5742 8.22656 49.3203 10.4258 48.2812C13.4531 46.8516 16.3945 45.8594 18 45.3555ZM55 52C54.4492 52 54 52.4492 54 53C54 53.5508 54.4492 54 55 54C55.5508 54 56 53.5508 56 53C56 52.4492 55.5508 52 55 52ZM59 52C58.4492 52 58 52.4492 58 53C58 53.5508 58.4492 54 59 54C59.5508 54 60 53.5508 60 53C60 52.4492 59.5508 52 59 52ZM6 56C5.44922 56 5 56.4492 5 57C5 57.5508 5.44922 58 6 58C6.55078 58 7 57.5508 7 57C7 56.4492 6.55078 56 6 56ZM10 56C9.44922 56 9 56.4492 9 57C9 57.5508 9.44922 58 10 58C10.5508 58 11 57.5508 11 57C11 56.4492 10.5508 56 10 56ZM14 56C13.4492 56 13 56.4492 13 57C13 57.5508 13.4492 58 14 58C14.5508 58 15 57.5508 15 57C15 56.4492 14.5508 56 14 56ZM18 56C17.4492 56 17 56.4492 17 57C17 57.5508 17.4492 58 18 58C18.5508 58 19 57.5508 19 57C19 56.4492 18.5508 56 18 56ZM22 56C21.4492 56 21 56.4492 21 57C21 57.5508 21.4492 58 22 58C22.5508 58 23 57.5508 23 57C23 56.4492 22.5508 56 22 56ZM26 56C25.4492 56 25 56.4492 25 57C25 57.5508 25.4492 58 26 58C26.5508 58 27 57.5508 27 57C27 56.4492 26.5508 56 26 56ZM30 56C29.4492 56 29 56.4492 29 57C29 57.5508 29.4492 58 30 58C30.5508 58 31 57.5508 31 57C31 56.4492 30.5508 56 30 56ZM34 56C33.4492 56 33 56.4492 33 57C33 57.5508 33.4492 58 34 58C34.5508 58 35 57.5508 35 57C35 56.4492 34.5508 56 34 56ZM38 56C37.4492 56 37 56.4492 37 57C37 57.5508 37.4492 58 38 58C38.5508 58 39 57.5508 39 57C39 56.4492 38.5508 56 38 56ZM42 56C41.4492 56 41 56.4492 41 57C41 57.5508 41.4492 58 42 58C42.5508 58 43 57.5508 43 57C43 56.4492 42.5508 56 42 56ZM46 56C45.4492 56 45 56.4492 45 57C45 57.5508 45.4492 58 46 58C46.5508 58 47 57.5508 47 57C47 56.4492 46.5508 56 46 56Z" fill="#269944"/>
</svg>
