<svg width="51" height="63" viewBox="0 0 51 63" fill="none" xmlns="http://www.w3.org/2000/svg">
<path d="M27 0C20.0781 0 13.6719 3.90234 8.96875 7.72266C4.26172 11.5469 1.21875 15.375 1.21875 15.375L0.378906 16.4297L1.62891 16.9258C1.62891 16.9258 2.65234 17.3281 3.76172 18.5469C4.86719 19.7656 6 21.7383 6 25C6 29.0234 6.69531 32.0273 7.05078 33.3164C5.85547 33.8555 5 35.0234 5 36.4023C5 37.1719 5.24609 37.9141 5.45703 38.6367C5.5625 38.9961 5.66797 39.3359 5.73828 39.5977C5.80859 39.8633 5.83203 40.1094 5.83203 40C5.83203 41.668 7.24609 43 8.91797 43H9V43.0508C9 52.3203 15.6641 60.0273 24.457 61.6875C25.4336 62.4727 26.6445 63 28 63C29.3555 63 30.5664 62.4727 31.543 61.6875C40.3359 60.0273 47 52.3203 47 43.0508V43H47.082C48.75 43 50.168 41.668 50.168 40C50.168 40.1094 50.1914 39.8633 50.2617 39.5977C50.332 39.3359 50.4375 38.9961 50.543 38.6367C50.7539 37.9141 51 37.1719 51 36.4023C51 35.1055 50.2383 34 49.1562 33.4258C49.5781 31.5547 51 25.0156 51 20.5234C51 10.6797 44.6953 6.45312 39.6289 6.12891C39.3477 5.61719 38.6719 4.50781 37.0898 3.22266C35.082 1.59766 31.8281 0 27 0ZM27 2C31.3945 2 34.1406 3.40234 35.8281 4.77734C37.5156 6.14844 38.0938 7.42188 38.0938 7.42188L38.3594 8H39C43.0742 8 49 11.1484 49 20.5234C49 24.6406 47.5586 31.3711 47.1836 33.0664C47.1211 33.0898 47.0625 33.1133 47 33.1211V29.5C47 24.5039 45 21.4062 42.9727 19.6719C40.9492 17.9414 38.8555 17.4922 38.8555 17.4922L38.2773 17.3711L37.8906 17.8164C37.8906 17.8164 36.8945 18.9883 34.5938 20.2383C32.293 21.4922 28.7461 22.7656 23.7656 22.7656C21.3203 22.7656 17.7617 23.2109 14.6758 24.8398C11.8203 26.3516 9.47266 29.0898 9.13281 33.1523C9.11328 33.1484 9.09766 33.1406 9.07812 33.1367C8.89844 32.582 8 29.625 8 25C8 21.2617 6.63281 18.7305 5.23828 17.2031C4.63281 16.5352 4.04297 16.1133 3.53125 15.7695C4.37891 14.7656 6.53906 12.2695 10.2266 9.27734C14.7539 5.59766 20.8438 2 27 2ZM39 10C38.4492 10 38 10.4492 38 11C38 11.5508 38.4492 12 39 12C39.5508 12 40 11.5508 40 11C40 10.4492 39.5508 10 39 10ZM39 14C38.4492 14 38 14.4492 38 15C38 15.5508 38.4492 16 39 16C39.5508 16 40 15.5508 40 15C40 14.4492 39.5508 14 39 14ZM38.8945 19.6055C39.3906 19.7539 40.3984 20.1016 41.6719 21.1914C43.3242 22.6055 45 25.0234 45 29.5V35.8594L46.375 35.3086C46.8672 35.1055 47.3359 35 47.5 35C48.3633 35 49 35.6367 49 36.3984V36.4023C49 36.5977 48.8281 37.375 48.625 38.0742C48.5195 38.4219 48.4141 38.7656 48.3281 39.0781C48.2461 39.3867 48.168 39.6133 48.168 40C48.168 40.543 47.7148 41 47.082 41H45V43.0508C45 51.4258 38.957 58.3516 31 59.7695L30.7188 59.8242L30.5039 60.0156C29.832 60.6289 28.9648 61 28 61C27.0352 61 26.168 60.6289 25.4961 60.0156L25.2812 59.8242L25 59.7695C17.043 58.3516 11 51.4258 11 43.0508V41H8.91797C8.28516 41 7.83203 40.543 7.83203 40C7.83203 39.6133 7.75391 39.3867 7.66797 39.0781C7.58203 38.7656 7.48047 38.4219 7.375 38.0742C7.17188 37.375 7 36.5977 7 36.4023C7 35.6367 7.63672 35 8.5 35C8.66406 35 9.13281 35.1055 9.625 35.3086L11 35.8594V34.0781C11 30.1719 12.9727 28.0039 15.6133 26.6094C18.2539 25.2148 21.5781 24.7656 23.7656 24.7656C29.0898 24.7656 32.9883 23.3906 35.5469 21.9961C37.4375 20.9688 38.3945 20.0977 38.8945 19.6055ZM20 35C18.8945 35 18 35.8945 18 37C18 38.1055 18.8945 39 20 39C21.1055 39 22 38.1055 22 37C22 35.8945 21.1055 35 20 35ZM36 35C34.8945 35 34 35.8945 34 37C34 38.1055 34.8945 39 36 39C37.1055 39 38 38.1055 38 37C38 35.8945 37.1055 35 36 35Z" fill="#269944"/>
</svg>
