<svg width="60" height="61" viewBox="0 0 60 61" fill="none" xmlns="http://www.w3.org/2000/svg">
<path d="M27.3828 0.734375L0.734375 9.76172L5.61719 24.2695L18.3594 19.9531L20.7578 26.5977C20.6289 26.8008 20.5078 27.0117 20.4141 27.2383C20.2344 27.3828 20.1133 27.5898 20.0664 27.8125L18.2969 36.6836L14.6484 40H7C3.14453 40 0 43.1445 0 47V61H2V47C2 44.2266 4.22656 42 7 42H15.0352C15.2852 42 15.5234 41.9062 15.707 41.7383L19.8867 37.9414C20.043 37.7969 20.1523 37.6094 20.1953 37.3984L21.8711 29.0117H21.0469C21.5273 29.0117 21.9375 28.6758 22.0312 28.207C22.1641 27.5195 22.7617 27 23.5 27C24.3398 27 25 27.6602 25 28.5C25 28.5938 24.9883 28.6914 24.9688 28.7969V28.8008C24.9688 28.8047 24.9688 28.8086 24.9688 28.8125C24.9648 28.8164 24.9648 28.8164 24.9648 28.8203L23.1758 37.793L24.1211 37.9531C23.5781 37.8594 23.0664 38.2227 22.9688 38.7656C22.9141 39.0938 22.7461 39.3828 22.5039 39.6055C22.1172 39.957 22.0664 40.5508 22.3906 40.9648L21.7812 40.2773L16.3281 45.2305C16.1211 45.4219 16 45.6875 16 45.9688V61H18V46.4102L23.8594 41.0938C24.0312 40.9375 24.1406 40.7227 24.1758 40.4961C24.3594 40.25 24.5 39.9883 24.6133 39.7031C24.7891 39.5547 24.9062 39.3555 24.9492 39.1367L26.9219 29.2383C26.9219 29.2305 26.9258 29.2188 26.9258 29.2031C26.9297 29.2031 26.9297 29.1992 26.9297 29.1914L26.9336 29.1836V29.1797C26.9453 29.1172 26.9492 29.0508 26.9531 28.9844C26.9727 28.8281 27 28.6719 27 28.5C27 26.5781 25.4219 25 23.5 25C23.1016 25 22.7266 25.0781 22.3867 25.2148L20.2539 19.3125L28.2969 16.5898L26.7305 21.1758L38.4766 25.1914L36.1445 32.0352C34.3906 32.2188 33 33.6992 33 35.5C33 35.6719 33.0273 35.832 33.0469 35.9883C33.0508 36.0547 33.0547 36.1172 33.0664 36.1797C33.0664 36.1836 33.0664 36.1836 33.0664 36.1875L33.0703 36.1953C33.0703 36.1992 33.0703 36.2031 33.0742 36.2031C33.0781 36.2305 33.082 36.2539 33.0898 36.2773C33.0938 36.2812 33.0703 36.2031 33.082 36.25L35.0508 46.1367C35.0938 46.3555 35.2109 46.5547 35.3828 46.6992C35.4961 46.9883 35.6406 47.25 35.8242 47.4961C35.8594 47.7266 35.9688 47.9375 36.1406 48.0938L42 53.4102V61H44V52.9688C44 52.6875 43.8789 52.4219 43.6719 52.2305L38.2188 47.2773L37.5703 48.0078C37.9336 47.5977 37.9023 46.9727 37.4961 46.6055C37.2539 46.3828 37.0859 46.0938 37.0312 45.7656C36.9336 45.2227 36.4219 44.8594 35.8789 44.9531L36.8242 44.7969L35.0352 35.8242L35.0312 35.8125C35.0312 35.8086 35.0312 35.8047 35.0312 35.8008V35.7969C35.0117 35.6914 35 35.5938 35 35.5C35 34.6602 35.6602 34 36.5 34C37.2383 34 37.832 34.5195 37.9688 35.2031C38.0625 35.6719 38.4727 36.0117 38.9492 36.0117H38.1289L39.8008 44.3984C39.8438 44.6094 39.9531 44.7969 40.1094 44.9414L44.293 48.7383C44.4766 48.9062 44.7148 49 44.9648 49H53C55.7734 49 58 51.2266 58 54V61H60V54C60 50.1445 56.8555 47 53 47H45.3516L41.7031 43.6836L39.9336 34.8164V34.8125C39.8867 34.5898 39.7656 34.3867 39.5898 34.2422C39.2812 33.5039 38.7695 32.8711 38.1133 32.4688L40.3711 25.8398L53.332 30.2695L58.2695 15.8242L31.668 6.73047L30.5273 10.0742L27.3828 0.734375ZM26.125 3.26953L29.5352 13.4023C29.5508 13.4844 29.5781 13.5664 29.6172 13.6406L29.7344 13.9922L29.7109 14C29.6289 14.0156 29.5469 14.043 29.4688 14.082L6.875 21.7344L3.26562 11.0156L26.125 3.26953ZM32.9141 9.26953L55.7305 17.0664L52.0859 27.7305L29.2695 19.9336L30.6875 15.7812L32.2656 15.2461L31.9492 14.3008L31.5742 13.1914L32.9141 9.26953ZM9 26C5.69922 26 3 28.6992 3 32C3 35.3008 5.69922 38 9 38C12.3008 38 15 35.3008 15 32C15 28.6992 12.3008 26 9 26ZM9 28C11.2227 28 13 29.7773 13 32C13 34.2227 11.2227 36 9 36C6.77734 36 5 34.2227 5 32C5 29.7773 6.77734 28 9 28ZM51 33C47.6992 33 45 35.6992 45 39C45 42.3008 47.6992 45 51 45C54.3008 45 57 42.3008 57 39C57 35.6992 54.3008 33 51 33ZM51 35C53.2227 35 55 36.7773 55 39C55 41.2227 53.2227 43 51 43C48.7773 43 47 41.2227 47 39C47 36.7773 48.7773 35 51 35ZM5 47C4.44922 47 4 47.4492 4 48C4 48.5508 4.44922 49 5 49C5.55078 49 6 48.5508 6 48C6 47.4492 5.55078 47 5 47ZM5 51C4.44922 51 4 51.4492 4 52C4 52.5508 4.44922 53 5 53C5.55078 53 6 52.5508 6 52C6 51.4492 5.55078 51 5 51ZM54 51C53.4492 51 53 51.4492 53 52C53 52.5508 53.4492 53 54 53C54.5508 53 55 52.5508 55 52C55 51.4492 54.5508 51 54 51ZM5 55C4.44922 55 4 55.4492 4 56C4 56.5508 4.44922 57 5 57C5.55078 57 6 56.5508 6 56C6 55.4492 5.55078 55 5 55ZM54 55C53.4492 55 53 55.4492 53 56C53 56.5508 53.4492 57 54 57C54.5508 57 55 56.5508 55 56C55 55.4492 54.5508 55 54 55ZM5 59C4.44922 59 4 59.4492 4 60C4 60.5508 4.44922 61 5 61C5.55078 61 6 60.5508 6 60C6 59.4492 5.55078 59 5 59ZM54 59C53.4492 59 53 59.4492 53 60C53 60.5508 53.4492 61 54 61C54.5508 61 55 60.5508 55 60C55 59.4492 54.5508 59 54 59Z" fill="#269944"/>
</svg>
