<svg width="109" height="95" viewBox="0 0 109 95" fill="none" xmlns="http://www.w3.org/2000/svg">
<path d="M18.6055 0.908713C18.2598 0.896993 17.9199 0.93801 17.5859 1.00832C15.5996 1.44192 14 3.21731 14 5.40871V16.5005C14 18.9673 16.0332 21.0005 18.5 21.0005H34.127C34.7891 22.6587 36.1133 24.0005 38 24.0005H41V28.5005H32C30.1133 28.5005 28.7891 29.8423 28.127 31.5005H14C13.4609 31.4946 12.957 31.7759 12.6816 32.2446C12.4121 32.7134 12.4121 33.2876 12.6816 33.7564C12.957 34.2251 13.4609 34.5064 14 34.5005H27.5C27.5 35.3267 28.1738 36.0005 29 36.0005C29.8262 36.0005 30.5 35.3267 30.5 34.5005V33.0005C30.5 32.1509 31.1504 31.5005 32 31.5005H42.248C42.4121 31.5298 42.5762 31.5298 42.7344 31.5005H51.248C51.4121 31.5298 51.5762 31.5298 51.7344 31.5005H62C62.8496 31.5005 63.5 32.1509 63.5 33.0005V34.5005C63.5 35.3267 64.1738 36.0005 65 36.0005C65.8262 36.0005 66.5 35.3267 66.5 34.5005H74C89.7559 34.5005 102.5 47.2446 102.5 63.0005V73.5005H104C104.85 73.5005 105.5 74.1509 105.5 75.0005C105.5 75.8501 104.85 76.5005 104 76.5005H80C79.1504 76.5005 78.5 75.8501 78.5 75.0005C78.5 74.1509 79.1504 73.5005 80 73.5005H81.5V66.0005C81.5 61.8755 78.125 58.5005 74 58.5005H66.5C66.5 57.6743 65.8262 57.0005 65 57.0005C64.1738 57.0005 63.5 57.6743 63.5 58.5005V60.0005C63.5 60.8501 62.8496 61.5005 62 61.5005H32C31.1504 61.5005 30.5 60.8501 30.5 60.0005V58.5005C30.5 57.6743 29.8262 57.0005 29 57.0005C28.1738 57.0005 27.5 57.6743 27.5 58.5005H14C13.4609 58.4946 12.957 58.7759 12.6816 59.2446C12.4121 59.7134 12.4121 60.2876 12.6816 60.7564C12.957 61.2251 13.4609 61.5064 14 61.5005H28.127C28.7891 63.1587 30.1133 64.5005 32 64.5005H62C63.8867 64.5005 65.2109 63.1587 65.873 61.5005H74C76.502 61.5005 78.5 63.4986 78.5 66.0005V71.1275C76.8418 71.7896 75.5 73.1138 75.5 75.0005C75.5 77.4673 77.5332 79.5005 80 79.5005H104C106.467 79.5005 108.5 77.4673 108.5 75.0005C108.5 73.1138 107.158 71.7896 105.5 71.1275V63.0005C105.5 45.6216 91.3789 31.5005 74 31.5005H65.873C65.2109 29.8423 63.8867 28.5005 62 28.5005H53V24.0005H56C57.8867 24.0005 59.2109 22.6587 59.873 21.0005H75.5C77.9668 21.0005 80 18.9673 80 16.5005V5.40871C80 2.48488 77.1582 0.305197 74.3398 1.0552L57.4941 5.54934C55.9004 4.06106 53.8672 3.00051 51.5 3.00051H42.5C40.1328 3.00051 38.0996 4.06106 36.5059 5.54934L19.6602 1.0552H19.6543C19.3027 0.961447 18.9512 0.914572 18.6055 0.908713ZM18.5234 3.89699C18.6406 3.90285 18.7637 3.92043 18.8867 3.95559L37.3262 8.87746L37.9473 8.1509C39.0547 6.83254 40.6602 6.00051 42.5 6.00051H51.5C53.3398 6.00051 54.9453 6.8384 56.0527 8.1509L56.6738 8.87746L75.1133 3.95559C76.0977 3.69192 77 4.38332 77 5.40871V16.5005C77 17.3501 76.3496 18.0005 75.5 18.0005H60.5C60.5 17.1743 59.8262 16.5005 59 16.5005C58.1738 16.5005 57.5 17.1743 57.5 18.0005V19.5005C57.5 20.3501 56.8496 21.0005 56 21.0005H51.7344C51.6465 20.9888 51.5645 20.9771 51.4766 20.9771C51.4062 20.9829 51.3301 20.9888 51.2598 21.0005H42.7344C42.6465 20.9888 42.5645 20.9771 42.4766 20.9771C42.4062 20.9829 42.3301 20.9888 42.2598 21.0005H38C37.1504 21.0005 36.5 20.3501 36.5 19.5005V18.0005C36.5 17.1743 35.8262 16.5005 35 16.5005C34.1738 16.5005 33.5 17.1743 33.5 18.0005H18.5C17.6504 18.0005 17 17.3501 17 16.5005V5.40871C17 4.51223 17.6914 3.8677 18.5234 3.89699ZM35 10.5005C34.1738 10.5005 33.5 11.1743 33.5 12.0005C33.5 12.8267 34.1738 13.5005 35 13.5005C35.8262 13.5005 36.5 12.8267 36.5 12.0005C36.5 11.1743 35.8262 10.5005 35 10.5005ZM59 10.5005C58.1738 10.5005 57.5 11.1743 57.5 12.0005C57.5 12.8267 58.1738 13.5005 59 13.5005C59.8262 13.5005 60.5 12.8267 60.5 12.0005C60.5 11.1743 59.8262 10.5005 59 10.5005ZM44 24.0005H50V28.5005H44V24.0005ZM2 31.5005C1.17383 31.5005 0.5 32.1743 0.5 33.0005C0.5 33.8267 1.17383 34.5005 2 34.5005C2.82617 34.5005 3.5 33.8267 3.5 33.0005C3.5 32.1743 2.82617 31.5005 2 31.5005ZM8 31.5005C7.17383 31.5005 6.5 32.1743 6.5 33.0005C6.5 33.8267 7.17383 34.5005 8 34.5005C8.82617 34.5005 9.5 33.8267 9.5 33.0005C9.5 32.1743 8.82617 31.5005 8 31.5005ZM29 39.0005C28.1738 39.0005 27.5 39.6743 27.5 40.5005C27.5 41.3267 28.1738 42.0005 29 42.0005C29.8262 42.0005 30.5 41.3267 30.5 40.5005C30.5 39.6743 29.8262 39.0005 29 39.0005ZM65 39.0005C64.1738 39.0005 63.5 39.6743 63.5 40.5005C63.5 41.3267 64.1738 42.0005 65 42.0005C65.8262 42.0005 66.5 41.3267 66.5 40.5005C66.5 39.6743 65.8262 39.0005 65 39.0005ZM29 45.0005C28.1738 45.0005 27.5 45.6743 27.5 46.5005C27.5 47.3267 28.1738 48.0005 29 48.0005C29.8262 48.0005 30.5 47.3267 30.5 46.5005C30.5 45.6743 29.8262 45.0005 29 45.0005ZM65 45.0005C64.1738 45.0005 63.5 45.6743 63.5 46.5005C63.5 47.3267 64.1738 48.0005 65 48.0005C65.8262 48.0005 66.5 47.3267 66.5 46.5005C66.5 45.6743 65.8262 45.0005 65 45.0005ZM29 51.0005C28.1738 51.0005 27.5 51.6743 27.5 52.5005C27.5 53.3267 28.1738 54.0005 29 54.0005C29.8262 54.0005 30.5 53.3267 30.5 52.5005C30.5 51.6743 29.8262 51.0005 29 51.0005ZM65 51.0005C64.1738 51.0005 63.5 51.6743 63.5 52.5005C63.5 53.3267 64.1738 54.0005 65 54.0005C65.8262 54.0005 66.5 53.3267 66.5 52.5005C66.5 51.6743 65.8262 51.0005 65 51.0005ZM2 58.5005C1.17383 58.5005 0.5 59.1743 0.5 60.0005C0.5 60.8267 1.17383 61.5005 2 61.5005C2.82617 61.5005 3.5 60.8267 3.5 60.0005C3.5 59.1743 2.82617 58.5005 2 58.5005ZM8 58.5005C7.17383 58.5005 6.5 59.1743 6.5 60.0005C6.5 60.8267 7.17383 61.5005 8 61.5005C8.82617 61.5005 9.5 60.8267 9.5 60.0005C9.5 59.1743 8.82617 58.5005 8 58.5005ZM86 70.5005C85.1738 70.5005 84.5 71.1743 84.5 72.0005C84.5 72.8267 85.1738 73.5005 86 73.5005C86.8262 73.5005 87.5 72.8267 87.5 72.0005C87.5 71.1743 86.8262 70.5005 86 70.5005ZM92 70.5005C91.1738 70.5005 90.5 71.1743 90.5 72.0005C90.5 72.8267 91.1738 73.5005 92 73.5005C92.8262 73.5005 93.5 72.8267 93.5 72.0005C93.5 71.1743 92.8262 70.5005 92 70.5005ZM98 70.5005C97.1738 70.5005 96.5 71.1743 96.5 72.0005C96.5 72.8267 97.1738 73.5005 98 73.5005C98.8262 73.5005 99.5 72.8267 99.5 72.0005C99.5 71.1743 98.8262 70.5005 98 70.5005ZM93.5 84.0005C93.5 84.0005 90.5 89.8423 90.5 91.5005C90.5 93.1587 91.8418 94.5005 93.5 94.5005C95.1582 94.5005 96.5 93.1587 96.5 91.5005C96.5 89.8423 93.5 84.0005 93.5 84.0005Z" fill="white"/>
</svg>
