<svg width="73" height="81" viewBox="0 0 73 81" fill="none" xmlns="http://www.w3.org/2000/svg">
<path d="M36.4994 0.158203C32.5271 0.158203 29.1709 2.36949 24.1943 4.92961C19.2178 7.48973 12.554 10.5799 2.13133 12.8682L0.859375 13.1467V14.4503C0.859375 39.2694 9.53756 55.8414 18.2522 66.1257C26.9669 76.4101 35.8191 80.5127 35.8191 80.5127L36.5342 80.8418L37.2334 80.4843C37.2334 80.4843 72.1394 62.4943 72.1394 14.4503V13.1467L70.8674 12.8682C60.4448 10.5799 53.781 7.48973 48.8044 4.92961C43.8278 2.36949 40.4717 0.158203 36.4994 0.158203ZM36.4994 3.3982C39.1658 3.3982 42.2404 5.1971 47.3236 7.81207C52.1486 10.2942 58.955 13.304 68.795 15.6241C68.221 59.5772 38.5697 76.0374 36.4741 77.143C35.4621 76.6514 28.4499 73.1456 20.7265 64.0311C12.5785 54.4155 4.4887 38.9739 4.20063 15.6241C14.0425 13.3039 20.8496 10.2945 25.6751 7.81207C30.7583 5.1971 33.8329 3.3982 36.4994 3.3982ZM36.4994 17.82C31.1534 17.82 26.7794 22.3547 26.7794 27.8627V30.78H24.998C23.216 30.78 21.9194 32.2386 21.9194 33.8586V50.22C21.9194 52.002 23.216 53.46 24.998 53.46H48.0007C49.6207 53.46 51.0794 52.0014 51.0794 50.3814V33.8586C51.0794 32.2386 49.7827 30.78 48.0007 30.78H46.2194V27.8627C46.2194 22.3547 41.8454 17.82 36.4994 17.82ZM36.4994 21.06C40.0634 21.06 42.9794 24.1367 42.9794 27.8627V30.78H30.0194V27.8627C30.0194 24.1367 32.9354 21.06 36.4994 21.06ZM25.1594 34.02H47.8394V50.22H25.1594V34.02ZM36.4994 38.88C35.2034 38.88 34.2307 39.8526 34.2307 41.1486C34.2307 41.7966 34.5547 42.2826 35.0407 42.7686V44.8727C35.0407 45.6827 35.6894 46.3314 36.4994 46.3314C37.3094 46.3314 37.958 45.6827 37.958 44.8727V42.7686C38.444 42.2826 38.768 41.7966 38.768 41.1486C38.768 39.8526 37.7954 38.88 36.4994 38.88Z" fill="white"/>
</svg>
