<svg width="54" height="54" viewBox="0 0 54 54" fill="none" xmlns="http://www.w3.org/2000/svg">
<path d="M26.9984 12.5996C21.6945 12.5996 17.3984 16.8957 17.3984 22.1996C17.3984 26.5848 19.7141 31.298 21.9922 34.9496C24.2703 38.6012 26.5484 41.1934 26.5484 41.1934C26.6633 41.3223 26.8273 41.3973 26.9984 41.3973C27.1695 41.3973 27.3336 41.3223 27.4484 41.1934C27.4484 41.1934 29.7289 38.5473 32.0047 34.8746C34.2805 31.202 36.5984 26.5004 36.5984 22.1996C36.5984 16.8957 32.3023 12.5996 26.9984 12.5996ZM26.9984 13.7996C31.6555 13.7996 35.3984 17.5426 35.3984 22.1996C35.3984 26.0598 33.2164 30.6488 30.9922 34.2371C29.1289 37.2441 27.5516 39.1801 26.9984 39.8434C26.4406 39.1848 24.8633 37.291 23.0047 34.3121C20.7828 30.7496 18.5984 26.1535 18.5984 22.1996C18.5984 17.5426 22.3414 13.7996 26.9984 13.7996ZM26.9984 18.5996C24.6852 18.5996 22.7984 20.4863 22.7984 22.7996C22.7984 25.1129 24.6852 26.9996 26.9984 26.9996C29.3117 26.9996 31.1984 25.1129 31.1984 22.7996C31.1984 20.4863 29.3117 18.5996 26.9984 18.5996ZM26.9984 19.7996C28.6625 19.7996 29.9984 21.1355 29.9984 22.7996C29.9984 24.4637 28.6625 25.7996 26.9984 25.7996C25.3344 25.7996 23.9984 24.4637 23.9984 22.7996C23.9984 21.1355 25.3344 19.7996 26.9984 19.7996Z" fill="#269944"/>
</svg>
