<svg width="64" height="64" viewBox="0 0 64 64" fill="none" xmlns="http://www.w3.org/2000/svg">
<path d="M45 0C37.7631 0 31.4853 4.06929 28.2812 10.0332C27.8562 10.0132 27.4299 10 27 10C22.4891 10 18.2404 11.1207 14.5 13.0859L2.70703 1.29297L1.29297 2.70703L12.6992 14.1133L14.1504 15.5645L25.4746 26.8887L28.4531 29.8672L48.4355 49.8496L49.8867 51.3008L61.293 62.707L62.707 61.293L50.9141 49.5C52.8788 45.7593 54 41.5103 54 37C54 36.5701 53.9868 36.1438 53.9668 35.7188C59.9307 32.5147 64 26.2369 64 19C64 8.51855 55.4815 0 45 0ZM45 2C54.4005 2 62 9.59945 62 19C62 25.1816 58.6963 30.5611 53.7695 33.5352C52.2086 21.4149 42.5851 11.7914 30.4648 10.2305C33.4389 5.30366 38.8184 2 45 2ZM45 5C44.7348 5 44.4804 5.10536 44.2929 5.29289C44.1054 5.48043 44 5.73478 44 6C44 6.26522 44.1054 6.51957 44.2929 6.70711C44.4804 6.89464 44.7348 7 45 7C45.2652 7 45.5196 6.89464 45.7071 6.70711C45.8946 6.51957 46 6.26522 46 6C46 5.73478 45.8946 5.48043 45.7071 5.29289C45.5196 5.10536 45.2652 5 45 5ZM40.0254 5.98828C39.7602 5.98828 39.5058 6.09364 39.3183 6.28117C39.1307 6.46871 39.0254 6.72306 39.0254 6.98828C39.0254 7.2535 39.1307 7.50785 39.3183 7.69539C39.5058 7.88292 39.7602 7.98828 40.0254 7.98828C40.2906 7.98828 40.545 7.88292 40.7325 7.69539C40.92 7.50785 41.0254 7.2535 41.0254 6.98828C41.0254 6.72306 40.92 6.46871 40.7325 6.28117C40.545 6.09364 40.2906 5.98828 40.0254 5.98828ZM49.9766 5.98828C49.7113 5.98828 49.457 6.09364 49.2695 6.28117C49.0819 6.46871 48.9766 6.72306 48.9766 6.98828C48.9766 7.2535 49.0819 7.50785 49.2695 7.69539C49.457 7.88292 49.7113 7.98828 49.9766 7.98828C50.2418 7.98828 50.4961 7.88292 50.6837 7.69539C50.8712 7.50785 50.9766 7.2535 50.9766 6.98828C50.9766 6.72306 50.8712 6.46871 50.6837 6.28117C50.4961 6.09364 50.2418 5.98828 49.9766 5.98828ZM35.8086 8.80859C35.5434 8.80859 35.289 8.91395 35.1015 9.10149C34.9139 9.28902 34.8086 9.54338 34.8086 9.80859C34.8086 10.0738 34.9139 10.3282 35.1015 10.5157C35.289 10.7032 35.5434 10.8086 35.8086 10.8086C36.0738 10.8086 36.3282 10.7032 36.5157 10.5157C36.7032 10.3282 36.8086 10.0738 36.8086 9.80859C36.8086 9.54338 36.7032 9.28902 36.5157 9.10149C36.3282 8.91395 36.0738 8.80859 35.8086 8.80859ZM54.1914 8.80859C53.9262 8.80859 53.6718 8.91395 53.4843 9.10149C53.2968 9.28902 53.1914 9.54338 53.1914 9.80859C53.1914 10.0738 53.2968 10.3282 53.4843 10.5157C53.6718 10.7032 53.9262 10.8086 54.1914 10.8086C54.4566 10.8086 54.711 10.7032 54.8985 10.5157C55.0861 10.3282 55.1914 10.0738 55.1914 9.80859C55.1914 9.54338 55.0861 9.28902 54.8985 9.10149C54.711 8.91395 54.4566 8.80859 54.1914 8.80859ZM27 12C40.785 12 52 23.215 52 37C52 40.9523 51.0682 44.6879 49.4277 48.0137L47.1328 45.7188C47.3062 45.5333 47.4025 45.289 47.4023 45.0352C47.4023 44.7699 47.297 44.5156 47.1095 44.328C46.9219 44.1405 46.6676 44.0352 46.4023 44.0352C46.1485 44.035 45.9042 44.1313 45.7188 44.3047L31.2812 29.8672H33.0234V26.8887H28.3027L19.6953 18.2812C19.8682 18.0963 19.9645 17.8527 19.9648 17.5996C19.9648 17.3344 19.8595 17.08 19.672 16.8925C19.4844 16.705 19.2301 16.5996 18.9648 16.5996C18.7117 16.5999 18.4681 16.6963 18.2832 16.8691L15.9863 14.5723C19.3121 12.9318 23.0477 12 27 12ZM57.0117 13.0254C56.7465 13.0254 56.4921 13.1307 56.3046 13.3183C56.1171 13.5058 56.0117 13.7602 56.0117 14.0254C56.0117 14.2906 56.1171 14.545 56.3046 14.7325C56.4921 14.92 56.7465 15.0254 57.0117 15.0254C57.2769 15.0254 57.5313 14.92 57.7188 14.7325C57.9064 14.545 58.0117 14.2906 58.0117 14.0254C58.0117 13.7602 57.9064 13.5058 57.7188 13.3183C57.5313 13.1307 57.2769 13.0254 57.0117 13.0254ZM27 15C26.7348 15 26.4804 15.1054 26.2929 15.2929C26.1054 15.4804 26 15.7348 26 16C26 16.2652 26.1054 16.5196 26.2929 16.7071C26.4804 16.8946 26.7348 17 27 17C27.2652 17 27.5196 16.8946 27.7071 16.7071C27.8946 16.5196 28 16.2652 28 16C28 15.7348 27.8946 15.4804 27.7071 15.2929C27.5196 15.1054 27.2652 15 27 15ZM11.0156 15.2578C4.34062 20.1778 0 28.09 0 37C0 51.888 12.112 64 27 64C35.91 64 43.8222 59.6594 48.7422 52.9844L47.3086 51.5527C42.7676 57.8727 35.359 62 27 62C13.215 62 2 50.785 2 37C2 28.641 6.12727 21.2324 12.4473 16.6914L11.0156 15.2578ZM31.0977 15.4023C30.8324 15.4023 30.5781 15.5077 30.3905 15.6952C30.203 15.8828 30.0977 16.1371 30.0977 16.4023C30.0977 16.6676 30.203 16.9219 30.3905 17.1095C30.5781 17.297 30.8324 17.4023 31.0977 17.4023C31.3629 17.4023 31.6172 17.297 31.8048 17.1095C31.9923 16.9219 32.0977 16.6676 32.0977 16.4023C32.0977 16.1371 31.9923 15.8828 31.8048 15.6952C31.6172 15.5077 31.3629 15.4023 31.0977 15.4023ZM22.9043 15.4043C22.6391 15.4043 22.3847 15.5097 22.1972 15.6972C22.0097 15.8847 21.9043 16.1391 21.9043 16.4043C21.9043 16.6695 22.0097 16.9239 22.1972 17.1114C22.3847 17.2989 22.6391 17.4043 22.9043 17.4043C23.1695 17.4043 23.4239 17.2989 23.6114 17.1114C23.7989 16.9239 23.9043 16.6695 23.9043 16.4043C23.9043 16.1391 23.7989 15.8847 23.6114 15.6972C23.4239 15.5097 23.1695 15.4043 22.9043 15.4043ZM35.0371 16.5996C34.7719 16.5996 34.5175 16.705 34.33 16.8925C34.1425 17.08 34.0371 17.3344 34.0371 17.5996C34.0371 17.8648 34.1425 18.1192 34.33 18.3067C34.5175 18.4943 34.7719 18.5996 35.0371 18.5996C35.3023 18.5996 35.5567 18.4943 35.7442 18.3067C35.9318 18.1192 36.0371 17.8648 36.0371 17.5996C36.0371 17.3344 35.9318 17.08 35.7442 16.8925C35.5567 16.705 35.3023 16.5996 35.0371 16.5996ZM58 18C57.7348 18 57.4804 18.1054 57.2929 18.2929C57.1054 18.4804 57 18.7348 57 19C57 19.2652 57.1054 19.5196 57.2929 19.7071C57.4804 19.8946 57.7348 20 58 20C58.2652 20 58.5196 19.8946 58.7071 19.7071C58.8946 19.5196 59 19.2652 59 19C59 18.7348 58.8946 18.4804 58.7071 18.2929C58.5196 18.1054 58.2652 18 58 18ZM38.6699 18.5371C38.4047 18.5371 38.1504 18.6425 37.9628 18.83C37.7753 19.0175 37.6699 19.2719 37.6699 19.5371C37.6699 19.8023 37.7753 20.0567 37.9628 20.2442C38.1504 20.4318 38.4047 20.5371 38.6699 20.5371C38.9351 20.5371 39.1895 20.4318 39.377 20.2442C39.5646 20.0567 39.6699 19.8023 39.6699 19.5371C39.6699 19.2719 39.5646 19.0175 39.377 18.83C39.1895 18.6425 38.9351 18.5371 38.6699 18.5371ZM12.1504 21.1504C11.8852 21.1504 11.6308 21.2557 11.4433 21.4433C11.2557 21.6308 11.1504 21.8852 11.1504 22.1504C11.1504 22.4156 11.2557 22.67 11.4433 22.8575C11.6308 23.045 11.8852 23.1504 12.1504 23.1504C12.4156 23.1504 12.67 23.045 12.8575 22.8575C13.045 22.67 13.1504 22.4156 13.1504 22.1504C13.1504 21.8852 13.045 21.6308 12.8575 21.4433C12.67 21.2557 12.4156 21.1504 12.1504 21.1504ZM41.8496 21.1504C41.5844 21.1504 41.33 21.2557 41.1425 21.4433C40.955 21.6308 40.8496 21.8852 40.8496 22.1504C40.8496 22.4156 40.955 22.67 41.1425 22.8575C41.33 23.045 41.5844 23.1504 41.8496 23.1504C42.1148 23.1504 42.3692 23.045 42.5567 22.8575C42.7443 22.67 42.8496 22.4156 42.8496 22.1504C42.8496 21.8852 42.7443 21.6308 42.5567 21.4433C42.3692 21.2557 42.1148 21.1504 41.8496 21.1504ZM57.0117 22.9746C56.7465 22.9746 56.4921 23.08 56.3046 23.2675C56.1171 23.455 56.0117 23.7094 56.0117 23.9746C56.0117 24.2398 56.1171 24.4942 56.3046 24.6817C56.4921 24.8693 56.7465 24.9746 57.0117 24.9746C57.2769 24.9746 57.5313 24.8693 57.7188 24.6817C57.9064 24.4942 58.0117 24.2398 58.0117 23.9746C58.0117 23.7094 57.9064 23.455 57.7188 23.2675C57.5313 23.08 57.2769 22.9746 57.0117 22.9746ZM44.4648 24.332C44.1996 24.332 43.9453 24.4374 43.7577 24.6249C43.5702 24.8125 43.4648 25.0668 43.4648 25.332C43.4648 25.5972 43.5702 25.8516 43.7577 26.0391C43.9453 26.2267 44.1996 26.332 44.4648 26.332C44.7301 26.332 44.9844 26.2267 45.172 26.0391C45.3595 25.8516 45.4648 25.5972 45.4648 25.332C45.4648 25.0668 45.3595 24.8125 45.172 24.6249C44.9844 24.4374 44.7301 24.332 44.4648 24.332ZM9.54102 24.334C9.2758 24.334 9.02145 24.4393 8.83391 24.6269C8.64637 24.8144 8.54102 25.0688 8.54102 25.334C8.54102 25.5992 8.64637 25.8536 8.83391 26.0411C9.02145 26.2286 9.2758 26.334 9.54102 26.334C9.80623 26.334 10.0606 26.2286 10.2481 26.0411C10.4357 25.8536 10.541 25.5992 10.541 25.334C10.541 25.0688 10.4357 24.8144 10.2481 24.6269C10.0606 24.4393 9.80623 24.334 9.54102 24.334ZM21.1426 26.8887L20.1172 38.2363H23.3164C24.0414 37.0203 25.3125 36.2949 26.9395 36.2949C29.2085 36.2949 30.7949 37.8948 30.7949 40.2598C30.7949 42.6108 29.2231 44.1699 26.9121 44.1699C24.8751 44.1699 23.3303 42.9664 23.1113 41.1484H19.8027C19.9667 44.6214 22.7958 47.1094 26.8848 47.1074C31.2598 47.1074 34.1992 44.2908 34.1992 40.1758C34.1992 39.4708 34.1084 38.8055 33.9414 38.1855L29.5352 33.7773C28.9892 33.6383 28.4118 33.5586 27.8008 33.5586C25.9008 33.5586 24.5059 34.2283 23.6309 35.4043H23.3984L23.8789 29.8672H25.627L22.6465 26.8887H21.1426ZM54.1914 27.1934C53.9262 27.1934 53.6718 27.2987 53.4843 27.4863C53.2968 27.6738 53.1914 27.9281 53.1914 28.1934C53.1914 28.4586 53.2968 28.7129 53.4843 28.9005C53.6718 29.088 53.9262 29.1934 54.1914 29.1934C54.4566 29.1934 54.711 29.088 54.8985 28.9005C55.0861 28.7129 55.1914 28.4586 55.1914 28.1934C55.1914 27.9281 55.0861 27.6738 54.8985 27.4863C54.711 27.2987 54.4566 27.1934 54.1914 27.1934ZM7.59961 27.9648C7.33439 27.9648 7.08004 28.0702 6.8925 28.2577C6.70497 28.4453 6.59961 28.6996 6.59961 28.9648C6.59961 29.2301 6.70497 29.4844 6.8925 29.672C7.08004 29.8595 7.33439 29.9648 7.59961 29.9648C7.73093 29.9648 7.86097 29.939 7.98229 29.8887C8.10362 29.8385 8.21386 29.7648 8.30672 29.672C8.39957 29.5791 8.47323 29.4689 8.52349 29.3475C8.57374 29.2262 8.59961 29.0962 8.59961 28.9648C8.59961 28.8335 8.57374 28.7035 8.52349 28.5822C8.47323 28.4608 8.39957 28.3506 8.30672 28.2577C8.21386 28.1649 8.10362 28.0912 7.98229 28.041C7.86097 27.9907 7.73093 27.9648 7.59961 27.9648ZM46.4023 27.9648C46.1371 27.9648 45.8828 28.0702 45.6952 28.2577C45.5077 28.4453 45.4023 28.6996 45.4023 28.9648C45.4023 29.2301 45.5077 29.4844 45.6952 29.672C45.8828 29.8595 46.1371 29.9648 46.4023 29.9648C46.6676 29.9648 46.9219 29.8595 47.1095 29.672C47.297 29.4844 47.4023 29.2301 47.4023 28.9648C47.4023 28.6996 47.297 28.4453 47.1095 28.2577C46.9219 28.0702 46.6676 27.9648 46.4023 27.9648ZM6.4043 31.9023C6.13908 31.9023 5.88473 32.0077 5.69719 32.1952C5.50965 32.3828 5.4043 32.6371 5.4043 32.9023C5.4043 33.1676 5.50965 33.4219 5.69719 33.6095C5.88473 33.797 6.13908 33.9023 6.4043 33.9023C6.66951 33.9023 6.92387 33.797 7.1114 33.6095C7.29894 33.4219 7.4043 33.1676 7.4043 32.9023C7.4043 32.6371 7.29894 32.3828 7.1114 32.1952C6.92387 32.0077 6.66951 31.9023 6.4043 31.9023ZM47.5977 31.9023C47.3324 31.9023 47.0781 32.0077 46.8905 32.1952C46.703 32.3828 46.5977 32.6371 46.5977 32.9023C46.5977 33.1676 46.703 33.4219 46.8905 33.6095C47.0781 33.797 47.3324 33.9023 47.5977 33.9023C47.8629 33.9023 48.1172 33.797 48.3048 33.6095C48.4923 33.4219 48.5977 33.1676 48.5977 32.9023C48.5977 32.6371 48.4923 32.3828 48.3048 32.1952C48.1172 32.0077 47.8629 31.9023 47.5977 31.9023ZM6 36C5.73478 36 5.48043 36.1054 5.29289 36.2929C5.10536 36.4804 5 36.7348 5 37C5 37.2652 5.10536 37.5196 5.29289 37.7071C5.48043 37.8946 5.73478 38 6 38C6.26522 38 6.51957 37.8946 6.70711 37.7071C6.89464 37.5196 7 37.2652 7 37C7 36.7348 6.89464 36.4804 6.70711 36.2929C6.51957 36.1054 6.26522 36 6 36ZM48 36C47.7348 36 47.4804 36.1054 47.2929 36.2929C47.1054 36.4804 47 36.7348 47 37C47 37.2652 47.1054 37.5196 47.2929 37.7071C47.4804 37.8946 47.7348 38 48 38C48.2652 38 48.5196 37.8946 48.7071 37.7071C48.8946 37.5196 49 37.2652 49 37C49 36.7348 48.8946 36.4804 48.7071 36.2929C48.5196 36.1054 48.2652 36 48 36ZM6.4043 40.0977C6.13908 40.0977 5.88473 40.203 5.69719 40.3905C5.50965 40.5781 5.4043 40.8324 5.4043 41.0977C5.4043 41.3629 5.50965 41.6172 5.69719 41.8048C5.88473 41.9923 6.13908 42.0977 6.4043 42.0977C6.66951 42.0977 6.92387 41.9923 7.1114 41.8048C7.29894 41.6172 7.4043 41.3629 7.4043 41.0977C7.4043 40.8324 7.29894 40.5781 7.1114 40.3905C6.92387 40.203 6.66951 40.0977 6.4043 40.0977ZM47.5977 40.0977C47.3324 40.0977 47.0781 40.203 46.8905 40.3905C46.703 40.5781 46.5977 40.8324 46.5977 41.0977C46.5977 41.3629 46.703 41.6172 46.8905 41.8048C47.0781 41.9923 47.3324 42.0977 47.5977 42.0977C47.8629 42.0977 48.1172 41.9923 48.3048 41.8048C48.4923 41.6172 48.5977 41.3629 48.5977 41.0977C48.5977 40.8324 48.4923 40.5781 48.3048 40.3905C48.1172 40.203 47.8629 40.0977 47.5977 40.0977ZM7.59961 44.0371C7.33439 44.0371 7.08004 44.1425 6.8925 44.33C6.70497 44.5175 6.59961 44.7719 6.59961 45.0371C6.59961 45.3023 6.70497 45.5567 6.8925 45.7442C7.08004 45.9318 7.33439 46.0371 7.59961 46.0371C7.73093 46.0371 7.86097 46.0112 7.98229 45.961C8.10362 45.9107 8.21386 45.8371 8.30672 45.7442C8.39957 45.6514 8.47323 45.5411 8.52349 45.4198C8.57374 45.2985 8.59961 45.1684 8.59961 45.0371C8.59961 44.9058 8.57374 44.7758 8.52349 44.6544C8.47323 44.5331 8.39957 44.4229 8.30672 44.33C8.21386 44.2371 8.10362 44.1635 7.98229 44.1132C7.86097 44.063 7.73093 44.0371 7.59961 44.0371ZM9.54102 47.668C9.2758 47.668 9.02145 47.7733 8.83391 47.9609C8.64637 48.1484 8.54102 48.4028 8.54102 48.668C8.54102 48.9332 8.64637 49.1875 8.83391 49.3751C9.02145 49.5626 9.2758 49.668 9.54102 49.668C9.80623 49.668 10.0606 49.5626 10.2481 49.3751C10.4357 49.1875 10.541 48.9332 10.541 48.668C10.541 48.4028 10.4357 48.1484 10.2481 47.9609C10.0606 47.7733 9.80623 47.668 9.54102 47.668ZM12.1504 50.8496C11.8852 50.8496 11.6308 50.955 11.4433 51.1425C11.2557 51.33 11.1504 51.5844 11.1504 51.8496C11.1504 52.1148 11.2557 52.3692 11.4433 52.5567C11.6308 52.7443 11.8852 52.8496 12.1504 52.8496C12.4156 52.8496 12.67 52.7443 12.8575 52.5567C13.045 52.3692 13.1504 52.1148 13.1504 51.8496C13.1504 51.5844 13.045 51.33 12.8575 51.1425C12.67 50.955 12.4156 50.8496 12.1504 50.8496ZM41.8477 50.8496C41.5824 50.8496 41.3281 50.955 41.1405 51.1425C40.953 51.33 40.8477 51.5844 40.8477 51.8496C40.8477 52.1148 40.953 52.3692 41.1405 52.5567C41.3281 52.7443 41.5824 52.8496 41.8477 52.8496C42.1129 52.8496 42.3672 52.7443 42.5548 52.5567C42.7423 52.3692 42.8477 52.1148 42.8477 51.8496C42.8477 51.5844 42.7423 51.33 42.5548 51.1425C42.3672 50.955 42.1129 50.8496 41.8477 50.8496ZM38.6699 53.4609C38.4047 53.4609 38.1504 53.5663 37.9628 53.7538C37.7753 53.9414 37.6699 54.1957 37.6699 54.4609C37.6699 54.7262 37.7753 54.9805 37.9628 55.168C38.1504 55.3556 38.4047 55.4609 38.6699 55.4609C38.9351 55.4609 39.1895 55.3556 39.377 55.168C39.5646 54.9805 39.6699 54.7262 39.6699 54.4609C39.6699 54.1957 39.5646 53.9414 39.377 53.7538C39.1895 53.5663 38.9351 53.4609 38.6699 53.4609ZM15.3359 53.4629C15.0707 53.4629 14.8164 53.5682 14.6288 53.7558C14.4413 53.9433 14.3359 54.1977 14.3359 54.4629C14.3359 54.7281 14.4413 54.9825 14.6288 55.17C14.8164 55.3575 15.0707 55.4629 15.3359 55.4629C15.6012 55.4629 15.8555 55.3575 16.043 55.17C16.2306 54.9825 16.3359 54.7281 16.3359 54.4629C16.3359 54.1977 16.2306 53.9433 16.043 53.7558C15.8555 53.5682 15.6012 53.4629 15.3359 53.4629ZM18.9648 55.4023C18.6996 55.4023 18.4453 55.5077 18.2577 55.6952C18.0702 55.8828 17.9648 56.1371 17.9648 56.4023C17.9648 56.6676 18.0702 56.9219 18.2577 57.1095C18.4453 57.297 18.6996 57.4023 18.9648 57.4023C19.2301 57.4023 19.4844 57.297 19.672 57.1095C19.8595 56.9219 19.9648 56.6676 19.9648 56.4023C19.9648 56.1371 19.8595 55.8828 19.672 55.6952C19.4844 55.5077 19.2301 55.4023 18.9648 55.4023ZM35.0371 55.4023C34.7719 55.4023 34.5175 55.5077 34.33 55.6952C34.1425 55.8828 34.0371 56.1371 34.0371 56.4023C34.0371 56.6676 34.1425 56.9219 34.33 57.1095C34.5175 57.297 34.7719 57.4023 35.0371 57.4023C35.3023 57.4023 35.5567 57.297 35.7442 57.1095C35.9318 56.9219 36.0371 56.6676 36.0371 56.4023C36.0371 56.1371 35.9318 55.8828 35.7442 55.6952C35.5567 55.5077 35.3023 55.4023 35.0371 55.4023ZM22.9043 56.5977C22.6391 56.5977 22.3847 56.703 22.1972 56.8905C22.0097 57.0781 21.9043 57.3324 21.9043 57.5977C21.9043 57.8629 22.0097 58.1172 22.1972 58.3048C22.3847 58.4923 22.6391 58.5977 22.9043 58.5977C23.1695 58.5977 23.4239 58.4923 23.6114 58.3048C23.7989 58.1172 23.9043 57.8629 23.9043 57.5977C23.9043 57.3324 23.7989 57.0781 23.6114 56.8905C23.4239 56.703 23.1695 56.5977 22.9043 56.5977ZM31.0977 56.5977C30.8324 56.5977 30.5781 56.703 30.3905 56.8905C30.203 57.0781 30.0977 57.3324 30.0977 57.5977C30.0977 57.8629 30.203 58.1172 30.3905 58.3048C30.5781 58.4923 30.8324 58.5977 31.0977 58.5977C31.3629 58.5977 31.6172 58.4923 31.8048 58.3048C31.9923 58.1172 32.0977 57.8629 32.0977 57.5977C32.0977 57.3324 31.9923 57.0781 31.8048 56.8905C31.6172 56.703 31.3629 56.5977 31.0977 56.5977ZM27 57C26.7348 57 26.4804 57.1054 26.2929 57.2929C26.1054 57.4804 26 57.7348 26 58C26 58.2652 26.1054 58.5196 26.2929 58.7071C26.4804 58.8946 26.7348 59 27 59C27.2652 59 27.5196 58.8946 27.7071 58.7071C27.8946 58.5196 28 58.2652 28 58C28 57.7348 27.8946 57.4804 27.7071 57.2929C27.5196 57.1054 27.2652 57 27 57Z" fill="white"/>
</svg>
