<svg width="12" height="6" viewBox="0 0 12 6" fill="none" xmlns="http://www.w3.org/2000/svg">
<path d="M6.00333 5.6406C6.06614 5.63966 6.1252 5.61435 6.16926 5.57029L10.9693 0.770288C11.0321 0.710288 11.0574 0.620288 11.0349 0.53685C11.0133 0.452475 10.9477 0.38685 10.8633 0.365288C10.7799 0.342788 10.6899 0.3681 10.6299 0.430913L5.99958 5.06122L1.36926 0.430912C1.30926 0.368099 1.21926 0.342787 1.13583 0.365287C1.05145 0.386849 0.985826 0.452474 0.964263 0.53685C0.941763 0.620287 0.967076 0.710287 1.02989 0.770287L5.82989 5.57029C5.87583 5.61622 5.93864 5.64154 6.00333 5.6406Z" fill="black"/>
</svg>
