<svg width="94" height="92" viewBox="0 0 94 92" fill="none" xmlns="http://www.w3.org/2000/svg">
<path d="M46.6258 0C44.4792 0 42.3543 0.17347 40.2779 0.453125C40.0142 0.48845 39.7602 0.574728 39.5303 0.70703C39.3004 0.839332 39.0992 1.01507 38.9381 1.2242C38.777 1.43332 38.6592 1.67175 38.5914 1.92586C38.5236 2.17997 38.5071 2.44477 38.543 2.70516C38.5788 2.96554 38.6663 3.2164 38.8003 3.44341C38.9343 3.67042 39.1123 3.86912 39.3241 4.02818C39.5359 4.18723 39.7773 4.30352 40.0346 4.3704C40.2919 4.43728 40.5601 4.45345 40.8237 4.41797C42.7567 4.15762 44.7021 4 46.6258 4C61.9665 4 75.2744 12.0297 82.7673 24H68.9008C68.6324 23.9963 68.366 24.0452 68.117 24.144C67.868 24.2429 67.6414 24.3896 67.4503 24.5757C67.2592 24.7618 67.1074 24.9835 67.0038 25.228C66.9003 25.4725 66.8469 25.7349 66.8469 26C66.8469 26.2651 66.9003 26.5275 67.0038 26.772C67.1074 27.0165 67.2592 27.2382 67.4503 27.4243C67.6414 27.6104 67.868 27.7571 68.117 27.856C68.366 27.9548 68.6324 28.0037 68.9008 28H87.1258C87.6628 27.9999 88.1779 27.7892 88.5576 27.4142C88.9374 27.0391 89.1507 26.5304 89.1508 26V8C89.1545 7.73242 89.1038 7.46683 89.0017 7.21895C88.8996 6.97107 88.7482 6.74594 88.5564 6.5569C88.3646 6.36786 88.1364 6.21874 87.8852 6.11839C87.6341 6.01803 87.3651 5.96848 87.0941 5.97266C86.5578 5.98094 86.0466 6.19906 85.6729 6.57915C85.2992 6.95923 85.0934 7.47023 85.1008 8V20.2148C76.7268 8.05174 62.669 0 46.6258 0ZM8.15078 4C7.88244 3.99625 7.61603 4.04521 7.36702 4.14404C7.11801 4.24287 6.89137 4.38959 6.70027 4.57568C6.50917 4.76177 6.35742 4.98351 6.25385 5.22803C6.15028 5.47254 6.09694 5.73495 6.09694 6C6.09694 6.26505 6.15028 6.52746 6.25385 6.77197C6.35742 7.01649 6.50917 7.23823 6.70027 7.42432C6.89137 7.61041 7.11801 7.75713 7.36702 7.85596C7.61603 7.95479 7.88244 8.00375 8.15078 8H20.3482C8.04804 16.3055 0.0507812 30.3174 0.0507812 46C0.0507812 48.1659 0.179008 50.2197 0.434424 52.2461C0.460974 52.5117 0.541067 52.7693 0.669986 53.0039C0.798904 53.2384 0.97404 53.4451 1.18508 53.6118C1.39612 53.7784 1.63879 53.9017 1.89881 53.9743C2.15882 54.0469 2.43092 54.0674 2.69907 54.0345C2.96723 54.0017 3.22602 53.9162 3.4602 53.7831C3.69438 53.6499 3.89921 53.4718 4.06263 53.2593C4.22606 53.0468 4.34477 52.8041 4.41178 52.5456C4.47878 52.287 4.49272 52.0178 4.45278 51.7539C4.21815 49.8923 4.10078 48.0101 4.10078 46C4.10078 30.936 12.1621 17.575 24.3508 10.1836V24C24.347 24.265 24.3966 24.5281 24.4966 24.7741C24.5967 25.02 24.7452 25.2439 24.9337 25.4326C25.1221 25.6213 25.3466 25.7712 25.5942 25.8735C25.8417 25.9758 26.1074 26.0285 26.3758 26.0285C26.6441 26.0285 26.9098 25.9758 27.1574 25.8735C27.405 25.7712 27.6295 25.6213 27.8179 25.4326C28.0063 25.2439 28.1549 25.02 28.2549 24.7741C28.355 24.5281 28.4046 24.265 28.4008 24V6C28.4007 5.46958 28.1874 4.96091 27.8076 4.58584C27.4279 4.21078 26.9128 4.00005 26.3758 4H8.15078ZM90.6656 37.9727C90.3829 37.9851 90.1061 38.0558 89.8528 38.1804C89.5996 38.305 89.3755 38.4805 89.1952 38.6958C89.0148 38.9111 88.8822 39.1614 88.8057 39.4304C88.7293 39.6994 88.7107 39.9813 88.7513 40.2578C89.001 42.1519 89.1508 44.0859 89.1508 46C89.1508 61.9788 80.1049 75.7174 66.8758 82.8477V68C66.8795 67.7324 66.8288 67.4668 66.7267 67.2189C66.6246 66.9711 66.4732 66.7459 66.2814 66.5569C66.0896 66.3679 65.8614 66.2187 65.6102 66.1184C65.3591 66.018 65.09 65.9685 64.8191 65.9727C64.2828 65.9809 63.7716 66.1991 63.3979 66.5791C63.0242 66.9592 62.8184 67.4702 62.8258 68V86C62.8258 86.5304 63.0392 87.0391 63.4189 87.4142C63.7987 87.7892 64.3137 87.9999 64.8508 88H83.0758C83.3441 88.0037 83.6105 87.9548 83.8595 87.856C84.1086 87.7571 84.3352 87.6104 84.5263 87.4243C84.7174 87.2382 84.8691 87.0165 84.9727 86.772C85.0763 86.5275 85.1296 86.2651 85.1296 86C85.1296 85.7349 85.0763 85.4725 84.9727 85.228C84.8691 84.9835 84.7174 84.7618 84.5263 84.5757C84.3352 84.3896 84.1086 84.2429 83.8595 84.144C83.6105 84.0452 83.3441 83.9963 83.0758 84H72.7332C85.0484 75.7294 93.2008 61.8451 93.2008 46C93.2008 43.8821 93.0384 41.7801 92.7697 39.7422C92.7111 39.2389 92.4612 38.7763 92.0707 38.4479C91.6802 38.1194 91.178 37.9496 90.6656 37.9727ZM6.12578 64C5.58873 64.0001 5.0737 64.2108 4.69395 64.5858C4.3142 64.9609 4.10083 65.4696 4.10078 66V84C4.09699 84.265 4.14656 84.5282 4.24662 84.7741C4.34669 85.02 4.49524 85.2439 4.68366 85.4326C4.87207 85.6213 5.09659 85.7712 5.34416 85.8735C5.59173 85.9758 5.85742 86.0285 6.12578 86.0285C6.39414 86.0285 6.65983 85.9758 6.9074 85.8735C7.15497 85.7712 7.37949 85.6213 7.5679 85.4326C7.75632 85.2439 7.90488 85.02 8.00494 84.7741C8.105 84.5282 8.15458 84.265 8.15078 84V71.8398C16.5541 84.0119 30.6992 92 46.6258 92C48.07 92 49.4681 91.9466 50.8419 91.8359C51.1072 91.8146 51.3657 91.7419 51.6026 91.6219C51.8394 91.5018 52.05 91.3369 52.2222 91.1364C52.3945 90.936 52.5251 90.704 52.6065 90.4537C52.6879 90.2033 52.7186 89.9396 52.6968 89.6776C52.675 89.4155 52.6011 89.1603 52.4793 88.9265C52.3576 88.6927 52.1903 88.4849 51.9872 88.3149C51.7841 88.145 51.549 88.0162 51.2955 87.9361C51.042 87.8559 50.775 87.8258 50.5097 87.8477C49.2509 87.949 47.968 88 46.6258 88C31.3837 88 17.9527 80.0021 10.4487 68H24.3508C24.6191 68.0037 24.8855 67.9548 25.1345 67.856C25.3836 67.7571 25.6102 67.6104 25.8013 67.4243C25.9924 67.2382 26.1441 67.0165 26.2477 66.772C26.3513 66.5275 26.4046 66.2651 26.4046 66C26.4046 65.7349 26.3513 65.4725 26.2477 65.228C26.1441 64.9835 25.9924 64.7618 25.8013 64.5757C25.6102 64.3896 25.3836 64.2429 25.1345 64.144C24.8855 64.0452 24.6191 63.9963 24.3508 64H6.12578Z" fill="white"/>
</svg>
