<svg width="28" height="22" viewBox="0 0 28 22" fill="none" xmlns="http://www.w3.org/2000/svg">
<path d="M3 0C1.35156 0 0 1.35156 0 3V19C0 20.6484 1.35156 22 3 22H25C26.6484 22 28 20.6484 28 19V3C28 1.35156 26.6484 0 25 0H3ZM3 2H25C25.0703 2 25.125 2.02344 25.1875 2.03906L14 9.78125L2.8125 2.03906C2.875 2.02344 2.92969 2 3 2ZM2 3.90625L14 12.2188L26 3.90625V18.0703L19.7188 12.8125L18 14L25.1484 19.9688C25.1016 19.9766 25.0547 20 25 20H3C2.94531 20 2.89844 19.9766 2.85156 19.9688L10 14L8.28125 12.8125L2 18.0703V3.90625Z" fill="white"/>
</svg>
