<svg width="27" height="31" viewBox="0 0 27 31" fill="none" xmlns="http://www.w3.org/2000/svg">
<path d="M1.61526 30.9898C1.45511 30.9898 1.29495 30.9578 1.13479 30.8617C0.686357 30.6055 0.526201 30.0289 0.782451 29.5484C3.37698 25 8.24573 22.1492 13.4989 22.1492C18.752 22.1492 23.6207 25 26.2153 29.5484C26.4715 29.9969 26.3114 30.6055 25.8629 30.8617C25.4145 31.118 24.8059 30.9578 24.5496 30.5094C22.2754 26.5375 18.0473 24.0711 13.4989 24.0711C8.95042 24.0711 4.72229 26.5375 2.44808 30.5094C2.28792 30.7977 1.96761 30.9898 1.61526 30.9898ZM17.8551 2.32188L17.727 2.12969C16.7981 0.816406 15.2606 0.015625 13.659 0.015625H10.9364C6.86839 0.015625 3.56917 3.31484 3.56917 7.38281C3.56917 7.92734 3.98558 8.34375 4.53011 8.34375H6.19573C6.22776 8.34375 6.22776 8.34375 6.25979 8.34375C9.94339 8.34375 13.691 8.34375 16.3817 5.94141V5.97344C16.5098 5.84531 16.6379 5.74922 16.734 5.62109C17.0864 5.23672 17.695 5.17266 18.0793 5.525C18.4957 5.87734 18.5278 6.51797 18.1434 6.93438C17.9832 7.09453 17.8551 7.22266 17.6949 7.38281C17.2785 7.79922 17.4387 8.50391 17.9832 8.72812C18.3035 8.85625 18.6559 8.92031 19.0082 8.95234C19.4887 9.01641 19.8731 9.40078 19.8731 9.91328V12.0914C19.8731 15.4867 17.3106 18.4016 13.9153 18.6258C10.2317 18.882 7.12464 15.9352 7.09261 12.2516C7.09261 11.7391 6.70823 11.2906 6.19573 11.2586C5.6512 11.2266 5.17073 11.675 5.17073 12.2195C5.17073 16.8 8.91839 20.5477 13.4989 20.5477C17.9512 20.5477 21.6028 17.0562 21.827 12.6359C21.827 12.6039 21.827 12.5719 21.827 12.5398V8.05547V7.09453V6.77422C21.827 4.46797 20.0973 2.57813 17.8551 2.32188Z" fill="white"/>
</svg>
