<svg width="101" height="101" viewBox="0 0 101 101" fill="none" xmlns="http://www.w3.org/2000/svg">
<path d="M68 0C49.7949 0 35 14.7949 35 33C35 34.6934 35.2051 36.3223 35.4512 37.9219L31.1973 42.1816C28.2969 45.082 28.2852 49.8105 31.1445 52.7344L0.5 83.3789V93.6211L7.37891 100.5H17.6211L26 92.1211V90H28.1211L33.5 84.6211V81H37.1211L48.2656 69.8555C51.1895 72.7148 55.918 72.7031 58.8184 69.8027L63.0781 65.5488C64.6777 65.7949 66.3066 66 68 66C86.2051 66 101 51.2051 101 33C101 14.7949 86.2051 0 68 0ZM68 3C84.5879 3 98 16.4121 98 33C98 49.5879 84.5879 63 68 63C66.2246 63 64.4844 62.8125 62.7676 62.5137L62 62.3789L56.6973 67.6816C54.9277 69.4512 52.1035 69.4512 50.3281 67.6816L33.3184 50.6719C31.5488 48.8965 31.5488 46.0723 33.3184 44.3027L38.6211 39L38.4863 38.2324C38.1875 36.5156 38 34.7754 38 33C38 16.4121 51.4121 3 68 3ZM68 12.0059C62.6211 12.0059 57.248 14.0566 53.1523 18.1523L52.0918 19.2129L81.7871 48.9082L82.8477 47.8477C91.0391 39.6621 91.0391 26.3438 82.8535 18.1523C78.7578 14.0566 73.3789 12.0059 68 12.0059ZM68 14.9941C72.6055 14.9941 77.2109 16.752 80.7266 20.2734C87.3945 26.9414 87.5234 37.3711 81.5703 44.4551L56.5449 19.4297C59.8906 16.6172 63.8867 14.9941 68 14.9941ZM48.5 24C47.6738 24 47 24.6738 47 25.5C47 26.3262 47.6738 27 48.5 27C49.3262 27 50 26.3262 50 25.5C50 24.6738 49.3262 24 48.5 24ZM53 28.5C52.1738 28.5 51.5 29.1738 51.5 30C51.5 30.8262 52.1738 31.5 53 31.5C53.8262 31.5 54.5 30.8262 54.5 30C54.5 29.1738 53.8262 28.5 53 28.5ZM57.5 33C56.6738 33 56 33.6738 56 34.5C56 35.3262 56.6738 36 57.5 36C58.3262 36 59 35.3262 59 34.5C59 33.6738 58.3262 33 57.5 33ZM62 37.5C61.1738 37.5 60.5 38.1738 60.5 39C60.5 39.8262 61.1738 40.5 62 40.5C62.8262 40.5 63.5 39.8262 63.5 39C63.5 38.1738 62.8262 37.5 62 37.5ZM41 40.5C40.1738 40.5 39.5 41.1738 39.5 42C39.5 42.8262 40.1738 43.5 41 43.5C41.8262 43.5 42.5 42.8262 42.5 42C42.5 41.1738 41.8262 40.5 41 40.5ZM66.5 42C65.6738 42 65 42.6738 65 43.5C65 44.3262 65.6738 45 66.5 45C67.3262 45 68 44.3262 68 43.5C68 42.6738 67.3262 42 66.5 42ZM45.5 45C44.6738 45 44 45.6738 44 46.5C44 47.3262 44.6738 48 45.5 48C46.3262 48 47 47.3262 47 46.5C47 45.6738 46.3262 45 45.5 45ZM71 46.5C70.1738 46.5 69.5 47.1738 69.5 48C69.5 48.8262 70.1738 49.5 71 49.5C71.8262 49.5 72.5 48.8262 72.5 48C72.5 47.1738 71.8262 46.5 71 46.5ZM50 49.5C49.1738 49.5 48.5 50.1738 48.5 51C48.5 51.8262 49.1738 52.5 50 52.5C50.8262 52.5 51.5 51.8262 51.5 51C51.5 50.1738 50.8262 49.5 50 49.5ZM75.5 51C74.6738 51 74 51.6738 74 52.5C74 53.3262 74.6738 54 75.5 54C76.3262 54 77 53.3262 77 52.5C77 51.6738 76.3262 51 75.5 51ZM54.5 54C53.6738 54 53 54.6738 53 55.5C53 56.3262 53.6738 57 54.5 57C55.3262 57 56 56.3262 56 55.5C56 54.6738 55.3262 54 54.5 54ZM33.2656 54.8555L37.1621 58.7578C37.0801 58.8105 37.0098 58.8691 36.9395 58.9395L18.9395 76.9395C18.5469 77.3145 18.3887 77.877 18.5293 78.3984C18.6641 78.9258 19.0742 79.3359 19.6016 79.4707C20.123 79.6113 20.6855 79.4531 21.0605 79.0605L39.0605 61.0605C39.1309 60.9961 39.1953 60.9199 39.248 60.8438L46.1445 67.7344L35.8789 78H30.5V83.3789L26.8789 87H23V90.8789L16.3789 97.5H8.6211L3.5 92.3789V84.6211L33.2656 54.8555ZM59 58.5C58.1738 58.5 57.5 59.1738 57.5 60C57.5 60.8262 58.1738 61.5 59 61.5C59.8262 61.5 60.5 60.8262 60.5 60C60.5 59.1738 59.8262 58.5 59 58.5ZM15.5 81C14.6738 81 14 81.6738 14 82.5C14 83.3262 14.6738 84 15.5 84C16.3262 84 17 83.3262 17 82.5C17 81.6738 16.3262 81 15.5 81ZM11 85.5C10.1738 85.5 9.5 86.1738 9.5 87C9.5 87.8262 10.1738 88.5 11 88.5C11.8262 88.5 12.5 87.8262 12.5 87C12.5 86.1738 11.8262 85.5 11 85.5Z" fill="white"/>
</svg>
