<svg width="60" height="60" viewBox="0 0 60 60" fill="none" xmlns="http://www.w3.org/2000/svg">
<path d="M20 0C8.96651 0 0 8.96651 0 20C0 31.0335 8.96651 40 20 40C20 51.0335 28.9665 60 40 60C51.0335 60 60 51.0335 60 40C60 28.9665 51.0335 20 40 20C40 8.96651 31.0335 0 20 0ZM20 2C29.9525 2 38 10.0475 38 20C38 20.0298 37.9947 20.0711 37.9941 20.1016C36.8446 20.2164 35.7307 20.4464 34.6465 20.748C34.8587 20.5646 35 20.3023 35 20C35 19.448 34.552 19 34 19C33.448 19 33 19.448 33 20C33 20.5028 33.3779 20.9024 33.8613 20.9727C27.7623 22.9433 22.9433 27.7623 20.9727 33.8613C20.9024 33.3779 20.5028 33 20 33C19.448 33 19 33.448 19 34C19 34.552 19.448 35 20 35C20.3023 35 20.5646 34.8587 20.748 34.6465C20.4464 35.7307 20.2164 36.8446 20.1016 37.9941C20.0711 37.9947 20.0298 38 20 38C10.0475 38 2 29.9525 2 20C2 10.0475 10.0475 2 20 2ZM40 3C39.448 3 39 3.448 39 4C39 4.552 39.448 5 40 5C40.552 5 41 4.552 41 4C41 3.448 40.552 3 40 3ZM44 3C43.448 3 43 3.448 43 4C43 4.552 43.448 5 44 5C44.552 5 45 4.552 45 4C45 3.448 44.552 3 44 3ZM48 3C47.448 3 47 3.448 47 4C47 4.552 47.448 5 48 5C48.552 5 49 4.552 49 4C49 3.448 48.552 3 48 3ZM52 4C51.448 4 51 4.448 51 5C51 5.552 51.448 6 52 6C52.552 6 53 5.552 53 5C53 4.448 52.552 4 52 4ZM20 5C19.448 5 19 5.448 19 6C19 6.552 19.448 7 20 7C20.552 7 21 6.552 21 6C21 5.448 20.552 5 20 5ZM14.6504 6.06445C14.5205 6.06352 14.3873 6.08958 14.2598 6.14258C13.7498 6.35358 13.5068 6.93822 13.7188 7.44922C13.9298 7.95922 14.5144 8.20223 15.0254 7.99023C15.5354 7.77923 15.7784 7.19459 15.5664 6.68359C15.4074 6.30109 15.04 6.06727 14.6504 6.06445ZM25.3516 6.06445C24.9619 6.06727 24.5926 6.29914 24.4336 6.68164C24.2226 7.19164 24.4646 7.77628 24.9746 7.98828C25.4846 8.19928 26.0693 7.95727 26.2812 7.44727C26.4923 6.93727 26.2502 6.35262 25.7402 6.14062C25.6127 6.08763 25.4814 6.06352 25.3516 6.06445ZM55 7C54.448 7 54 7.448 54 8C54 8.552 54.448 9 55 9C55.552 9 56 8.552 56 8C56 7.448 55.552 7 55 7ZM10.1016 9.09961C9.84569 9.09961 9.59003 9.19708 9.39453 9.39258C9.00353 9.78358 9.00353 10.4166 9.39453 10.8066C9.78553 11.1976 10.4186 11.1976 10.8086 10.8066C11.1996 10.4156 11.1996 9.78258 10.8086 9.39258C10.6136 9.19708 10.3574 9.09961 10.1016 9.09961ZM29.8984 9.10156C29.6426 9.10156 29.3869 9.19903 29.1914 9.39453C28.8004 9.78553 28.8004 10.4186 29.1914 10.8086C29.5824 11.1996 30.2155 11.1996 30.6055 10.8086C30.9965 10.4176 30.9965 9.78453 30.6055 9.39453C30.4105 9.19903 30.1543 9.10156 29.8984 9.10156ZM56 11C55.448 11 55 11.448 55 12C55 12.552 55.448 13 56 13C56.552 13 57 12.552 57 12C57 11.448 56.552 11 56 11ZM19.5 11.0996V12.4492C16.87 12.6892 15.2598 14.1895 15.2598 16.4395C15.2598 18.3495 16.4509 19.6609 18.6309 20.2109L19.5 20.4395V24.8906C18.05 24.7206 17.1098 23.91 17.0098 22.75H14.9395C14.9495 25.02 16.71 26.5502 19.5 26.7402V28H20.8398V26.7305C23.6998 26.4805 25.3496 24.9898 25.3496 22.5898C25.3496 20.5698 24.2 19.3302 21.75 18.7402L20.8398 18.5293V14.3203C22.1298 14.4803 23.0108 15.3206 23.0508 16.3906H25.0898C25.0298 14.2206 23.3698 12.6692 20.8398 12.4492V11.0996H19.5ZM7.05859 13.6406C6.66859 13.6436 6.30083 13.8753 6.14258 14.2578C5.93158 14.7678 6.17359 15.3525 6.68359 15.5645C7.19359 15.7755 7.77823 15.5334 7.99023 15.0234C8.20123 14.5134 7.95922 13.9288 7.44922 13.7168C7.32147 13.664 7.18859 13.6396 7.05859 13.6406ZM32.9414 13.6406C32.8115 13.6397 32.6783 13.664 32.5508 13.7168C32.0408 13.9278 31.7978 14.5124 32.0098 15.0234C32.2208 15.5334 32.8054 15.7765 33.3164 15.5645C33.8264 15.3535 34.0694 14.7688 33.8574 14.2578C33.6984 13.8746 33.331 13.6433 32.9414 13.6406ZM19.5 14.3105V18.25C18.1 17.97 17.3496 17.2695 17.3496 16.2695C17.3496 15.1995 18.25 14.3805 19.5 14.3105ZM56 15C55.448 15 55 15.448 55 16C55 16.552 55.448 17 56 17C56.552 17 57 16.552 57 16C57 15.448 56.552 15 56 15ZM6 19C5.448 19 5 19.448 5 20C5 20.552 5.448 21 6 21C6.552 21 7 20.552 7 20C7 19.448 6.552 19 6 19ZM56 19C55.448 19 55 19.448 55 20C55 20.552 55.448 21 56 21C56.552 21 57 20.552 57 20C57 19.448 56.552 19 56 19ZM20.8398 20.6895C22.4998 21.0195 23.2695 21.7003 23.2695 22.8203C23.2695 24.0603 22.3798 24.8202 20.8398 24.9102V20.6895ZM40 22C49.9525 22 58 30.0475 58 40C58 49.9525 49.9525 58 40 58C30.0475 58 22 49.9525 22 40C22 30.0475 30.0475 22 40 22ZM7.07422 24.3574C6.94434 24.3565 6.81109 24.3806 6.68359 24.4336C6.17359 24.6446 5.93058 25.2292 6.14258 25.7402C6.35358 26.2502 6.93822 26.4932 7.44922 26.2812C7.96022 26.0693 8.20223 25.4856 7.99023 24.9746C7.83123 24.5921 7.46384 24.3602 7.07422 24.3574ZM40 25C39.448 25 39 25.448 39 26C39 26.552 39.448 27 40 27C40.552 27 41 26.552 41 26C41 25.448 40.552 25 40 25ZM34.6504 26.0645C34.5205 26.0635 34.3873 26.0879 34.2598 26.1406C33.7498 26.3516 33.5067 26.9363 33.7188 27.4473C33.9297 27.9573 34.5144 28.2003 35.0254 27.9883C35.5354 27.7773 35.7784 27.1926 35.5664 26.6816C35.4074 26.2991 35.04 26.0674 34.6504 26.0645ZM45.3516 26.0645C44.9619 26.0673 44.5926 26.2991 44.4336 26.6816C44.2226 27.1916 44.4646 27.7763 44.9746 27.9883C45.4846 28.1993 46.0692 27.9573 46.2812 27.4473C46.4922 26.9373 46.2502 26.3526 45.7402 26.1406C45.6127 26.0876 45.4814 26.0635 45.3516 26.0645ZM10.0996 28.8984C9.84361 28.8984 9.58758 28.9964 9.39258 29.1914C9.00158 29.5824 9.00158 30.2155 9.39258 30.6055C9.78358 30.9965 10.4166 30.9965 10.8066 30.6055C11.1976 30.2145 11.1976 29.5814 10.8066 29.1914C10.6116 28.9964 10.3556 28.8984 10.0996 28.8984ZM30.1016 29.0996C29.8457 29.0996 29.5895 29.1976 29.3945 29.3926C29.0035 29.7836 29.0035 30.4166 29.3945 30.8066C29.7855 31.1976 30.4186 31.1976 30.8086 30.8066C31.1986 30.4156 31.1996 29.7826 30.8086 29.3926C30.6131 29.1976 30.3574 29.0996 30.1016 29.0996ZM49.8984 29.1016C49.6426 29.1016 49.3869 29.199 49.1914 29.3945C48.8004 29.7855 48.8004 30.4186 49.1914 30.8086C49.5824 31.1986 50.2155 31.1996 50.6055 30.8086C50.9965 30.4176 50.9965 29.7845 50.6055 29.3945C50.4105 29.199 50.1543 29.1016 49.8984 29.1016ZM14.6367 31.9336C14.2467 31.9362 13.877 32.1675 13.7188 32.5508C13.5077 33.0608 13.7498 33.6454 14.2598 33.8574C14.7698 34.0684 15.3544 33.8264 15.5664 33.3164C15.7774 32.8064 15.5354 32.2218 15.0254 32.0098C14.8976 31.9568 14.7667 31.9327 14.6367 31.9336ZM43.0117 33.0957C38.9977 33.0957 36.4788 34.881 35.7168 38.123H33.7344V39.5605H35.5117C35.4827 39.8235 35.4824 40.0979 35.4824 40.3809C35.4824 40.6639 35.4917 40.9379 35.5117 41.2109H33.7344V42.6367H35.7168C36.4788 45.8787 38.9977 47.6758 43.0117 47.6758C43.6557 47.6758 44.2903 47.6252 44.6523 47.5762V45.5566C44.2713 45.6156 43.7247 45.6445 43.0117 45.6445C40.4727 45.6445 38.7535 44.5897 38.0605 42.6367H43.2949V41.2109H37.7363C37.7173 40.9469 37.6973 40.6639 37.6973 40.3809C37.6973 40.0979 37.7163 39.8245 37.7363 39.5605H43.2949V38.123H38.0508C38.7538 36.18 40.4803 35.127 43.0293 35.127C43.7333 35.127 44.2518 35.1468 44.6328 35.2148V33.2129C44.2818 33.1549 43.6167 33.0957 43.0117 33.0957ZM27.0586 33.6406C26.669 33.6434 26.3016 33.8753 26.1426 34.2578C25.9316 34.7678 26.1736 35.3525 26.6836 35.5645C27.1936 35.7755 27.7782 35.5334 27.9902 35.0234C28.2012 34.5134 27.9592 33.9288 27.4492 33.7168C27.3217 33.6638 27.1885 33.6397 27.0586 33.6406ZM52.9414 33.6406C52.8115 33.6398 52.6802 33.6638 52.5527 33.7168C52.0427 33.9278 51.7997 34.5124 52.0117 35.0234C52.2227 35.5334 52.8074 35.7765 53.3184 35.5645C53.8294 35.3525 54.0714 34.7688 53.8594 34.2578C53.7004 33.8746 53.331 33.6432 52.9414 33.6406ZM4 39C3.448 39 3 39.448 3 40C3 40.552 3.448 41 4 41C4.552 41 5 40.552 5 40C5 39.448 4.552 39 4 39ZM26 39C25.448 39 25 39.448 25 40C25 40.552 25.448 41 26 41C26.552 41 27 40.552 27 40C27 39.448 26.552 39 26 39ZM54 39C53.448 39 53 39.448 53 40C53 40.552 53.448 41 54 41C54.552 41 55 40.552 55 40C55 39.448 54.552 39 54 39ZM4 43C3.448 43 3 43.448 3 44C3 44.552 3.448 45 4 45C4.552 45 5 44.552 5 44C5 43.448 4.552 43 4 43ZM52.9277 44.3555C52.5381 44.3584 52.1707 44.5902 52.0117 44.9727C51.8007 45.4827 52.0427 46.0673 52.5527 46.2793C53.0627 46.4913 53.6474 46.2483 53.8594 45.7383C54.0704 45.2283 53.8284 44.6436 53.3184 44.4316C53.1909 44.3789 53.0576 44.3545 52.9277 44.3555ZM27.0742 44.3574C26.9442 44.3564 26.8113 44.3808 26.6836 44.4336C26.1736 44.6446 25.9306 45.2292 26.1426 45.7402C26.3546 46.2512 26.9382 46.4933 27.4492 46.2812C27.9592 46.0703 28.2022 45.4856 27.9902 44.9746C27.832 44.5921 27.4642 44.3604 27.0742 44.3574ZM4 47C3.448 47 3 47.448 3 48C3 48.552 3.448 49 4 49C4.552 49 5 48.552 5 48C5 47.448 4.552 47 4 47ZM30.0996 48.8984C29.8436 48.8984 29.5876 48.9964 29.3926 49.1914C29.0016 49.5824 29.0016 50.2155 29.3926 50.6055C29.7836 50.9965 30.4166 50.9965 30.8066 50.6055C31.1976 50.2145 31.1976 49.5814 30.8066 49.1914C30.6116 48.9964 30.3556 48.8984 30.0996 48.8984ZM49.8984 48.9004C49.6426 48.9004 49.3869 48.9979 49.1914 49.1934C48.8004 49.5844 48.8004 50.2174 49.1914 50.6074C49.5824 50.9984 50.2155 50.9984 50.6055 50.6074C50.9965 50.2164 50.9965 49.5834 50.6055 49.1934C50.4105 48.9979 50.1543 48.9004 49.8984 48.9004ZM5 51C4.448 51 4 51.448 4 52C4 52.552 4.448 53 5 53C5.552 53 6 52.552 6 52C6 51.448 5.552 51 5 51ZM45.3652 51.9316C45.2354 51.9307 45.1041 51.9568 44.9766 52.0098C44.4666 52.2208 44.2235 52.8054 44.4355 53.3164C44.6465 53.8264 45.2312 54.0694 45.7422 53.8574C46.2522 53.6464 46.4952 53.0618 46.2832 52.5508C46.1242 52.1683 45.7549 51.9345 45.3652 51.9316ZM34.6367 51.9336C34.2469 51.9362 33.877 52.1675 33.7188 52.5508C33.5078 53.0608 33.7498 53.6454 34.2598 53.8574C34.7698 54.0684 35.3544 53.8264 35.5664 53.3164C35.7774 52.8064 35.5354 52.2218 35.0254 52.0098C34.8979 51.9568 34.7667 51.9327 34.6367 51.9336ZM40 53C39.448 53 39 53.448 39 54C39 54.552 39.448 55 40 55C40.552 55 41 54.552 41 54C41 53.448 40.552 53 40 53ZM8 54C7.448 54 7 54.448 7 55C7 55.552 7.448 56 8 56C8.552 56 9 55.552 9 55C9 54.448 8.552 54 8 54ZM12 55C11.448 55 11 55.448 11 56C11 56.552 11.448 57 12 57C12.552 57 13 56.552 13 56C13 55.448 12.552 55 12 55ZM16 55C15.448 55 15 55.448 15 56C15 56.552 15.448 57 16 57C16.552 57 17 56.552 17 56C17 55.448 16.552 55 16 55ZM20 55C19.448 55 19 55.448 19 56C19 56.552 19.448 57 20 57C20.552 57 21 56.552 21 56C21 55.448 20.552 55 20 55Z" fill="#269944"/>
</svg>
