<svg width="80" height="90" viewBox="0 0 80 90" fill="none" xmlns="http://www.w3.org/2000/svg">
<path d="M39.9984 0C35.5828 0 31.8563 2.43984 26.3297 5.2875C20.8031 8.13516 13.3852 11.5734 1.80469 14.1187L0.398438 14.4562V15.8625C0.398438 43.4391 10.0664 61.868 19.7484 73.2937C29.4305 84.7195 39.2672 89.2687 39.2672 89.2687L40.0547 89.6625L40.8422 89.2687C40.8422 89.2687 79.5984 69.2438 79.5984 15.8625V14.4562L78.1922 14.1187C66.6117 11.5734 59.1937 8.13516 53.6672 5.2875C48.1406 2.43984 44.4141 0 39.9984 0ZM39.9984 3.6C42.9586 3.6 46.3898 5.58984 52.0359 8.49375C57.4008 11.25 64.9453 14.632 75.8859 17.2125C75.225 66.0234 42.2555 84.3328 39.9422 85.5563C38.8242 85.0148 31.0336 81.1195 22.4484 70.9875C13.3992 60.307 4.44141 43.1297 4.11094 17.2125C15.0516 14.632 22.5961 11.25 27.9609 8.49375C33.607 5.58984 37.0383 3.6 39.9984 3.6Z" fill="white"/>
</svg>
