<svg width="99" height="94" viewBox="0 0 99 94" fill="none" xmlns="http://www.w3.org/2000/svg">
<path d="M9 0.5C4.04756 0.5 0 4.54756 0 9.5V11H0.304688C1.04778 15.2154 4.57895 18.5 9 18.5V84.5C9 89.4524 13.0476 93.5 18 93.5H90C94.9533 93.5 99 89.4533 99 84.5C99 79.5467 94.9533 75.5 90 75.5H88.5V78.5H90C93.3327 78.5 96 81.1673 96 84.5C96 87.8327 93.3327 90.5 90 90.5C86.6694 90.5 84 87.8306 84 84.5V62V9.5C84 4.54756 79.9524 0.5 75 0.5H9ZM9 3.5H68.3174C66.8827 5.0956 66 7.19635 66 9.5C66 11.8036 66.8827 13.9044 68.3174 15.5H9C5.66944 15.5 3 12.8306 3 9.5C3 6.16944 5.66944 3.5 9 3.5ZM75 3.5C78.3306 3.5 81 6.16944 81 9.5V62V84.5C81 86.8033 81.8826 88.9043 83.3174 90.5H18C14.6694 90.5 12 87.8306 12 84.5V18.5H75V15.5C71.6673 15.5 69 12.8327 69 9.5C69 6.16728 71.6673 3.5 75 3.5ZM22.5 32C22.1022 32 21.7206 32.158 21.4393 32.4393C21.158 32.7206 21 33.1022 21 33.5C21 33.8978 21.158 34.2794 21.4393 34.5607C21.7206 34.842 22.1022 35 22.5 35C22.8978 35 23.2794 34.842 23.5607 34.5607C23.842 34.2794 24 33.8978 24 33.5C24 33.1022 23.842 32.7206 23.5607 32.4393C23.2794 32.158 22.8978 32 22.5 32ZM28.5 32C28.1022 32 27.7206 32.158 27.4393 32.4393C27.158 32.7206 27 33.1022 27 33.5C27 33.8978 27.158 34.2794 27.4393 34.5607C27.7206 34.842 28.1022 35 28.5 35C28.8978 35 29.2794 34.842 29.5607 34.5607C29.842 34.2794 30 33.8978 30 33.5C30 33.1022 29.842 32.7206 29.5607 32.4393C29.2794 32.158 28.8978 32 28.5 32ZM34.5 32C34.1022 32 33.7206 32.158 33.4393 32.4393C33.158 32.7206 33 33.1022 33 33.5C33 33.8978 33.158 34.2794 33.4393 34.5607C33.7206 34.842 34.1022 35 34.5 35C34.8978 35 35.2794 34.842 35.5607 34.5607C35.842 34.2794 36 33.8978 36 33.5C36 33.1022 35.842 32.7206 35.5607 32.4393C35.2794 32.158 34.8978 32 34.5 32ZM40.5 32C40.1022 32 39.7206 32.158 39.4393 32.4393C39.158 32.7206 39 33.1022 39 33.5C39 33.8978 39.158 34.2794 39.4393 34.5607C39.7206 34.842 40.1022 35 40.5 35C40.8978 35 41.2794 34.842 41.5607 34.5607C41.842 34.2794 42 33.8978 42 33.5C42 33.1022 41.842 32.7206 41.5607 32.4393C41.2794 32.158 40.8978 32 40.5 32ZM46.5 32C46.1022 32 45.7206 32.158 45.4393 32.4393C45.158 32.7206 45 33.1022 45 33.5C45 33.8978 45.158 34.2794 45.4393 34.5607C45.7206 34.842 46.1022 35 46.5 35C46.8978 35 47.2794 34.842 47.5607 34.5607C47.842 34.2794 48 33.8978 48 33.5C48 33.1022 47.842 32.7206 47.5607 32.4393C47.2794 32.158 46.8978 32 46.5 32ZM52.5 32C52.1022 32 51.7206 32.158 51.4393 32.4393C51.158 32.7206 51 33.1022 51 33.5C51 33.8978 51.158 34.2794 51.4393 34.5607C51.7206 34.842 52.1022 35 52.5 35C52.8978 35 53.2794 34.842 53.5607 34.5607C53.842 34.2794 54 33.8978 54 33.5C54 33.1022 53.842 32.7206 53.5607 32.4393C53.2794 32.158 52.8978 32 52.5 32ZM58.5 32C58.1022 32 57.7206 32.158 57.4393 32.4393C57.158 32.7206 57 33.1022 57 33.5C57 33.8978 57.158 34.2794 57.4393 34.5607C57.7206 34.842 58.1022 35 58.5 35C58.8978 35 59.2794 34.842 59.5607 34.5607C59.842 34.2794 60 33.8978 60 33.5C60 33.1022 59.842 32.7206 59.5607 32.4393C59.2794 32.158 58.8978 32 58.5 32ZM64.5 32C64.1022 32 63.7206 32.158 63.4393 32.4393C63.158 32.7206 63 33.1022 63 33.5C63 33.8978 63.158 34.2794 63.4393 34.5607C63.7206 34.842 64.1022 35 64.5 35C64.8978 35 65.2794 34.842 65.5607 34.5607C65.842 34.2794 66 33.8978 66 33.5C66 33.1022 65.842 32.7206 65.5607 32.4393C65.2794 32.158 64.8978 32 64.5 32ZM70.5 32C70.1022 32 69.7206 32.158 69.4393 32.4393C69.158 32.7206 69 33.1022 69 33.5C69 33.8978 69.158 34.2794 69.4393 34.5607C69.7206 34.842 70.1022 35 70.5 35C70.8978 35 71.2794 34.842 71.5607 34.5607C71.842 34.2794 72 33.8978 72 33.5C72 33.1022 71.842 32.7206 71.5607 32.4393C71.2794 32.158 70.8978 32 70.5 32ZM22.5 39.5C22.1022 39.5 21.7206 39.658 21.4393 39.9393C21.158 40.2206 21 40.6022 21 41C21 41.3978 21.158 41.7794 21.4393 42.0607C21.7206 42.342 22.1022 42.5 22.5 42.5C22.8978 42.5 23.2794 42.342 23.5607 42.0607C23.842 41.7794 24 41.3978 24 41C24 40.6022 23.842 40.2206 23.5607 39.9393C23.2794 39.658 22.8978 39.5 22.5 39.5ZM28.5 39.5C28.1022 39.5 27.7206 39.658 27.4393 39.9393C27.158 40.2206 27 40.6022 27 41C27 41.3978 27.158 41.7794 27.4393 42.0607C27.7206 42.342 28.1022 42.5 28.5 42.5C28.8978 42.5 29.2794 42.342 29.5607 42.0607C29.842 41.7794 30 41.3978 30 41C30 40.6022 29.842 40.2206 29.5607 39.9393C29.2794 39.658 28.8978 39.5 28.5 39.5ZM34.5 39.5C34.1022 39.5 33.7206 39.658 33.4393 39.9393C33.158 40.2206 33 40.6022 33 41C33 41.3978 33.158 41.7794 33.4393 42.0607C33.7206 42.342 34.1022 42.5 34.5 42.5C34.8978 42.5 35.2794 42.342 35.5607 42.0607C35.842 41.7794 36 41.3978 36 41C36 40.6022 35.842 40.2206 35.5607 39.9393C35.2794 39.658 34.8978 39.5 34.5 39.5ZM40.5 39.5C40.1022 39.5 39.7206 39.658 39.4393 39.9393C39.158 40.2206 39 40.6022 39 41C39 41.3978 39.158 41.7794 39.4393 42.0607C39.7206 42.342 40.1022 42.5 40.5 42.5C40.8978 42.5 41.2794 42.342 41.5607 42.0607C41.842 41.7794 42 41.3978 42 41C42 40.6022 41.842 40.2206 41.5607 39.9393C41.2794 39.658 40.8978 39.5 40.5 39.5ZM46.5 39.5C46.1022 39.5 45.7206 39.658 45.4393 39.9393C45.158 40.2206 45 40.6022 45 41C45 41.3978 45.158 41.7794 45.4393 42.0607C45.7206 42.342 46.1022 42.5 46.5 42.5C46.8978 42.5 47.2794 42.342 47.5607 42.0607C47.842 41.7794 48 41.3978 48 41C48 40.6022 47.842 40.2206 47.5607 39.9393C47.2794 39.658 46.8978 39.5 46.5 39.5ZM52.5 39.5C52.1022 39.5 51.7206 39.658 51.4393 39.9393C51.158 40.2206 51 40.6022 51 41C51 41.3978 51.158 41.7794 51.4393 42.0607C51.7206 42.342 52.1022 42.5 52.5 42.5C52.8978 42.5 53.2794 42.342 53.5607 42.0607C53.842 41.7794 54 41.3978 54 41C54 40.6022 53.842 40.2206 53.5607 39.9393C53.2794 39.658 52.8978 39.5 52.5 39.5ZM58.5 39.5C58.1022 39.5 57.7206 39.658 57.4393 39.9393C57.158 40.2206 57 40.6022 57 41C57 41.3978 57.158 41.7794 57.4393 42.0607C57.7206 42.342 58.1022 42.5 58.5 42.5C58.8978 42.5 59.2794 42.342 59.5607 42.0607C59.842 41.7794 60 41.3978 60 41C60 40.6022 59.842 40.2206 59.5607 39.9393C59.2794 39.658 58.8978 39.5 58.5 39.5ZM64.5 39.5C64.1022 39.5 63.7206 39.658 63.4393 39.9393C63.158 40.2206 63 40.6022 63 41C63 41.3978 63.158 41.7794 63.4393 42.0607C63.7206 42.342 64.1022 42.5 64.5 42.5C64.8978 42.5 65.2794 42.342 65.5607 42.0607C65.842 41.7794 66 41.3978 66 41C66 40.6022 65.842 40.2206 65.5607 39.9393C65.2794 39.658 64.8978 39.5 64.5 39.5ZM22.5 47C22.1022 47 21.7206 47.158 21.4393 47.4393C21.158 47.7206 21 48.1022 21 48.5C21 48.8978 21.158 49.2794 21.4393 49.5607C21.7206 49.842 22.1022 50 22.5 50C22.8978 50 23.2794 49.842 23.5607 49.5607C23.842 49.2794 24 48.8978 24 48.5C24 48.1022 23.842 47.7206 23.5607 47.4393C23.2794 47.158 22.8978 47 22.5 47ZM28.5 47C28.1022 47 27.7206 47.158 27.4393 47.4393C27.158 47.7206 27 48.1022 27 48.5C27 48.8978 27.158 49.2794 27.4393 49.5607C27.7206 49.842 28.1022 50 28.5 50C28.8978 50 29.2794 49.842 29.5607 49.5607C29.842 49.2794 30 48.8978 30 48.5C30 48.1022 29.842 47.7206 29.5607 47.4393C29.2794 47.158 28.8978 47 28.5 47ZM34.5 47C34.1022 47 33.7206 47.158 33.4393 47.4393C33.158 47.7206 33 48.1022 33 48.5C33 48.8978 33.158 49.2794 33.4393 49.5607C33.7206 49.842 34.1022 50 34.5 50C34.8978 50 35.2794 49.842 35.5607 49.5607C35.842 49.2794 36 48.8978 36 48.5C36 48.1022 35.842 47.7206 35.5607 47.4393C35.2794 47.158 34.8978 47 34.5 47ZM40.5 47C40.1022 47 39.7206 47.158 39.4393 47.4393C39.158 47.7206 39 48.1022 39 48.5C39 48.8978 39.158 49.2794 39.4393 49.5607C39.7206 49.842 40.1022 50 40.5 50C40.8978 50 41.2794 49.842 41.5607 49.5607C41.842 49.2794 42 48.8978 42 48.5C42 48.1022 41.842 47.7206 41.5607 47.4393C41.2794 47.158 40.8978 47 40.5 47ZM46.5 47C46.1022 47 45.7206 47.158 45.4393 47.4393C45.158 47.7206 45 48.1022 45 48.5C45 48.8978 45.158 49.2794 45.4393 49.5607C45.7206 49.842 46.1022 50 46.5 50C46.8978 50 47.2794 49.842 47.5607 49.5607C47.842 49.2794 48 48.8978 48 48.5C48 48.1022 47.842 47.7206 47.5607 47.4393C47.2794 47.158 46.8978 47 46.5 47ZM52.5 47C52.1022 47 51.7206 47.158 51.4393 47.4393C51.158 47.7206 51 48.1022 51 48.5C51 48.8978 51.158 49.2794 51.4393 49.5607C51.7206 49.842 52.1022 50 52.5 50C52.8978 50 53.2794 49.842 53.5607 49.5607C53.842 49.2794 54 48.8978 54 48.5C54 48.1022 53.842 47.7206 53.5607 47.4393C53.2794 47.158 52.8978 47 52.5 47ZM58.5 47C58.1022 47 57.7206 47.158 57.4393 47.4393C57.158 47.7206 57 48.1022 57 48.5C57 48.8978 57.158 49.2794 57.4393 49.5607C57.7206 49.842 58.1022 50 58.5 50C58.8978 50 59.2794 49.842 59.5607 49.5607C59.842 49.2794 60 48.8978 60 48.5C60 48.1022 59.842 47.7206 59.5607 47.4393C59.2794 47.158 58.8978 47 58.5 47ZM64.5 47C64.1022 47 63.7206 47.158 63.4393 47.4393C63.158 47.7206 63 48.1022 63 48.5C63 48.8978 63.158 49.2794 63.4393 49.5607C63.7206 49.842 64.1022 50 64.5 50C64.8978 50 65.2794 49.842 65.5607 49.5607C65.842 49.2794 66 48.8978 66 48.5C66 48.1022 65.842 47.7206 65.5607 47.4393C65.2794 47.158 64.8978 47 64.5 47ZM70.5 47C70.1022 47 69.7206 47.158 69.4393 47.4393C69.158 47.7206 69 48.1022 69 48.5C69 48.8978 69.158 49.2794 69.4393 49.5607C69.7206 49.842 70.1022 50 70.5 50C70.8978 50 71.2794 49.842 71.5607 49.5607C71.842 49.2794 72 48.8978 72 48.5C72 48.1022 71.842 47.7206 71.5607 47.4393C71.2794 47.158 70.8978 47 70.5 47ZM22.5 54.5C22.1022 54.5 21.7206 54.658 21.4393 54.9393C21.158 55.2206 21 55.6022 21 56C21 56.3978 21.158 56.7794 21.4393 57.0607C21.7206 57.342 22.1022 57.5 22.5 57.5C22.8978 57.5 23.2794 57.342 23.5607 57.0607C23.842 56.7794 24 56.3978 24 56C24 55.6022 23.842 55.2206 23.5607 54.9393C23.2794 54.658 22.8978 54.5 22.5 54.5ZM28.5 54.5C28.1022 54.5 27.7206 54.658 27.4393 54.9393C27.158 55.2206 27 55.6022 27 56C27 56.3978 27.158 56.7794 27.4393 57.0607C27.7206 57.342 28.1022 57.5 28.5 57.5C28.8978 57.5 29.2794 57.342 29.5607 57.0607C29.842 56.7794 30 56.3978 30 56C30 55.6022 29.842 55.2206 29.5607 54.9393C29.2794 54.658 28.8978 54.5 28.5 54.5ZM34.5 54.5C34.1022 54.5 33.7206 54.658 33.4393 54.9393C33.158 55.2206 33 55.6022 33 56C33 56.3978 33.158 56.7794 33.4393 57.0607C33.7206 57.342 34.1022 57.5 34.5 57.5C34.8978 57.5 35.2794 57.342 35.5607 57.0607C35.842 56.7794 36 56.3978 36 56C36 55.6022 35.842 55.2206 35.5607 54.9393C35.2794 54.658 34.8978 54.5 34.5 54.5ZM40.5 54.5C40.1022 54.5 39.7206 54.658 39.4393 54.9393C39.158 55.2206 39 55.6022 39 56C39 56.3978 39.158 56.7794 39.4393 57.0607C39.7206 57.342 40.1022 57.5 40.5 57.5C40.8978 57.5 41.2794 57.342 41.5607 57.0607C41.842 56.7794 42 56.3978 42 56C42 55.6022 41.842 55.2206 41.5607 54.9393C41.2794 54.658 40.8978 54.5 40.5 54.5ZM46.5 54.5C46.1022 54.5 45.7206 54.658 45.4393 54.9393C45.158 55.2206 45 55.6022 45 56C45 56.3978 45.158 56.7794 45.4393 57.0607C45.7206 57.342 46.1022 57.5 46.5 57.5C46.8978 57.5 47.2794 57.342 47.5607 57.0607C47.842 56.7794 48 56.3978 48 56C48 55.6022 47.842 55.2206 47.5607 54.9393C47.2794 54.658 46.8978 54.5 46.5 54.5ZM52.5 54.5C52.1022 54.5 51.7206 54.658 51.4393 54.9393C51.158 55.2206 51 55.6022 51 56C51 56.3978 51.158 56.7794 51.4393 57.0607C51.7206 57.342 52.1022 57.5 52.5 57.5C52.8978 57.5 53.2794 57.342 53.5607 57.0607C53.842 56.7794 54 56.3978 54 56C54 55.6022 53.842 55.2206 53.5607 54.9393C53.2794 54.658 52.8978 54.5 52.5 54.5ZM58.5 54.5C58.1022 54.5 57.7206 54.658 57.4393 54.9393C57.158 55.2206 57 55.6022 57 56C57 56.3978 57.158 56.7794 57.4393 57.0607C57.7206 57.342 58.1022 57.5 58.5 57.5C58.8978 57.5 59.2794 57.342 59.5607 57.0607C59.842 56.7794 60 56.3978 60 56C60 55.6022 59.842 55.2206 59.5607 54.9393C59.2794 54.658 58.8978 54.5 58.5 54.5ZM64.5 54.5C64.1022 54.5 63.7206 54.658 63.4393 54.9393C63.158 55.2206 63 55.6022 63 56C63 56.3978 63.158 56.7794 63.4393 57.0607C63.7206 57.342 64.1022 57.5 64.5 57.5C64.8978 57.5 65.2794 57.342 65.5607 57.0607C65.842 56.7794 66 56.3978 66 56C66 55.6022 65.842 55.2206 65.5607 54.9393C65.2794 54.658 64.8978 54.5 64.5 54.5ZM22.5 62C22.1022 62 21.7206 62.158 21.4393 62.4393C21.158 62.7206 21 63.1022 21 63.5C21 63.8978 21.158 64.2794 21.4393 64.5607C21.7206 64.842 22.1022 65 22.5 65C22.8978 65 23.2794 64.842 23.5607 64.5607C23.842 64.2794 24 63.8978 24 63.5C24 63.1022 23.842 62.7206 23.5607 62.4393C23.2794 62.158 22.8978 62 22.5 62ZM28.5 62C28.1022 62 27.7206 62.158 27.4393 62.4393C27.158 62.7206 27 63.1022 27 63.5C27 63.8978 27.158 64.2794 27.4393 64.5607C27.7206 64.842 28.1022 65 28.5 65C28.8978 65 29.2794 64.842 29.5607 64.5607C29.842 64.2794 30 63.8978 30 63.5C30 63.1022 29.842 62.7206 29.5607 62.4393C29.2794 62.158 28.8978 62 28.5 62ZM34.5 62C34.1022 62 33.7206 62.158 33.4393 62.4393C33.158 62.7206 33 63.1022 33 63.5C33 63.8978 33.158 64.2794 33.4393 64.5607C33.7206 64.842 34.1022 65 34.5 65C34.8978 65 35.2794 64.842 35.5607 64.5607C35.842 64.2794 36 63.8978 36 63.5C36 63.1022 35.842 62.7206 35.5607 62.4393C35.2794 62.158 34.8978 62 34.5 62ZM40.5 62C40.1022 62 39.7206 62.158 39.4393 62.4393C39.158 62.7206 39 63.1022 39 63.5C39 63.8978 39.158 64.2794 39.4393 64.5607C39.7206 64.842 40.1022 65 40.5 65C40.8978 65 41.2794 64.842 41.5607 64.5607C41.842 64.2794 42 63.8978 42 63.5C42 63.1022 41.842 62.7206 41.5607 62.4393C41.2794 62.158 40.8978 62 40.5 62ZM46.5 62C46.1022 62 45.7206 62.158 45.4393 62.4393C45.158 62.7206 45 63.1022 45 63.5C45 63.8978 45.158 64.2794 45.4393 64.5607C45.7206 64.842 46.1022 65 46.5 65C46.8978 65 47.2794 64.842 47.5607 64.5607C47.842 64.2794 48 63.8978 48 63.5C48 63.1022 47.842 62.7206 47.5607 62.4393C47.2794 62.158 46.8978 62 46.5 62ZM52.5 62C52.1022 62 51.7206 62.158 51.4393 62.4393C51.158 62.7206 51 63.1022 51 63.5C51 63.8978 51.158 64.2794 51.4393 64.5607C51.7206 64.842 52.1022 65 52.5 65C52.8978 65 53.2794 64.842 53.5607 64.5607C53.842 64.2794 54 63.8978 54 63.5C54 63.1022 53.842 62.7206 53.5607 62.4393C53.2794 62.158 52.8978 62 52.5 62ZM58.5 62C58.1022 62 57.7206 62.158 57.4393 62.4393C57.158 62.7206 57 63.1022 57 63.5C57 63.8978 57.158 64.2794 57.4393 64.5607C57.7206 64.842 58.1022 65 58.5 65C58.8978 65 59.2794 64.842 59.5607 64.5607C59.842 64.2794 60 63.8978 60 63.5C60 63.1022 59.842 62.7206 59.5607 62.4393C59.2794 62.158 58.8978 62 58.5 62ZM64.5 62C64.1022 62 63.7206 62.158 63.4393 62.4393C63.158 62.7206 63 63.1022 63 63.5C63 63.8978 63.158 64.2794 63.4393 64.5607C63.7206 64.842 64.1022 65 64.5 65C64.8978 65 65.2794 64.842 65.5607 64.5607C65.842 64.2794 66 63.8978 66 63.5C66 63.1022 65.842 62.7206 65.5607 62.4393C65.2794 62.158 64.8978 62 64.5 62ZM70.5 62C70.1022 62 69.7206 62.158 69.4393 62.4393C69.158 62.7206 69 63.1022 69 63.5C69 63.8978 69.158 64.2794 69.4393 64.5607C69.7206 64.842 70.1022 65 70.5 65C70.8978 65 71.2794 64.842 71.5607 64.5607C71.842 64.2794 72 63.8978 72 63.5C72 63.1022 71.842 62.7206 71.5607 62.4393C71.2794 62.158 70.8978 62 70.5 62ZM22.5 69.5C22.1022 69.5 21.7206 69.658 21.4393 69.9393C21.158 70.2206 21 70.6022 21 71C21 71.3978 21.158 71.7794 21.4393 72.0607C21.7206 72.342 22.1022 72.5 22.5 72.5C22.8978 72.5 23.2794 72.342 23.5607 72.0607C23.842 71.7794 24 71.3978 24 71C24 70.6022 23.842 70.2206 23.5607 69.9393C23.2794 69.658 22.8978 69.5 22.5 69.5ZM28.5 69.5C28.1022 69.5 27.7206 69.658 27.4393 69.9393C27.158 70.2206 27 70.6022 27 71C27 71.3978 27.158 71.7794 27.4393 72.0607C27.7206 72.342 28.1022 72.5 28.5 72.5C28.8978 72.5 29.2794 72.342 29.5607 72.0607C29.842 71.7794 30 71.3978 30 71C30 70.6022 29.842 70.2206 29.5607 69.9393C29.2794 69.658 28.8978 69.5 28.5 69.5ZM34.5 69.5C34.1022 69.5 33.7206 69.658 33.4393 69.9393C33.158 70.2206 33 70.6022 33 71C33 71.3978 33.158 71.7794 33.4393 72.0607C33.7206 72.342 34.1022 72.5 34.5 72.5C34.8978 72.5 35.2794 72.342 35.5607 72.0607C35.842 71.7794 36 71.3978 36 71C36 70.6022 35.842 70.2206 35.5607 69.9393C35.2794 69.658 34.8978 69.5 34.5 69.5ZM40.5 69.5C40.1022 69.5 39.7206 69.658 39.4393 69.9393C39.158 70.2206 39 70.6022 39 71C39 71.3978 39.158 71.7794 39.4393 72.0607C39.7206 72.342 40.1022 72.5 40.5 72.5C40.8978 72.5 41.2794 72.342 41.5607 72.0607C41.842 71.7794 42 71.3978 42 71C42 70.6022 41.842 70.2206 41.5607 69.9393C41.2794 69.658 40.8978 69.5 40.5 69.5ZM46.5 69.5C46.1022 69.5 45.7206 69.658 45.4393 69.9393C45.158 70.2206 45 70.6022 45 71C45 71.3978 45.158 71.7794 45.4393 72.0607C45.7206 72.342 46.1022 72.5 46.5 72.5C46.8978 72.5 47.2794 72.342 47.5607 72.0607C47.842 71.7794 48 71.3978 48 71C48 70.6022 47.842 70.2206 47.5607 69.9393C47.2794 69.658 46.8978 69.5 46.5 69.5ZM52.5 69.5C52.1022 69.5 51.7206 69.658 51.4393 69.9393C51.158 70.2206 51 70.6022 51 71C51 71.3978 51.158 71.7794 51.4393 72.0607C51.7206 72.342 52.1022 72.5 52.5 72.5C52.8978 72.5 53.2794 72.342 53.5607 72.0607C53.842 71.7794 54 71.3978 54 71C54 70.6022 53.842 70.2206 53.5607 69.9393C53.2794 69.658 52.8978 69.5 52.5 69.5ZM58.5 69.5C58.1022 69.5 57.7206 69.658 57.4393 69.9393C57.158 70.2206 57 70.6022 57 71C57 71.3978 57.158 71.7794 57.4393 72.0607C57.7206 72.342 58.1022 72.5 58.5 72.5C58.8978 72.5 59.2794 72.342 59.5607 72.0607C59.842 71.7794 60 71.3978 60 71C60 70.6022 59.842 70.2206 59.5607 69.9393C59.2794 69.658 58.8978 69.5 58.5 69.5ZM64.5 69.5C64.1022 69.5 63.7206 69.658 63.4393 69.9393C63.158 70.2206 63 70.6022 63 71C63 71.3978 63.158 71.7794 63.4393 72.0607C63.7206 72.342 64.1022 72.5 64.5 72.5C64.8978 72.5 65.2794 72.342 65.5607 72.0607C65.842 71.7794 66 71.3978 66 71C66 70.6022 65.842 70.2206 65.5607 69.9393C65.2794 69.658 64.8978 69.5 64.5 69.5Z" fill="white"/>
</svg>
