<svg width="102" height="78" viewBox="0 0 102 78" fill="none" xmlns="http://www.w3.org/2000/svg">
<path d="M7.5 0C3.37573 0 0 3.37573 0 7.5V70.5C0 74.6243 3.37573 78 7.5 78H94.5C98.6243 78 102 74.6243 102 70.5V7.5C102 3.37573 98.6243 0 94.5 0H7.5ZM7.5 3H94.5C97.0027 3 99 4.99727 99 7.5V70.5C99 73.0027 97.0027 75 94.5 75H7.5C4.99727 75 3 73.0027 3 70.5V7.5C3 4.99727 4.99727 3 7.5 3ZM12 10.5C11.6022 10.5 11.2206 10.658 10.9393 10.9393C10.658 11.2206 10.5 11.6022 10.5 12C10.5 12.3978 10.658 12.7794 10.9393 13.0607C11.2206 13.342 11.6022 13.5 12 13.5C12.3978 13.5 12.7794 13.342 13.0607 13.0607C13.342 12.7794 13.5 12.3978 13.5 12C13.5 11.6022 13.342 11.2206 13.0607 10.9393C12.7794 10.658 12.3978 10.5 12 10.5ZM18 10.5C17.6022 10.5 17.2206 10.658 16.9393 10.9393C16.658 11.2206 16.5 11.6022 16.5 12C16.5 12.3978 16.658 12.7794 16.9393 13.0607C17.2206 13.342 17.6022 13.5 18 13.5C18.3978 13.5 18.7794 13.342 19.0607 13.0607C19.342 12.7794 19.5 12.3978 19.5 12C19.5 11.6022 19.342 11.2206 19.0607 10.9393C18.7794 10.658 18.3978 10.5 18 10.5ZM24 10.5C23.6022 10.5 23.2206 10.658 22.9393 10.9393C22.658 11.2206 22.5 11.6022 22.5 12C22.5 12.3978 22.658 12.7794 22.9393 13.0607C23.2206 13.342 23.6022 13.5 24 13.5C24.3978 13.5 24.7794 13.342 25.0607 13.0607C25.342 12.7794 25.5 12.3978 25.5 12C25.5 11.6022 25.342 11.2206 25.0607 10.9393C24.7794 10.658 24.3978 10.5 24 10.5ZM30 10.5C29.6022 10.5 29.2206 10.658 28.9393 10.9393C28.658 11.2206 28.5 11.6022 28.5 12C28.5 12.3978 28.658 12.7794 28.9393 13.0607C29.2206 13.342 29.6022 13.5 30 13.5C30.3978 13.5 30.7794 13.342 31.0607 13.0607C31.342 12.7794 31.5 12.3978 31.5 12C31.5 11.6022 31.342 11.2206 31.0607 10.9393C30.7794 10.658 30.3978 10.5 30 10.5ZM36 10.5C35.6022 10.5 35.2206 10.658 34.9393 10.9393C34.658 11.2206 34.5 11.6022 34.5 12C34.5 12.3978 34.658 12.7794 34.9393 13.0607C35.2206 13.342 35.6022 13.5 36 13.5C36.3978 13.5 36.7794 13.342 37.0607 13.0607C37.342 12.7794 37.5 12.3978 37.5 12C37.5 11.6022 37.342 11.2206 37.0607 10.9393C36.7794 10.658 36.3978 10.5 36 10.5ZM42 10.5C41.6022 10.5 41.2206 10.658 40.9393 10.9393C40.658 11.2206 40.5 11.6022 40.5 12C40.5 12.3978 40.658 12.7794 40.9393 13.0607C41.2206 13.342 41.6022 13.5 42 13.5C42.3978 13.5 42.7794 13.342 43.0607 13.0607C43.342 12.7794 43.5 12.3978 43.5 12C43.5 11.6022 43.342 11.2206 43.0607 10.9393C42.7794 10.658 42.3978 10.5 42 10.5ZM48 10.5C47.6022 10.5 47.2206 10.658 46.9393 10.9393C46.658 11.2206 46.5 11.6022 46.5 12C46.5 12.3978 46.658 12.7794 46.9393 13.0607C47.2206 13.342 47.6022 13.5 48 13.5C48.3978 13.5 48.7794 13.342 49.0607 13.0607C49.342 12.7794 49.5 12.3978 49.5 12C49.5 11.6022 49.342 11.2206 49.0607 10.9393C48.7794 10.658 48.3978 10.5 48 10.5ZM54 10.5C53.6022 10.5 53.2206 10.658 52.9393 10.9393C52.658 11.2206 52.5 11.6022 52.5 12C52.5 12.3978 52.658 12.7794 52.9393 13.0607C53.2206 13.342 53.6022 13.5 54 13.5C54.3978 13.5 54.7794 13.342 55.0607 13.0607C55.342 12.7794 55.5 12.3978 55.5 12C55.5 11.6022 55.342 11.2206 55.0607 10.9393C54.7794 10.658 54.3978 10.5 54 10.5ZM60 10.5C59.6022 10.5 59.2206 10.658 58.9393 10.9393C58.658 11.2206 58.5 11.6022 58.5 12C58.5 12.3978 58.658 12.7794 58.9393 13.0607C59.2206 13.342 59.6022 13.5 60 13.5C60.3978 13.5 60.7794 13.342 61.0607 13.0607C61.342 12.7794 61.5 12.3978 61.5 12C61.5 11.6022 61.342 11.2206 61.0607 10.9393C60.7794 10.658 60.3978 10.5 60 10.5ZM66 10.5C65.6022 10.5 65.2206 10.658 64.9393 10.9393C64.658 11.2206 64.5 11.6022 64.5 12C64.5 12.3978 64.658 12.7794 64.9393 13.0607C65.2206 13.342 65.6022 13.5 66 13.5C66.3978 13.5 66.7794 13.342 67.0607 13.0607C67.342 12.7794 67.5 12.3978 67.5 12C67.5 11.6022 67.342 11.2206 67.0607 10.9393C66.7794 10.658 66.3978 10.5 66 10.5ZM72 10.5C71.6022 10.5 71.2206 10.658 70.9393 10.9393C70.658 11.2206 70.5 11.6022 70.5 12C70.5 12.3978 70.658 12.7794 70.9393 13.0607C71.2206 13.342 71.6022 13.5 72 13.5C72.3978 13.5 72.7794 13.342 73.0607 13.0607C73.342 12.7794 73.5 12.3978 73.5 12C73.5 11.6022 73.342 11.2206 73.0607 10.9393C72.7794 10.658 72.3978 10.5 72 10.5ZM78 10.5C77.6022 10.5 77.2206 10.658 76.9393 10.9393C76.658 11.2206 76.5 11.6022 76.5 12C76.5 12.3978 76.658 12.7794 76.9393 13.0607C77.2206 13.342 77.6022 13.5 78 13.5C78.3978 13.5 78.7794 13.342 79.0607 13.0607C79.342 12.7794 79.5 12.3978 79.5 12C79.5 11.6022 79.342 11.2206 79.0607 10.9393C78.7794 10.658 78.3978 10.5 78 10.5ZM84 10.5C83.6022 10.5 83.2206 10.658 82.9393 10.9393C82.658 11.2206 82.5 11.6022 82.5 12C82.5 12.3978 82.658 12.7794 82.9393 13.0607C83.2206 13.342 83.6022 13.5 84 13.5C84.3978 13.5 84.7794 13.342 85.0607 13.0607C85.342 12.7794 85.5 12.3978 85.5 12C85.5 11.6022 85.342 11.2206 85.0607 10.9393C84.7794 10.658 84.3978 10.5 84 10.5ZM90 10.5C89.6022 10.5 89.2206 10.658 88.9393 10.9393C88.658 11.2206 88.5 11.6022 88.5 12C88.5 12.3978 88.658 12.7794 88.9393 13.0607C89.2206 13.342 89.6022 13.5 90 13.5C90.3978 13.5 90.7794 13.342 91.0607 13.0607C91.342 12.7794 91.5 12.3978 91.5 12C91.5 11.6022 91.342 11.2206 91.0607 10.9393C90.7794 10.658 90.3978 10.5 90 10.5ZM12 16.5C11.6022 16.5 11.2206 16.658 10.9393 16.9393C10.658 17.2206 10.5 17.6022 10.5 18C10.5 18.3978 10.658 18.7794 10.9393 19.0607C11.2206 19.342 11.6022 19.5 12 19.5C12.3978 19.5 12.7794 19.342 13.0607 19.0607C13.342 18.7794 13.5 18.3978 13.5 18C13.5 17.6022 13.342 17.2206 13.0607 16.9393C12.7794 16.658 12.3978 16.5 12 16.5ZM90 16.5C89.6022 16.5 89.2206 16.658 88.9393 16.9393C88.658 17.2206 88.5 17.6022 88.5 18C88.5 18.3978 88.658 18.7794 88.9393 19.0607C89.2206 19.342 89.6022 19.5 90 19.5C90.3978 19.5 90.7794 19.342 91.0607 19.0607C91.342 18.7794 91.5 18.3978 91.5 18C91.5 17.6022 91.342 17.2206 91.0607 16.9393C90.7794 16.658 90.3978 16.5 90 16.5ZM51 17.9854C49.9907 17.9851 48.9826 18.2928 48.123 18.9082C48.1211 18.9092 48.1191 18.9102 48.1172 18.9111L45.4131 20.8623L42.1055 21.3135C42.0641 21.3196 42.0231 21.3274 41.9824 21.3369C39.9176 21.7985 38.2985 23.4176 37.8369 25.4824C37.8274 25.5231 37.8196 25.5641 37.8135 25.6055L37.3652 28.8926L35.4346 31.418C35.4065 31.4548 35.3801 31.4929 35.3555 31.5322C34.2207 33.3463 34.178 35.6602 35.4082 37.3799C35.4092 37.3818 35.4102 37.3838 35.4111 37.3857L37.3799 40.1104L37.9893 43.6172L37.9775 43.5264C38.2214 45.708 39.9619 47.4456 42.1436 47.6895L42.1055 47.6865L42.2871 47.7129L36 54H42V60L50.9912 51.0088C50.9971 51.0088 51.0029 51.0088 51.0088 51.0088L60 59.9971V53.9971H66L59.6016 47.5986L60.0264 47.5254C62.208 47.2815 63.9456 45.541 64.1895 43.3594L64.1865 43.3945L64.6377 40.0928L66.5889 37.3857C66.6083 37.359 66.6269 37.3317 66.6445 37.3037C67.7793 35.4897 67.822 33.1757 66.5918 31.4561C66.5908 31.4541 66.5899 31.4521 66.5889 31.4502L64.6172 28.7168L64.0078 25.374L64.0225 25.4766C63.7787 23.2959 62.0397 21.5556 59.8594 21.3105H59.8564L56.5898 20.8652L53.8857 18.9111C53.8838 18.9102 53.8818 18.9092 53.8799 18.9082C53.0196 18.2928 52.0093 17.9856 51 17.9854ZM51 21.0176C51.4105 21.018 51.8215 21.1282 52.1309 21.3486H52.1338L55.1367 23.5166C55.3367 23.6607 55.5692 23.7533 55.8135 23.7861L59.4873 24.2871C59.5 24.2892 59.5127 24.2912 59.5254 24.293C60.3497 24.3851 60.9479 24.9862 61.04 25.8105C61.0448 25.8439 61.0506 25.8772 61.0576 25.9102L61.7256 29.5898C61.7651 29.8096 61.8532 30.0178 61.9834 30.1992L64.1572 33.208C64.5963 33.8268 64.6367 34.8462 64.1045 35.7041L61.9834 38.6396C61.8398 38.8388 61.7472 39.0702 61.7139 39.3135L61.2129 42.9902C61.2118 43.0019 61.2108 43.0137 61.21 43.0254C61.1178 43.8497 60.5167 44.4508 59.6924 44.543C59.662 44.546 59.6317 44.5499 59.6016 44.5547L55.7578 45.2256C55.5337 45.2643 55.3213 45.3535 55.1367 45.4863L52.1338 47.6543H52.1309L52.1279 47.6572C51.5112 48.0948 50.4968 48.134 49.6406 47.6074L46.8984 45.5098C46.6915 45.3523 46.4472 45.2514 46.1895 45.2168L42.5127 44.7129C42.5 44.7118 42.4873 44.7108 42.4746 44.71C41.6503 44.6178 41.0521 44.0167 40.96 43.1924C40.956 43.162 40.9511 43.1317 40.9453 43.1016L40.2773 39.2549C40.2378 39.0305 40.1476 38.8181 40.0137 38.6338L37.8457 35.6338V35.6309L37.8428 35.6279C37.4061 35.0124 37.3693 34.0015 37.8926 33.1465L39.9902 30.3984C40.1487 30.1918 40.2507 29.9475 40.2861 29.6895L40.7725 26.1182C40.987 25.1935 41.6935 24.487 42.6182 24.2725L46.1895 23.7861C46.4338 23.7533 46.6662 23.6607 46.8662 23.5166L49.8691 21.3457H49.8721C50.1793 21.1267 50.5895 21.0172 51 21.0176ZM12 22.5C11.6022 22.5 11.2206 22.658 10.9393 22.9393C10.658 23.2206 10.5 23.6022 10.5 24C10.5 24.3978 10.658 24.7794 10.9393 25.0607C11.2206 25.342 11.6022 25.5 12 25.5C12.3978 25.5 12.7794 25.342 13.0607 25.0607C13.342 24.7794 13.5 24.3978 13.5 24C13.5 23.6022 13.342 23.2206 13.0607 22.9393C12.7794 22.658 12.3978 22.5 12 22.5ZM90 22.5C89.6022 22.5 89.2206 22.658 88.9393 22.9393C88.658 23.2206 88.5 23.6022 88.5 24C88.5 24.3978 88.658 24.7794 88.9393 25.0607C89.2206 25.342 89.6022 25.5 90 25.5C90.3978 25.5 90.7794 25.342 91.0607 25.0607C91.342 24.7794 91.5 24.3978 91.5 24C91.5 23.6022 91.342 23.2206 91.0607 22.9393C90.7794 22.658 90.3978 22.5 90 22.5ZM12 28.5C11.6022 28.5 11.2206 28.658 10.9393 28.9393C10.658 29.2206 10.5 29.6022 10.5 30C10.5 30.3978 10.658 30.7794 10.9393 31.0607C11.2206 31.342 11.6022 31.5 12 31.5C12.3978 31.5 12.7794 31.342 13.0607 31.0607C13.342 30.7794 13.5 30.3978 13.5 30C13.5 29.6022 13.342 29.2206 13.0607 28.9393C12.7794 28.658 12.3978 28.5 12 28.5ZM90 28.5C89.6022 28.5 89.2206 28.658 88.9393 28.9393C88.658 29.2206 88.5 29.6022 88.5 30C88.5 30.3978 88.658 30.7794 88.9393 31.0607C89.2206 31.342 89.6022 31.5 90 31.5C90.3978 31.5 90.7794 31.342 91.0607 31.0607C91.342 30.7794 91.5 30.3978 91.5 30C91.5 29.6022 91.342 29.2206 91.0607 28.9393C90.7794 28.658 90.3978 28.5 90 28.5ZM12 34.5C11.6022 34.5 11.2206 34.658 10.9393 34.9393C10.658 35.2206 10.5 35.6022 10.5 36C10.5 36.3978 10.658 36.7794 10.9393 37.0607C11.2206 37.342 11.6022 37.5 12 37.5C12.3978 37.5 12.7794 37.342 13.0607 37.0607C13.342 36.7794 13.5 36.3978 13.5 36C13.5 35.6022 13.342 35.2206 13.0607 34.9393C12.7794 34.658 12.3978 34.5 12 34.5ZM90 34.5C89.6022 34.5 89.2206 34.658 88.9393 34.9393C88.658 35.2206 88.5 35.6022 88.5 36C88.5 36.3978 88.658 36.7794 88.9393 37.0607C89.2206 37.342 89.6022 37.5 90 37.5C90.3978 37.5 90.7794 37.342 91.0607 37.0607C91.342 36.7794 91.5 36.3978 91.5 36C91.5 35.6022 91.342 35.2206 91.0607 34.9393C90.7794 34.658 90.3978 34.5 90 34.5ZM12 40.5C11.6022 40.5 11.2206 40.658 10.9393 40.9393C10.658 41.2206 10.5 41.6022 10.5 42C10.5 42.3978 10.658 42.7794 10.9393 43.0607C11.2206 43.342 11.6022 43.5 12 43.5C12.3978 43.5 12.7794 43.342 13.0607 43.0607C13.342 42.7794 13.5 42.3978 13.5 42C13.5 41.6022 13.342 41.2206 13.0607 40.9393C12.7794 40.658 12.3978 40.5 12 40.5ZM90 40.5C89.6022 40.5 89.2206 40.658 88.9393 40.9393C88.658 41.2206 88.5 41.6022 88.5 42C88.5 42.3978 88.658 42.7794 88.9393 43.0607C89.2206 43.342 89.6022 43.5 90 43.5C90.3978 43.5 90.7794 43.342 91.0607 43.0607C91.342 42.7794 91.5 42.3978 91.5 42C91.5 41.6022 91.342 41.2206 91.0607 40.9393C90.7794 40.658 90.3978 40.5 90 40.5ZM12 46.5C11.6022 46.5 11.2206 46.658 10.9393 46.9393C10.658 47.2206 10.5 47.6022 10.5 48C10.5 48.3978 10.658 48.7794 10.9393 49.0607C11.2206 49.342 11.6022 49.5 12 49.5C12.3978 49.5 12.7794 49.342 13.0607 49.0607C13.342 48.7794 13.5 48.3978 13.5 48C13.5 47.6022 13.342 47.2206 13.0607 46.9393C12.7794 46.658 12.3978 46.5 12 46.5ZM90 46.5C89.6022 46.5 89.2206 46.658 88.9393 46.9393C88.658 47.2206 88.5 47.6022 88.5 48C88.5 48.3978 88.658 48.7794 88.9393 49.0607C89.2206 49.342 89.6022 49.5 90 49.5C90.3978 49.5 90.7794 49.342 91.0607 49.0607C91.342 48.7794 91.5 48.3978 91.5 48C91.5 47.6022 91.342 47.2206 91.0607 46.9393C90.7794 46.658 90.3978 46.5 90 46.5ZM12 52.5C11.6022 52.5 11.2206 52.658 10.9393 52.9393C10.658 53.2206 10.5 53.6022 10.5 54C10.5 54.3978 10.658 54.7794 10.9393 55.0607C11.2206 55.342 11.6022 55.5 12 55.5C12.3978 55.5 12.7794 55.342 13.0607 55.0607C13.342 54.7794 13.5 54.3978 13.5 54C13.5 53.6022 13.342 53.2206 13.0607 52.9393C12.7794 52.658 12.3978 52.5 12 52.5ZM90 52.5C89.6022 52.5 89.2206 52.658 88.9393 52.9393C88.658 53.2206 88.5 53.6022 88.5 54C88.5 54.3978 88.658 54.7794 88.9393 55.0607C89.2206 55.342 89.6022 55.5 90 55.5C90.3978 55.5 90.7794 55.342 91.0607 55.0607C91.342 54.7794 91.5 54.3978 91.5 54C91.5 53.6022 91.342 53.2206 91.0607 52.9393C90.7794 52.658 90.3978 52.5 90 52.5ZM12 58.5C11.6022 58.5 11.2206 58.658 10.9393 58.9393C10.658 59.2206 10.5 59.6022 10.5 60C10.5 60.3978 10.658 60.7794 10.9393 61.0607C11.2206 61.342 11.6022 61.5 12 61.5C12.3978 61.5 12.7794 61.342 13.0607 61.0607C13.342 60.7794 13.5 60.3978 13.5 60C13.5 59.6022 13.342 59.2206 13.0607 58.9393C12.7794 58.658 12.3978 58.5 12 58.5ZM90 58.5C89.6022 58.5 89.2206 58.658 88.9393 58.9393C88.658 59.2206 88.5 59.6022 88.5 60C88.5 60.3978 88.658 60.7794 88.9393 61.0607C89.2206 61.342 89.6022 61.5 90 61.5C90.3978 61.5 90.7794 61.342 91.0607 61.0607C91.342 60.7794 91.5 60.3978 91.5 60C91.5 59.6022 91.342 59.2206 91.0607 58.9393C90.7794 58.658 90.3978 58.5 90 58.5ZM12 64.5C11.6022 64.5 11.2206 64.658 10.9393 64.9393C10.658 65.2206 10.5 65.6022 10.5 66C10.5 66.3978 10.658 66.7794 10.9393 67.0607C11.2206 67.342 11.6022 67.5 12 67.5C12.3978 67.5 12.7794 67.342 13.0607 67.0607C13.342 66.7794 13.5 66.3978 13.5 66C13.5 65.6022 13.342 65.2206 13.0607 64.9393C12.7794 64.658 12.3978 64.5 12 64.5ZM18 64.5C17.6022 64.5 17.2206 64.658 16.9393 64.9393C16.658 65.2206 16.5 65.6022 16.5 66C16.5 66.3978 16.658 66.7794 16.9393 67.0607C17.2206 67.342 17.6022 67.5 18 67.5C18.3978 67.5 18.7794 67.342 19.0607 67.0607C19.342 66.7794 19.5 66.3978 19.5 66C19.5 65.6022 19.342 65.2206 19.0607 64.9393C18.7794 64.658 18.3978 64.5 18 64.5ZM24 64.5C23.6022 64.5 23.2206 64.658 22.9393 64.9393C22.658 65.2206 22.5 65.6022 22.5 66C22.5 66.3978 22.658 66.7794 22.9393 67.0607C23.2206 67.342 23.6022 67.5 24 67.5C24.3978 67.5 24.7794 67.342 25.0607 67.0607C25.342 66.7794 25.5 66.3978 25.5 66C25.5 65.6022 25.342 65.2206 25.0607 64.9393C24.7794 64.658 24.3978 64.5 24 64.5ZM30 64.5C29.6022 64.5 29.2206 64.658 28.9393 64.9393C28.658 65.2206 28.5 65.6022 28.5 66C28.5 66.3978 28.658 66.7794 28.9393 67.0607C29.2206 67.342 29.6022 67.5 30 67.5C30.3978 67.5 30.7794 67.342 31.0607 67.0607C31.342 66.7794 31.5 66.3978 31.5 66C31.5 65.6022 31.342 65.2206 31.0607 64.9393C30.7794 64.658 30.3978 64.5 30 64.5ZM36 64.5C35.6022 64.5 35.2206 64.658 34.9393 64.9393C34.658 65.2206 34.5 65.6022 34.5 66C34.5 66.3978 34.658 66.7794 34.9393 67.0607C35.2206 67.342 35.6022 67.5 36 67.5C36.3978 67.5 36.7794 67.342 37.0607 67.0607C37.342 66.7794 37.5 66.3978 37.5 66C37.5 65.6022 37.342 65.2206 37.0607 64.9393C36.7794 64.658 36.3978 64.5 36 64.5ZM42 64.5C41.6022 64.5 41.2206 64.658 40.9393 64.9393C40.658 65.2206 40.5 65.6022 40.5 66C40.5 66.3978 40.658 66.7794 40.9393 67.0607C41.2206 67.342 41.6022 67.5 42 67.5C42.3978 67.5 42.7794 67.342 43.0607 67.0607C43.342 66.7794 43.5 66.3978 43.5 66C43.5 65.6022 43.342 65.2206 43.0607 64.9393C42.7794 64.658 42.3978 64.5 42 64.5ZM48 64.5C47.6022 64.5 47.2206 64.658 46.9393 64.9393C46.658 65.2206 46.5 65.6022 46.5 66C46.5 66.3978 46.658 66.7794 46.9393 67.0607C47.2206 67.342 47.6022 67.5 48 67.5C48.3978 67.5 48.7794 67.342 49.0607 67.0607C49.342 66.7794 49.5 66.3978 49.5 66C49.5 65.6022 49.342 65.2206 49.0607 64.9393C48.7794 64.658 48.3978 64.5 48 64.5ZM54 64.5C53.6022 64.5 53.2206 64.658 52.9393 64.9393C52.658 65.2206 52.5 65.6022 52.5 66C52.5 66.3978 52.658 66.7794 52.9393 67.0607C53.2206 67.342 53.6022 67.5 54 67.5C54.3978 67.5 54.7794 67.342 55.0607 67.0607C55.342 66.7794 55.5 66.3978 55.5 66C55.5 65.6022 55.342 65.2206 55.0607 64.9393C54.7794 64.658 54.3978 64.5 54 64.5ZM60 64.5C59.6022 64.5 59.2206 64.658 58.9393 64.9393C58.658 65.2206 58.5 65.6022 58.5 66C58.5 66.3978 58.658 66.7794 58.9393 67.0607C59.2206 67.342 59.6022 67.5 60 67.5C60.3978 67.5 60.7794 67.342 61.0607 67.0607C61.342 66.7794 61.5 66.3978 61.5 66C61.5 65.6022 61.342 65.2206 61.0607 64.9393C60.7794 64.658 60.3978 64.5 60 64.5ZM66 64.5C65.6022 64.5 65.2206 64.658 64.9393 64.9393C64.658 65.2206 64.5 65.6022 64.5 66C64.5 66.3978 64.658 66.7794 64.9393 67.0607C65.2206 67.342 65.6022 67.5 66 67.5C66.3978 67.5 66.7794 67.342 67.0607 67.0607C67.342 66.7794 67.5 66.3978 67.5 66C67.5 65.6022 67.342 65.2206 67.0607 64.9393C66.7794 64.658 66.3978 64.5 66 64.5ZM72 64.5C71.6022 64.5 71.2206 64.658 70.9393 64.9393C70.658 65.2206 70.5 65.6022 70.5 66C70.5 66.3978 70.658 66.7794 70.9393 67.0607C71.2206 67.342 71.6022 67.5 72 67.5C72.3978 67.5 72.7794 67.342 73.0607 67.0607C73.342 66.7794 73.5 66.3978 73.5 66C73.5 65.6022 73.342 65.2206 73.0607 64.9393C72.7794 64.658 72.3978 64.5 72 64.5ZM78 64.5C77.6022 64.5 77.2206 64.658 76.9393 64.9393C76.658 65.2206 76.5 65.6022 76.5 66C76.5 66.3978 76.658 66.7794 76.9393 67.0607C77.2206 67.342 77.6022 67.5 78 67.5C78.3978 67.5 78.7794 67.342 79.0607 67.0607C79.342 66.7794 79.5 66.3978 79.5 66C79.5 65.6022 79.342 65.2206 79.0607 64.9393C78.7794 64.658 78.3978 64.5 78 64.5ZM84 64.5C83.6022 64.5 83.2206 64.658 82.9393 64.9393C82.658 65.2206 82.5 65.6022 82.5 66C82.5 66.3978 82.658 66.7794 82.9393 67.0607C83.2206 67.342 83.6022 67.5 84 67.5C84.3978 67.5 84.7794 67.342 85.0607 67.0607C85.342 66.7794 85.5 66.3978 85.5 66C85.5 65.6022 85.342 65.2206 85.0607 64.9393C84.7794 64.658 84.3978 64.5 84 64.5ZM90 64.5C89.6022 64.5 89.2206 64.658 88.9393 64.9393C88.658 65.2206 88.5 65.6022 88.5 66C88.5 66.3978 88.658 66.7794 88.9393 67.0607C89.2206 67.342 89.6022 67.5 90 67.5C90.3978 67.5 90.7794 67.342 91.0607 67.0607C91.342 66.7794 91.5 66.3978 91.5 66C91.5 65.6022 91.342 65.2206 91.0607 64.9393C90.7794 64.658 90.3978 64.5 90 64.5Z" fill="#269944"/>
</svg>
