<svg width="73" height="73" viewBox="0 0 73 73" fill="none" xmlns="http://www.w3.org/2000/svg">
<path d="M13.8194 0.859375C13.3897 0.859418 12.9777 1.03011 12.6739 1.33391C12.3701 1.63771 12.1994 2.04974 12.1994 2.47938V8.95938H10.5794C10.1497 8.95942 9.73771 9.13011 9.43391 9.43391C9.13011 9.73771 8.95942 10.1497 8.95938 10.5794V17.0594H7.33938C6.90974 17.0594 6.49771 17.2301 6.19391 17.5339C5.89011 17.8377 5.71942 18.2497 5.71938 18.6794V42.9794H2.47938C2.04974 42.9794 1.63771 43.1501 1.33391 43.4539C1.03011 43.7577 0.859418 44.1697 0.859375 44.5994V70.5194C0.859418 70.949 1.03011 71.361 1.33391 71.6648C1.63771 71.9686 2.04974 72.1393 2.47938 72.1394H70.5194C70.949 72.1393 71.361 71.9686 71.6648 71.6648C71.9686 71.361 72.1393 70.949 72.1394 70.5194V44.5994C72.1393 44.1697 71.9686 43.7577 71.6648 43.4539C71.361 43.1501 70.949 42.9794 70.5194 42.9794H67.2794V18.6794C67.2793 18.2497 67.1086 17.8377 66.8048 17.5339C66.501 17.2301 66.089 17.0594 65.6594 17.0594H64.0394V10.5794C64.0393 10.1497 63.8686 9.73771 63.5648 9.43391C63.261 9.13011 62.849 8.95942 62.4194 8.95938H60.7994V2.47938C60.7993 2.04974 60.6286 1.63771 60.3248 1.33391C60.021 1.03011 59.609 0.859418 59.1794 0.859375H13.8194ZM15.4394 4.09938H57.5594V8.95938H15.4394V4.09938ZM12.1994 12.1994H13.5473C13.7222 12.2283 13.9007 12.2283 14.0757 12.1994H58.9073C59.0822 12.2283 59.2607 12.2283 59.4357 12.1994H60.7994V17.0594H12.1994V12.1994ZM8.95938 20.2994H10.3073C10.4822 20.3283 10.6607 20.3283 10.8357 20.2994H62.1473C62.3222 20.3283 62.5007 20.3283 62.6757 20.2994H64.0394V42.9794H46.2194C45.7897 42.9794 45.3777 43.1501 45.0739 43.4539C44.7701 43.7577 44.5994 44.1697 44.5994 44.5994C44.5994 49.0927 40.9927 52.6994 36.4994 52.6994C32.006 52.6994 28.3994 49.0927 28.3994 44.5994C28.3993 44.1697 28.2286 43.7577 27.9248 43.4539C27.621 43.1501 27.209 42.9794 26.7794 42.9794H8.95938V20.2994ZM4.09938 46.2194H25.4884C26.3087 51.6677 30.8292 55.9394 36.4994 55.9394C42.1696 55.9394 46.69 51.6677 47.5103 46.2194H68.8994V68.8994H4.09938V46.2194Z" fill="white"/>
</svg>
