<svg width="62" height="71" viewBox="0 0 62 71" fill="none" xmlns="http://www.w3.org/2000/svg">
<path d="M25 0C23.9062 0 23 0.90625 23 2V5C23 6.09375 23.9062 7 25 7H27V9.26562C11.7773 11.2305 0 24.2461 0 40C0 57.1094 13.8906 71 31 71C48.1094 71 62 57.1094 62 40C62 32.0586 59.0039 24.8164 54.0859 19.3281L55.5 17.9141C56.2539 18.3086 57.2148 18.1992 57.8438 17.5703L58.9648 16.4531V16.4492C59.7383 15.6758 59.7383 14.3945 58.9648 13.6211L55.3789 10.0352C54.9922 9.64844 54.4805 9.45703 53.9648 9.45703C53.4492 9.45703 52.9375 9.64844 52.5508 10.0352L51.4297 11.1562C50.8008 11.7852 50.6914 12.7461 51.0859 13.5L49.4648 15.1211C45.3164 12.0391 40.375 9.96094 35 9.26562V7H37C38.0938 7 39 6.09375 39 5V2C39 0.90625 38.0938 0 37 0H25ZM25 2H37V5H25V2ZM29 7H33V9H29V7ZM31 11C47.0273 11 60 23.9727 60 40C60 56.0273 47.0273 69 31 69C14.9727 69 2 56.0273 2 40C2 23.9727 14.9727 11 31 11ZM53.9648 11.4492L57.5508 15.0352L56.4297 16.1562L52.8438 12.5703L53.9648 11.4492ZM31 14C30.4492 14 30 14.4492 30 15C30 15.5508 30.4492 16 31 16C31.5508 16 32 15.5508 32 15C32 14.4492 31.5508 14 31 14ZM24.5391 14.8516C24.5156 14.8516 24.4922 14.8516 24.4688 14.8555C24.4023 14.8594 24.3359 14.8672 24.2695 14.8867C23.7383 15.0312 23.4219 15.5781 23.5625 16.1094C23.707 16.6445 24.2539 16.9609 24.7891 16.8164C25.3242 16.6758 25.6406 16.1289 25.4961 15.5938C25.3789 15.1602 24.9883 14.8555 24.5391 14.8516ZM37.4609 14.8555C37.0117 14.8594 36.6211 15.1602 36.5039 15.5938C36.3594 16.1289 36.6758 16.6758 37.2109 16.8203C37.7461 16.9648 38.293 16.6484 38.4375 16.1133C38.5781 15.5781 38.2617 15.0312 37.7305 14.8906C37.6406 14.8633 37.5508 14.8516 37.4609 14.8555ZM52.4297 14.9844L54.0156 16.5703L52.6992 17.8867C52.1641 17.3594 51.6133 16.8555 51.043 16.3711L52.4297 14.9844ZM18.4766 17.3477C18.3086 17.3516 18.1445 17.3984 18 17.4844C17.7695 17.6133 17.6016 17.832 17.5312 18.0898C17.4648 18.3477 17.5 18.6211 17.6328 18.8477C17.7656 19.0781 17.9844 19.2461 18.2422 19.3164C18.4961 19.3828 18.7695 19.3477 19 19.2148C19.4766 18.9375 19.6406 18.3281 19.3633 17.8477C19.1836 17.5312 18.8438 17.3398 18.4766 17.3477ZM43.4531 17.3516C43.1133 17.3672 42.8047 17.5547 42.6328 17.8477C42.3555 18.3281 42.5234 18.9375 43 19.2148C43.4766 19.4922 44.0898 19.3281 44.3633 18.8477C44.6406 18.3711 44.4766 17.7617 44 17.4844C43.832 17.3867 43.6445 17.3438 43.4531 17.3516ZM13.3359 21.3242C13.0664 21.3164 12.8047 21.4219 12.6133 21.6133C12.2227 22.0039 12.2227 22.6406 12.6133 23.0312C12.8008 23.2188 13.0547 23.3242 13.3203 23.3242C13.5859 23.3242 13.8398 23.2188 14.0312 23.0312C14.418 22.6406 14.418 22.0039 14.0312 21.6133C13.8438 21.4297 13.5977 21.3242 13.3359 21.3242ZM48.6914 21.3242C48.4219 21.3203 48.1602 21.4258 47.9688 21.6133C47.582 22.0039 47.582 22.6406 47.9688 23.0312C48.3594 23.418 48.9961 23.418 49.3867 23.0312C49.7734 22.6406 49.7734 22.0039 49.3867 21.6133C49.1992 21.4297 48.9531 21.3242 48.6914 21.3242ZM17.3086 25.3906L15.918 26.8281L27.5352 38.0469C27.2031 38.625 27 39.2891 27 40C27 42.1992 28.8008 44 31 44C31.7383 44 32.4219 43.7852 33.0156 43.4336L35.0312 45.4492L36.4492 44.0312L34.4336 42.0156C34.7852 41.4219 35 40.7383 35 40C35 37.8008 33.1992 36 31 36C30.2383 36 29.5312 36.2266 28.9219 36.6055L17.3086 25.3906ZM52.625 26.5C52.457 26.5039 52.293 26.5508 52.1484 26.6328C51.6719 26.9102 51.5078 27.5195 51.7812 28C52.0586 28.4766 52.6719 28.6406 53.1484 28.3633C53.3789 28.2344 53.5469 28.0156 53.6172 27.7578C53.6836 27.5 53.6484 27.2266 53.5156 27C53.332 26.6836 52.9922 26.4922 52.625 26.5ZM9.30078 26.5C8.96484 26.5195 8.65625 26.707 8.48438 27C8.35156 27.2305 8.31641 27.5039 8.38281 27.7578C8.45312 28.0156 8.62109 28.2344 8.84766 28.3672C9.32812 28.6445 9.9375 28.4766 10.2148 28C10.4922 27.5234 10.3281 26.9102 9.84766 26.6367C9.68359 26.5391 9.49219 26.4922 9.30078 26.5ZM6.84375 32.5312C6.39453 32.5352 6.00391 32.8359 5.88672 33.2695C5.74219 33.8047 6.05859 34.3516 6.59375 34.4961C7.12891 34.6406 7.67578 34.3242 7.81641 33.7891C7.96094 33.2539 7.64453 32.707 7.10938 32.5625C7.02344 32.5391 6.93359 32.5273 6.84375 32.5312ZM55.1875 32.5312C55.0859 32.5273 54.9844 32.5391 54.8906 32.5664C54.3555 32.7109 54.0391 33.2578 54.1836 33.793C54.3242 34.3242 54.8711 34.6406 55.4062 34.5C55.9414 34.3555 56.2578 33.8086 56.1133 33.2734C56 32.8477 55.625 32.5469 55.1875 32.5312ZM31 38C32.1172 38 33 38.8828 33 40C33 41.1172 32.1172 42 31 42C29.8828 42 29 41.1172 29 40C29 38.8828 29.8828 38 31 38ZM6 39C5.44922 39 5 39.4492 5 40C5 40.5508 5.44922 41 6 41C6.55078 41 7 40.5508 7 40C7 39.4492 6.55078 39 6 39ZM56 39C55.4492 39 55 39.4492 55 40C55 40.5508 55.4492 41 56 41C56.5508 41 57 40.5508 57 40C57 39.4492 56.5508 39 56 39ZM6.89062 45.4688C6.78906 45.4688 6.6875 45.4766 6.59375 45.5039C6.05859 45.6484 5.74219 46.1953 5.88672 46.7305C6.02734 47.2617 6.57422 47.5781 7.10938 47.4375C7.64453 47.293 7.96094 46.7461 7.81641 46.2109C7.70313 45.7891 7.32812 45.4883 6.89062 45.4688ZM55.1406 45.4727C54.6875 45.4766 54.2969 45.7812 54.1836 46.2148C54.0391 46.75 54.3555 47.2969 54.8906 47.4375C55.4219 47.582 55.9688 47.2656 56.1133 46.7344C56.2578 46.1992 55.9414 45.6523 55.4062 45.5078C55.3203 45.4844 55.2305 45.4727 55.1406 45.4727ZM9.32422 51.5C9.15625 51.5039 8.99609 51.5508 8.84766 51.6328C8.37109 51.9102 8.20703 52.5195 8.48438 53C8.61328 53.2266 8.83203 53.3945 9.08984 53.4648C9.34766 53.5352 9.62109 53.5 9.84766 53.3633C10.0781 53.2344 10.2461 53.0156 10.3164 52.7578C10.3828 52.5 10.3477 52.2266 10.2148 52C10.0312 51.6836 9.69141 51.4922 9.32422 51.5ZM52.6016 51.5C52.2617 51.5195 51.9531 51.707 51.7812 52C51.5078 52.4805 51.6719 53.0898 52.1484 53.3672C52.3789 53.5 52.6523 53.5352 52.9062 53.4688C53.1641 53.3984 53.3828 53.2305 53.5156 53C53.6484 52.7734 53.6836 52.5 53.6172 52.2422C53.5469 51.9844 53.3789 51.7656 53.1484 51.6367C52.9844 51.5391 52.793 51.4922 52.6016 51.5ZM13.3359 56.6758C13.0664 56.6758 12.8047 56.7812 12.6133 56.9688C12.2266 57.3594 12.2266 57.9961 12.6133 58.3867C13.0039 58.7734 13.6406 58.7734 14.0312 58.3867C14.418 57.9961 14.418 57.3594 14.0312 56.9688C13.8438 56.7852 13.5977 56.6797 13.3359 56.6758ZM48.6914 56.6758C48.4219 56.6758 48.1602 56.7812 47.9688 56.9688C47.582 57.3594 47.582 57.9961 47.9688 58.3867C48.3594 58.7734 48.9961 58.7734 49.3867 58.3867C49.7734 57.9961 49.7734 57.3594 49.3867 56.9688C49.1992 56.7852 48.9531 56.6797 48.6914 56.6758ZM43.4727 60.6484C43.3086 60.6523 43.1445 60.6992 43 60.7812C42.5195 61.0586 42.3555 61.6719 42.6328 62.1484C42.9102 62.625 43.5195 62.793 44 62.5156C44.2266 62.3828 44.3945 62.1641 44.4648 61.9062C44.5352 61.6523 44.5 61.3789 44.3633 61.1484C44.1836 60.832 43.8398 60.6406 43.4727 60.6484ZM18.4531 60.6523C18.1094 60.668 17.8008 60.8555 17.6328 61.1523C17.3555 61.6289 17.5234 62.2422 18 62.5156C18.4766 62.793 19.0898 62.6289 19.3633 62.1523C19.5 61.9219 19.5352 61.6484 19.4648 61.3945C19.3984 61.1367 19.2305 60.918 19 60.7852C18.832 60.6875 18.6445 60.6445 18.4531 60.6523ZM37.4805 63.1484C37.4531 63.1484 37.4297 63.1484 37.4062 63.1523C37.3398 63.1562 37.2734 63.168 37.2109 63.1836C36.9531 63.25 36.7344 63.418 36.6016 63.6484C36.4688 63.8789 36.4336 64.1523 36.5 64.4062C36.5703 64.6641 36.7383 64.8828 36.9688 65.0156C37.1992 65.1484 37.4727 65.1836 37.7305 65.1133C38.2617 64.9727 38.5781 64.4258 38.4375 63.8906C38.3203 63.457 37.9297 63.1523 37.4805 63.1484ZM24.5195 63.1523C24.0703 63.1523 23.6797 63.457 23.5625 63.8906C23.418 64.4258 23.7344 64.9727 24.2695 65.1133C24.8047 65.2578 25.3516 64.9414 25.4961 64.4062C25.6367 63.875 25.3203 63.3281 24.7852 63.1836C24.6992 63.1602 24.6094 63.1484 24.5195 63.1523ZM31 64C30.4492 64 30 64.4492 30 65C30 65.5508 30.4492 66 31 66C31.5508 66 32 65.5508 32 65C32 64.4492 31.5508 64 31 64Z" fill="white"/>
</svg>
