<svg width="120" height="70" viewBox="0 0 120 70" fill="none" xmlns="http://www.w3.org/2000/svg">
<path d="M58.4824 0.982422C57.873 0.988282 57.3281 1.35742 57.0938 1.91992C56.8652 2.48828 57 3.13281 57.4395 3.56055L75.8789 22H41.5137L38.5137 14.5H33C30.5332 14.5 28.5 16.5332 28.5 19V22.1582L8.16797 24.4141C4.38867 24.8359 1.5 28.0586 1.5 31.8672V48.127C0.65625 48.6602 0 49.4395 0 50.5V55C0 56.6406 1.35938 58 3 58H12.0879C12.8379 64.7324 18.5684 70 25.5 70C32.4316 70 38.1621 64.7324 38.9121 58H81.0879C81.8379 64.7324 87.5684 70 94.5 70C101.432 70 107.162 64.7324 107.912 58H117C118.641 58 120 56.6406 120 55V50.5C120 49.4395 119.344 48.6602 118.5 48.127V35.5762C118.5 31.9844 115.928 28.873 112.4 28.2051L80.2324 22.1113L59.5605 1.43945C59.2793 1.14648 58.8926 0.988282 58.4824 0.982422ZM33 17.5H36.4863L38.2852 22H31.5V19C31.5 18.1504 32.1504 17.5 33 17.5ZM30.2285 25C30.2344 25 30.2344 25 30.2344 25H40.1191C40.3828 25.0762 40.6699 25.0762 40.9395 25H43.5C43.5 25.8262 44.1738 26.5 45 26.5C45.8262 26.5 46.5 25.8262 46.5 25H79.2715C79.3301 25.0117 79.3945 25.0176 79.4531 25.0176L111.838 31.1523C113.426 31.4512 114.68 32.5586 115.219 34H112.5C110.033 34 108 36.0332 108 38.5C108 38.8984 108.158 39.2793 108.445 39.5605C108.973 41.459 110.443 43 112.5 43H115.5V47.5C114.674 47.5 114 48.1738 114 49C114 49.8262 114.674 50.5 115.5 50.5H117V55H107.912C107.162 48.2676 101.432 43 94.5 43C87.5684 43 81.8379 48.2676 81.0879 55H46.5C46.5 54.1738 45.8262 53.5 45 53.5C44.1738 53.5 43.5 54.1738 43.5 55H38.9121C38.1621 48.2676 32.4316 43 25.5 43C18.5684 43 12.8379 48.2676 12.0879 55H3V50.5H4.5C5.32617 50.5 6 49.8262 6 49C6 48.1738 5.32617 47.5 4.5 47.5V40H9C10.6406 40 12 38.6406 12 37V34C12 32.3594 10.6406 31 9 31H4.58789C4.95703 29.1016 6.50977 27.6191 8.50195 27.3965L29.9297 25.0176C30.0293 25.0234 30.1289 25.0176 30.2285 25ZM45 29.5C44.1738 29.5 43.5 30.1738 43.5 31C43.5 31.8262 44.1738 32.5 45 32.5C45.8262 32.5 46.5 31.8262 46.5 31C46.5 30.1738 45.8262 29.5 45 29.5ZM52.5 29.5C51.9609 29.4941 51.457 29.7754 51.1816 30.2441C50.9121 30.7129 50.9121 31.2871 51.1816 31.7559C51.457 32.2246 51.9609 32.5059 52.5 32.5H58.5C59.0391 32.5059 59.543 32.2246 59.8184 31.7559C60.0879 31.2871 60.0879 30.7129 59.8184 30.2441C59.543 29.7754 59.0391 29.4941 58.5 29.5H52.5ZM4.5 34H9V37H4.5V34ZM45 35.5C44.1738 35.5 43.5 36.1738 43.5 37C43.5 37.8262 44.1738 38.5 45 38.5C45.8262 38.5 46.5 37.8262 46.5 37C46.5 36.1738 45.8262 35.5 45 35.5ZM103.5 37C102.674 37 102 37.6738 102 38.5C102 39.3262 102.674 40 103.5 40C104.326 40 105 39.3262 105 38.5C105 37.6738 104.326 37 103.5 37ZM112.5 37H115.5V40H112.5C111.65 40 111 39.3496 111 38.5C111 37.6504 111.65 37 112.5 37ZM45 41.5C44.1738 41.5 43.5 42.1738 43.5 43C43.5 43.8262 44.1738 44.5 45 44.5C45.8262 44.5 46.5 43.8262 46.5 43C46.5 42.1738 45.8262 41.5 45 41.5ZM25.5 46C31.3184 46 36 50.6816 36 56.5C36 62.3184 31.3184 67 25.5 67C19.6816 67 15 62.3184 15 56.5C15 50.6816 19.6816 46 25.5 46ZM94.5 46C100.318 46 105 50.6816 105 56.5C105 62.3184 100.318 67 94.5 67C88.6816 67 84 62.3184 84 56.5C84 50.6816 88.6816 46 94.5 46ZM10.5 47.5C9.67383 47.5 9 48.1738 9 49C9 49.8262 9.67383 50.5 10.5 50.5C11.3262 50.5 12 49.8262 12 49C12 48.1738 11.3262 47.5 10.5 47.5ZM45 47.5C44.1738 47.5 43.5 48.1738 43.5 49C43.5 49.8262 44.1738 50.5 45 50.5C45.8262 50.5 46.5 49.8262 46.5 49C46.5 48.1738 45.8262 47.5 45 47.5ZM109.5 47.5C108.674 47.5 108 48.1738 108 49C108 49.8262 108.674 50.5 109.5 50.5C110.326 50.5 111 49.8262 111 49C111 48.1738 110.326 47.5 109.5 47.5ZM25.5 52C23.0332 52 21 54.0332 21 56.5C21 58.9668 23.0332 61 25.5 61C27.9668 61 30 58.9668 30 56.5C30 54.0332 27.9668 52 25.5 52ZM94.5 52C92.0332 52 90 54.0332 90 56.5C90 58.9668 92.0332 61 94.5 61C96.9668 61 99 58.9668 99 56.5C99 54.0332 96.9668 52 94.5 52ZM25.5 55C26.3438 55 27 55.6562 27 56.5C27 57.3438 26.3438 58 25.5 58C24.6562 58 24 57.3438 24 56.5C24 55.6562 24.6562 55 25.5 55ZM94.5 55C95.3438 55 96 55.6562 96 56.5C96 57.3438 95.3438 58 94.5 58C93.6562 58 93 57.3438 93 56.5C93 55.6562 93.6562 55 94.5 55Z" fill="white"/>
</svg>
