<svg width="66" height="66" viewBox="0 0 66 66" fill="none" xmlns="http://www.w3.org/2000/svg">
<path d="M33 0C14.7852 0 0 14.7852 0 33C0 51.2148 14.7852 66 33 66C51.2148 66 66 51.2148 66 33C66 14.7852 51.2148 0 33 0ZM33 2C50.1328 2 64 15.8672 64 33C64 50.1328 50.1328 64 33 64C15.8672 64 2 50.1328 2 33C2 15.8672 15.8672 2 33 2ZM33 5C32.4492 5 32 5.44922 32 6C32 6.55078 32.4492 7 33 7C33.5508 7 34 6.55078 34 6C34 5.44922 33.5508 5 33 5ZM38.293 5.51562C37.8047 5.50391 37.3828 5.84375 37.2852 6.32422C37.1797 6.86328 37.5312 7.39062 38.0742 7.5C38.6133 7.60547 39.1406 7.25391 39.25 6.71484C39.3555 6.17188 39.0039 5.64453 38.4648 5.53516C38.4062 5.52734 38.3516 5.51953 38.293 5.51562ZM27.7383 5.51953C27.6719 5.51953 27.6055 5.52344 27.5391 5.53516C26.9961 5.64453 26.6445 6.17188 26.7539 6.71484C26.8047 6.97266 26.957 7.20313 27.1797 7.35156C27.3984 7.49609 27.668 7.55078 27.9297 7.5C28.4727 7.39062 28.8242 6.86719 28.7148 6.32422C28.6211 5.85938 28.2148 5.52344 27.7383 5.51953ZM22.6758 7.05469C22.543 7.05469 22.4102 7.07813 22.2852 7.12891C21.7734 7.34375 21.5312 7.92578 21.7461 8.4375C21.957 8.94922 22.5391 9.19141 23.0508 8.98047C23.5625 8.76562 23.8047 8.18359 23.5938 7.67188C23.4375 7.30078 23.0781 7.05859 22.6758 7.05469ZM43.3555 7.05469C42.9414 7.04688 42.5664 7.28906 42.4062 7.67188C42.1953 8.18359 42.4375 8.76562 42.9492 8.98047C43.4609 9.19141 44.043 8.94922 44.2539 8.4375C44.4688 7.92578 44.2266 7.34375 43.7148 7.12891C43.6016 7.08203 43.4766 7.05859 43.3555 7.05469ZM18.0117 9.54688C17.8086 9.54688 17.6094 9.60547 17.4414 9.71875C16.9844 10.0234 16.8594 10.6445 17.168 11.1055C17.4727 11.5625 18.0938 11.6875 18.5547 11.3789C19.0156 11.0742 19.1367 10.4531 18.832 9.99609C18.6484 9.71875 18.3398 9.55078 18.0117 9.54688ZM48.0156 9.54688C47.6758 9.54297 47.3555 9.71094 47.168 9.99609C46.8594 10.4531 46.9844 11.0742 47.4414 11.3789C47.9023 11.6875 48.5234 11.5625 48.8281 11.1055C48.9766 10.8867 49.0312 10.6133 48.9805 10.3555C48.9297 10.0938 48.7773 9.86328 48.5547 9.71875C48.3945 9.60938 48.2109 9.55078 48.0156 9.54688ZM13.9219 12.9062C13.6523 12.9062 13.3906 13.0117 13.2031 13.2031C12.8125 13.5898 12.8125 14.2266 13.2031 14.6133C13.5898 15.0039 14.2266 15.0039 14.6133 14.6133C15.0039 14.2266 15.0039 13.5898 14.6133 13.2031C14.4297 13.0156 14.1836 12.9102 13.9219 12.9062ZM52.1055 12.9062C51.8359 12.9062 51.5742 13.0117 51.3867 13.2031C50.9961 13.5898 50.9961 14.2266 51.3867 14.6133C51.7734 15.0039 52.4102 15.0039 52.7969 14.6133C53.1875 14.2266 53.1875 13.5898 52.7969 13.2031C52.6133 13.0156 52.3672 12.9102 52.1055 12.9062ZM55.4609 17C55.2578 16.9961 55.0625 17.0547 54.8945 17.168C54.4375 17.4727 54.3125 18.0938 54.6211 18.5508C54.9258 19.0117 55.5469 19.1367 56.0039 18.8281C56.4648 18.5195 56.5898 17.9023 56.2812 17.4414C56.0977 17.168 55.7891 17 55.4609 17ZM10.5664 17C10.2266 16.9922 9.90625 17.1602 9.71875 17.4414C9.41406 17.9023 9.53516 18.5234 9.99609 18.8281C10.457 19.1367 11.0742 19.0117 11.3828 18.5547C11.6875 18.0938 11.5664 17.4727 11.1055 17.168C10.9453 17.0625 10.7617 17.0039 10.5664 17ZM57.9531 21.668C57.8203 21.6641 57.6875 21.6914 57.5625 21.7422C57.0508 21.9531 56.8086 22.5391 57.0195 23.0469C57.2344 23.5586 57.8164 23.8008 58.3281 23.5898C58.8398 23.3789 59.082 22.793 58.8711 22.2812C58.7148 21.9141 58.3555 21.668 57.9531 21.668ZM8.07812 21.668C7.66406 21.6602 7.28906 21.9023 7.13281 22.2852C6.92188 22.7969 7.16406 23.3789 7.67188 23.5938C8.18359 23.8047 8.76953 23.5625 8.98047 23.0508C9.19141 22.5391 8.94922 21.957 8.4375 21.7461C8.32422 21.6953 8.20312 21.6719 8.07812 21.668ZM28.0547 21.8438V32.9688H25.0391V35.9062H28.0547V38.5781H25.0391V41.0781H28.0547V44.3906H31.5547V41.0781H37.8984V38.5781H31.5547V35.9375H35.7109C40.0859 35.9375 42.9766 32.9688 42.9766 28.9062C42.9766 24.8281 40.1484 21.8438 35.8203 21.8438H28.0547ZM31.5547 24.9375H34.8359C37.8828 24.9375 39.3984 26.4844 39.3984 28.9375C39.3984 31.3906 37.8828 32.9375 34.8359 32.9375H31.5547V24.9375ZM59.4844 26.7344C59.418 26.7305 59.3516 26.7383 59.2852 26.75C58.7461 26.8594 58.3945 27.3867 58.5 27.9258C58.6094 28.4688 59.1367 28.8203 59.6758 28.7148C60.2188 28.6055 60.5703 28.0781 60.4648 27.5352C60.3711 27.0703 59.9609 26.7344 59.4844 26.7344ZM6.54688 26.7344C6.05859 26.7227 5.63672 27.0586 5.53906 27.5352C5.48828 27.7969 5.53906 28.0703 5.6875 28.2891C5.83594 28.5117 6.06641 28.6641 6.32812 28.7148C6.58594 28.7656 6.85547 28.7109 7.07812 28.5664C7.29688 28.418 7.44922 28.1875 7.5 27.9258C7.60938 27.3867 7.25781 26.8594 6.71875 26.75C6.66016 26.7422 6.60547 26.7344 6.54688 26.7344ZM6 32C5.44922 32 5 32.4492 5 33C5 33.5508 5.44922 34 6 34C6.55078 34 7 33.5508 7 33C7 32.4492 6.55078 32 6 32ZM60 32C59.4492 32 59 32.4492 59 33C59 33.5508 59.4492 34 60 34C60.5508 34 61 33.5508 61 33C61 32.4492 60.5508 32 60 32ZM6.52344 37.2656C6.45703 37.2656 6.39062 37.2734 6.32422 37.2852C5.78125 37.3945 5.42969 37.9219 5.53906 38.4648C5.64844 39.0039 6.17188 39.3555 6.71484 39.25C7.25781 39.1406 7.60938 38.6133 7.5 38.0742C7.40625 37.6055 7 37.2695 6.52344 37.2656ZM59.5078 37.2656C59.0195 37.2539 58.5977 37.5938 58.5 38.0742C58.3945 38.6133 58.7461 39.1406 59.2852 39.25C59.8281 39.3555 60.3555 39.0039 60.4648 38.4648C60.5703 37.9219 60.2188 37.3945 59.6758 37.2852C59.6211 37.2773 59.5664 37.2695 59.5078 37.2656ZM57.9688 42.3281C57.5547 42.3203 57.1797 42.5664 57.0195 42.9492C56.8086 43.457 57.0508 44.043 57.5625 44.2539C58.0742 44.4648 58.6562 44.2227 58.8711 43.7148C59.082 43.2031 58.8398 42.6172 58.3281 42.4062C58.2148 42.3594 58.0898 42.332 57.9688 42.3281ZM8.0625 42.332C7.92969 42.332 7.79688 42.3555 7.67188 42.4062C7.42969 42.5078 7.23438 42.7031 7.13281 42.9492C7.03125 43.1953 7.03125 43.4688 7.12891 43.7148C7.34375 44.2266 7.92578 44.4688 8.4375 44.2539C8.68359 44.1562 8.87891 43.9609 8.98047 43.7148C9.08203 43.4688 9.08203 43.1953 8.98047 42.9492C8.82812 42.5781 8.46484 42.3359 8.0625 42.332ZM55.4688 47C55.1289 46.9922 54.8086 47.1602 54.6211 47.4414C54.3125 47.9023 54.4375 48.5195 54.8945 48.8281C55.1133 48.9766 55.3867 49.0312 55.6445 48.9766C55.9062 48.9258 56.1367 48.7734 56.2812 48.5508C56.5898 48.0938 56.4648 47.4727 56.0039 47.168C55.8477 47.0586 55.6602 47 55.4688 47ZM10.5625 47C10.3594 46.9961 10.1641 47.0547 9.99609 47.168C9.53906 47.4766 9.41406 48.0938 9.71875 48.5547C10.0273 49.0117 10.6484 49.1367 11.1094 48.8281C11.5664 48.5234 11.6914 47.9023 11.3828 47.4414C11.1992 47.168 10.8906 47.0039 10.5625 47ZM13.9219 51.0938C13.6523 51.0898 13.3906 51.1953 13.2031 51.3867C12.8125 51.7734 12.8125 52.4102 13.2031 52.7969C13.5898 53.1875 14.2266 53.1875 14.6133 52.7969C15.0039 52.4102 15.0039 51.7734 14.6133 51.3867C14.4297 51.1992 14.1836 51.0938 13.9219 51.0938ZM52.1055 51.0938C51.8359 51.0898 51.5742 51.1953 51.3867 51.3867C50.9961 51.7734 50.9961 52.4102 51.3867 52.7969C51.7734 53.1875 52.4102 53.1875 52.7969 52.7969C53.1875 52.4102 53.1875 51.7734 52.7969 51.3867C52.6133 51.1992 52.3672 51.0938 52.1055 51.0938ZM18.0195 54.4492C17.6797 54.4414 17.3594 54.6094 17.1719 54.8906C16.8633 55.3516 16.9883 55.9727 17.4492 56.2812C17.9062 56.5859 18.5273 56.4609 18.832 56.0039C19.1406 55.543 19.0156 54.9258 18.5586 54.6172C18.3984 54.5117 18.2109 54.4492 18.0195 54.4492ZM48.0117 54.4492C47.8086 54.4453 47.6133 54.5039 47.4453 54.6133C47.2227 54.7617 47.0703 54.9922 47.0195 55.2539C46.9688 55.5117 47.0234 55.7852 47.1719 56.0039C47.4766 56.4609 48.0977 56.5859 48.5586 56.2812C49.0156 55.9727 49.1406 55.3516 48.832 54.8906C48.6523 54.6172 48.3438 54.4492 48.0117 54.4492ZM22.6914 56.9414C22.2773 56.9336 21.9023 57.1797 21.7461 57.5625C21.5352 58.0703 21.7773 58.6562 22.2852 58.8672C22.7969 59.0781 23.3828 58.8359 23.5938 58.3281C23.8047 57.8164 23.5625 57.2305 23.0508 57.0195C22.9375 56.9727 22.8164 56.9453 22.6914 56.9414ZM43.3398 56.9414C43.207 56.9414 43.0742 56.9688 42.9531 57.0195C42.707 57.1211 42.5117 57.3164 42.4102 57.5586C42.3086 57.8047 42.3086 58.082 42.4062 58.3281C42.6211 58.8359 43.2031 59.0781 43.7148 58.8672C43.9609 58.7656 44.1562 58.5703 44.2578 58.3281C44.3594 58.082 44.3594 57.8047 44.2578 57.5625C44.1055 57.1875 43.7422 56.9453 43.3398 56.9414ZM27.7617 58.4805C27.2734 58.4688 26.8477 58.8086 26.7539 59.2852C26.6445 59.8281 26.9961 60.3516 27.5391 60.4609C28.082 60.5703 28.6055 60.2188 28.7148 59.6758C28.8242 59.1328 28.4727 58.6094 27.9297 58.5C27.875 58.4883 27.8164 58.4805 27.7617 58.4805ZM38.2695 58.4844C38.2031 58.4805 38.1367 58.4883 38.0742 58.5C37.5312 58.6094 37.1797 59.1328 37.2852 59.6758C37.3398 59.9375 37.4922 60.1641 37.7109 60.3125C37.9336 60.4609 38.2031 60.5156 38.4648 60.4648C38.7227 60.4102 38.9531 60.2578 39.1016 60.0391C39.2461 59.8164 39.3008 59.5469 39.25 59.2852C39.1562 58.8203 38.7461 58.4844 38.2695 58.4844ZM33 59C32.4492 59 32 59.4492 32 60C32 60.5508 32.4492 61 33 61C33.5508 61 34 60.5508 34 60C34 59.4492 33.5508 59 33 59Z" fill="white"/>
</svg>
