<svg width="88" height="90" viewBox="0 0 88 90" fill="none" xmlns="http://www.w3.org/2000/svg">
<path d="M18.3895 0.977457C16.8695 0.852457 15.1797 1.29777 13.621 2.40715C12.2476 3.3759 9.28459 5.75871 6.51453 8.45402C5.13335 9.79777 3.81391 11.1962 2.79539 12.5712C1.76915 13.9462 0.874093 15.204 0.928106 17.0321C0.982119 18.6728 1.14416 23.5243 4.59323 30.9618C8.04231 38.3915 14.7321 48.5868 27.78 61.8056C40.8355 75.0243 50.905 81.7978 58.2429 85.2899C65.5809 88.7821 70.3803 88.9462 72.0006 89.0009C73.7985 89.0556 75.0408 88.1493 76.3988 87.1103C77.7568 86.0712 79.138 84.7431 80.4651 83.3446C83.1195 80.5399 85.4729 77.5399 86.4297 76.1493C88.6133 73.0009 88.2506 69.2821 85.8201 67.5556C84.2923 66.4696 70.2414 57.0009 68.1272 55.6884C65.9821 54.3603 63.513 54.9618 61.3062 56.1415C59.5701 57.0712 54.871 59.7978 53.5284 60.579C52.5176 59.9306 48.6827 57.3446 40.4343 48.9931C32.1781 40.6415 29.6318 36.7587 28.9914 35.7353C29.763 34.3759 32.4482 29.6415 33.3741 27.8525C34.5315 25.6259 35.1797 23.1025 33.7985 20.915C33.2198 19.9853 30.5886 15.9306 27.9343 11.8603C25.2722 7.78996 22.7491 3.93058 22.0932 3.00871V3.0009C21.2367 1.80558 19.9019 1.10246 18.3895 0.977457ZM60.2491 0.985271C59.7321 0.969645 59.2383 1.16496 58.8602 1.51652L44.1611 15.0009L58.8602 28.4775C59.3772 28.9853 60.1256 29.165 60.8124 28.954C61.4991 28.7353 62.0161 28.1571 62.1627 27.4462C62.3093 26.7275 62.0624 25.9931 61.5145 25.5243L52.2244 17.0009H68.0886C74.871 17.0009 79.9405 21.9462 79.9405 29.0009V47.0009H83.8911V29.0009C83.8911 19.9228 76.854 13.0009 68.0886 13.0009H52.2244L61.5145 4.48527C62.1241 3.9384 62.3401 3.07121 62.0624 2.28996C61.7846 1.51652 61.0593 1.0009 60.2491 0.985271ZM18.0269 5.0634C18.567 5.13371 18.8911 5.35246 18.8911 5.35246C19.2074 5.79777 21.9775 10.0009 24.6318 14.0634C27.2861 18.1337 29.9945 22.3056 30.4651 23.0634C30.5423 23.1806 30.6503 24.5087 29.8787 25.9853V25.9931C29.0068 27.6728 24.9405 34.8681 24.9405 34.8681L24.3772 35.8759L24.9559 36.8759C24.9559 36.8759 27.9883 42.0556 37.6334 51.8212C47.2861 61.5868 52.4019 64.665 52.4019 64.665L53.3895 65.2509L54.3849 64.6806C54.3849 64.6806 61.4759 60.5712 63.1503 59.6806C64.6087 58.9071 65.9204 59.0087 66.0747 59.1025C67.4405 59.954 82.6179 70.1649 83.5516 70.829C83.5824 70.8524 84.4081 72.1181 83.2044 73.8524H83.1966C82.4713 74.9071 80.0948 77.9618 77.6179 80.5712C76.3756 81.8759 75.1025 83.0946 74.0222 83.9149C72.942 84.7353 71.9775 84.9931 72.1318 85.0009C70.4497 84.9462 66.7383 84.9071 59.925 81.6649C53.1118 78.4306 43.3895 71.954 30.5732 58.9696C17.7645 46.0009 11.3679 36.1571 8.16576 29.2509C4.97132 22.3525 4.93274 18.5946 4.87872 16.8993C4.88644 17.0556 5.14107 16.0712 5.95126 14.9775C6.76144 13.8837 7.95743 12.5868 9.24601 11.329C11.8309 8.82121 14.8401 6.41496 15.8818 5.68058V5.6884C16.7383 5.07902 17.4867 5.0009 18.0269 5.0634Z" fill="white"/>
</svg>
