<svg width="71" height="41" viewBox="0 0 71 41" fill="none" xmlns="http://www.w3.org/2000/svg">
<path d="M1.70508 0.792969L0.291016 2.20703L7.08399 9L0.291016 15.793L1.70508 17.207L8.49805 10.4141L15.291 17.207L16.7051 15.793L9.91211 9L16.7051 2.20703L15.291 0.792969L8.49805 7.58594L1.70508 0.792969ZM21.998 7V9H70.8477V7H21.998ZM23.0723 11C22.807 11 22.5527 11.1054 22.3652 11.2929C22.1776 11.4804 22.0723 11.7348 22.0723 12C22.0723 12.2652 22.1776 12.5196 22.3652 12.7071C22.5527 12.8946 22.807 13 23.0723 13C23.3375 13 23.5918 12.8946 23.7794 12.7071C23.9669 12.5196 24.0723 12.2652 24.0723 12C24.0723 11.7348 23.9669 11.4804 23.7794 11.2929C23.5918 11.1054 23.3375 11 23.0723 11ZM27.0723 11C26.807 11 26.5527 11.1054 26.3652 11.2929C26.1776 11.4804 26.0723 11.7348 26.0723 12C26.0723 12.2652 26.1776 12.5196 26.3652 12.7071C26.5527 12.8946 26.807 13 27.0723 13C27.3375 13 27.5918 12.8946 27.7794 12.7071C27.9669 12.5196 28.0723 12.2652 28.0723 12C28.0723 11.7348 27.9669 11.4804 27.7794 11.2929C27.5918 11.1054 27.3375 11 27.0723 11ZM31.0723 11C30.807 11 30.5527 11.1054 30.3652 11.2929C30.1776 11.4804 30.0723 11.7348 30.0723 12C30.0723 12.2652 30.1776 12.5196 30.3652 12.7071C30.5527 12.8946 30.807 13 31.0723 13C31.3375 13 31.5918 12.8946 31.7794 12.7071C31.9669 12.5196 32.0723 12.2652 32.0723 12C32.0723 11.7348 31.9669 11.4804 31.7794 11.2929C31.5918 11.1054 31.3375 11 31.0723 11ZM35.0723 11C34.807 11 34.5527 11.1054 34.3652 11.2929C34.1776 11.4804 34.0723 11.7348 34.0723 12C34.0723 12.2652 34.1776 12.5196 34.3652 12.7071C34.5527 12.8946 34.807 13 35.0723 13C35.3375 13 35.5918 12.8946 35.7794 12.7071C35.9669 12.5196 36.0723 12.2652 36.0723 12C36.0723 11.7348 35.9669 11.4804 35.7794 11.2929C35.5918 11.1054 35.3375 11 35.0723 11ZM39.0723 11C38.807 11 38.5527 11.1054 38.3652 11.2929C38.1776 11.4804 38.0723 11.7348 38.0723 12C38.0723 12.2652 38.1776 12.5196 38.3652 12.7071C38.5527 12.8946 38.807 13 39.0723 13C39.3375 13 39.5918 12.8946 39.7794 12.7071C39.9669 12.5196 40.0723 12.2652 40.0723 12C40.0723 11.7348 39.9669 11.4804 39.7794 11.2929C39.5918 11.1054 39.3375 11 39.0723 11ZM43.0723 11C42.807 11 42.5527 11.1054 42.3652 11.2929C42.1776 11.4804 42.0723 11.7348 42.0723 12C42.0723 12.2652 42.1776 12.5196 42.3652 12.7071C42.5527 12.8946 42.807 13 43.0723 13C43.3375 13 43.5918 12.8946 43.7794 12.7071C43.9669 12.5196 44.0723 12.2652 44.0723 12C44.0723 11.7348 43.9669 11.4804 43.7794 11.2929C43.5918 11.1054 43.3375 11 43.0723 11ZM47.0723 11C46.807 11 46.5527 11.1054 46.3652 11.2929C46.1776 11.4804 46.0723 11.7348 46.0723 12C46.0723 12.2652 46.1776 12.5196 46.3652 12.7071C46.5527 12.8946 46.807 13 47.0723 13C47.3375 13 47.5918 12.8946 47.7794 12.7071C47.9669 12.5196 48.0723 12.2652 48.0723 12C48.0723 11.7348 47.9669 11.4804 47.7794 11.2929C47.5918 11.1054 47.3375 11 47.0723 11ZM51.0723 11C50.807 11 50.5527 11.1054 50.3652 11.2929C50.1776 11.4804 50.0723 11.7348 50.0723 12C50.0723 12.2652 50.1776 12.5196 50.3652 12.7071C50.5527 12.8946 50.807 13 51.0723 13C51.3375 13 51.5918 12.8946 51.7794 12.7071C51.9669 12.5196 52.0723 12.2652 52.0723 12C52.0723 11.7348 51.9669 11.4804 51.7794 11.2929C51.5918 11.1054 51.3375 11 51.0723 11ZM55.0723 11C54.807 11 54.5527 11.1054 54.3652 11.2929C54.1776 11.4804 54.0723 11.7348 54.0723 12C54.0723 12.2652 54.1776 12.5196 54.3652 12.7071C54.5527 12.8946 54.807 13 55.0723 13C55.3375 13 55.5918 12.8946 55.7794 12.7071C55.9669 12.5196 56.0723 12.2652 56.0723 12C56.0723 11.7348 55.9669 11.4804 55.7794 11.2929C55.5918 11.1054 55.3375 11 55.0723 11ZM59.0723 11C58.807 11 58.5527 11.1054 58.3652 11.2929C58.1776 11.4804 58.0723 11.7348 58.0723 12C58.0723 12.2652 58.1776 12.5196 58.3652 12.7071C58.5527 12.8946 58.807 13 59.0723 13C59.3375 13 59.5918 12.8946 59.7794 12.7071C59.9669 12.5196 60.0723 12.2652 60.0723 12C60.0723 11.7348 59.9669 11.4804 59.7794 11.2929C59.5918 11.1054 59.3375 11 59.0723 11ZM63.0723 11C62.807 11 62.5527 11.1054 62.3652 11.2929C62.1776 11.4804 62.0723 11.7348 62.0723 12C62.0723 12.2652 62.1776 12.5196 62.3652 12.7071C62.5527 12.8946 62.807 13 63.0723 13C63.3375 13 63.5918 12.8946 63.7794 12.7071C63.9669 12.5196 64.0723 12.2652 64.0723 12C64.0723 11.7348 63.9669 11.4804 63.7794 11.2929C63.5918 11.1054 63.3375 11 63.0723 11ZM66.998 11C66.7328 11 66.4785 11.1054 66.2909 11.2929C66.1034 11.4804 65.998 11.7348 65.998 12C65.998 12.2652 66.1034 12.5196 66.2909 12.7071C66.4785 12.8946 66.7328 13 66.998 13C67.2633 13 67.5176 12.8946 67.7052 12.7071C67.8927 12.5196 67.998 12.2652 67.998 12C67.998 11.7348 67.8927 11.4804 67.7052 11.2929C67.5176 11.1054 67.2633 11 66.998 11ZM16.3047 28.2012L6.62109 37.5391L1.71484 32.5039L0.28125 33.9004L6.57617 40.3594L17.6914 29.6426L16.3047 28.2012ZM22.0723 33V35H70.998V33H22.0723ZM23.0723 37C22.807 37 22.5527 37.1054 22.3652 37.2929C22.1776 37.4804 22.0723 37.7348 22.0723 38C22.0723 38.2652 22.1776 38.5196 22.3652 38.7071C22.5527 38.8946 22.807 39 23.0723 39C23.3375 39 23.5918 38.8946 23.7794 38.7071C23.9669 38.5196 24.0723 38.2652 24.0723 38C24.0723 37.7348 23.9669 37.4804 23.7794 37.2929C23.5918 37.1054 23.3375 37 23.0723 37ZM27.0723 37C26.807 37 26.5527 37.1054 26.3652 37.2929C26.1776 37.4804 26.0723 37.7348 26.0723 38C26.0723 38.2652 26.1776 38.5196 26.3652 38.7071C26.5527 38.8946 26.807 39 27.0723 39C27.3375 39 27.5918 38.8946 27.7794 38.7071C27.9669 38.5196 28.0723 38.2652 28.0723 38C28.0723 37.7348 27.9669 37.4804 27.7794 37.2929C27.5918 37.1054 27.3375 37 27.0723 37ZM31.0723 37C30.807 37 30.5527 37.1054 30.3652 37.2929C30.1776 37.4804 30.0723 37.7348 30.0723 38C30.0723 38.2652 30.1776 38.5196 30.3652 38.7071C30.5527 38.8946 30.807 39 31.0723 39C31.3375 39 31.5918 38.8946 31.7794 38.7071C31.9669 38.5196 32.0723 38.2652 32.0723 38C32.0723 37.7348 31.9669 37.4804 31.7794 37.2929C31.5918 37.1054 31.3375 37 31.0723 37ZM35.0723 37C34.807 37 34.5527 37.1054 34.3652 37.2929C34.1776 37.4804 34.0723 37.7348 34.0723 38C34.0723 38.2652 34.1776 38.5196 34.3652 38.7071C34.5527 38.8946 34.807 39 35.0723 39C35.3375 39 35.5918 38.8946 35.7794 38.7071C35.9669 38.5196 36.0723 38.2652 36.0723 38C36.0723 37.7348 35.9669 37.4804 35.7794 37.2929C35.5918 37.1054 35.3375 37 35.0723 37ZM39.0723 37C38.807 37 38.5527 37.1054 38.3652 37.2929C38.1776 37.4804 38.0723 37.7348 38.0723 38C38.0723 38.2652 38.1776 38.5196 38.3652 38.7071C38.5527 38.8946 38.807 39 39.0723 39C39.3375 39 39.5918 38.8946 39.7794 38.7071C39.9669 38.5196 40.0723 38.2652 40.0723 38C40.0723 37.7348 39.9669 37.4804 39.7794 37.2929C39.5918 37.1054 39.3375 37 39.0723 37ZM43.0723 37C42.807 37 42.5527 37.1054 42.3652 37.2929C42.1776 37.4804 42.0723 37.7348 42.0723 38C42.0723 38.2652 42.1776 38.5196 42.3652 38.7071C42.5527 38.8946 42.807 39 43.0723 39C43.3375 39 43.5918 38.8946 43.7794 38.7071C43.9669 38.5196 44.0723 38.2652 44.0723 38C44.0723 37.7348 43.9669 37.4804 43.7794 37.2929C43.5918 37.1054 43.3375 37 43.0723 37ZM47.0723 37C46.807 37 46.5527 37.1054 46.3652 37.2929C46.1776 37.4804 46.0723 37.7348 46.0723 38C46.0723 38.2652 46.1776 38.5196 46.3652 38.7071C46.5527 38.8946 46.807 39 47.0723 39C47.3375 39 47.5918 38.8946 47.7794 38.7071C47.9669 38.5196 48.0723 38.2652 48.0723 38C48.0723 37.7348 47.9669 37.4804 47.7794 37.2929C47.5918 37.1054 47.3375 37 47.0723 37ZM51.0723 37C50.807 37 50.5527 37.1054 50.3652 37.2929C50.1776 37.4804 50.0723 37.7348 50.0723 38C50.0723 38.2652 50.1776 38.5196 50.3652 38.7071C50.5527 38.8946 50.807 39 51.0723 39C51.3375 39 51.5918 38.8946 51.7794 38.7071C51.9669 38.5196 52.0723 38.2652 52.0723 38C52.0723 37.7348 51.9669 37.4804 51.7794 37.2929C51.5918 37.1054 51.3375 37 51.0723 37ZM55.0723 37C54.807 37 54.5527 37.1054 54.3652 37.2929C54.1776 37.4804 54.0723 37.7348 54.0723 38C54.0723 38.2652 54.1776 38.5196 54.3652 38.7071C54.5527 38.8946 54.807 39 55.0723 39C55.3375 39 55.5918 38.8946 55.7794 38.7071C55.9669 38.5196 56.0723 38.2652 56.0723 38C56.0723 37.7348 55.9669 37.4804 55.7794 37.2929C55.5918 37.1054 55.3375 37 55.0723 37ZM59.0723 37C58.807 37 58.5527 37.1054 58.3652 37.2929C58.1776 37.4804 58.0723 37.7348 58.0723 38C58.0723 38.2652 58.1776 38.5196 58.3652 38.7071C58.5527 38.8946 58.807 39 59.0723 39C59.3375 39 59.5918 38.8946 59.7794 38.7071C59.9669 38.5196 60.0723 38.2652 60.0723 38C60.0723 37.7348 59.9669 37.4804 59.7794 37.2929C59.5918 37.1054 59.3375 37 59.0723 37ZM63.0723 37C62.807 37 62.5527 37.1054 62.3652 37.2929C62.1776 37.4804 62.0723 37.7348 62.0723 38C62.0723 38.2652 62.1776 38.5196 62.3652 38.7071C62.5527 38.8946 62.807 39 63.0723 39C63.3375 39 63.5918 38.8946 63.7794 38.7071C63.9669 38.5196 64.0723 38.2652 64.0723 38C64.0723 37.7348 63.9669 37.4804 63.7794 37.2929C63.5918 37.1054 63.3375 37 63.0723 37ZM66.998 37C66.7328 37 66.4785 37.1054 66.2909 37.2929C66.1034 37.4804 65.998 37.7348 65.998 38C65.998 38.2652 66.1034 38.5196 66.2909 38.7071C66.4785 38.8946 66.7328 39 66.998 39C67.2633 39 67.5176 38.8946 67.7052 38.7071C67.8927 38.5196 67.998 38.2652 67.998 38C67.998 37.7348 67.8927 37.4804 67.7052 37.2929C67.5176 37.1054 67.2633 37 66.998 37Z" fill="white"/>
</svg>
