<svg width="26" height="26" viewBox="0 0 26 26" fill="none" xmlns="http://www.w3.org/2000/svg">
<path d="M4.74192 0.0859375L1.59348 3.23438C-0.133078 4.96094 -0.508078 7.64844 0.726296 9.75781C2.1013 12.1172 3.2263 13.8594 7.93723 18.5625C12.6404 23.2734 13.9216 23.9141 16.2419 25.2734C18.3591 26.5078 21.0388 26.1328 22.7575 24.4062L25.9138 21.2578L19.82 15.1719L17.3435 17.6484C17.0466 17.5156 16.6013 17.2812 16.0857 16.9531C15.0232 16.2734 13.6638 15.2344 12.4685 14.0312C11.2654 12.8359 10.0935 11.3437 9.28098 10.1406C8.88255 9.54688 8.56223 9.00781 8.39036 8.65625C8.38255 8.64063 8.38255 8.64063 8.37473 8.625L10.8279 6.17188L4.74192 0.0859375ZM4.74192 2.91406L7.99973 6.17188L6.57005 7.60938C6.27317 7.90625 6.24192 8.23438 6.24973 8.42188C6.24973 8.60156 6.28098 8.72656 6.31223 8.84375C6.38255 9.08594 6.4763 9.29688 6.59348 9.54688C6.83567 10.0312 7.18723 10.6094 7.62473 11.2656C8.49973 12.5625 9.73411 14.1328 11.0466 15.4531C12.3669 16.7656 13.82 17.875 15.0154 18.6328C15.6091 19.0156 16.1325 19.3047 16.5779 19.5C16.8044 19.6016 17.0075 19.6797 17.2497 19.7266C17.3669 19.75 17.4997 19.7656 17.6794 19.75C17.8591 19.7422 18.1404 19.6797 18.3904 19.4297L19.82 18L23.0857 21.2578L21.3435 23C20.2575 24.0859 18.5779 24.3203 17.2497 23.5469C14.8904 22.1641 13.9919 21.7969 9.34348 17.1562C4.70286 12.5078 3.81223 11.0781 2.45286 8.75C1.67942 7.42188 1.9138 5.74219 2.99973 4.65625L4.74192 2.91406Z" fill="white"/>
</svg>
