<svg width="66" height="63" viewBox="0 0 66 63" fill="none" xmlns="http://www.w3.org/2000/svg">
<path d="M58.5 0C56.6094 0 55.0625 1.53516 55.0156 3.41797C46.7852 10.8477 36.1055 15 25 15H11C9.69141 15 8.57812 15.8633 8.17188 17.043C3.60156 17.4609 0 21.3203 0 26V28C0 32.6055 3.53125 36.2734 8 36.7969V37H8.17578C8.50391 37.8984 9.25 38.5977 10.1758 38.8711C14.125 42.9844 15.6172 51.2227 16.0625 57.9766C16.2969 61.4609 19.7969 63.8281 23.1133 62.7227L26.5938 61.5625C29.3008 60.6562 30.8516 57.7578 30.0508 55.0039C29.1602 51.9297 27.7422 50.6602 26.8398 47H27.832C29.5664 47 30.9297 45.4336 30.6914 43.7188L30.082 39.3008C39.3281 40.3672 48.0508 44.293 55.0156 50.582C55.0625 52.4648 56.6094 54 58.5 54C60.4219 54 62 52.4219 62 50.5V31.7969C63.9258 31.3867 65.3867 29.9258 65.7969 28H66V27C66 24.5938 64.2734 22.5703 62 22.1016V3.5C62 1.57812 60.4219 0 58.5 0ZM58.5 2C59.3398 2 60 2.66016 60 3.5V50.5C60 51.3398 59.3398 52 58.5 52C57.6602 52 57 51.3398 57 50.5V49.6406L56.6758 49.3438C48.2852 41.6406 37.3711 37.3398 26 37.0938V16.9062C37.3711 16.6602 48.2852 12.3594 56.6758 4.65625L57 4.35938V3.5C57 2.66016 57.6602 2 58.5 2ZM56 8C55.4492 8 55 8.44922 55 9C55 9.55078 55.4492 10 56 10C56.5508 10 57 9.55078 57 9C57 8.44922 56.5508 8 56 8ZM56 12C55.4492 12 55 12.4492 55 13C55 13.5508 55.4492 14 56 14C56.5508 14 57 13.5508 57 13C57 12.4492 56.5508 12 56 12ZM56 16C55.4492 16 55 16.4492 55 17C55 17.5508 55.4492 18 56 18C56.5508 18 57 17.5508 57 17C57 16.4492 56.5508 16 56 16ZM11 17H24V37H11C10.4336 37 10 36.5664 10 36V18C10 17.4336 10.4336 17 11 17ZM8 19.2031V34.7969C6.07031 34.5117 4.39453 33.4844 3.30469 32H4V30H2.30078C2.10938 29.3711 2 28.6992 2 28H4V26H2C2 25.3008 2.10938 24.6289 2.30078 24H4V22H3.30469C4.39453 20.5156 6.07031 19.4883 8 19.2031ZM13 20V22H17V20H13ZM56 20C55.4492 20 55 20.4492 55 21C55 21.5508 55.4492 22 56 22C56.5508 22 57 21.5508 57 21C57 20.4492 56.5508 20 56 20ZM56 24C55.4492 24 55 24.4492 55 25C55 25.5508 55.4492 26 56 26C56.5508 26 57 25.5508 57 25C57 24.4492 56.5508 24 56 24ZM62 24.4102C63.1133 24.8477 64 25.7227 64 27C64 28.2773 63.1133 29.1523 62 29.5898V24.4102ZM13 26V28H17V26H13ZM56 28C55.4492 28 55 28.4492 55 29C55 29.5508 55.4492 30 56 30C56.5508 30 57 29.5508 57 29C57 28.4492 56.5508 28 56 28ZM13 32V34H17V32H13ZM56 32C55.4492 32 55 32.4492 55 33C55 33.5508 55.4492 34 56 34C56.5508 34 57 33.5508 57 33C57 32.4492 56.5508 32 56 32ZM56 36C55.4492 36 55 36.4492 55 37C55 37.5508 55.4492 38 56 38C56.5508 38 57 37.5508 57 37C57 36.4492 56.5508 36 56 36ZM12.6445 39H24.0664C24.2578 50.0391 26.9844 51.6094 28.1328 55.5625C28.6328 57.2969 27.6797 59.0938 25.957 59.668L22.4805 60.8242C20.3594 61.5312 18.2109 60.0781 18.0625 57.8438C17.6406 51.5391 16.375 43.9883 12.6445 39ZM26.0156 39.0195C26.6914 39.0391 27.3672 39.0703 28.043 39.1172L28.7148 43.9883C28.7891 44.543 28.3906 45 27.832 45H26.4414C26.2031 43.4375 26.0508 41.4805 26.0156 39.0195ZM56 40C55.4492 40 55 40.4492 55 41C55 41.5508 55.4492 42 56 42C56.5508 42 57 41.5508 57 41C57 40.4492 56.5508 40 56 40ZM56 44C55.4492 44 55 44.4492 55 45C55 45.5508 55.4492 46 56 46C56.5508 46 57 45.5508 57 45C57 44.4492 56.5508 44 56 44Z" fill="white"/>
</svg>
