<svg width="108" height="84" viewBox="0 0 108 84" fill="none" xmlns="http://www.w3.org/2000/svg">
<path d="M53.7832 0C47.9297 0 42.7324 1.89844 38.9824 5.32031C38.2031 6.03516 37.5 6.83203 36.8555 7.66992C35.332 6.73828 33.252 6 30.5684 6C25.7871 6 21.5098 7.55859 18.4219 10.3887C15.3398 13.2246 13.5 17.3203 13.5 22.1074C13.5 25.2246 14.291 30.8672 14.7246 33.9785C14.0391 34.5645 13.5 35.3145 13.5 36.2988C13.5 37.1191 13.7285 37.6582 13.8984 38.209C13.9863 38.4902 14.0684 38.7363 14.1152 38.918C14.168 39.0996 14.1621 39.293 14.1621 39C14.1621 40.459 15.3164 41.4258 16.6465 41.7422C16.9922 45.668 18.8789 49.125 21.75 51.498V57.4453C20.9531 57.709 16.7168 59.0684 11.6484 61.5762C8.88281 62.9414 6.09375 64.5469 3.91406 66.375C1.73438 68.1973 0 70.3184 0 72.8965V78H18V84H90V78H108V72.8965C108 70.3184 106.266 68.1973 104.086 66.375C101.906 64.5469 99.1172 62.9414 96.3516 61.5762C91.2832 59.0684 87.0469 57.709 86.25 57.4453V51.498C89.1211 49.125 91.0078 45.668 91.3535 41.7422C92.6836 41.4258 93.8379 40.459 93.8379 39C93.8379 39.293 93.832 39.0996 93.8848 38.918C93.9316 38.7363 94.0137 38.4902 94.1016 38.209C94.2715 37.6582 94.5 37.1191 94.5 36.2988C94.5 35.3145 93.9551 34.5645 93.2695 33.9785C93.709 30.8262 94.5 25.0898 94.5 22.1074C94.5 18.1582 93.3867 15.2285 91.6582 13.2949C90.1348 11.6074 88.1836 10.8574 86.2969 10.6641C86.0332 10.1895 85.7988 9.5918 84.6562 8.61328C83.2969 7.44727 81.1875 6.31055 78.2754 6.05273C78.1816 6.04102 78.0996 6 78 6C77.9414 6 77.8887 6.0293 77.8301 6.03516C77.5781 6.02344 77.332 6 77.0684 6C74.3848 6 71.8828 6.51562 69.6328 7.44727C68.3262 6.69727 66.9023 6.32812 65.5078 6.1875C65.1504 5.50781 64.5645 4.5293 63.3516 3.39844C61.4941 1.67578 58.3887 0 53.7832 0ZM53.7832 3C57.6797 3 59.9355 4.32422 61.3125 5.60156C62.6836 6.87305 63.0938 8.01562 63.0938 8.01562L63.4512 9H64.5C66.2812 9 68.0801 9.58594 69.4922 11.1211C70.9043 12.6562 72 15.2402 72 19.5C72 22.8574 71.0801 30.1465 70.6875 33.0293L70.541 34.125L71.5371 34.5938C71.8359 34.7285 72 34.9688 72 35.25C72 35.2734 71.8594 36.0117 71.6719 36.6562C71.5723 36.9844 71.4785 37.3066 71.3906 37.6113C71.3086 37.916 71.2207 38.1211 71.2207 38.625C71.2207 38.8125 71.0684 39 70.7637 39H67.5V41.0625C67.5 45.4805 65.373 49.3711 62.0977 51.832L61.5 52.2832V61.0723L62.5137 61.418C62.5137 61.418 68.8066 63.5742 75.0527 66.8496C78.1758 68.4902 81.2812 70.4121 83.5195 72.3984C85.7578 74.3906 87 76.3711 87 78V81H21V78C21 76.3711 22.2422 74.3906 24.4805 72.3984C26.7188 70.4121 29.8242 68.4902 32.9473 66.8496C39.1934 63.5742 45.4863 61.418 45.4863 61.418L46.5 61.0723V52.2891L45.9023 51.8379C42.627 49.3711 40.5 45.4805 40.5 41.0625V39H37.2363C36.9316 39 36.7793 38.8125 36.7793 38.625C36.7793 38.1211 36.6914 37.916 36.6094 37.6113C36.5215 37.3066 36.4277 36.9844 36.3281 36.6562C36.1406 36.0117 36 35.2734 36 35.25C36 34.9746 36.1641 34.7285 36.457 34.5938L37.4531 34.125L37.3066 33.0293C36.9141 30.1875 36 23.0801 36 19.5C36 14.4434 37.875 10.3945 41.0098 7.5293C44.1387 4.66992 48.5801 3 53.7832 3ZM30.5684 9C32.6895 9 34.1719 9.5332 35.2441 10.1895C34.377 11.8242 33.7383 13.6113 33.375 15.5391C33.1523 15.7969 33 16.125 33 16.5C33 16.7227 33.0527 16.9277 33.1406 17.1152C33.0527 17.8945 33 18.6855 33 19.5C33 20.9648 33.1348 22.7812 33.3105 24.6328C33.1289 24.8789 33 25.166 33 25.5C33 25.9395 33.1992 26.3262 33.498 26.6016C33.7559 28.9219 34.0547 31.1719 34.2598 32.6719C33.5508 33.3457 33 34.1953 33 35.25C33 36.1348 33.252 36.8203 33.4512 37.5C33.5508 37.8457 33.6504 38.1621 33.709 38.3965C33.7734 38.6309 33.7793 38.8652 33.7793 38.625C33.7793 40.5059 35.3789 42 37.2363 42H37.6172C37.7051 43.6055 38.0449 45.1406 38.5605 46.5879C37.9512 46.7812 37.5 47.3262 37.5 48C37.5 48.8262 38.1738 49.5 39 49.5C39.2988 49.5 39.5625 49.3887 39.7969 49.2422C40.4297 50.3379 41.1797 51.3574 42.0469 52.2773C42.0293 52.3535 42 52.4238 42 52.5C42 53.3262 42.6738 54 43.5 54V58.9688C42.5273 59.3086 39.5977 60.3691 35.8828 62.0801C35.959 61.8984 36 61.7051 36 61.5C36 60.6738 35.3262 60 34.5 60C33.6738 60 33 60.6738 33 61.5C33 62.1973 33.4863 62.7598 34.1309 62.9297C33.2812 63.3398 32.4551 63.7266 31.5527 64.1953C31.2598 64.3535 30.9668 64.5176 30.6797 64.6816C30.4688 64.5703 30.2461 64.5 30 64.5C29.209 64.5 28.5762 65.1211 28.5234 65.9004C26.332 67.1895 24.2344 68.6074 22.4883 70.1543C20.8359 71.625 19.4473 73.2305 18.668 75H13.5C13.5 74.1738 12.8262 73.5 12 73.5C11.1738 73.5 10.5 74.1738 10.5 75H4.5C4.5 74.1738 3.82617 73.5 3 73.5V72.8965C3 71.7773 3.9668 70.2422 5.8418 68.6719C7.14258 67.582 8.81836 66.5156 10.5938 65.5254C10.5469 65.6719 10.5 65.8301 10.5 66C10.5 66.8262 11.1738 67.5 12 67.5C12.8262 67.5 13.5 66.8262 13.5 66C13.5 65.3086 13.0195 64.7461 12.375 64.5762C12.5801 64.4766 12.7734 64.3652 12.9785 64.2656C13.998 63.7617 14.9883 63.3223 15.9609 62.8887C16.1309 62.959 16.3125 63 16.5 63C17.127 63 17.6602 62.6191 17.8828 62.0742C20.9297 60.8262 23.2852 60.0352 23.4023 60H24.75V53.7715C24.9727 53.9062 25.2188 54 25.5 54C26.3262 54 27 53.3262 27 52.5C27 51.6738 26.3262 51 25.5 51C25.2188 51 24.9727 51.0938 24.75 51.2285V50.0918L24.1348 49.6465C23.5312 49.2012 22.9805 48.6914 22.4766 48.1406C22.4766 48.0879 22.5 48.0469 22.5 48C22.5 47.2617 21.9551 46.6816 21.2578 46.5527C20.1504 44.8066 19.5 42.7441 19.5 40.5176V39H17.3203C17.1387 39 17.1621 38.9355 17.1621 39C17.1621 38.502 17.0742 38.3438 16.998 38.0859C16.9277 37.834 16.8457 37.5762 16.7637 37.3184C16.6055 36.8086 16.5 36.2051 16.5 36.2988C16.5 36.2285 16.541 36.123 16.7812 36.0469L17.959 35.6484L17.8828 35.0859C17.959 34.9043 18 34.7051 18 34.5C18 34.166 17.8711 33.873 17.6836 33.627C17.4375 31.8691 17.1211 29.4082 16.8574 26.9297C17.5078 26.7598 18 26.1973 18 25.5C18 24.709 17.3789 24.0762 16.5996 24.0234C16.5527 23.3262 16.5 22.5996 16.5 22.1074C16.5 20.5664 16.7168 19.1484 17.127 17.8594C17.6367 17.6191 18 17.1035 18 16.5C18 16.3184 17.959 16.1484 17.9004 15.9844C18.4453 14.9062 19.1426 13.9336 19.9746 13.084C20.2441 13.3359 20.6016 13.5 21 13.5C21.8262 13.5 22.5 12.8262 22.5 12C22.5 11.7129 22.4004 11.4609 22.2598 11.2324C24.5273 9.80859 27.3516 9 30.5684 9ZM19.5 39C19.5 39.8262 20.1738 40.5 21 40.5C21.8262 40.5 22.5 39.8262 22.5 39C22.5 38.1738 21.8262 37.5 21 37.5C20.1738 37.5 19.5 38.1738 19.5 39ZM77.0684 9C79.5645 9 81.1523 9.74414 82.2422 10.5527C81.5449 10.6758 81 11.2617 81 12C81 12.8262 81.6738 13.5 82.5 13.5C83.2207 13.5 83.8008 12.9785 83.9414 12.2988C84.0234 12.4336 84.1348 12.6211 84.1348 12.6211L84.5332 13.5H85.5C86.8125 13.5 88.2656 14.0156 89.4199 15.3047C90.252 16.2246 90.9609 17.5898 91.2891 19.541C90.5684 19.6465 90 20.2441 90 21C90 21.8203 90.6621 22.4883 91.4766 22.5C91.4473 23.9355 91.2246 26.2148 90.9492 28.6113C90.3926 28.834 90 29.3672 90 30C90 30.4922 90.252 30.9082 90.6211 31.1836C90.4746 32.3145 90.3164 33.6738 90.2109 34.418L90.041 35.6484L91.2188 36.0469C91.459 36.1289 91.5 36.2285 91.5 36.2988C91.5 36.2051 91.3945 36.8086 91.2363 37.3184C91.2129 37.4004 91.1836 37.4824 91.1602 37.5703C90.498 37.7227 90 38.291 90 39H88.5V40.5176C88.5 41.2793 88.4062 42.0176 88.2656 42.7383C88.002 42.3047 87.5449 42 87 42C86.1738 42 85.5 42.6738 85.5 43.5C85.5 44.3262 86.1738 45 87 45C87.2227 45 87.4336 44.9473 87.627 44.8594C86.8242 46.7812 85.5234 48.4336 83.8652 49.6465L83.25 50.0918V55.7285C83.0273 55.5938 82.7812 55.5 82.5 55.5C81.6738 55.5 81 56.1738 81 57C81 57.8262 81.6738 58.5 82.5 58.5C82.7812 58.5 83.0273 58.4062 83.25 58.2715V60H84.5977C84.6328 60.0117 85.5352 60.3398 85.916 60.4688C85.6582 60.7383 85.5 61.1016 85.5 61.5C85.5 62.3262 86.1738 63 87 63C87.8262 63 88.5 62.3262 88.5 61.5C88.5 61.4707 88.4824 61.4473 88.4824 61.4121C90.3457 62.1387 92.6484 63.0879 95.0215 64.2656C96.4277 64.9629 97.8164 65.7188 99.0996 66.5156C99.3164 67.0898 99.8555 67.5 100.5 67.5C100.529 67.5 100.559 67.4824 100.594 67.4824C101.156 67.875 101.678 68.2734 102.158 68.6719C102.727 69.1465 103.184 69.6152 103.588 70.0781C103.547 70.2129 103.5 70.3477 103.5 70.5C103.5 71.2617 104.074 71.8652 104.807 71.959C104.93 72.2988 105 72.6094 105 72.8965V75H102C102 74.1738 101.326 73.5 100.5 73.5C99.6738 73.5 99 74.1738 99 75H93C93 74.1738 92.3262 73.5 91.5 73.5C90.6738 73.5 90 74.1738 90 75H89.332C88.8574 73.9219 88.1602 72.9023 87.3047 71.9355C87.9844 71.7949 88.5 71.2207 88.5 70.5C88.5 69.6738 87.8262 69 87 69C86.2793 69 85.6992 69.5215 85.5586 70.2012C85.541 70.1895 85.5293 70.1719 85.5117 70.1543C82.9688 67.8984 79.6992 65.9004 76.4473 64.1953C74.2617 63.0527 72.2695 62.1387 70.4707 61.3594C70.3945 60.5977 69.7793 60 69 60C68.6484 60 68.3438 60.1406 68.0859 60.3457C66.4043 59.666 65.0742 59.168 64.5 58.9688V58.5C65.3262 58.5 66 57.8262 66 57C66 56.1738 65.3262 55.5 64.5 55.5V53.666C67.2539 51.375 69.2109 48.2109 70.0078 44.6016C70.3066 44.3262 70.5 43.9395 70.5 43.5C70.5 43.2363 70.418 43.0078 70.2949 42.791C70.3242 42.5273 70.3711 42.2695 70.3828 42H70.7637C71.9473 42 73.0137 41.3906 73.6406 40.4707C74.3965 40.3945 75 39.7793 75 39C75 38.5371 74.7773 38.1328 74.4434 37.8574C74.4785 37.7344 74.5078 37.6406 74.5488 37.5C74.748 36.8203 75 36.1348 75 35.25C75 34.1895 74.4492 33.3398 73.7344 32.666C73.7754 32.3555 73.8398 31.7871 73.8926 31.4238C74.5254 31.248 75 30.6914 75 30C75 29.4375 74.6777 28.9688 74.2266 28.7109C74.6133 25.5527 75 22.0312 75 19.5C75 17.1211 74.6836 15.082 74.1152 13.3594C74.6367 13.125 75 12.6035 75 12C75 11.1738 74.3262 10.5 73.5 10.5C73.2715 10.5 73.0547 10.5645 72.8613 10.6582C72.6562 10.3184 72.4336 10.002 72.2051 9.70312C73.6992 9.25781 75.3223 9 77.0684 9ZM30 10.5C29.1738 10.5 28.5 11.1738 28.5 12C28.5 12.8262 29.1738 13.5 30 13.5C30.8262 13.5 31.5 12.8262 31.5 12C31.5 11.1738 30.8262 10.5 30 10.5ZM25.5 15C24.6738 15 24 15.6738 24 16.5C24 17.3262 24.6738 18 25.5 18C26.3262 18 27 17.3262 27 16.5C27 15.6738 26.3262 15 25.5 15ZM78 15C77.1738 15 76.5 15.6738 76.5 16.5C76.5 17.3262 77.1738 18 78 18C78.8262 18 79.5 17.3262 79.5 16.5C79.5 15.6738 78.8262 15 78 15ZM87 15C86.1738 15 85.5 15.6738 85.5 16.5C85.5 17.3262 86.1738 18 87 18C87.8262 18 88.5 17.3262 88.5 16.5C88.5 15.6738 87.8262 15 87 15ZM21 19.5C20.1738 19.5 19.5 20.1738 19.5 21C19.5 21.8262 20.1738 22.5 21 22.5C21.8262 22.5 22.5 21.8262 22.5 21C22.5 20.1738 21.8262 19.5 21 19.5ZM30 19.5C29.1738 19.5 28.5 20.1738 28.5 21C28.5 21.8262 29.1738 22.5 30 22.5C30.8262 22.5 31.5 21.8262 31.5 21C31.5 20.1738 30.8262 19.5 30 19.5ZM82.5 19.5C81.6738 19.5 81 20.1738 81 21C81 21.8262 81.6738 22.5 82.5 22.5C83.3262 22.5 84 21.8262 84 21C84 20.1738 83.3262 19.5 82.5 19.5ZM25.5 24C24.6738 24 24 24.6738 24 25.5C24 26.3262 24.6738 27 25.5 27C26.3262 27 27 26.3262 27 25.5C27 24.6738 26.3262 24 25.5 24ZM78 24C77.1738 24 76.5 24.6738 76.5 25.5C76.5 26.3262 77.1738 27 78 27C78.8262 27 79.5 26.3262 79.5 25.5C79.5 24.6738 78.8262 24 78 24ZM87 24C86.1738 24 85.5 24.6738 85.5 25.5C85.5 26.3262 86.1738 27 87 27C87.8262 27 88.5 26.3262 88.5 25.5C88.5 24.6738 87.8262 24 87 24ZM21 28.5C20.1738 28.5 19.5 29.1738 19.5 30C19.5 30.8262 20.1738 31.5 21 31.5C21.8262 31.5 22.5 30.8262 22.5 30C22.5 29.1738 21.8262 28.5 21 28.5ZM30 28.5C29.1738 28.5 28.5 29.1738 28.5 30C28.5 30.8262 29.1738 31.5 30 31.5C30.8262 31.5 31.5 30.8262 31.5 30C31.5 29.1738 30.8262 28.5 30 28.5ZM82.5 28.5C81.6738 28.5 81 29.1738 81 30C81 30.8262 81.6738 31.5 82.5 31.5C83.3262 31.5 84 30.8262 84 30C84 29.1738 83.3262 28.5 82.5 28.5ZM25.5 33C24.6738 33 24 33.6738 24 34.5C24 35.3262 24.6738 36 25.5 36C26.3262 36 27 35.3262 27 34.5C27 33.6738 26.3262 33 25.5 33ZM78 33C77.1738 33 76.5 33.6738 76.5 34.5C76.5 35.3262 77.1738 36 78 36C78.8262 36 79.5 35.3262 79.5 34.5C79.5 33.6738 78.8262 33 78 33ZM87 33C86.1738 33 85.5 33.6738 85.5 34.5C85.5 35.3262 86.1738 36 87 36C87.8262 36 88.5 35.3262 88.5 34.5C88.5 33.6738 87.8262 33 87 33ZM30 37.5C29.1738 37.5 28.5 38.1738 28.5 39C28.5 39.8262 29.1738 40.5 30 40.5C30.8262 40.5 31.5 39.8262 31.5 39C31.5 38.1738 30.8262 37.5 30 37.5ZM82.5 37.5C81.6738 37.5 81 38.1738 81 39C81 39.8262 81.6738 40.5 82.5 40.5C83.3262 40.5 84 39.8262 84 39C84 38.1738 83.3262 37.5 82.5 37.5ZM25.5 42C24.6738 42 24 42.6738 24 43.5C24 44.3262 24.6738 45 25.5 45C26.3262 45 27 44.3262 27 43.5C27 42.6738 26.3262 42 25.5 42ZM34.5 42C33.6738 42 33 42.6738 33 43.5C33 44.3262 33.6738 45 34.5 45C35.3262 45 36 44.3262 36 43.5C36 42.6738 35.3262 42 34.5 42ZM78 42C77.1738 42 76.5 42.6738 76.5 43.5C76.5 44.3262 77.1738 45 78 45C78.8262 45 79.5 44.3262 79.5 43.5C79.5 42.6738 78.8262 42 78 42ZM30 46.5C29.1738 46.5 28.5 47.1738 28.5 48C28.5 48.8262 29.1738 49.5 30 49.5C30.8262 49.5 31.5 48.8262 31.5 48C31.5 47.1738 30.8262 46.5 30 46.5ZM73.5 46.5C72.6738 46.5 72 47.1738 72 48C72 48.8262 72.6738 49.5 73.5 49.5C74.3262 49.5 75 48.8262 75 48C75 47.1738 74.3262 46.5 73.5 46.5ZM82.5 46.5C81.6738 46.5 81 47.1738 81 48C81 48.8262 81.6738 49.5 82.5 49.5C83.3262 49.5 84 48.8262 84 48C84 47.1738 83.3262 46.5 82.5 46.5ZM34.5 51C33.6738 51 33 51.6738 33 52.5C33 53.3262 33.6738 54 34.5 54C35.3262 54 36 53.3262 36 52.5C36 51.6738 35.3262 51 34.5 51ZM69 51C68.1738 51 67.5 51.6738 67.5 52.5C67.5 53.3262 68.1738 54 69 54C69.8262 54 70.5 53.3262 70.5 52.5C70.5 51.6738 69.8262 51 69 51ZM78 51C77.1738 51 76.5 51.6738 76.5 52.5C76.5 53.3262 77.1738 54 78 54C78.8262 54 79.5 53.3262 79.5 52.5C79.5 51.6738 78.8262 51 78 51ZM30 55.5C29.1738 55.5 28.5 56.1738 28.5 57C28.5 57.8262 29.1738 58.5 30 58.5C30.8262 58.5 31.5 57.8262 31.5 57C31.5 56.1738 30.8262 55.5 30 55.5ZM39 55.5C38.1738 55.5 37.5 56.1738 37.5 57C37.5 57.8262 38.1738 58.5 39 58.5C39.8262 58.5 40.5 57.8262 40.5 57C40.5 56.1738 39.8262 55.5 39 55.5ZM73.5 55.5C72.6738 55.5 72 56.1738 72 57C72 57.8262 72.6738 58.5 73.5 58.5C74.3262 58.5 75 57.8262 75 57C75 56.1738 74.3262 55.5 73.5 55.5ZM25.5 60C24.6738 60 24 60.6738 24 61.5C24 62.3262 24.6738 63 25.5 63C26.3262 63 27 62.3262 27 61.5C27 60.6738 26.3262 60 25.5 60ZM78 60C77.1738 60 76.5 60.6738 76.5 61.5C76.5 62.3262 77.1738 63 78 63C78.8262 63 79.5 62.3262 79.5 61.5C79.5 60.6738 78.8262 60 78 60ZM21 64.5C20.1738 64.5 19.5 65.1738 19.5 66C19.5 66.8262 20.1738 67.5 21 67.5C21.8262 67.5 22.5 66.8262 22.5 66C22.5 65.1738 21.8262 64.5 21 64.5ZM82.5 64.5C81.6738 64.5 81 65.1738 81 66C81 66.8262 81.6738 67.5 82.5 67.5C83.3262 67.5 84 66.8262 84 66C84 65.1738 83.3262 64.5 82.5 64.5ZM91.5 64.5C90.6738 64.5 90 65.1738 90 66C90 66.8262 90.6738 67.5 91.5 67.5C92.3262 67.5 93 66.8262 93 66C93 65.1738 92.3262 64.5 91.5 64.5ZM7.5 69C6.67383 69 6 69.6738 6 70.5C6 71.3262 6.67383 72 7.5 72C8.32617 72 9 71.3262 9 70.5C9 69.6738 8.32617 69 7.5 69ZM16.5 69C15.6738 69 15 69.6738 15 70.5C15 71.3262 15.6738 72 16.5 72C17.3262 72 18 71.3262 18 70.5C18 69.6738 17.3262 69 16.5 69ZM96 69C95.1738 69 94.5 69.6738 94.5 70.5C94.5 71.3262 95.1738 72 96 72C96.8262 72 97.5 71.3262 97.5 70.5C97.5 69.6738 96.8262 69 96 69Z" fill="white"/>
</svg>
