<svg width="58" height="65" viewBox="0 0 58 65" fill="none" xmlns="http://www.w3.org/2000/svg">
<path d="M29 0.882812L28.5508 1.10547C28.5508 1.10547 16.75 7 1 7H0V8C0 31.2031 7.08984 45.2305 14.25 53.4062C21.4062 61.5859 28.6914 63.9531 28.6914 63.9531L29 64.0508L29.3086 63.9531C29.3086 63.9531 36.5938 61.5859 43.75 53.4062C50.9102 45.2305 58 31.2031 58 8V7H57C41.25 7 29.4492 1.10547 29.4492 1.10547L29 0.882812ZM29 3.09375C30.1484 3.64844 41.082 8.71094 55.9648 8.95312C55.7656 31.1484 48.9922 44.3867 42.25 52.0938C35.6523 59.6289 29.4609 61.7461 29 61.9023C28.5391 61.7461 22.3477 59.6289 15.75 52.0938C9.00781 44.3867 2.23438 31.1484 2.03516 8.95312C16.918 8.71094 27.8516 3.64844 29 3.09375ZM27.125 8.25391L26.7773 8.31641L26.6836 8.35547L26.0742 9.01172L26.2383 9.89062L27.043 10.293L27.3906 10.2266L27.4844 10.1914L28.0898 9.53125L27.9258 8.65234L27.125 8.25391ZM31.2031 8.32812L30.3125 8.43359L29.8633 9.21094L30.2188 10.0312L30.5234 10.207L30.6172 10.2422L31.5078 10.1367L31.9531 9.35938L31.6016 8.53516L31.2969 8.35937L31.2031 8.32812ZM23.3125 9.57812L22.9648 9.62109L22.8711 9.64844L22.2188 10.2656L22.3242 11.1562L23.0977 11.6055L23.4492 11.5625L23.5469 11.5352L24.1953 10.918L24.0898 10.0273L23.3125 9.57812ZM35.0234 9.62109L34.1406 9.78125L33.7422 10.582L34.1445 11.3828L34.457 11.5391L34.5547 11.5664L35.4375 11.4062L35.8398 10.6094L35.4375 9.80859L35.1211 9.64844L35.0234 9.62109ZM19.4375 10.6914L19.082 10.707L18.9844 10.7344L18.2969 11.3086L18.3438 12.2031L19.0938 12.6992L19.4414 12.6797L19.543 12.6562L20.2305 12.082L20.1797 11.1875L19.4375 10.6914ZM38.9375 10.707L38.0625 10.8945L37.6875 11.7109L38.1172 12.4961L38.4375 12.6406L38.5352 12.668L39.4102 12.4805L39.7812 11.6641L39.3555 10.8789L39.0312 10.7344L38.9375 10.707ZM15.4688 11.5781L15.1211 11.5859L15.0195 11.6055L14.3125 12.1562L14.3281 13.0508L15.0586 13.5742L15.4102 13.5664L15.5117 13.5469L16.2188 13L16.1992 12.1016L15.4688 11.5781ZM42.8594 11.5898L42 11.8438L41.6875 12.6836L42.1719 13.4375L42.5039 13.5586L42.6055 13.5781L43.4648 13.3242L43.7734 12.4844L43.2852 11.7305L42.957 11.6094L42.8594 11.5898ZM46.8555 12.2539L46.0078 12.5469L45.7344 13.3984L46.25 14.1289L46.5859 14.2344L46.6875 14.25L47.5312 13.9609L47.8086 13.1094L47.2891 12.375L46.9531 12.2695L46.8555 12.2539ZM11.1211 12.2734L11.0195 12.2891L10.2969 12.8125L10.2773 13.707L10.9844 14.2578L11.3398 14.2656L11.4375 14.25L12.1641 13.7227L12.1797 12.8281L11.4727 12.2812L11.1211 12.2734ZM7.21875 12.7305C7.19531 12.7266 7.17187 12.7305 7.15234 12.7305C7.09375 12.7344 7.07812 12.7344 7.10156 12.7344L6.16016 12.793V13.7773C6.15234 14.1914 6.40234 14.5664 6.78906 14.7188C7.17187 14.8711 7.61328 14.7734 7.89453 14.4688C8.19922 14.1914 8.30469 13.7539 8.15625 13.3672C8.00391 12.9805 7.63281 12.7266 7.21875 12.7305ZM50.75 12.7305C50.3359 12.7383 49.9688 13.0078 49.832 13.3984C49.6953 13.793 49.8164 14.2266 50.1367 14.4961C50.1367 14.4961 50.1367 14.4961 50.1406 14.5C50.4258 14.7852 50.8594 14.8672 51.2344 14.707C51.6055 14.5469 51.8477 14.1797 51.8438 13.7734V12.793L50.9023 12.7344C50.9258 12.7344 50.9062 12.7344 50.8477 12.7305C50.8164 12.7266 50.7852 12.7266 50.75 12.7305ZM50.5039 16.8711L49.8008 17.4258L49.7109 17.7695L49.7031 17.8711L50.0352 18.7031L50.9023 18.9336L51.6055 18.375L51.6953 18.0352L51.7031 17.9336L51.3711 17.1016L50.5039 16.8711ZM6.95312 16.9531L6.32812 17.5898L6.28125 17.9375V18.0117L6.28516 18.0742L6.74609 18.8438L7.63672 18.9375L8.24609 18.2773L8.28125 17.9258V17.8945L8.27734 17.8633V17.8555L7.84375 17.0703L6.95312 16.9531ZM41.0234 20.7812L26.5 34.7812L19.1406 27.2344L16.9883 29.3281L26.4336 39.0156L43.1055 22.9375L41.0234 20.7812ZM50.1445 21.0195L49.4062 21.5273L49.293 21.8594L49.2773 21.9609L49.5586 22.8125L50.4062 23.1016L51.1406 22.5938L51.2539 22.2617L51.2695 22.1562L50.9961 21.3086L50.1445 21.0195ZM7.24219 21.1719L6.67578 21.8633L6.66016 22.2188L6.67188 22.3203L7.17578 23.0625L8.07422 23.0977L8.64062 22.4062L8.65625 22.0547L8.64062 21.9531L8.13672 21.2109L7.24219 21.1719ZM49.4844 25.125L48.7148 25.5859L48.5781 25.9102L48.5586 26.0117L48.7773 26.8789L49.6055 27.2227L50.375 26.7656L50.5117 26.4375L50.5312 26.3398L50.3125 25.4688L49.4844 25.125ZM8.73438 25.3359L7.83984 25.3555L7.31641 26.0781L7.32422 26.4336L7.34375 26.5312L7.89062 27.2422L8.78906 27.2227L9.3125 26.4961L9.30469 26.1445L9.28516 26.043L8.73438 25.3359ZM48.5156 29.1719L47.7148 29.5781L47.5586 29.8945L47.5312 29.9961L47.6914 30.875L48.4961 31.2734L49.2969 30.8672L49.4531 30.5508L49.4805 30.4531L49.3164 29.5742L48.5156 29.1719ZM9.625 29.4062L8.73438 29.4805L8.25781 30.2383L8.28516 30.5898L8.3125 30.6875L8.90625 31.3594L9.80078 31.2852L10.2773 30.5273L10.2461 30.1758L10.2188 30.0781L9.625 29.4062ZM47.2539 33.1328L46.4219 33.457L46.2344 33.7578L46.1992 33.8516L46.2695 34.7461L47.0312 35.2188L47.8672 34.8906L48.0547 34.5938L48.0938 34.5L48.0156 33.6055L47.2539 33.1328ZM10.8086 33.3789L9.92578 33.5391L9.52734 34.3438L9.58984 34.6875L9.625 34.7852L10.2812 35.3945L11.1641 35.2344L11.5625 34.4336L11.5 34.0859L11.4648 33.9883L10.8086 33.3789ZM45.625 36.9688L44.7773 37.25L44.5742 37.543L44.5312 37.6367L44.5664 38.5312L45.3008 39.0391L46.1523 38.7539L46.3516 38.4648L46.3945 38.3711L46.3594 37.4727L45.625 36.9688ZM12.3633 37.2344L11.4961 37.4648L11.1602 38.2969L11.25 38.6367L11.2969 38.7305L12 39.2852L12.8633 39.0547L13.1992 38.2227L13.1094 37.8828L13.0625 37.793L12.3633 37.2344ZM43.7383 40.6562L42.8594 40.8398L42.625 41.1016L42.5742 41.1875L42.5 42.082L43.168 42.6758L44.0469 42.4961L44.2812 42.2305L44.332 42.1445L44.4062 41.25L43.7383 40.6562ZM14.1875 40.9414L13.3555 41.2773L13.125 42.1445L13.2617 42.4688L13.3125 42.5586L14.082 43.0195L14.9102 42.6875L15.1406 41.8164L15.0039 41.4922L14.9531 41.4062L14.1875 40.9414ZM41.5 44.168L40.6133 44.2969L40.3672 44.5469L40.3086 44.6328L40.1836 45.5195L40.8164 46.1523L41.7031 46.0195L41.9531 45.7695L42.0117 45.6875L42.1367 44.8008L41.5 44.168ZM16.4531 44.4375L15.6445 44.8242L15.4688 45.7031L15.625 46.0195L15.6836 46.1055L16.4766 46.5195L17.2812 46.1367L17.457 45.2539L17.3086 44.9375L17.2461 44.8555L16.4531 44.4375ZM39 47.4805L38.1055 47.5156L37.832 47.7344L37.7656 47.8125L37.5469 48.6797L38.1094 49.375L39.0039 49.3438L39.2773 49.1211L39.3438 49.043L39.5625 48.1719L39 47.4805ZM18.9961 47.6953L18.2383 48.1719L18.168 49.0664L18.3555 49.3633L18.4219 49.4375L19.2617 49.7617L20.0156 49.2852L20.0898 48.3906L19.9023 48.0938L19.832 48.0156L18.9961 47.6953ZM35.3164 50.5L35.0195 50.6914L34.9492 50.7617L34.6406 51.6055L35.1328 52.3516L36.0273 52.4062L36.3242 52.2148L36.3945 52.1445L36.7031 51.3008L36.2109 50.5508L35.3164 50.5ZM21.8789 50.668L21.1719 51.2227L21.1992 52.1211L21.4141 52.3945L21.4922 52.4648L22.3594 52.6953L23.0625 52.1406L23.0391 51.2461L22.8203 50.9688L22.7461 50.9023L21.8789 50.668ZM32.2422 53.1914L31.9297 53.3555L31.8477 53.418L31.4648 54.2266L31.8789 55.0195L32.7656 55.1602L33.0781 55L33.1562 54.9375L33.543 54.125L33.125 53.332L32.2422 53.1914ZM25.0742 53.3086L24.4258 53.9258L24.5352 54.8164L24.7773 55.0742L24.8594 55.1328L25.7461 55.2812L26.3906 54.6602L26.2852 53.7734L26.043 53.5156L25.957 53.457L25.0742 53.3086ZM28.9219 55.4453C28.457 55.4531 28.0625 55.7812 27.9648 56.2305C27.8672 56.6836 28.0898 57.1445 28.5039 57.3438C28.5039 57.3438 28.5156 57.3516 28.5469 57.3672L28.9961 57.5898L29.4844 57.3438C29.9062 57.1406 30.1289 56.668 30.0156 56.2109C29.9062 55.7539 29.4883 55.4336 29.0195 55.4492C29.0156 55.4453 29.0156 55.4453 29.0117 55.4492C28.9805 55.4453 28.9492 55.4453 28.9219 55.4453Z" fill="black"/>
</svg>
