<svg width="74" height="63" viewBox="0 0 74 63" fill="none" xmlns="http://www.w3.org/2000/svg">
<path d="M37 0.242188L36.1758 1.42969C36.1758 1.42969 35.6562 2.18359 35.1367 3.08203C34.875 3.53516 34.6094 4.02344 34.3945 4.50391C34.1836 4.98828 34 5.42187 34 6C34 6.99219 34.5 7.875 35.25 8.42187C34.3555 8.86328 33.6523 9.62891 33.2812 10.5625C31.2734 9.67578 26.9727 8 23 8C17.6016 8 11.5508 11.1055 11.5508 11.1055C11.0586 11.3516 10.8594 11.9531 11.1055 12.4492C11.3516 12.9414 11.9531 13.1406 12.4492 12.8945C12.4492 12.8945 18.3984 10 23 10C27.043 10 31.8984 12.1367 33.0664 12.6758C33.2422 13.6875 33.8047 14.5625 34.5898 15.1641C34.2266 15.6289 34 16.1992 34 16.8281V53H33C30.6055 53 28.6836 54.7422 28.2031 57H27C24.25 57 22 59.25 22 62V63H52V62C52 59.25 49.75 57 47 57H45.7969C45.3164 54.7422 43.3945 53 41 53H40V16.8281C40 16.1992 39.7734 15.6289 39.4102 15.1641C40.1953 14.5625 40.7578 13.6836 40.9336 12.6758C42.1016 12.1367 46.957 10 51 10C55.6016 10 61.5508 12.8945 61.5508 12.8945C62.0469 13.1406 62.6484 12.9414 62.8945 12.4492C63.1406 11.9531 62.9414 11.3516 62.4492 11.1055C62.4492 11.1055 56.3984 8 51 8C47.0273 8 42.7266 9.67187 40.7188 10.5625C40.3516 9.625 39.6445 8.86328 38.75 8.42187C39.5 7.875 40 6.99219 40 6C40 5.42187 39.8164 4.98828 39.6055 4.50391C39.3906 4.02344 39.125 3.53516 38.8633 3.08203C38.3438 2.18359 37.8242 1.42969 37.8242 1.42969L37 0.242188ZM37 3.875C37.0664 3.98437 37.0664 3.97265 37.1367 4.08984C37.375 4.5 37.6094 4.9375 37.7695 5.3125C37.9336 5.68359 38 6.02734 38 6C38 6.56641 37.5664 7 37 7C36.4336 7 36 6.56641 36 6C36 6.02734 36.0664 5.68359 36.2305 5.3125C36.3906 4.9375 36.625 4.5 36.8633 4.08984C36.9336 3.97265 36.9336 3.98437 37 3.875ZM37 10C38.1172 10 39 10.8828 39 12C39 13.1172 38.1172 14 37 14C35.8828 14 35 13.1172 35 12C35 10.8828 35.8828 10 37 10ZM10.6641 14.2539L9.8125 14.543L9.61328 14.832L9.57422 14.9219L9.60938 15.8164L10.3438 16.3281L11.1914 16.043L11.3906 15.75L11.4375 15.6602L11.4023 14.7656L10.6641 14.2539ZM60.6641 14.2539L59.8125 14.543L59.6133 14.832L59.5742 14.9219L59.6094 15.8164L60.3438 16.3281L61.1914 16.043L61.3906 15.75L61.4375 15.6602L61.4023 14.7656L60.6641 14.2539ZM13.6875 14.2695L12.8203 14.4883L12.4805 15.3164L12.5625 15.6602L12.6094 15.75L13.3008 16.3125L14.1719 16.0937L14.5156 15.2656L14.4258 14.9219L14.3867 14.832L13.6875 14.2695ZM63.6875 14.2695L62.8203 14.4883L62.4805 15.3164L62.5625 15.6602L62.6094 15.75L63.3008 16.3125L64.1719 16.0937L64.5156 15.2656L64.4258 14.9219L64.3867 14.832L63.6875 14.2695ZM37 16C37.6094 16 38 16.4102 38 16.8281V55H41C42.668 55 44 56.332 44 58V59H47C48.2773 59 49.1523 59.8867 49.5898 61H24.4102C24.8477 59.8867 25.7227 59 27 59H30V58C30 56.332 31.332 55 33 55H36V16.8281C36 16.4102 36.3906 16 37 16ZM8.96875 17.9883L8.11719 18.2773L7.91797 18.5625L7.875 18.6562L7.91016 19.5508L8.64844 20.0625L9.49609 19.7734L9.69922 19.4844L9.73828 19.3906L9.70312 18.5L8.96875 17.9883ZM58.9688 17.9883L58.1172 18.2773L57.918 18.5625L57.875 18.6562L57.9102 19.5508L58.6484 20.0625L59.4961 19.7734L59.6992 19.4844L59.7383 19.3906L59.7031 18.5L58.9688 17.9883ZM15.3867 18L14.5156 18.2227L14.1758 19.0508L14.2617 19.3906L14.3008 19.4844L15 20.0469L15.8711 19.8281L16.2109 19L16.125 18.6562L16.082 18.5625L15.3867 18ZM65.3867 18L64.5156 18.2227L64.1758 19.0508L64.2617 19.3906L64.3008 19.4844L65 20.0469L65.8711 19.8281L66.2109 19L66.125 18.6562L66.082 18.5625L65.3867 18ZM7.26953 21.7188L6.42188 22.0078L6.21875 22.2969L6.17969 22.3906L6.21094 23.2812L6.95312 23.793L7.80078 23.5039L8 23.2188L8.04297 23.125L8.00781 22.2305L7.26953 21.7188ZM57.2695 21.7188L56.4219 22.0078L56.2188 22.2969L56.1797 22.3906L56.2148 23.2812L56.9531 23.793L57.8008 23.5039L58 23.2188L58.043 23.125L58.0078 22.2305L57.2695 21.7188ZM17.082 21.7344L16.2148 21.9531L15.8711 22.7812L15.957 23.125L16 23.2188L16.6992 23.7812L17.5625 23.5586L17.9062 22.7305L17.8203 22.3906L17.7812 22.2969L17.082 21.7344ZM67.082 21.7344L66.2148 21.9531L65.8711 22.7812L65.957 23.125L66 23.2188L66.6992 23.7812L67.5625 23.5586L67.9062 22.7305L67.8203 22.3906L67.7812 22.2969L67.082 21.7344ZM5.57422 25.4531L4.72656 25.7383L4.52344 26.0312L4.48438 26.1211L4.51562 27.0156L5.25391 27.5273L6.10156 27.2383L6.30469 26.9492L6.34375 26.8594L6.3125 25.9648L5.57422 25.4531ZM55.5742 25.4531L54.7227 25.7383L54.5234 26.0312L54.4844 26.1211L54.5156 27.0156L55.2539 27.5273L56.1055 27.2383L56.3008 26.9492L56.3438 26.8594L56.3125 25.9648L55.5742 25.4531ZM18.7812 25.4688L17.9102 25.6875L17.5664 26.5156L17.6562 26.8594L17.6992 26.9492L18.3906 27.5117L19.2617 27.293L19.6055 26.4648L19.5156 26.1211L19.4766 26.0312L18.7812 25.4688ZM68.7812 25.4688L67.9102 25.6875L67.5664 26.5156L67.6562 26.8594L67.6992 26.9492L68.3906 27.5117L69.2617 27.293L69.6055 26.4648L69.5156 26.1211L69.4766 26.0312L68.7812 25.4688ZM3.875 29.1875L3.02734 29.4727L2.82812 29.7617L2.78906 29.8555L2.82031 30.75L3.55859 31.2578L4.40625 30.9688L4.60938 30.6836L4.64844 30.5898L4.61719 29.6953L3.875 29.1875ZM53.875 29.1875L53.0273 29.4727L52.8281 29.7617L52.7852 29.8555L52.8203 30.75L53.5586 31.2578L54.4062 30.9688L54.6094 30.6836L54.6484 30.5898L54.6133 29.6953L53.875 29.1875ZM20.4727 29.1992L19.6094 29.4219L19.2656 30.25L19.3516 30.5898L19.3906 30.6836L20.0898 31.2461L20.957 31.0234L21.3008 30.1953L21.2148 29.8555L21.1719 29.7617L20.4727 29.1992ZM70.4727 29.1992L69.6094 29.4219L69.2656 30.25L69.3516 30.5898L69.3906 30.6836L70.0898 31.2461L70.957 31.0234L71.3008 30.1953L71.2148 29.8555L71.1719 29.7617L70.4727 29.1992ZM2.17969 32.918L1.33203 33.2031L1.13281 33.4961L1.08984 33.5859L1.125 34.4844L1.85938 34.9883L2.71094 34.7031L2.91016 34.4141L2.95312 34.3242L2.91797 33.4258L2.17969 32.918ZM52.1797 32.918L51.332 33.2031L51.1289 33.4961L51.0898 33.5859L51.125 34.4844L51.8594 34.9883L52.7109 34.7031L52.9102 34.4141L52.9531 34.3242L52.918 33.4258L52.1797 32.918ZM22.1719 32.9336L21.3047 33.1523L20.9609 33.9805L21.0469 34.3242L21.0898 34.4141L21.7852 34.9766L22.6562 34.7539L23 33.9258L22.9102 33.5859L22.8711 33.4961L22.1719 32.9336ZM72.1719 32.9336L71.3047 33.1523L70.9609 33.9805L71.0469 34.3242L71.0898 34.4141L71.7852 34.9766L72.6562 34.7539L73 33.9258L72.9102 33.5859L72.8711 33.4961L72.1719 32.9336ZM1 36V38L0 37C0 41.957 4.04297 46 9 46H15C19.957 46 24 41.957 24 37L23 38V36H1ZM51 36V38L50 37C50 41.957 54.043 46 59 46H65C69.957 46 74 41.957 74 37L73 38V36H51ZM2.20312 38H21.7969C21.2969 41.3789 18.5234 44 15 44H9C5.47656 44 2.70312 41.3789 2.20312 38ZM52.2031 38H71.7969C71.2969 41.3789 68.5234 44 65 44H59C55.4766 44 52.7031 41.3789 52.2031 38ZM33 57C32.4492 57 32 57.4492 32 58C32 58.5508 32.4492 59 33 59C33.5508 59 34 58.5508 34 58C34 57.4492 33.5508 57 33 57ZM37 57C36.4492 57 36 57.4492 36 58C36 58.5508 36.4492 59 37 59C37.5508 59 38 58.5508 38 58C38 57.4492 37.5508 57 37 57ZM41 57C40.4492 57 40 57.4492 40 58C40 58.5508 40.4492 59 41 59C41.5508 59 42 58.5508 42 58C42 57.4492 41.5508 57 41 57Z" fill="#269944"/>
</svg>
