<svg width="108" height="68" viewBox="0 0 108 68" fill="none" xmlns="http://www.w3.org/2000/svg">
<path d="M37.501 0.5C35.0869 0.5 32.9541 1.67773 31.5771 3.45898C30.4228 2.87305 29.2627 2.44531 28.1025 2.2168C26.6025 1.92383 25.0908 1.94141 23.5556 2.30469C20.4912 3.02539 17.4326 4.97656 13.7178 8.05273C9.51073 11.5391 0.540022 19.0215 0.540022 19.0215C-0.0986493 19.5547 -0.180681 20.5039 0.346664 21.1367C0.879867 21.7754 1.82323 21.8633 2.4619 21.3301C2.4619 21.3301 11.4385 13.8418 15.6338 10.3672C19.1963 7.41406 21.9443 5.76758 24.2471 5.2168C26.2978 4.73633 28.0908 5.04688 30.2529 6.17773C30.1006 6.76953 30.001 7.36719 30.001 8V38.6797L25.9287 40.6016C25.4365 40.8242 25.0967 41.2988 25.0498 41.8379C25.0029 42.377 25.249 42.8984 25.6943 43.209C26.1455 43.5137 26.7256 43.5547 27.2119 43.3145L53.7197 30.8047L52.9756 30.0605C53.4326 30.5176 54.1181 30.6289 54.6982 30.3535C55.958 29.7383 57.376 29 58.501 29C61.8291 29 64.501 31.6719 64.501 35C64.501 36.8984 63.6103 38.5566 62.2217 39.6641C61.6064 40.1562 61.4775 41.041 61.9228 41.6914L61.0908 40.6074L36.4404 59.6035C32.0342 62.9961 26.6318 64.8359 21.0713 64.8359H3.00096C2.4619 64.8301 1.95799 65.1113 1.6826 65.5801C1.41307 66.0488 1.41307 66.623 1.6826 67.0918C1.95799 67.5605 2.4619 67.8418 3.00096 67.8359H21.0713C26.4853 67.8359 31.7646 66.2715 36.2939 63.3652C37.8056 65.2695 40.1377 66.5 42.751 66.5C45.3174 66.5 47.2685 64.8477 48.6221 63.4004C48.7275 63.2832 48.6924 63.2832 48.7978 63.166C50.1045 65.9961 52.9404 68 56.251 68C58.7998 68 60.7803 66.7168 62.04 65.1406C62.6377 64.3906 62.7959 63.5996 63.1709 62.7969C64.2959 63.9453 66.165 65 68.9482 65C71.1748 65 73.1728 64.1445 74.6904 62.7324C76.208 61.3203 77.2744 59.3926 77.9365 57.1777L77.9482 57.1543L79.5303 51.5H100.501C104.626 51.5 108.001 48.125 108.001 44V8C108.001 3.875 104.626 0.5 100.501 0.5H37.501ZM37.501 3.5H100.501C103.003 3.5 105.001 5.49805 105.001 8V11H33.001V8C33.001 5.49805 34.999 3.5 37.501 3.5ZM33.001 17H105.001V44C105.001 46.502 103.003 48.5 100.501 48.5H55.7646L64.1084 42.0723C64.3369 41.8965 64.5127 41.6562 64.6064 41.3809C66.3115 39.752 67.501 37.5547 67.501 35C67.501 30.0488 63.4521 26 58.501 26C56.3096 26 54.5517 27.0781 53.4678 27.6113C53.4443 27.623 53.4209 27.6348 53.3974 27.6406L33.001 37.2676V17ZM40.501 20C39.6748 20 39.001 20.6738 39.001 21.5C39.001 22.3262 39.6748 23 40.501 23C41.3271 23 42.001 22.3262 42.001 21.5C42.001 20.6738 41.3271 20 40.501 20ZM46.501 20C45.6748 20 45.001 20.6738 45.001 21.5C45.001 22.3262 45.6748 23 46.501 23C47.3271 23 48.001 22.3262 48.001 21.5C48.001 20.6738 47.3271 20 46.501 20ZM52.501 20C51.6748 20 51.001 20.6738 51.001 21.5C51.001 22.3262 51.6748 23 52.501 23C53.3271 23 54.001 22.3262 54.001 21.5C54.001 20.6738 53.3271 20 52.501 20ZM58.501 20C57.6748 20 57.001 20.6738 57.001 21.5C57.001 22.3262 57.6748 23 58.501 23C59.3271 23 60.001 22.3262 60.001 21.5C60.001 20.6738 59.3271 20 58.501 20ZM54.001 33.5C53.1748 33.5 52.501 34.1738 52.501 35C52.501 35.8262 53.1748 36.5 54.001 36.5C54.8271 36.5 55.501 35.8262 55.501 35C55.501 34.1738 54.8271 33.5 54.001 33.5ZM57.001 38C56.1748 38 55.501 38.6738 55.501 39.5C55.501 40.3262 56.1748 41 57.001 41C57.8271 41 58.501 40.3262 58.501 39.5C58.501 38.6738 57.8271 38 57.001 38ZM51.8681 51.5H76.4131L75.0654 56.3281C74.5205 58.1387 73.6709 59.5859 72.6455 60.541C71.6201 61.4961 70.4482 62 68.9482 62C66.751 62 65.7549 61.2793 65.1631 60.6172C64.5713 59.9609 64.4658 59.4277 64.4658 59.4277L61.5654 59.3281C61.1611 60.6699 60.5576 62.1875 59.6963 63.2656C58.8349 64.3438 57.8681 65 56.251 65C53.333 65 51.001 62.668 51.001 59.75L48.2002 59C48.2002 59 47.5146 60.1777 46.4248 61.3496C45.3349 62.5273 43.9111 63.5 42.751 63.5C41.1279 63.5 39.6982 62.7676 38.7373 61.6191L51.8681 51.5ZM51.001 53C50.1748 53 49.501 53.6738 49.501 54.5C49.501 55.3262 50.1748 56 51.001 56C51.8271 56 52.501 55.3262 52.501 54.5C52.501 53.6738 51.8271 53 51.001 53ZM64.501 53C63.6748 53 63.001 53.6738 63.001 54.5C63.001 55.3262 63.6748 56 64.501 56C65.3271 56 66.001 55.3262 66.001 54.5C66.001 53.6738 65.3271 53 64.501 53Z" fill="white"/>
</svg>
