<svg width="86" height="104" viewBox="0 0 86 104" fill="none" xmlns="http://www.w3.org/2000/svg">
<path d="M42.7499 0.046875C41.2898 0.046875 39.8311 0.748136 39.0204 2.15332L39.0145 2.16211L39.0087 2.17383L0.644417 70.8398V70.8428C-1.15403 73.9624 1.17648 78 4.77821 78H37.4999V103.5H47.9999V102V78H80.7216C84.321 78 86.6525 73.9647 84.8583 70.8457L46.4852 2.16211L46.4794 2.15332C45.6687 0.748137 44.2099 0.046875 42.7499 0.046875ZM42.7499 2.95312C43.1813 2.95312 43.6114 3.1865 43.8807 3.65332L82.2509 72.3311L82.2567 72.3398C82.9762 73.5846 82.1588 75 80.7216 75H47.9999H37.4999H4.77821C3.34094 75 2.52432 73.5848 3.24305 72.3398L3.24891 72.3311L41.619 3.65332C41.8883 3.1865 42.3184 2.95312 42.7499 2.95312ZM38.9999 25.5L40.0018 51.501H43.9979L44.9999 25.5H38.9999ZM41.9999 55.752C41.2042 55.752 40.4412 56.068 39.8786 56.6306C39.316 57.1932 38.9999 57.9563 38.9999 58.752C38.9999 59.5476 39.316 60.3107 39.8786 60.8733C40.4412 61.4359 41.2042 61.752 41.9999 61.752C42.7955 61.752 43.5586 61.4359 44.1212 60.8733C44.6838 60.3107 44.9999 59.5476 44.9999 58.752C44.9999 57.9563 44.6838 57.1932 44.1212 56.6306C43.5586 56.068 42.7955 55.752 41.9999 55.752ZM8.99989 69C8.60206 69 8.22053 69.158 7.93922 69.4393C7.65792 69.7206 7.49989 70.1022 7.49989 70.5C7.49989 70.8978 7.65792 71.2794 7.93922 71.5607C8.22053 71.842 8.60206 72 8.99989 72C9.39771 72 9.77924 71.842 10.0605 71.5607C10.3419 71.2794 10.4999 70.8978 10.4999 70.5C10.4999 70.1022 10.3419 69.7206 10.0605 69.4393C9.77924 69.158 9.39771 69 8.99989 69ZM14.9999 69C14.6021 69 14.2205 69.158 13.9392 69.4393C13.6579 69.7206 13.4999 70.1022 13.4999 70.5C13.4999 70.8978 13.6579 71.2794 13.9392 71.5607C14.2205 71.842 14.6021 72 14.9999 72C15.3977 72 15.7792 71.842 16.0605 71.5607C16.3419 71.2794 16.4999 70.8978 16.4999 70.5C16.4999 70.1022 16.3419 69.7206 16.0605 69.4393C15.7792 69.158 15.3977 69 14.9999 69ZM20.9999 69C20.6021 69 20.2205 69.158 19.9392 69.4393C19.6579 69.7206 19.4999 70.1022 19.4999 70.5C19.4999 70.8978 19.6579 71.2794 19.9392 71.5607C20.2205 71.842 20.6021 72 20.9999 72C21.3977 72 21.7792 71.842 22.0605 71.5607C22.3419 71.2794 22.4999 70.8978 22.4999 70.5C22.4999 70.1022 22.3419 69.7206 22.0605 69.4393C21.7792 69.158 21.3977 69 20.9999 69ZM26.9999 69C26.6021 69 26.2205 69.158 25.9392 69.4393C25.6579 69.7206 25.4999 70.1022 25.4999 70.5C25.4999 70.8978 25.6579 71.2794 25.9392 71.5607C26.2205 71.842 26.6021 72 26.9999 72C27.3977 72 27.7792 71.842 28.0605 71.5607C28.3419 71.2794 28.4999 70.8978 28.4999 70.5C28.4999 70.1022 28.3419 69.7206 28.0605 69.4393C27.7792 69.158 27.3977 69 26.9999 69ZM32.9999 69C32.6021 69 32.2205 69.158 31.9392 69.4393C31.6579 69.7206 31.4999 70.1022 31.4999 70.5C31.4999 70.8978 31.6579 71.2794 31.9392 71.5607C32.2205 71.842 32.6021 72 32.9999 72C33.3977 72 33.7792 71.842 34.0606 71.5607C34.3419 71.2794 34.4999 70.8978 34.4999 70.5C34.4999 70.1022 34.3419 69.7206 34.0606 69.4393C33.7792 69.158 33.3977 69 32.9999 69ZM38.9999 69C38.6021 69 38.2205 69.158 37.9392 69.4393C37.6579 69.7206 37.4999 70.1022 37.4999 70.5C37.4999 70.8978 37.6579 71.2794 37.9392 71.5607C38.2205 71.842 38.6021 72 38.9999 72C39.3977 72 39.7792 71.842 40.0606 71.5607C40.3419 71.2794 40.4999 70.8978 40.4999 70.5C40.4999 70.1022 40.3419 69.7206 40.0606 69.4393C39.7792 69.158 39.3977 69 38.9999 69ZM44.9999 69C44.6021 69 44.2205 69.158 43.9392 69.4393C43.6579 69.7206 43.4999 70.1022 43.4999 70.5C43.4999 70.8978 43.6579 71.2794 43.9392 71.5607C44.2205 71.842 44.6021 72 44.9999 72C45.3977 72 45.7792 71.842 46.0606 71.5607C46.3419 71.2794 46.4999 70.8978 46.4999 70.5C46.4999 70.1022 46.3419 69.7206 46.0606 69.4393C45.7792 69.158 45.3977 69 44.9999 69ZM50.9999 69C50.6021 69 50.2205 69.158 49.9392 69.4393C49.6579 69.7206 49.4999 70.1022 49.4999 70.5C49.4999 70.8978 49.6579 71.2794 49.9392 71.5607C50.2205 71.842 50.6021 72 50.9999 72C51.3977 72 51.7792 71.842 52.0606 71.5607C52.3419 71.2794 52.4999 70.8978 52.4999 70.5C52.4999 70.1022 52.3419 69.7206 52.0606 69.4393C51.7792 69.158 51.3977 69 50.9999 69ZM56.9999 69C56.6021 69 56.2205 69.158 55.9392 69.4393C55.6579 69.7206 55.4999 70.1022 55.4999 70.5C55.4999 70.8978 55.6579 71.2794 55.9392 71.5607C56.2205 71.842 56.6021 72 56.9999 72C57.3977 72 57.7792 71.842 58.0606 71.5607C58.3419 71.2794 58.4999 70.8978 58.4999 70.5C58.4999 70.1022 58.3419 69.7206 58.0606 69.4393C57.7792 69.158 57.3977 69 56.9999 69ZM62.9999 69C62.6021 69 62.2205 69.158 61.9392 69.4393C61.6579 69.7206 61.4999 70.1022 61.4999 70.5C61.4999 70.8978 61.6579 71.2794 61.9392 71.5607C62.2205 71.842 62.6021 72 62.9999 72C63.3977 72 63.7792 71.842 64.0606 71.5607C64.3419 71.2794 64.4999 70.8978 64.4999 70.5C64.4999 70.1022 64.3419 69.7206 64.0606 69.4393C63.7792 69.158 63.3977 69 62.9999 69ZM68.9999 69C68.6021 69 68.2205 69.158 67.9392 69.4393C67.6579 69.7206 67.4999 70.1022 67.4999 70.5C67.4999 70.8978 67.6579 71.2794 67.9392 71.5607C68.2205 71.842 68.6021 72 68.9999 72C69.3977 72 69.7793 71.842 70.0606 71.5607C70.3419 71.2794 70.4999 70.8978 70.4999 70.5C70.4999 70.1022 70.3419 69.7206 70.0606 69.4393C69.7793 69.158 69.3977 69 68.9999 69ZM74.9999 69C74.6021 69 74.2205 69.158 73.9392 69.4393C73.6579 69.7206 73.4999 70.1022 73.4999 70.5C73.4999 70.8978 73.6579 71.2794 73.9392 71.5607C74.2205 71.842 74.6021 72 74.9999 72C75.3977 72 75.7793 71.842 76.0606 71.5607C76.3419 71.2794 76.4999 70.8978 76.4999 70.5C76.4999 70.1022 76.3419 69.7206 76.0606 69.4393C75.7793 69.158 75.3977 69 74.9999 69ZM40.4999 78H44.9999V100.5H40.4999V78Z" fill="black"/>
</svg>
