<svg width="100" height="86" viewBox="0 0 100 86" fill="none" xmlns="http://www.w3.org/2000/svg">
<path d="M39.75 0.8125C30.4062 0.984376 24.4375 4.75781 21.875 10.625C19.4297 16.2109 19.9766 23.2656 21.75 30.5625C20.7969 31.6797 20.0391 33.1797 20.3125 35.4375C20.6094 37.8984 21.2891 39.6484 22.25 40.875C22.7812 41.5469 23.4766 41.6094 24.125 41.9375C24.4766 44.0312 25.0625 46.125 25.9375 47.875C26.4375 48.8828 27.0078 49.8125 27.5625 50.5625C27.8125 50.8984 28.1719 51.0938 28.4375 51.375C28.4531 53.8438 28.4609 55.8984 28.25 58.5C27.6016 60.0703 26.0859 61.3359 23.625 62.5625C21.0859 63.8281 17.7812 65 14.4375 66.4375C11.0938 67.875 7.65625 69.625 4.9375 72.375C2.21875 75.125 0.296876 78.8984 0 83.875L-0.125 86H80.125L80 83.875C79.7891 80.4141 78.8125 77.5469 77.3125 75.1875H100.125L100 73.0625C99.7422 68.8047 98.0781 65.4922 95.75 63.125C93.4219 60.7578 90.5078 59.2812 87.6875 58.0625C84.8672 56.8438 82.1016 55.9297 80 54.875C77.9688 53.8594 76.8203 52.8359 76.3125 51.625C76.1484 49.5234 76.1094 47.8125 76.125 45.8125C76.3203 45.5938 76.6328 45.4375 76.8125 45.1875C77.2891 44.5312 77.7656 43.7344 78.1875 42.875C78.8984 41.4141 79.3828 39.6875 79.6875 37.9375C80.2109 37.6484 80.7656 37.6016 81.1875 37.0625C82.0469 35.9688 82.6172 34.4844 82.875 32.375V32.3125C83.0938 30.4844 82.5 29.2578 81.75 28.25C82.5781 25.5391 83.5938 21.2656 83.25 16.8125C83.0547 14.3594 82.4375 11.8828 80.9375 9.8125C79.5156 7.84375 77.1875 6.39844 74.25 5.875C72.3438 3.75781 69.3359 2.8125 65.8125 2.8125C60.9609 2.89844 57.1953 4.10156 54.4375 6.25C53.1797 5.46875 51.7109 4.89844 50.0625 4.5625C47.9609 1.83594 44.1797 0.8125 39.8125 0.8125H39.75ZM39.8125 4.8125C39.8359 4.8125 39.8516 4.8125 39.875 4.8125C41.8594 4.82031 43.5078 5.11719 44.75 5.5625C44.7656 5.57031 44.7969 5.55469 44.8125 5.5625C45.0156 5.71094 45.25 5.80469 45.5 5.875C45.5391 5.89844 45.5859 5.91406 45.625 5.9375C46.4062 6.33594 46.9688 6.82031 47.25 7.3125L47.75 8.125L48.6875 8.25C49.3594 8.34375 49.9531 8.51563 50.5 8.6875C50.1953 9.03906 50 9.5 50 10C50 11.1016 50.8984 12 52 12C52.7969 12 53.4297 11.4922 53.75 10.8125C53.8984 10.9844 54.0547 11.1328 54.1875 11.3125C55.3125 12.8672 55.9375 15.0391 56.125 17.4375C56.5 22.2344 55.1172 27.8203 54.25 30.4375L53.75 32L55.125 32.8125C55.0391 32.7578 55.8906 33.3359 55.6875 35C55.4531 36.9609 54.9844 37.9766 54.625 38.4375C54.2656 38.8984 54.0781 38.875 54.0625 38.875L52.375 39L52.1875 40.625C52.0703 41.7344 51.6875 42.9844 51.25 44.1875C50.5312 44.4922 50 45.1719 50 46C50 46.2578 50.1016 46.4609 50.1875 46.6875C49.8906 47.2422 49.5781 47.8203 49.3125 48.1875C48.9453 48.6953 48.5625 48.9766 48.75 48.875L47.6875 49.4375V50.625C47.6875 50.7578 47.6875 50.8672 47.6875 51C47.3359 50.4141 46.7266 50 46 50C44.8984 50 44 50.8984 44 52C44 53.1016 44.8984 54 46 54C46.7266 54 47.3359 53.5859 47.6875 53C47.6719 54.9375 47.6562 56.8594 47.875 59.25V59.5L48 59.75C49.1406 62.8203 51.7812 64.7344 54.6875 66.1875C57.0156 67.3516 59.6328 68.2969 62.1875 69.3125C62.1016 69.5391 62 69.7422 62 70C62 71.1016 62.8984 72 64 72C64.7812 72 65.4219 71.5234 65.75 70.875C67.7578 71.8594 69.625 72.9688 71.1875 74.3125C71.1953 74.3203 71.1797 74.3672 71.1875 74.375C71.2266 74.4219 71.2656 74.4609 71.3125 74.5C70.9609 74.1953 70.5 74 70 74C68.8984 74 68 74.8984 68 76C68 77.1016 68.8984 78 70 78C71.1016 78 72 77.1016 72 76C72 75.4766 71.8281 74.9844 71.5 74.625C71.625 74.7734 71.7734 74.8984 71.9375 75C71.9453 75.0078 71.9922 74.9922 72 75C72.0625 75.0625 72.125 75.125 72.1875 75.1875C73.5156 76.5391 74.4453 78.2656 75.0625 80.3125C74.4531 80.6562 74 81.25 74 82H66C66 80.8984 65.1016 80 64 80C62.8984 80 62 80.8984 62 82H54C54 80.8984 53.1016 80 52 80C50.8984 80 50 80.8984 50 82H42C42 80.8984 41.1016 80 40 80C38.8984 80 38 80.8984 38 82H30C30 80.8984 29.1016 80 28 80C26.8984 80 26 80.8984 26 82H18C18 80.8984 17.1016 80 16 80C14.8984 80 14 80.8984 14 82H6C6 81.25 5.54688 80.6562 4.9375 80.3125C5.55469 78.2656 6.47656 76.5391 7.8125 75.1875C8.03906 74.9609 8.32031 74.7812 8.5625 74.5625C10.1797 73.125 12.1094 71.9062 14.25 70.875C14.5781 71.5234 15.2188 72 16 72C17.1016 72 18 71.1016 18 70C18 69.7422 17.8984 69.5391 17.8125 69.3125C20.3906 68.2891 23.0234 67.3594 25.375 66.1875C28.2891 64.7344 30.9844 62.8203 32.125 59.75L32.25 59.25C32.4609 56.9375 32.4531 55.0625 32.4375 53.1875C32.8047 53.6719 33.3516 54 34 54C35.1016 54 36 53.1016 36 52C36 50.8984 35.1016 50 34 50C33.3516 50 32.8047 50.3281 32.4375 50.8125C32.4375 50.75 32.4375 50.6875 32.4375 50.625V49.4375L31.375 48.875C31.5547 48.9688 31.125 48.6953 30.75 48.1875C30.4766 47.8203 30.125 47.3047 29.8125 46.75C29.9141 46.5078 30 46.2734 30 46C30 45.1484 29.4375 44.4766 28.6875 44.1875C28.2578 42.9844 27.9297 41.7188 27.8125 40.625L27.625 39L25.9375 38.875C25.9219 38.875 25.7344 38.8984 25.375 38.4375C25.0156 37.9766 24.5469 36.9609 24.3125 35C24.1172 33.3359 24.9609 32.7578 24.875 32.8125L26.1875 32L25.8125 30.5625C23.9297 23.3125 23.6016 16.7266 25.5625 12.25C25.7656 11.7812 25.9922 11.3125 26.25 10.875C26.5781 11.5234 27.2188 12 28 12C29.1016 12 30 11.1016 30 10C30 9.125 29.4141 8.39844 28.625 8.125C29.8203 7.125 31.3359 6.30469 33.1875 5.75C33.4453 5.875 33.6953 6 34 6C34.6328 6 35.1953 5.70313 35.5625 5.25C36.8516 5.03125 38.2266 4.84375 39.8125 4.8125ZM8.5625 74.5625C8.20313 74.9219 8 75.4453 8 76C8 77.1016 8.89844 78 10 78C11.1016 78 12 77.1016 12 76C12 74.8984 11.1016 74 10 74C9.44531 74 8.92188 74.2031 8.5625 74.5625ZM65.8125 6.8125C65.8359 6.8125 65.8516 6.8125 65.875 6.8125C69.2031 6.82813 71.2812 7.8125 71.8125 8.75L72.3125 9.5625L73.25 9.75C75.5234 10.0625 76.7891 10.8828 77.6875 12.125C78.5859 13.3672 79.0938 15.1406 79.25 17.125C79.5625 21.0938 78.4062 25.8203 77.6875 28L77.1875 29.5L78.5625 30.3125C78.3828 30.2031 79.0938 30.5859 78.9375 31.875C78.7422 33.4922 78.3203 34.2969 78.0625 34.625C77.8047 34.9531 77.7422 34.8828 77.8125 34.875L76.125 35L76 36.625C75.8516 38.0312 75.2266 39.7578 74.5625 41.125C74.2266 41.8047 73.9219 42.4062 73.625 42.8125C73.4453 43.0547 73.3203 43.2344 73.25 43.3125H73.1875C73.1797 43.3203 73.1875 43.375 73.1875 43.375L72.125 43.875V45.0625C72.125 47.4922 72.0547 49.5312 72.3125 52.375V52.625L72.4375 52.875C73.4453 55.5703 75.7734 57.1953 78.25 58.4375C80.7266 59.6797 83.5 60.6172 86.125 61.75C88.75 62.8828 91.1328 64.1719 92.875 65.9375C94.1875 67.2734 95.0078 69.0469 95.5 71.1875H73.75C71.2891 69.1016 68.4453 67.6562 65.625 66.4375C62.2969 65 59.0312 63.8281 56.5 62.5625C54.0703 61.3438 52.5391 60.1094 51.875 58.5625C51.6562 55.9297 51.6719 53.8672 51.6875 51.375C51.9531 51.0859 52.3125 50.8984 52.5625 50.5625C53.1094 49.8047 53.6328 48.875 54.125 47.875C54.9766 46.125 55.5938 44.0234 55.9375 41.9375C56.5625 41.6094 57.2344 41.5312 57.75 40.875C58.7109 39.6484 59.3906 37.8984 59.6875 35.4375C59.9531 33.25 59.2188 31.8047 58.3125 30.6875C59.2891 27.5156 60.5391 22.3906 60.125 17.125C59.8984 14.25 59.1641 11.3828 57.4375 9C57.4297 8.98438 57.4453 8.95313 57.4375 8.9375C59.3203 7.6875 62 6.89063 65.8125 6.8125ZM40 8C38.8984 8 38 8.89844 38 10C38 11.1016 38.8984 12 40 12C41.1016 12 42 11.1016 42 10C42 8.89844 41.1016 8 40 8ZM34 14C32.8984 14 32 14.8984 32 16C32 17.1016 32.8984 18 34 18C35.1016 18 36 17.1016 36 16C36 14.8984 35.1016 14 34 14ZM46 14C44.8984 14 44 14.8984 44 16C44 17.1016 44.8984 18 46 18C47.1016 18 48 17.1016 48 16C48 14.8984 47.1016 14 46 14ZM28 20C26.8984 20 26 20.8984 26 22C26 23.1016 26.8984 24 28 24C29.1016 24 30 23.1016 30 22C30 20.8984 29.1016 20 28 20ZM40 20C38.8984 20 38 20.8984 38 22C38 23.1016 38.8984 24 40 24C41.1016 24 42 23.1016 42 22C42 20.8984 41.1016 20 40 20ZM52 20C50.8984 20 50 20.8984 50 22C50 23.1016 50.8984 24 52 24C53.1016 24 54 23.1016 54 22C54 20.8984 53.1016 20 52 20ZM34 26C32.8984 26 32 26.8984 32 28C32 29.1016 32.8984 30 34 30C35.1016 30 36 29.1016 36 28C36 26.8984 35.1016 26 34 26ZM46 26C44.8984 26 44 26.8984 44 28C44 29.1016 44.8984 30 46 30C47.1016 30 48 29.1016 48 28C48 26.8984 47.1016 26 46 26ZM28 32C26.8984 32 26 32.8984 26 34C26 35.1016 26.8984 36 28 36C29.1016 36 30 35.1016 30 34C30 32.8984 29.1016 32 28 32ZM40 32C38.8984 32 38 32.8984 38 34C38 35.1016 38.8984 36 40 36C41.1016 36 42 35.1016 42 34C42 32.8984 41.1016 32 40 32ZM52 32C50.8984 32 50 32.8984 50 34C50 35.1016 50.8984 36 52 36C53.1016 36 54 35.1016 54 34C54 32.8984 53.1016 32 52 32ZM34 38C32.8984 38 32 38.8984 32 40C32 41.1016 32.8984 42 34 42C35.1016 42 36 41.1016 36 40C36 38.8984 35.1016 38 34 38ZM46 38C44.8984 38 44 38.8984 44 40C44 41.1016 44.8984 42 46 42C47.1016 42 48 41.1016 48 40C48 38.8984 47.1016 38 46 38ZM40 44C38.8984 44 38 44.8984 38 46C38 47.1016 38.8984 48 40 48C41.1016 48 42 47.1016 42 46C42 44.8984 41.1016 44 40 44ZM40 56C38.8984 56 38 56.8984 38 58C38 59.1016 38.8984 60 40 60C41.1016 60 42 59.1016 42 58C42 56.8984 41.1016 56 40 56ZM34 62C32.8984 62 32 62.8984 32 64C32 65.1016 32.8984 66 34 66C35.1016 66 36 65.1016 36 64C36 62.8984 35.1016 62 34 62ZM46 62C44.8984 62 44 62.8984 44 64C44 65.1016 44.8984 66 46 66C47.1016 66 48 65.1016 48 64C48 62.8984 47.1016 62 46 62ZM28 68C26.8984 68 26 68.8984 26 70C26 71.1016 26.8984 72 28 72C29.1016 72 30 71.1016 30 70C30 68.8984 29.1016 68 28 68ZM40 68C38.8984 68 38 68.8984 38 70C38 71.1016 38.8984 72 40 72C41.1016 72 42 71.1016 42 70C42 68.8984 41.1016 68 40 68ZM52 68C50.8984 68 50 68.8984 50 70C50 71.1016 50.8984 72 52 72C53.1016 72 54 71.1016 54 70C54 68.8984 53.1016 68 52 68ZM22 74C20.8984 74 20 74.8984 20 76C20 77.1016 20.8984 78 22 78C23.1016 78 24 77.1016 24 76C24 74.8984 23.1016 74 22 74ZM34 74C32.8984 74 32 74.8984 32 76C32 77.1016 32.8984 78 34 78C35.1016 78 36 77.1016 36 76C36 74.8984 35.1016 74 34 74ZM46 74C44.8984 74 44 74.8984 44 76C44 77.1016 44.8984 78 46 78C47.1016 78 48 77.1016 48 76C48 74.8984 47.1016 74 46 74ZM58 74C56.8984 74 56 74.8984 56 76C56 77.1016 56.8984 78 58 78C59.1016 78 60 77.1016 60 76C60 74.8984 59.1016 74 58 74Z" fill="white"/>
</svg>
