<svg width="77" height="95" viewBox="0 0 77 95" fill="none" xmlns="http://www.w3.org/2000/svg">
<path d="M40.502 0.5C30.1191 0.5 20.5098 6.35352 13.4551 12.084C6.39453 17.8203 1.83008 23.5625 1.83008 23.5625L0.570312 25.1445L2.44531 25.8887C2.44531 25.8887 3.98047 26.4922 5.64453 28.3203C7.30273 30.1484 9.00195 33.1074 9.00195 38C9.00195 44.0352 10.0449 48.541 10.5781 50.4746C8.78516 51.2832 7.50195 53.0352 7.50195 55.1035C7.50195 56.2578 7.87109 57.3711 8.1875 58.4551C8.3457 58.9941 8.50391 59.5039 8.60938 59.8965C8.71484 60.2949 8.75 60.6641 8.75 60.5C8.75 63.002 10.8711 65 13.3789 65H13.502V65.0762C13.502 78.9805 23.498 90.541 36.6875 93.0312C38.1523 94.209 39.9687 95 42.002 95C44.0352 95 45.8516 94.209 47.3164 93.0312C60.5059 90.541 70.502 78.9805 70.502 65.0762V65H70.625C73.127 65 75.2539 63.002 75.2539 60.5C75.2539 60.6641 75.2891 60.2949 75.3945 59.8965C75.5 59.5039 75.6582 58.9941 75.8164 58.4551C76.1328 57.3711 76.502 56.2578 76.502 55.1035C76.502 53.1582 75.3594 51.5 73.7363 50.6387C74.3691 47.832 76.502 38.0234 76.502 31.2852C76.502 16.5195 67.0449 10.1797 59.4453 9.69336C59.0234 8.92578 58.0098 7.26172 55.6367 5.33398C52.625 2.89648 47.7441 0.5 40.502 0.5ZM40.502 3.5C47.0937 3.5 51.2129 5.60352 53.7441 7.66602C56.2754 9.72266 57.1426 11.6328 57.1426 11.6328L57.541 12.5H58.502C64.6133 12.5 73.502 17.2227 73.502 31.2852C73.502 37.4609 71.3398 47.5566 70.7773 50.0996C70.6836 50.1348 70.5957 50.1699 70.502 50.1816V44.75C70.502 37.2559 67.502 32.6094 64.4609 30.0078C61.4258 27.4121 58.2852 26.7383 58.2852 26.7383L57.418 26.5566L56.8379 27.2246C56.8379 27.2246 55.3437 28.9824 51.8926 30.8574C48.4414 32.7383 43.1211 34.6484 35.6504 34.6484C31.9824 34.6484 26.6445 35.3164 22.0156 37.7598C17.7324 40.0273 14.2109 44.1348 13.7012 50.2285C13.6719 50.2227 13.6484 50.2109 13.6191 50.2051C13.3496 49.373 12.002 44.9375 12.002 38C12.002 32.3926 9.95117 28.5957 7.85938 26.3047C6.95117 25.3027 6.06641 24.6699 5.29883 24.1543C6.57031 22.6484 9.81055 18.9043 15.3418 14.416C22.1328 8.89648 31.2676 3.5 40.502 3.5ZM58.502 15.5C57.6758 15.5 57.002 16.1738 57.002 17C57.002 17.8262 57.6758 18.5 58.502 18.5C59.3281 18.5 60.002 17.8262 60.002 17C60.002 16.1738 59.3281 15.5 58.502 15.5ZM58.502 21.5C57.6758 21.5 57.002 22.1738 57.002 23C57.002 23.8262 57.6758 24.5 58.502 24.5C59.3281 24.5 60.002 23.8262 60.002 23C60.002 22.1738 59.3281 21.5 58.502 21.5ZM58.3438 29.9082C59.0879 30.1309 60.5996 30.6523 62.5098 32.2871C64.9883 34.4082 67.502 38.0352 67.502 44.75V54.2891L69.5645 53.4629C70.3027 53.1582 71.0059 53 71.252 53C72.5469 53 73.502 53.9551 73.502 55.0977V55.1035C73.502 55.3965 73.2441 56.5625 72.9395 57.6113C72.7812 58.1328 72.623 58.6484 72.4941 59.1172C72.3711 59.5801 72.2539 59.9199 72.2539 60.5C72.2539 61.3145 71.5742 62 70.625 62H67.502V65.0762C67.502 77.6387 58.4375 88.0273 46.502 90.1543L46.0801 90.2363L45.7578 90.5234C44.75 91.4434 43.4492 92 42.002 92C40.5547 92 39.2539 91.4434 38.2461 90.5234L37.9238 90.2363L37.502 90.1543C25.5664 88.0273 16.502 77.6387 16.502 65.0762V62H13.3789C12.4297 62 11.75 61.3145 11.75 60.5C11.75 59.9199 11.6328 59.5801 11.5039 59.1172C11.375 58.6484 11.2227 58.1328 11.0645 57.6113C10.7598 56.5625 10.502 55.3965 10.502 55.1035C10.502 53.9551 11.457 53 12.752 53C12.998 53 13.7012 53.1582 14.4395 53.4629L16.502 54.2891V51.6172C16.502 45.7578 19.4609 42.5059 23.4219 40.4141C27.3828 38.3223 32.3691 37.6484 35.6504 37.6484C43.6367 37.6484 49.4844 35.5859 53.3223 33.4941C56.1582 31.9531 57.5938 30.6465 58.3438 29.9082ZM30.002 53C28.3437 53 27.002 54.3418 27.002 56C27.002 57.6582 28.3437 59 30.002 59C31.6602 59 33.002 57.6582 33.002 56C33.002 54.3418 31.6602 53 30.002 53ZM54.002 53C52.3437 53 51.002 54.3418 51.002 56C51.002 57.6582 52.3437 59 54.002 59C55.6602 59 57.002 57.6582 57.002 56C57.002 54.3418 55.6602 53 54.002 53Z" fill="white"/>
</svg>
