<svg width="90" height="101" viewBox="0 0 90 101" fill="none" xmlns="http://www.w3.org/2000/svg">
<path d="M0 0V81H16.5V78H3V3H87V78H73.5V81H90V0H0ZM10.5 10.5C8.85938 10.5 7.5 11.8594 7.5 13.5V16.5C7.5 18.1406 8.85938 19.5 10.5 19.5H15C16.6406 19.5 18 18.1406 18 16.5V13.5C18 11.8594 16.6406 10.5 15 10.5H10.5ZM22.5 10.5V43.5H67.5V10.5H22.5ZM75 10.5C73.3594 10.5 72 11.8594 72 13.5V16.5C72 18.1406 73.3594 19.5 75 19.5H79.5C81.1406 19.5 82.5 18.1406 82.5 16.5V13.5C82.5 11.8594 81.1406 10.5 79.5 10.5H75ZM10.5 13.5H15V16.5H10.5V13.5ZM25.5 13.5H64.5V40.5H25.5V13.5ZM75 13.5H79.5V16.5H75V13.5ZM10.5 22.5C8.85938 22.5 7.5 23.8594 7.5 25.5V28.5C7.5 30.1406 8.85938 31.5 10.5 31.5H15C16.6406 31.5 18 30.1406 18 28.5V25.5C18 23.8594 16.6406 22.5 15 22.5H10.5ZM75 22.5C73.3594 22.5 72 23.8594 72 25.5V28.5C72 30.1406 73.3594 31.5 75 31.5H79.5C81.1406 31.5 82.5 30.1406 82.5 28.5V25.5C82.5 23.8594 81.1406 22.5 79.5 22.5H75ZM10.5 25.5H15V28.5H10.5V25.5ZM75 25.5H79.5V28.5H75V25.5ZM10.5 34.5C8.85938 34.5 7.5 35.8594 7.5 37.5V40.5C7.5 42.1406 8.85938 43.5 10.5 43.5H15C16.6406 43.5 18 42.1406 18 40.5V37.5C18 35.8594 16.6406 34.5 15 34.5H10.5ZM30 34.5C29.1738 34.5 28.5 35.1738 28.5 36C28.5 36.8262 29.1738 37.5 30 37.5C30.8262 37.5 31.5 36.8262 31.5 36C31.5 35.1738 30.8262 34.5 30 34.5ZM36 34.5C35.1738 34.5 34.5 35.1738 34.5 36C34.5 36.8262 35.1738 37.5 36 37.5C36.8262 37.5 37.5 36.8262 37.5 36C37.5 35.1738 36.8262 34.5 36 34.5ZM42 34.5C41.1738 34.5 40.5 35.1738 40.5 36C40.5 36.8262 41.1738 37.5 42 37.5C42.8262 37.5 43.5 36.8262 43.5 36C43.5 35.1738 42.8262 34.5 42 34.5ZM48 34.5C47.1738 34.5 46.5 35.1738 46.5 36C46.5 36.8262 47.1738 37.5 48 37.5C48.8262 37.5 49.5 36.8262 49.5 36C49.5 35.1738 48.8262 34.5 48 34.5ZM54 34.5C53.1738 34.5 52.5 35.1738 52.5 36C52.5 36.8262 53.1738 37.5 54 37.5C54.8262 37.5 55.5 36.8262 55.5 36C55.5 35.1738 54.8262 34.5 54 34.5ZM60 34.5C59.1738 34.5 58.5 35.1738 58.5 36C58.5 36.8262 59.1738 37.5 60 37.5C60.8262 37.5 61.5 36.8262 61.5 36C61.5 35.1738 60.8262 34.5 60 34.5ZM75 34.5C73.3594 34.5 72 35.8594 72 37.5V40.5C72 42.1406 73.3594 43.5 75 43.5H79.5C81.1406 43.5 82.5 42.1406 82.5 40.5V37.5C82.5 35.8594 81.1406 34.5 79.5 34.5H75ZM10.5 37.5H15V40.5H10.5V37.5ZM75 37.5H79.5V40.5H75V37.5ZM17.25 54C15.1758 54 13.5 55.6758 13.5 57.75C13.5 59.8242 15.1758 61.5 17.25 61.5H19.5V100.5H70.5V61.5H72.75C74.8242 61.5 76.5 59.8242 76.5 57.75C76.5 55.6758 74.8242 54 72.75 54H17.25ZM22.5 57H33.0996C33.8438 62.9062 38.9004 67.5 45 67.5C51.0996 67.5 56.1562 62.9062 56.9004 57H67.5V97.5H22.5V57ZM36.1348 57H53.8652C53.1562 61.2656 49.4766 64.5 45 64.5C40.5234 64.5 36.8438 61.2656 36.1348 57ZM27 60C26.1738 60 25.5 60.6738 25.5 61.5C25.5 62.3262 26.1738 63 27 63C27.8262 63 28.5 62.3262 28.5 61.5C28.5 60.6738 27.8262 60 27 60ZM63 60C62.1738 60 61.5 60.6738 61.5 61.5C61.5 62.3262 62.1738 63 63 63C63.8262 63 64.5 62.3262 64.5 61.5C64.5 60.6738 63.8262 60 63 60ZM27 66C26.1738 66 25.5 66.6738 25.5 67.5C25.5 68.3262 26.1738 69 27 69C27.8262 69 28.5 68.3262 28.5 67.5C28.5 66.6738 27.8262 66 27 66ZM63 66C62.1738 66 61.5 66.6738 61.5 67.5C61.5 68.3262 62.1738 69 63 69C63.8262 69 64.5 68.3262 64.5 67.5C64.5 66.6738 63.8262 66 63 66ZM27 72C26.1738 72 25.5 72.6738 25.5 73.5C25.5 74.3262 26.1738 75 27 75C27.8262 75 28.5 74.3262 28.5 73.5C28.5 72.6738 27.8262 72 27 72ZM63 72C62.1738 72 61.5 72.6738 61.5 73.5C61.5 74.3262 62.1738 75 63 75C63.8262 75 64.5 74.3262 64.5 73.5C64.5 72.6738 63.8262 72 63 72ZM45 77.25C41.7012 77.25 39 79.9512 39 83.25C39 86.5488 41.7012 89.25 45 89.25C48.2988 89.25 51 86.5488 51 83.25C51 79.9512 48.2988 77.25 45 77.25ZM27 78C26.1738 78 25.5 78.6738 25.5 79.5C25.5 80.3262 26.1738 81 27 81C27.8262 81 28.5 80.3262 28.5 79.5C28.5 78.6738 27.8262 78 27 78ZM63 78C62.1738 78 61.5 78.6738 61.5 79.5C61.5 80.3262 62.1738 81 63 81C63.8262 81 64.5 80.3262 64.5 79.5C64.5 78.6738 63.8262 78 63 78ZM45 80.25C46.6758 80.25 48 81.5742 48 83.25C48 84.9258 46.6758 86.25 45 86.25C43.3242 86.25 42 84.9258 42 83.25C42 81.5742 43.3242 80.25 45 80.25ZM27 84C26.1738 84 25.5 84.6738 25.5 85.5C25.5 86.3262 26.1738 87 27 87C27.8262 87 28.5 86.3262 28.5 85.5C28.5 84.6738 27.8262 84 27 84ZM63 84C62.1738 84 61.5 84.6738 61.5 85.5C61.5 86.3262 62.1738 87 63 87C63.8262 87 64.5 86.3262 64.5 85.5C64.5 84.6738 63.8262 84 63 84ZM31.5 87C30.6738 87 30 87.6738 30 88.5C30 89.3262 30.6738 90 31.5 90C32.3262 90 33 89.3262 33 88.5C33 87.6738 32.3262 87 31.5 87ZM58.5 87C57.6738 87 57 87.6738 57 88.5C57 89.3262 57.6738 90 58.5 90C59.3262 90 60 89.3262 60 88.5C60 87.6738 59.3262 87 58.5 87ZM34.5 91.5C33.6738 91.5 33 92.1738 33 93C33 93.8262 33.6738 94.5 34.5 94.5C35.3262 94.5 36 93.8262 36 93C36 92.1738 35.3262 91.5 34.5 91.5ZM55.5 91.5C54.6738 91.5 54 92.1738 54 93C54 93.8262 54.6738 94.5 55.5 94.5C56.3262 94.5 57 93.8262 57 93C57 92.1738 56.3262 91.5 55.5 91.5Z" fill="white"/>
</svg>
