<svg width="66" height="71" viewBox="0 0 66 71" fill="none" xmlns="http://www.w3.org/2000/svg">
<path d="M26 0C18.5742 0 12.7148 2.63281 8.82422 7.49609C4.92969 12.3555 3 19.3438 3 28C3 34.2852 4.66797 44.1641 4.66797 44.1641L4.80859 45H13.707C12.5508 45.4297 11.3438 45.9023 10.0938 46.4648C7.67188 47.5469 5.23047 48.8516 3.33594 50.3945C1.44141 51.9414 0 53.7969 0 56V62H35.6367C38.2383 67.3203 43.6875 71 50 71C58.8242 71 66 63.8242 66 55C66 46.1758 58.8242 39 50 39C49.3047 39 48.6211 39.0586 47.9492 39.1445C48.4688 35.8594 49 31.2812 49 26C49 19.5508 47.2773 14.1016 44.5469 10.2188C41.9258 6.49219 38.3164 4.24609 34.4688 4.06641C34.2617 3.72266 33.9609 3.10938 32.832 2.21875C31.4219 1.09766 29.1758 0 26 0ZM26 2C28.7227 2 30.4766 2.90234 31.5898 3.78125C32.7031 4.66406 33.1133 5.46484 33.1133 5.46484L33.3945 6H34C37.25 6 40.4609 7.88672 42.9102 11.3711C45.3633 14.8555 47 19.9062 47 26C47 31.5312 46.3984 36.3359 45.8594 39.5625C42.6289 40.4297 39.8047 42.2891 37.7188 44.7852C35.4062 43.9453 33.7539 43.4609 33 43.25V41.0898C36.1914 38.7422 38 34.7812 38 30.3672V24C38 20.6328 36.9062 18.3711 35.7695 16.9961C34.6367 15.6172 33.3906 15.0781 33.3906 15.0781L32.7812 14.8242L32.3086 15.2773C32.3086 15.2773 31.6797 15.8945 30.1602 16.5898C28.6406 17.2852 26.2891 18 23 18C21.0938 18 18.9297 18.9609 17.1484 20.6719C15.3672 22.3867 14 24.9219 14 28.0508V30.3711C14 34.7812 15.8086 38.7461 19 41.0898V43H6.51953C6.3125 41.7227 5 33.4922 5 28C5 19.6406 6.875 13.125 10.3828 8.74609C13.8906 4.36328 19.0352 2 26 2ZM34 7C33.4492 7 33 7.44922 33 8C33 8.55078 33.4492 9 34 9C34.5508 9 35 8.55078 35 8C35 7.44922 34.5508 7 34 7ZM34 11C33.4492 11 33 11.4492 33 12C33 12.5508 33.4492 13 34 13C34.5508 13 35 12.5508 35 12C35 11.4492 34.5508 11 34 11ZM32.9375 17.1914C33.1602 17.3047 33.5391 17.4336 34.2305 18.2656C35.0938 19.3125 36 21.0547 36 24V30.3672C36 35.9023 33.0703 40.2734 27.9414 41.1875L27.6562 41.2344L27.4414 41.4336C27.0508 41.7891 26.5586 42 26 42C25.4414 42 24.9492 41.7891 24.5586 41.4336L24.3438 41.2344L24.0586 41.1875C18.9297 40.2734 16 35.9023 16 30.3711V28.0508C16 25.5 17.0898 23.5078 18.5352 22.1133C19.9805 20.7227 21.8203 20 23 20C26.582 20 29.2305 19.2148 30.9922 18.4102C32.2617 17.8281 32.5664 17.4961 32.9375 17.1914ZM20.5 26C19.6719 26 19 26.6719 19 27.5C19 28.3281 19.6719 29 20.5 29C21.3281 29 22 28.3281 22 27.5C22 26.6719 21.3281 26 20.5 26ZM31.5 26C30.6719 26 30 26.6719 30 27.5C30 28.3281 30.6719 29 31.5 29C32.3281 29 33 28.3281 33 27.5C33 26.6719 32.3281 26 31.5 26ZM50 41C57.7422 41 64 47.2578 64 55C64 62.7422 57.7422 69 50 69C42.2578 69 36 62.7422 36 55C36 47.2578 42.2578 41 50 41ZM31 42.2578V47.2539C30.8789 47.4961 29.5781 50 26 50C22.4219 50 21.1211 47.4961 21 47.2539V42.2617C21.7617 42.6016 22.5703 42.875 23.4375 43.0508C24.1406 43.6172 25.0195 44 26 44C26.9805 44 27.8594 43.6172 28.5625 43.0508C29.4297 42.875 30.2383 42.6016 31 42.2578ZM33 45.3281C33.8203 45.5703 35.0352 45.9609 36.4844 46.4727C34.918 48.9414 34 51.8633 34 55C34 56.7461 34.2891 58.4258 34.8125 60H2V56C2 54.7031 2.93359 53.3086 4.60156 51.9492C6.26953 50.5859 8.57812 49.3281 10.9062 48.2852C14.1523 46.8359 17.3203 45.8281 19 45.332V47.8086L19.1055 48.0156C19.1055 48.0156 21.1797 52 26 52C30.8203 52 32.8945 48.0156 32.8945 48.0156L33 47.8086V45.3281ZM56.7812 49.2266L47.2852 58.5156L43.6406 54.7969L42.2109 56.1992L47.2539 61.3438L58.1758 50.6562L56.7812 49.2266ZM6 56C5.44922 56 5 56.4492 5 57C5 57.5508 5.44922 58 6 58C6.55078 58 7 57.5508 7 57C7 56.4492 6.55078 56 6 56ZM10 56C9.44922 56 9 56.4492 9 57C9 57.5508 9.44922 58 10 58C10.5508 58 11 57.5508 11 57C11 56.4492 10.5508 56 10 56ZM14 56C13.4492 56 13 56.4492 13 57C13 57.5508 13.4492 58 14 58C14.5508 58 15 57.5508 15 57C15 56.4492 14.5508 56 14 56ZM18 56C17.4492 56 17 56.4492 17 57C17 57.5508 17.4492 58 18 58C18.5508 58 19 57.5508 19 57C19 56.4492 18.5508 56 18 56ZM22 56C21.4492 56 21 56.4492 21 57C21 57.5508 21.4492 58 22 58C22.5508 58 23 57.5508 23 57C23 56.4492 22.5508 56 22 56ZM26 56C25.4492 56 25 56.4492 25 57C25 57.5508 25.4492 58 26 58C26.5508 58 27 57.5508 27 57C27 56.4492 26.5508 56 26 56ZM30 56C29.4492 56 29 56.4492 29 57C29 57.5508 29.4492 58 30 58C30.5508 58 31 57.5508 31 57C31 56.4492 30.5508 56 30 56Z" fill="white"/>
</svg>
