<svg width="53" height="79" viewBox="0 0 53 79" fill="none" xmlns="http://www.w3.org/2000/svg">
<path d="M26.4981 0.621094C22.9354 0.621094 20.0181 3.53836 20.0181 7.10109V8.72109H5.43813C2.77399 8.72109 0.578125 10.917 0.578125 13.5811V73.5211C0.578125 76.1852 2.77399 78.3811 5.43813 78.3811H47.5581C50.2223 78.3811 52.4181 76.1852 52.4181 73.5211V13.5811C52.4181 10.917 50.2223 8.72109 47.5581 8.72109H32.9781V7.10109C32.9781 3.53836 30.0609 0.621094 26.4981 0.621094ZM26.4981 3.86109C28.308 3.86109 29.7381 5.29125 29.7381 7.10109V10.069C29.7065 10.2462 29.7065 10.4234 29.7381 10.5942V13.5811H23.2581V10.6132C23.2898 10.436 23.2898 10.2588 23.2581 10.088V7.10109C23.2581 5.29125 24.6883 3.86109 26.4981 3.86109ZM26.4981 5.48109C25.6059 5.48109 24.8781 6.20883 24.8781 7.10109C24.8781 7.99336 25.6059 8.72109 26.4981 8.72109C27.3904 8.72109 28.1181 7.99336 28.1181 7.10109C28.1181 6.20883 27.3904 5.48109 26.4981 5.48109ZM5.43813 11.9611H20.0181V15.2011C20.0181 16.0934 20.7459 16.8211 21.6381 16.8211H31.3581C32.2504 16.8211 32.9781 16.0934 32.9781 15.2011V11.9611H47.5581C48.4757 11.9611 49.1781 12.6635 49.1781 13.5811V73.5211C49.1781 74.4387 48.4757 75.1411 47.5581 75.1411H5.43813C4.52055 75.1411 3.81813 74.4387 3.81813 73.5211V13.5811C3.81813 12.6635 4.52055 11.9611 5.43813 11.9611ZM39.9327 33.4957L21.6381 51.7903L13.0635 43.2157L10.7727 45.5065L21.6381 56.3719L42.2235 35.7865L39.9327 33.4957Z" fill="white"/>
</svg>
