<svg width="58" height="56" viewBox="0 0 58 56" fill="none" xmlns="http://www.w3.org/2000/svg">
<path d="M29.002 0.910156L28.3164 2.44531L20.7021 19.5195L0.4375 21.6611L15.5723 35.3047L11.3477 55.2383L29.002 45.0635L46.6562 55.2383L42.4316 35.3047L57.5664 21.6611L37.3018 19.5195L29.002 0.910156ZM29.002 4.59277L31.1934 9.50293C30.8037 9.53516 30.502 9.86035 30.502 10.25C30.502 10.6631 30.8389 11 31.252 11C31.4453 11 31.6299 10.9268 31.7676 10.792L33.2207 14.0557C32.9395 14.167 32.752 14.4424 32.752 14.75C32.752 15.1631 33.0889 15.5 33.502 15.5C33.6162 15.5 33.7305 15.4736 33.8301 15.4209L35.2803 18.667C35.1045 18.8105 35.002 19.0244 35.002 19.25C35.002 19.6631 35.3389 20 35.752 20C35.79 20 35.8311 19.9971 35.8691 19.9883L36.2822 20.9199L54.0625 22.8008L47.1631 29.0205C47.1104 29.0059 47.0576 29 47.002 29C46.5889 29 46.252 29.3369 46.252 29.75C46.252 29.7793 46.2549 29.8057 46.2578 29.835L45.2793 30.7168C45.1387 30.5791 44.9482 30.5 44.752 30.5C44.3389 30.5 44.002 30.8369 44.002 31.25C44.002 31.4199 44.0605 31.5869 44.166 31.7188L43.2285 32.5654C43.1436 32.2344 42.8447 32 42.502 32C42.0889 32 41.752 32.3369 41.752 32.75C41.752 33.0635 41.9482 33.3447 42.2441 33.4531L40.8232 34.7334C40.9375 34.5986 41.002 34.4287 41.002 34.25C41.002 33.8369 40.665 33.5 40.252 33.5C39.8389 33.5 39.502 33.8369 39.502 34.25C39.502 34.6631 39.8389 35 40.252 35C40.4512 35 40.6445 34.9209 40.7852 34.7773L44.3535 51.6172C44.21 51.7051 44.1016 51.8428 44.0459 52.0039L42.9355 51.3623C43.1318 51.2217 43.252 50.9932 43.252 50.75C43.252 50.3369 42.915 50 42.502 50C42.1152 50 41.79 50.2959 41.7549 50.6826L40.498 49.9561C40.7998 49.8535 41.002 49.5693 41.002 49.25C41.002 48.8369 40.665 48.5 40.252 48.5C39.8389 48.5 39.502 48.8369 39.502 49.25C39.502 49.2969 39.5049 49.3467 39.5137 49.3906L37.9668 48.5C37.9785 48.5 37.9902 48.5 38.002 48.5C38.415 48.5 38.752 48.1631 38.752 47.75C38.752 47.3369 38.415 47 38.002 47C37.5889 47 37.252 47.3369 37.252 47.75C37.252 47.8936 37.293 48.0342 37.3721 48.1572L29.002 43.332L13.5127 52.2617L14.9893 45.2979C15.127 45.4268 15.3115 45.5 15.502 45.5C15.915 45.5 16.252 45.1631 16.252 44.75C16.252 44.3369 15.915 44 15.502 44C15.417 44 15.335 44.0146 15.2559 44.0439L15.584 42.4941C15.9619 42.4531 16.252 42.1338 16.252 41.75C16.252 41.4834 16.1084 41.2373 15.877 41.1025L17.2217 34.7686L3.94141 22.8008L8.01367 22.3672C8.06934 22.7334 8.38281 23 8.75195 23C9.16504 23 9.50195 22.6631 9.50195 22.25C9.50195 22.2383 9.49902 22.2236 9.49902 22.2119L12.5986 21.8838C12.5342 21.9951 12.502 22.1211 12.502 22.25C12.502 22.6631 12.8389 23 13.252 23C13.665 23 14.002 22.6631 14.002 22.25C14.002 22.0684 13.9346 21.8926 13.8145 21.7549L19.3809 21.1689C19.5186 21.374 19.7529 21.5 20.002 21.5C20.3096 21.5 20.585 21.3125 20.6963 21.0283L21.7217 20.9199L29.002 4.59277ZM29.002 8C28.5889 8 28.252 8.33691 28.252 8.75C28.252 9.16309 28.5889 9.5 29.002 9.5C29.415 9.5 29.752 9.16309 29.752 8.75C29.752 8.33691 29.415 8 29.002 8ZM29.002 11C28.5889 11 28.252 11.3369 28.252 11.75C28.252 12.1631 28.5889 12.5 29.002 12.5C29.415 12.5 29.752 12.1631 29.752 11.75C29.752 11.3369 29.415 11 29.002 11ZM31.252 12.5C30.8389 12.5 30.502 12.8369 30.502 13.25C30.502 13.6631 30.8389 14 31.252 14C31.665 14 32.002 13.6631 32.002 13.25C32.002 12.8369 31.665 12.5 31.252 12.5ZM29.002 14C28.5889 14 28.252 14.3369 28.252 14.75C28.252 15.1631 28.5889 15.5 29.002 15.5C29.415 15.5 29.752 15.1631 29.752 14.75C29.752 14.3369 29.415 14 29.002 14ZM31.252 15.5C30.8389 15.5 30.502 15.8369 30.502 16.25C30.502 16.6631 30.8389 17 31.252 17C31.665 17 32.002 16.6631 32.002 16.25C32.002 15.8369 31.665 15.5 31.252 15.5ZM29.002 17C28.5889 17 28.252 17.3369 28.252 17.75C28.252 18.1631 28.5889 18.5 29.002 18.5C29.415 18.5 29.752 18.1631 29.752 17.75C29.752 17.3369 29.415 17 29.002 17ZM33.502 17C33.0889 17 32.752 17.3369 32.752 17.75C32.752 18.1631 33.0889 18.5 33.502 18.5C33.915 18.5 34.252 18.1631 34.252 17.75C34.252 17.3369 33.915 17 33.502 17ZM31.252 18.5C30.8389 18.5 30.502 18.8369 30.502 19.25C30.502 19.6631 30.8389 20 31.252 20C31.665 20 32.002 19.6631 32.002 19.25C32.002 18.8369 31.665 18.5 31.252 18.5ZM29.002 20C28.5889 20 28.252 20.3369 28.252 20.75C28.252 21.1631 28.5889 21.5 29.002 21.5C29.415 21.5 29.752 21.1631 29.752 20.75C29.752 20.3369 29.415 20 29.002 20ZM33.502 20C33.0889 20 32.752 20.3369 32.752 20.75C32.752 21.1631 33.0889 21.5 33.502 21.5C33.915 21.5 34.252 21.1631 34.252 20.75C34.252 20.3369 33.915 20 33.502 20ZM17.752 21.5C17.3389 21.5 17.002 21.8369 17.002 22.25C17.002 22.6631 17.3389 23 17.752 23C18.165 23 18.502 22.6631 18.502 22.25C18.502 21.8369 18.165 21.5 17.752 21.5ZM22.252 21.5C21.8389 21.5 21.502 21.8369 21.502 22.25C21.502 22.6631 21.8389 23 22.252 23C22.665 23 23.002 22.6631 23.002 22.25C23.002 21.8369 22.665 21.5 22.252 21.5ZM31.252 21.5C30.8389 21.5 30.502 21.8369 30.502 22.25C30.502 22.6631 30.8389 23 31.252 23C31.665 23 32.002 22.6631 32.002 22.25C32.002 21.8369 31.665 21.5 31.252 21.5ZM35.752 21.5C35.3389 21.5 35.002 21.8369 35.002 22.25C35.002 22.6631 35.3389 23 35.752 23C36.165 23 36.502 22.6631 36.502 22.25C36.502 21.8369 36.165 21.5 35.752 21.5ZM6.50195 23C6.08887 23 5.75195 23.3369 5.75195 23.75C5.75195 24.1631 6.08887 24.5 6.50195 24.5C6.91504 24.5 7.25195 24.1631 7.25195 23.75C7.25195 23.3369 6.91504 23 6.50195 23ZM11.002 23C10.5889 23 10.252 23.3369 10.252 23.75C10.252 24.1631 10.5889 24.5 11.002 24.5C11.415 24.5 11.752 24.1631 11.752 23.75C11.752 23.3369 11.415 23 11.002 23ZM15.502 23C15.0889 23 14.752 23.3369 14.752 23.75C14.752 24.1631 15.0889 24.5 15.502 24.5C15.915 24.5 16.252 24.1631 16.252 23.75C16.252 23.3369 15.915 23 15.502 23ZM20.002 23C19.5889 23 19.252 23.3369 19.252 23.75C19.252 24.1631 19.5889 24.5 20.002 24.5C20.415 24.5 20.752 24.1631 20.752 23.75C20.752 23.3369 20.415 23 20.002 23ZM24.502 23C24.0889 23 23.752 23.3369 23.752 23.75C23.752 24.1631 24.0889 24.5 24.502 24.5C24.915 24.5 25.252 24.1631 25.252 23.75C25.252 23.3369 24.915 23 24.502 23ZM29.002 23C28.5889 23 28.252 23.3369 28.252 23.75C28.252 24.1631 28.5889 24.5 29.002 24.5C29.415 24.5 29.752 24.1631 29.752 23.75C29.752 23.3369 29.415 23 29.002 23ZM33.502 23C33.0889 23 32.752 23.3369 32.752 23.75C32.752 24.1631 33.0889 24.5 33.502 24.5C33.915 24.5 34.252 24.1631 34.252 23.75C34.252 23.3369 33.915 23 33.502 23ZM51.502 23C51.0889 23 50.752 23.3369 50.752 23.75C50.752 24.1631 51.0889 24.5 51.502 24.5C51.915 24.5 52.252 24.1631 52.252 23.75C52.252 23.3369 51.915 23 51.502 23ZM13.252 24.5C12.8389 24.5 12.502 24.8369 12.502 25.25C12.502 25.6631 12.8389 26 13.252 26C13.665 26 14.002 25.6631 14.002 25.25C14.002 24.8369 13.665 24.5 13.252 24.5ZM17.752 24.5C17.3389 24.5 17.002 24.8369 17.002 25.25C17.002 25.6631 17.3389 26 17.752 26C18.165 26 18.502 25.6631 18.502 25.25C18.502 24.8369 18.165 24.5 17.752 24.5ZM22.252 24.5C21.8389 24.5 21.502 24.8369 21.502 25.25C21.502 25.6631 21.8389 26 22.252 26C22.665 26 23.002 25.6631 23.002 25.25C23.002 24.8369 22.665 24.5 22.252 24.5ZM26.752 24.5C26.3389 24.5 26.002 24.8369 26.002 25.25C26.002 25.6631 26.3389 26 26.752 26C27.165 26 27.502 25.6631 27.502 25.25C27.502 24.8369 27.165 24.5 26.752 24.5ZM31.252 24.5C30.8389 24.5 30.502 24.8369 30.502 25.25C30.502 25.6631 30.8389 26 31.252 26C31.665 26 32.002 25.6631 32.002 25.25C32.002 24.8369 31.665 24.5 31.252 24.5ZM44.752 24.5C44.3389 24.5 44.002 24.8369 44.002 25.25C44.002 25.6631 44.3389 26 44.752 26C45.165 26 45.502 25.6631 45.502 25.25C45.502 24.8369 45.165 24.5 44.752 24.5ZM49.252 24.5C48.8389 24.5 48.502 24.8369 48.502 25.25C48.502 25.6631 48.8389 26 49.252 26C49.665 26 50.002 25.6631 50.002 25.25C50.002 24.8369 49.665 24.5 49.252 24.5ZM15.502 26C15.0889 26 14.752 26.3369 14.752 26.75C14.752 27.1631 15.0889 27.5 15.502 27.5C15.915 27.5 16.252 27.1631 16.252 26.75C16.252 26.3369 15.915 26 15.502 26ZM20.002 26C19.5889 26 19.252 26.3369 19.252 26.75C19.252 27.1631 19.5889 27.5 20.002 27.5C20.415 27.5 20.752 27.1631 20.752 26.75C20.752 26.3369 20.415 26 20.002 26ZM24.502 26C24.0889 26 23.752 26.3369 23.752 26.75C23.752 27.1631 24.0889 27.5 24.502 27.5C24.915 27.5 25.252 27.1631 25.252 26.75C25.252 26.3369 24.915 26 24.502 26ZM29.002 26C28.5889 26 28.252 26.3369 28.252 26.75C28.252 27.1631 28.5889 27.5 29.002 27.5C29.415 27.5 29.752 27.1631 29.752 26.75C29.752 26.3369 29.415 26 29.002 26ZM42.502 26C42.0889 26 41.752 26.3369 41.752 26.75C41.752 27.1631 42.0889 27.5 42.502 27.5C42.915 27.5 43.252 27.1631 43.252 26.75C43.252 26.3369 42.915 26 42.502 26ZM47.002 26C46.5889 26 46.252 26.3369 46.252 26.75C46.252 27.1631 46.5889 27.5 47.002 27.5C47.415 27.5 47.752 27.1631 47.752 26.75C47.752 26.3369 47.415 26 47.002 26ZM22.252 27.5C21.8389 27.5 21.502 27.8369 21.502 28.25C21.502 28.6631 21.8389 29 22.252 29C22.665 29 23.002 28.6631 23.002 28.25C23.002 27.8369 22.665 27.5 22.252 27.5ZM26.752 27.5C26.3389 27.5 26.002 27.8369 26.002 28.25C26.002 28.6631 26.3389 29 26.752 29C27.165 29 27.502 28.6631 27.502 28.25C27.502 27.8369 27.165 27.5 26.752 27.5ZM35.752 27.5C35.3389 27.5 35.002 27.8369 35.002 28.25C35.002 28.6631 35.3389 29 35.752 29C36.165 29 36.502 28.6631 36.502 28.25C36.502 27.8369 36.165 27.5 35.752 27.5ZM40.252 27.5C39.8389 27.5 39.502 27.8369 39.502 28.25C39.502 28.6631 39.8389 29 40.252 29C40.665 29 41.002 28.6631 41.002 28.25C41.002 27.8369 40.665 27.5 40.252 27.5ZM44.752 27.5C44.3389 27.5 44.002 27.8369 44.002 28.25C44.002 28.6631 44.3389 29 44.752 29C45.165 29 45.502 28.6631 45.502 28.25C45.502 27.8369 45.165 27.5 44.752 27.5ZM24.502 29C24.0889 29 23.752 29.3369 23.752 29.75C23.752 30.1631 24.0889 30.5 24.502 30.5C24.915 30.5 25.252 30.1631 25.252 29.75C25.252 29.3369 24.915 29 24.502 29ZM29.002 29C28.5889 29 28.252 29.3369 28.252 29.75C28.252 30.1631 28.5889 30.5 29.002 30.5C29.415 30.5 29.752 30.1631 29.752 29.75C29.752 29.3369 29.415 29 29.002 29ZM33.502 29C33.0889 29 32.752 29.3369 32.752 29.75C32.752 30.1631 33.0889 30.5 33.502 30.5C33.915 30.5 34.252 30.1631 34.252 29.75C34.252 29.3369 33.915 29 33.502 29ZM38.002 29C37.5889 29 37.252 29.3369 37.252 29.75C37.252 30.1631 37.5889 30.5 38.002 30.5C38.415 30.5 38.752 30.1631 38.752 29.75C38.752 29.3369 38.415 29 38.002 29ZM42.502 29C42.0889 29 41.752 29.3369 41.752 29.75C41.752 30.1631 42.0889 30.5 42.502 30.5C42.915 30.5 43.252 30.1631 43.252 29.75C43.252 29.3369 42.915 29 42.502 29ZM26.752 30.5C26.3389 30.5 26.002 30.8369 26.002 31.25C26.002 31.6631 26.3389 32 26.752 32C27.165 32 27.502 31.6631 27.502 31.25C27.502 30.8369 27.165 30.5 26.752 30.5ZM35.752 30.5C35.3389 30.5 35.002 30.8369 35.002 31.25C35.002 31.6631 35.3389 32 35.752 32C36.165 32 36.502 31.6631 36.502 31.25C36.502 30.8369 36.165 30.5 35.752 30.5ZM40.252 30.5C39.8389 30.5 39.502 30.8369 39.502 31.25C39.502 31.6631 39.8389 32 40.252 32C40.665 32 41.002 31.6631 41.002 31.25C41.002 30.8369 40.665 30.5 40.252 30.5ZM24.502 32C24.0889 32 23.752 32.3369 23.752 32.75C23.752 33.1631 24.0889 33.5 24.502 33.5C24.915 33.5 25.252 33.1631 25.252 32.75C25.252 32.3369 24.915 32 24.502 32ZM29.002 32C28.5889 32 28.252 32.3369 28.252 32.75C28.252 33.1631 28.5889 33.5 29.002 33.5C29.415 33.5 29.752 33.1631 29.752 32.75C29.752 32.3369 29.415 32 29.002 32ZM33.502 32C33.0889 32 32.752 32.3369 32.752 32.75C32.752 33.1631 33.0889 33.5 33.502 33.5C33.915 33.5 34.252 33.1631 34.252 32.75C34.252 32.3369 33.915 32 33.502 32ZM38.002 32C37.5889 32 37.252 32.3369 37.252 32.75C37.252 33.1631 37.5889 33.5 38.002 33.5C38.415 33.5 38.752 33.1631 38.752 32.75C38.752 32.3369 38.415 32 38.002 32ZM22.252 33.5C21.8389 33.5 21.502 33.8369 21.502 34.25C21.502 34.6631 21.8389 35 22.252 35C22.665 35 23.002 34.6631 23.002 34.25C23.002 33.8369 22.665 33.5 22.252 33.5ZM20.002 35C19.5889 35 19.252 35.3369 19.252 35.75C19.252 36.1631 19.5889 36.5 20.002 36.5C20.415 36.5 20.752 36.1631 20.752 35.75C20.752 35.3369 20.415 35 20.002 35ZM24.502 35C24.0889 35 23.752 35.3369 23.752 35.75C23.752 36.1631 24.0889 36.5 24.502 36.5C24.915 36.5 25.252 36.1631 25.252 35.75C25.252 35.3369 24.915 35 24.502 35ZM29.002 35C28.5889 35 28.252 35.3369 28.252 35.75C28.252 36.1631 28.5889 36.5 29.002 36.5C29.415 36.5 29.752 36.1631 29.752 35.75C29.752 35.3369 29.415 35 29.002 35ZM17.752 36.5C17.3389 36.5 17.002 36.8369 17.002 37.25C17.002 37.6631 17.3389 38 17.752 38C18.165 38 18.502 37.6631 18.502 37.25C18.502 36.8369 18.165 36.5 17.752 36.5ZM22.252 36.5C21.8389 36.5 21.502 36.8369 21.502 37.25C21.502 37.6631 21.8389 38 22.252 38C22.665 38 23.002 37.6631 23.002 37.25C23.002 36.8369 22.665 36.5 22.252 36.5ZM31.252 36.5C30.8389 36.5 30.502 36.8369 30.502 37.25C30.502 37.6631 30.8389 38 31.252 38C31.665 38 32.002 37.6631 32.002 37.25C32.002 36.8369 31.665 36.5 31.252 36.5ZM20.002 38C19.5889 38 19.252 38.3369 19.252 38.75C19.252 39.1631 19.5889 39.5 20.002 39.5C20.415 39.5 20.752 39.1631 20.752 38.75C20.752 38.3369 20.415 38 20.002 38ZM29.002 38C28.5889 38 28.252 38.3369 28.252 38.75C28.252 39.1631 28.5889 39.5 29.002 39.5C29.415 39.5 29.752 39.1631 29.752 38.75C29.752 38.3369 29.415 38 29.002 38ZM33.502 38C33.0889 38 32.752 38.3369 32.752 38.75C32.752 39.1631 33.0889 39.5 33.502 39.5C33.915 39.5 34.252 39.1631 34.252 38.75C34.252 38.3369 33.915 38 33.502 38ZM17.752 39.5C17.3389 39.5 17.002 39.8369 17.002 40.25C17.002 40.6631 17.3389 41 17.752 41C18.165 41 18.502 40.6631 18.502 40.25C18.502 39.8369 18.165 39.5 17.752 39.5ZM22.252 39.5C21.8389 39.5 21.502 39.8369 21.502 40.25C21.502 40.6631 21.8389 41 22.252 41C22.665 41 23.002 40.6631 23.002 40.25C23.002 39.8369 22.665 39.5 22.252 39.5ZM31.252 39.5C30.8389 39.5 30.502 39.8369 30.502 40.25C30.502 40.6631 30.8389 41 31.252 41C31.665 41 32.002 40.6631 32.002 40.25C32.002 39.8369 31.665 39.5 31.252 39.5ZM20.002 41C19.5889 41 19.252 41.3369 19.252 41.75C19.252 42.1631 19.5889 42.5 20.002 42.5C20.415 42.5 20.752 42.1631 20.752 41.75C20.752 41.3369 20.415 41 20.002 41ZM29.002 41C28.5889 41 28.252 41.3369 28.252 41.75C28.252 42.1631 28.5889 42.5 29.002 42.5C29.415 42.5 29.752 42.1631 29.752 41.75C29.752 41.3369 29.415 41 29.002 41ZM33.502 41C33.0889 41 32.752 41.3369 32.752 41.75C32.752 42.1631 33.0889 42.5 33.502 42.5C33.915 42.5 34.252 42.1631 34.252 41.75C34.252 41.3369 33.915 41 33.502 41ZM17.752 42.5C17.3389 42.5 17.002 42.8369 17.002 43.25C17.002 43.6631 17.3389 44 17.752 44C18.165 44 18.502 43.6631 18.502 43.25C18.502 42.8369 18.165 42.5 17.752 42.5ZM31.252 42.5C30.8389 42.5 30.502 42.8369 30.502 43.25C30.502 43.6631 30.8389 44 31.252 44C31.665 44 32.002 43.6631 32.002 43.25C32.002 42.8369 31.665 42.5 31.252 42.5ZM35.752 42.5C35.3389 42.5 35.002 42.8369 35.002 43.25C35.002 43.6631 35.3389 44 35.752 44C36.165 44 36.502 43.6631 36.502 43.25C36.502 42.8369 36.165 42.5 35.752 42.5ZM33.502 44C33.0889 44 32.752 44.3369 32.752 44.75C32.752 45.1631 33.0889 45.5 33.502 45.5C33.915 45.5 34.252 45.1631 34.252 44.75C34.252 44.3369 33.915 44 33.502 44ZM38.002 44C37.5889 44 37.252 44.3369 37.252 44.75C37.252 45.1631 37.5889 45.5 38.002 45.5C38.415 45.5 38.752 45.1631 38.752 44.75C38.752 44.3369 38.415 44 38.002 44ZM17.752 45.5C17.3389 45.5 17.002 45.8369 17.002 46.25C17.002 46.6631 17.3389 47 17.752 47C18.165 47 18.502 46.6631 18.502 46.25C18.502 45.8369 18.165 45.5 17.752 45.5ZM35.752 45.5C35.3389 45.5 35.002 45.8369 35.002 46.25C35.002 46.6631 35.3389 47 35.752 47C36.165 47 36.502 46.6631 36.502 46.25C36.502 45.8369 36.165 45.5 35.752 45.5ZM40.252 45.5C39.8389 45.5 39.502 45.8369 39.502 46.25C39.502 46.6631 39.8389 47 40.252 47C40.665 47 41.002 46.6631 41.002 46.25C41.002 45.8369 40.665 45.5 40.252 45.5ZM15.502 47C15.0889 47 14.752 47.3369 14.752 47.75C14.752 48.1631 15.0889 48.5 15.502 48.5C15.915 48.5 16.252 48.1631 16.252 47.75C16.252 47.3369 15.915 47 15.502 47Z" fill="white"/>
</svg>
