<svg width="108" height="107" viewBox="0 0 108 107" fill="none" xmlns="http://www.w3.org/2000/svg">
<path d="M54 0.511719C52.4004 0.511719 50.7949 1.11523 49.582 2.32812L46.1016 5.80859L41.5605 3.92187C38.3906 2.60937 34.7109 4.13281 33.3984 7.30859L31.5176 11.8496H26.5957C23.1621 11.8496 20.3496 14.6621 20.3496 18.0957V23.0176L15.8027 24.8984C12.6328 26.2109 11.1152 29.8906 12.4219 33.0605L14.3086 37.6074L10.8281 41.0879C8.40234 43.5137 8.40234 47.4922 10.8281 49.918L14.3086 53.3984L12.4219 57.9395C11.1094 61.1094 12.6328 64.7891 15.8027 66.1016L20.3496 67.9824V68.0293L0.878906 87.5H19.5V106.121L38.1797 87.4473C39.2871 87.6289 40.4531 87.5352 41.5605 87.0781L46.1074 85.1914L49.5879 88.6719C52.0137 91.0977 55.9922 91.0977 58.418 88.6719L61.8984 85.1914L66.4395 87.0781C67.5469 87.5352 68.7129 87.6289 69.8203 87.4473L88.5 106.121V87.5H107.121L87.6504 68.0293V67.9824L92.1973 66.1016C95.3672 64.7891 96.8906 61.1094 95.5781 57.9395L93.6973 53.3984L97.1719 49.918C99.5977 47.4922 99.5977 43.5078 97.1719 41.082L93.6914 37.6016L95.5781 33.0605C96.8906 29.8906 95.3672 26.2109 92.1973 24.8984L87.6504 23.0176V18.0957C87.6504 14.6621 84.8379 11.8496 81.4043 11.8496H76.4824L74.6016 7.30859C73.2891 4.13281 69.6094 2.61523 66.4395 3.92187L61.8926 5.80859L58.4121 2.32812C57.1992 1.11523 55.5996 0.511719 54 0.511719ZM54 3.48828C54.8262 3.48828 55.6523 3.81055 56.2969 4.44922L61.1895 9.34766L67.5879 6.69922C69.2578 6.00195 71.1387 6.78125 71.8301 8.45117L74.4785 14.8496H81.4043C83.2148 14.8496 84.6504 16.2852 84.6504 18.0957V25.0156L91.0488 27.6699C92.7188 28.3613 93.498 30.2363 92.8066 31.9121L90.1523 38.3047L95.0449 43.2031C96.3281 44.4863 96.3281 46.5137 95.0508 47.7969L90.1582 52.6953L92.8066 59.0879C93.498 60.7637 92.7246 62.6387 91.0488 63.3301L84.6504 65.9844V72.9043C84.6504 74.7148 83.2148 76.1504 81.4043 76.1504H74.4844L71.8301 82.5488C71.1387 84.2188 69.2637 84.998 67.5879 84.3066L61.1953 81.6523L56.2969 86.5449C55.0137 87.8281 52.9863 87.8281 51.7031 86.5449L46.8105 81.6523L40.4121 84.3066C38.7363 84.9922 36.8613 84.2188 36.1699 82.5488L33.5215 76.1504H26.5957C24.7852 76.1504 23.3496 74.7148 23.3496 72.9043V65.9844L16.9512 63.3301C15.2812 62.6387 14.502 60.7637 15.1934 59.0879L17.8477 52.6953L12.9551 47.7969C11.6719 46.5137 11.6719 44.4863 12.9551 43.2031L17.8477 38.3105L15.1934 31.9121C14.5078 30.2363 15.2812 28.3613 16.9512 27.6699L23.3496 25.0156V18.0957C23.3496 16.2852 24.7852 14.8496 26.5957 14.8496H33.5156L36.1699 8.45117C36.8613 6.78125 38.7363 6.00195 40.4121 6.69922L46.8047 9.34766L51.7031 4.44922C52.3418 3.81055 53.1738 3.48828 54 3.48828ZM54 8C53.1738 8 52.5 8.67383 52.5 9.5C52.5 10.3262 53.1738 11 54 11C54.8262 11 55.5 10.3262 55.5 9.5C55.5 8.67383 54.8262 8 54 8ZM40.2363 10.7422C40.0312 10.7363 39.832 10.7773 39.6504 10.8535C38.8828 11.1699 38.5195 12.0488 38.8359 12.8105C39.1523 13.5781 40.0312 13.9414 40.7988 13.625C41.5605 13.3086 41.9238 12.4297 41.6074 11.6621C41.3789 11.1113 40.834 10.7422 40.2363 10.7422ZM67.8047 10.7422C67.1895 10.7246 66.627 11.0938 66.3926 11.6621C66.0703 12.4297 66.4336 13.3086 67.2012 13.625C67.9688 13.9414 68.8418 13.5781 69.1641 12.8105C69.4805 12.0488 69.1172 11.1699 68.3496 10.8535C68.1797 10.7832 67.9922 10.7422 67.8047 10.7422ZM54 18.5C53.1738 18.5 52.5 19.1738 52.5 20C52.5 20.8262 53.1738 21.5 54 21.5C54.8262 21.5 55.5 20.8262 55.5 20C55.5 19.1738 54.8262 18.5 54 18.5ZM79.4766 18.5469C79.0723 18.541 78.6797 18.6992 78.3984 18.9863C77.8125 19.5664 77.8125 20.5215 78.3984 21.1016C78.9785 21.6875 79.9336 21.6875 80.5137 21.1016C81.0996 20.5215 81.0996 19.5664 80.5137 18.9863C80.2383 18.7051 79.8691 18.5469 79.4766 18.5469ZM28.5645 18.5469C28.1602 18.541 27.7676 18.6992 27.4863 18.9863C26.9004 19.5723 26.9004 20.5215 27.4863 21.1074C28.0664 21.6934 29.0215 21.6934 29.6016 21.1074C30.1875 20.5215 30.1875 19.5723 29.6016 18.9863C29.3262 18.7109 28.957 18.5527 28.5645 18.5469ZM47.4141 19.3672C47.3789 19.3672 47.3438 19.373 47.3086 19.373C47.209 19.3789 47.1094 19.3965 47.0156 19.4199C46.2129 19.6367 45.7383 20.457 45.9551 21.2598C46.166 22.0625 46.9863 22.5371 47.7891 22.3203C48.5918 22.1035 49.0664 21.2832 48.8496 20.4863C48.6738 19.8301 48.0879 19.3789 47.4141 19.3672ZM60.5859 19.3672C59.9121 19.373 59.3262 19.8301 59.1504 20.4805C59.0449 20.8672 59.0977 21.2773 59.2969 21.623C59.4961 21.9629 59.8242 22.2148 60.2109 22.3203C60.5977 22.4258 61.0078 22.3672 61.3477 22.168C61.6934 21.9688 61.9453 21.6406 62.0449 21.2598C62.2617 20.457 61.7871 19.6367 60.9844 19.4199C60.8555 19.3848 60.7207 19.3672 60.5859 19.3672ZM41.2148 21.916C40.9629 21.9219 40.7168 21.9922 40.5 22.1152C40.1543 22.3145 39.9023 22.6426 39.7969 23.0293C39.6973 23.4102 39.75 23.8203 39.9492 24.166C40.1484 24.5117 40.4766 24.7637 40.8633 24.8633C41.2441 24.9688 41.6543 24.916 42 24.7109C42.7148 24.3008 42.9609 23.3809 42.5449 22.666C42.2754 22.1914 41.7656 21.9043 41.2148 21.916ZM66.6797 21.9219C66.1641 21.9453 65.7012 22.2266 65.4492 22.6719C65.0332 23.3867 65.2852 24.3008 66 24.7168C66.7148 25.1328 67.6348 24.8867 68.0449 24.1719C68.25 23.8262 68.3027 23.416 68.1973 23.0293C68.0977 22.6426 67.8457 22.3145 67.5 22.1152C67.248 21.9746 66.9668 21.9043 66.6797 21.9219ZM35.9883 25.9707C35.584 25.9648 35.1914 26.123 34.9043 26.4043C34.3242 26.9902 34.3242 27.9453 34.9043 28.5312C35.4902 29.1113 36.4453 29.1113 37.0312 28.5312C37.6113 27.9453 37.6113 26.9902 37.0312 26.4043C36.75 26.1289 36.3809 25.9707 35.9883 25.9707ZM72.0527 25.9707C71.6484 25.959 71.2559 26.1172 70.9688 26.4043C70.3828 26.9902 70.3828 27.9453 70.9688 28.5312C71.5547 29.1113 72.5039 29.1113 73.0898 28.5312C73.6758 27.9453 73.6758 26.9902 73.0898 26.4043C72.8145 26.1289 72.4453 25.9766 72.0527 25.9707ZM20.7715 30.2188C20.1562 30.207 19.5938 30.5762 19.3594 31.1504C19.0371 31.9121 19.4004 32.791 20.168 33.1074C20.9355 33.4238 21.8086 33.0605 22.125 32.2988C22.4473 31.5312 22.084 30.6523 21.3164 30.3359C21.1465 30.2656 20.959 30.2246 20.7715 30.2188ZM87.2695 30.2188C87.0703 30.2188 86.8711 30.2598 86.6895 30.3359C85.9219 30.6523 85.5586 31.5312 85.875 32.2988C86.1914 33.0605 87.0703 33.4238 87.8379 33.1074C88.5996 32.791 88.9629 31.9121 88.6465 31.1504C88.418 30.5879 87.873 30.2246 87.2695 30.2188ZM76.0488 31.25C75.7969 31.2559 75.5508 31.3262 75.3281 31.4492C74.9883 31.6484 74.7363 31.9766 74.6309 32.3633C74.5312 32.7441 74.584 33.1543 74.7832 33.5C75.1992 34.2148 76.1133 34.4609 76.8281 34.0449C77.5488 33.6348 77.7949 32.7148 77.3789 32C77.1035 31.5254 76.5938 31.2383 76.0488 31.25ZM31.8457 31.25C31.3301 31.2793 30.8672 31.5605 30.6152 32C30.1992 32.7207 30.4512 33.6348 31.166 34.0508C31.8809 34.4668 32.8008 34.2207 33.2109 33.5C33.416 33.1602 33.4688 32.75 33.3633 32.3633C33.2637 31.9766 33.0117 31.6484 32.666 31.4551C32.4141 31.3086 32.1328 31.2383 31.8457 31.25ZM29.3555 37.4023C28.6816 37.4082 28.0957 37.8652 27.9199 38.5156C27.7031 39.3184 28.1777 40.1387 28.9805 40.3496C29.7832 40.5664 30.6035 40.0918 30.8203 39.2891C31.0312 38.4922 30.5566 37.6719 29.7598 37.4551C29.625 37.4199 29.4902 37.4023 29.3555 37.4023ZM78.6855 37.4023C78.5332 37.3965 78.3867 37.4141 78.2402 37.4551C77.4375 37.666 76.9629 38.4863 77.1797 39.2891C77.3965 40.0918 78.2168 40.5664 79.0137 40.3496C79.8164 40.1328 80.291 39.3125 80.0801 38.5156C79.9043 37.877 79.3418 37.4258 78.6855 37.4023ZM18 44C17.1738 44 16.5 44.6738 16.5 45.5C16.5 46.3262 17.1738 47 18 47C18.8262 47 19.5 46.3262 19.5 45.5C19.5 44.6738 18.8262 44 18 44ZM28.5 44C27.6738 44 27 44.6738 27 45.5C27 46.3262 27.6738 47 28.5 47C29.3262 47 30 46.3262 30 45.5C30 44.6738 29.3262 44 28.5 44ZM79.5 44C78.6738 44 78 44.6738 78 45.5C78 46.3262 78.6738 47 79.5 47C80.3262 47 81 46.3262 81 45.5C81 44.6738 80.3262 44 79.5 44ZM90 44C89.1738 44 88.5 44.6738 88.5 45.5C88.5 46.3262 89.1738 47 90 47C90.8262 47 91.5 46.3262 91.5 45.5C91.5 44.6738 90.8262 44 90 44ZM29.4258 50.6035C29.2734 50.5977 29.127 50.6094 28.9805 50.6504C28.1777 50.8672 27.7031 51.6875 27.9199 52.4844C28.0195 52.8711 28.2715 53.1992 28.6172 53.3984C28.9629 53.5977 29.373 53.6562 29.7598 53.5508C30.1406 53.4453 30.4688 53.1934 30.668 52.8535C30.8672 52.5078 30.9199 52.0977 30.8203 51.7109C30.6445 51.0781 30.082 50.627 29.4258 50.6035ZM78.6152 50.6035C77.9414 50.6094 77.3555 51.0664 77.1797 51.7168C76.9688 52.5195 77.4434 53.3398 78.2402 53.5566C79.043 53.7676 79.8633 53.293 80.0801 52.4902C80.2969 51.6934 79.8223 50.873 79.0195 50.6562C78.8906 50.6211 78.7559 50.6035 78.6152 50.6035ZM31.8809 56.75C31.6289 56.7559 31.3828 56.8262 31.166 56.9492C30.4512 57.3652 30.1992 58.2793 30.6152 59C30.8145 59.3398 31.1426 59.5918 31.5293 59.6973C31.9102 59.8027 32.3203 59.75 32.666 59.5449C33.0117 59.3516 33.2637 59.0234 33.3633 58.6367C33.4688 58.25 33.416 57.8398 33.2109 57.5C32.9414 57.0254 32.4258 56.7383 31.8809 56.75ZM76.0078 56.7559C75.5039 56.7793 75.041 57.0605 74.7832 57.5C74.3672 58.2207 74.6133 59.1348 75.3281 59.5508C76.0488 59.9668 76.9629 59.7207 77.3789 59C77.7949 58.2852 77.5488 57.3711 76.8281 56.9551C76.582 56.8086 76.2949 56.7441 76.0078 56.7559ZM20.7539 57.7754C20.5547 57.7754 20.3555 57.8105 20.168 57.8926C19.4004 58.209 19.0371 59.082 19.3594 59.8496C19.6758 60.6172 20.5488 60.9805 21.3164 60.6641C22.0781 60.3418 22.4414 59.4688 22.125 58.7012C21.8965 58.1445 21.3574 57.7812 20.7539 57.7754ZM87.293 57.7754C86.6719 57.7637 86.1094 58.127 85.875 58.7012C85.5586 59.4688 85.9219 60.3418 86.6895 60.6641C87.4512 60.9805 88.3301 60.6172 88.6465 59.8496C88.9629 59.082 88.5996 58.209 87.8379 57.8926C87.6621 57.8164 87.4805 57.7812 87.293 57.7754ZM35.9883 62.0293C35.584 62.0293 35.1914 62.1875 34.9043 62.4688C34.3242 63.0547 34.3242 64.0098 34.9043 64.5957C35.4902 65.1758 36.4453 65.1758 37.0312 64.5957C37.3125 64.3086 37.4707 63.9277 37.4707 63.5293C37.4707 63.1309 37.3125 62.75 37.0312 62.4688C36.75 62.1934 36.3809 62.0352 35.9883 62.0293ZM72.0527 62.0293C71.6484 62.0234 71.2559 62.1816 70.9688 62.4688C70.3828 63.0547 70.3828 64.0098 70.9688 64.5957C71.5547 65.1758 72.5039 65.1758 73.0898 64.5957C73.3711 64.3086 73.5293 63.9277 73.5293 63.5293C73.5293 63.1309 73.3711 62.75 73.0898 62.4688C72.8145 62.1934 72.4395 62.0352 72.0527 62.0293ZM66.709 66.084C66.4629 66.0898 66.2168 66.1602 66 66.2832C65.2852 66.6992 65.0332 67.6133 65.4492 68.3281C65.6484 68.6738 65.9766 68.9258 66.3633 69.0312C66.7441 69.1367 67.1543 69.084 67.5 68.8848C67.8457 68.6855 68.0977 68.3574 68.1973 67.9707C68.3027 67.584 68.25 67.1738 68.0449 66.8281C67.7754 66.3594 67.2598 66.0723 66.709 66.084ZM41.1797 66.084C40.6699 66.1133 40.207 66.3945 39.9492 66.834C39.75 67.1797 39.6973 67.5898 39.7969 67.9707C39.9023 68.3574 40.1543 68.6855 40.5 68.8848C41.2148 69.3008 42.1348 69.0488 42.5449 68.334C42.9609 67.6191 42.7148 66.6992 42 66.2891C41.748 66.1426 41.4668 66.0723 41.1797 66.084ZM47.3848 68.6328C46.7109 68.6387 46.125 69.0898 45.9492 69.7402C45.7324 70.543 46.207 71.3633 47.0098 71.5801C47.8125 71.7969 48.6328 71.3223 48.8438 70.5195C49.0605 69.7168 48.5859 68.8965 47.7891 68.6797C47.6543 68.6504 47.5195 68.6328 47.3848 68.6328ZM60.6562 68.6328C60.5039 68.627 60.3574 68.6445 60.2109 68.6797C59.8242 68.7852 59.4961 69.0371 59.2969 69.3828C59.0977 69.7285 59.0449 70.1387 59.1504 70.5254C59.3672 71.3223 60.1875 71.7969 60.9844 71.5859C61.3711 71.4805 61.6992 71.2285 61.8984 70.8828C62.0977 70.5371 62.1504 70.127 62.0449 69.7402C61.875 69.1074 61.3125 68.6562 60.6562 68.6328ZM28.5645 69.4531C28.1602 69.4531 27.7676 69.6113 27.4863 69.8984C26.9004 70.4785 26.9004 71.4336 27.4863 72.0137C28.0664 72.5996 29.0215 72.5996 29.6016 72.0137C30.1875 71.4336 30.1875 70.4785 29.6016 69.8984C29.3262 69.6172 28.957 69.459 28.5645 69.4531ZM79.4766 69.4531C79.0723 69.4473 78.6797 69.6055 78.3926 69.8984C77.8066 70.4785 77.8066 71.4336 78.3926 72.0137C78.9785 72.5996 79.9277 72.5996 80.5137 72.0137C81.0996 71.4336 81.0996 70.4785 80.5137 69.8984C80.2383 69.6172 79.8691 69.4648 79.4766 69.4531ZM54 69.5C53.1738 69.5 52.5 70.1738 52.5 71C52.5 71.8262 53.1738 72.5 54 72.5C54.8262 72.5 55.5 71.8262 55.5 71C55.5 70.1738 54.8262 69.5 54 69.5ZM20.3496 72.2715V72.9043C20.3496 76.3379 23.1621 79.1504 26.5957 79.1504H31.5176L33.3984 83.6973C33.8086 84.6875 34.4648 85.4961 35.25 86.123L22.5 98.8789V84.5H8.12109L20.3496 72.2715ZM87.6504 72.2715L99.8789 84.5H85.5V98.8789L72.75 86.123C73.5352 85.4902 74.1914 84.6875 74.6016 83.6973L76.4824 79.1504H81.4043C84.8379 79.1504 87.6504 76.3379 87.6504 72.9043V72.2715ZM40.2598 77.2578C39.6387 77.2461 39.0762 77.6094 38.8359 78.1836C38.5195 78.9512 38.8828 79.8242 39.6504 80.1406C40.418 80.4629 41.291 80.0996 41.6074 79.332C41.9297 78.5645 41.5664 77.6914 40.7988 77.375C40.6289 77.2988 40.4414 77.2637 40.2598 77.2578ZM67.7871 77.2578C67.5879 77.2578 67.3887 77.293 67.2012 77.375C66.8379 77.5215 66.5449 77.8145 66.3926 78.1836C66.2402 78.5527 66.2402 78.9629 66.3926 79.332C66.709 80.0996 67.582 80.4629 68.3496 80.1406C68.7188 79.9941 69.0117 79.7012 69.1641 79.332C69.3164 78.9629 69.3164 78.5527 69.1641 78.1836C68.9355 77.627 68.3906 77.2637 67.7871 77.2578ZM54 80C53.1738 80 52.5 80.6738 52.5 81.5C52.5 82.3262 53.1738 83 54 83C54.8262 83 55.5 82.3262 55.5 81.5C55.5 80.6738 54.8262 80 54 80Z" fill="white"/>
</svg>
