<svg width="65" height="61" viewBox="0 0 65 61" fill="none" xmlns="http://www.w3.org/2000/svg">
<path d="M25 0V11.7812L17.9258 27H0.898438L2.70312 45.6445L4.08594 61H15V57H17.9062C19.3945 59.4414 22.0039 61 24.8945 61H52.3008C55.1172 61 57.6602 58.9531 57.9688 56.0938C58.1094 54.75 57.6367 53.582 56.9531 52.5625C59.2852 51.7422 61 49.6055 61 47C61 45.5781 60.3828 44.375 59.5508 43.3477C61.5703 42.3828 63 40.3789 63 38C63 36.5742 62.3789 35.3711 61.543 34.3398C63.6484 33.3359 65.1133 31.207 64.9922 28.7031C64.832 25.4414 61.9883 23 58.7812 23H35.8828C36.2383 21.1914 36.6094 19.2891 36.9023 17.5703C37.2578 15.4727 37.5156 13.7266 37.5156 12.6406C37.5117 9.6875 36.6758 6.63281 35.2305 4.23438C33.7812 1.83203 31.625 0 29 0H25ZM27 2H29C30.6797 2 32.2852 3.22656 33.5156 5.26562C34.7461 7.30469 35.5117 10.0742 35.5156 12.6406C35.5156 13.3633 35.2812 15.1719 34.9297 17.2344C34.5781 19.3008 34.1211 21.6836 33.6992 23.8008L33.457 25H58.7812C60.9766 25 62.8906 26.6602 62.9961 28.8008C63.0977 30.8789 61.6367 32.5859 59.6914 32.9258L57.3164 33.3438L59.293 34.7305C60.3242 35.457 61 36.6406 61 38C61 39.9805 59.5703 41.5977 57.6914 41.9258L55.3164 42.3438L57.293 43.7305C58.3242 44.457 59 45.6406 59 47C59 49.1484 57.332 50.8633 55.2109 50.9727L52.5508 51.1133L54.6445 52.7617C55.5625 53.4805 56.1172 54.5938 55.9805 55.8789C55.7891 57.6641 54.1523 59 52.3008 59H24.8945C22.5312 59 20.375 57.668 19.3164 55.5508L18.4219 57V55H15V29H19.2031L27 12.2188V2ZM3.10156 29H13V59H5.91406L4.69531 45.4609L3.10156 29ZM10 31C9.44922 31 9 31.4492 9 32C9 32.5508 9.44922 33 10 33C10.5508 33 11 32.5508 11 32C11 31.4492 10.5508 31 10 31ZM10 35C9.44922 35 9 35.4492 9 36C9 36.5508 9.44922 37 10 37C10.5508 37 11 36.5508 11 36C11 35.4492 10.5508 35 10 35ZM10 39C9.44922 39 9 39.4492 9 40C9 40.5508 9.44922 41 10 41C10.5508 41 11 40.5508 11 40C11 39.4492 10.5508 39 10 39ZM10 43C9.44922 43 9 43.4492 9 44C9 44.5508 9.44922 45 10 45C10.5508 45 11 44.5508 11 44C11 43.4492 10.5508 43 10 43ZM10 47C9.44922 47 9 47.4492 9 48C9 48.5508 9.44922 49 10 49C10.5508 49 11 48.5508 11 48C11 47.4492 10.5508 47 10 47ZM10 51C9.44922 51 9 51.4492 9 52C9 52.5508 9.44922 53 10 53C10.5508 53 11 52.5508 11 52C11 51.4492 10.5508 51 10 51ZM10 55C9.44922 55 9 55.4492 9 56C9 56.5508 9.44922 57 10 57C10.5508 57 11 56.5508 11 56C11 55.4492 10.5508 55 10 55Z" fill="#269944"/>
</svg>
