<svg width="56" height="62" viewBox="0 0 56 62" fill="none" xmlns="http://www.w3.org/2000/svg">
<path d="M6 0V2H0V60H6V62H56V14.5859L41.4141 0H6ZM8 2H40V16H54V60H8V2ZM42 3.41406L52.5859 14H42V3.41406ZM2 4H6V58H2V4ZM13 4C12.4492 4 12 4.44922 12 5C12 5.55078 12.4492 6 13 6C13.5508 6 14 5.55078 14 5C14 4.44922 13.5508 4 13 4ZM13 8C12.4492 8 12 8.44922 12 9C12 9.55078 12.4492 10 13 10C13.5508 10 14 9.55078 14 9C14 8.44922 13.5508 8 13 8ZM13 12C12.4492 12 12 12.4492 12 13C12 13.5508 12.4492 14 13 14C13.5508 14 14 13.5508 14 13C14 12.4492 13.5508 12 13 12ZM13 16C12.4492 16 12 16.4492 12 17C12 17.5508 12.4492 18 13 18C13.5508 18 14 17.5508 14 17C14 16.4492 13.5508 16 13 16ZM13 20C12.4492 20 12 20.4492 12 21C12 21.5508 12.4492 22 13 22C13.5508 22 14 21.5508 14 21C14 20.4492 13.5508 20 13 20ZM13 24C12.4492 24 12 24.4492 12 25C12 25.5508 12.4492 26 13 26C13.5508 26 14 25.5508 14 25C14 24.4492 13.5508 24 13 24ZM19 25V27H46V25H19ZM13 28C12.4492 28 12 28.4492 12 29C12 29.5508 12.4492 30 13 30C13.5508 30 14 29.5508 14 29C14 28.4492 13.5508 28 13 28ZM19 31V33H42V31H19ZM13 32C12.4492 32 12 32.4492 12 33C12 33.5508 12.4492 34 13 34C13.5508 34 14 33.5508 14 33C14 32.4492 13.5508 32 13 32ZM13 36C12.4492 36 12 36.4492 12 37C12 37.5508 12.4492 38 13 38C13.5508 38 14 37.5508 14 37C14 36.4492 13.5508 36 13 36ZM19 37V39H46V37H19ZM13 40C12.4492 40 12 40.4492 12 41C12 41.5508 12.4492 42 13 42C13.5508 42 14 41.5508 14 41C14 40.4492 13.5508 40 13 40ZM19 43V45H42V43H19ZM13 44C12.4492 44 12 44.4492 12 45C12 45.5508 12.4492 46 13 46C13.5508 46 14 45.5508 14 45C14 44.4492 13.5508 44 13 44ZM13 48C12.4492 48 12 48.4492 12 49C12 49.5508 12.4492 50 13 50C13.5508 50 14 49.5508 14 49C14 48.4492 13.5508 48 13 48ZM13 52C12.4492 52 12 52.4492 12 53C12 53.5508 12.4492 54 13 54C13.5508 54 14 53.5508 14 53C14 52.4492 13.5508 52 13 52ZM13 56C12.4492 56 12 56.4492 12 57C12 57.5508 12.4492 58 13 58C13.5508 58 14 57.5508 14 57C14 56.4492 13.5508 56 13 56Z" fill="#269944"/>
</svg>
