<svg width="69" height="75" viewBox="0 0 69 75" fill="none" xmlns="http://www.w3.org/2000/svg">
<path d="M32.3616 0.281051C31.2784 0.249192 30.2241 0.653733 29.362 1.29355C28.5017 1.93211 27.7702 2.78566 27.027 3.83429C26.4545 4.63576 25.8617 4.95487 24.8691 5.17902C23.8764 5.40317 22.5118 5.42265 20.8918 5.42265C19.0816 5.42265 17.7463 5.58503 16.6615 5.98269C15.7549 6.31499 14.961 6.95052 14.5637 7.78304C14.5373 7.83863 14.514 7.89567 14.4941 7.9539C14.493 7.95495 14.492 7.95601 14.4909 7.95706C14.4475 8.06772 14.3829 8.16893 14.3549 8.28613C14.0941 9.37685 14.4867 10.3076 14.9339 11.0357C15.3812 11.7638 15.9558 12.3789 16.5539 12.931C17.244 13.6147 18.6669 14.8402 20.028 17C21.2781 18.9834 22.1908 21.6619 22.1132 24.8848C16.7368 26.5187 11.6144 30.4064 7.67238 35.4021C3.40189 40.8143 0.480469 47.4453 0.480469 53.8613C0.480469 61.7797 2.94671 67.4188 8.56781 70.6181C14.1889 73.8175 22.5016 74.7599 34.5005 74.7599C46.4993 74.7599 54.812 73.8175 60.4331 70.6181C66.0542 67.4188 68.5205 61.7797 68.5205 53.8613C68.5205 41.6176 58.9256 30.3951 47.875 25.5018C48.6451 25.3978 49.4475 25.3274 50.2923 25.3499C53.0168 25.4226 55.9229 26.2397 58.4334 28.8937C58.5797 29.0483 58.755 29.1726 58.9492 29.2595C59.1435 29.3464 59.3531 29.3942 59.5658 29.4001C59.7786 29.406 59.9904 29.3699 60.1892 29.2939C60.388 29.218 60.5699 29.1036 60.7245 28.9573C60.8791 28.811 61.0034 28.6357 61.0902 28.4414C61.1771 28.247 61.2248 28.0375 61.2306 27.8248C61.2365 27.612 61.2004 27.4002 61.1243 27.2014C61.0483 27.0026 60.9338 26.8207 60.7875 26.6662C57.7938 23.5014 54.1573 22.4115 50.9314 22.2207C53.6188 21.0554 56.7351 20.6799 60.4521 22.7206C60.639 22.8272 60.8452 22.8956 61.0587 22.9217C61.2723 22.9478 61.4889 22.9311 61.6959 22.8725C61.9029 22.814 62.0962 22.7149 62.2645 22.5808C62.4328 22.4468 62.5727 22.2806 62.6761 22.0919C62.7795 21.9033 62.8442 21.6959 62.8666 21.4819C62.889 21.268 62.8685 21.0517 62.8064 20.8457C62.7443 20.6397 62.6417 20.4482 62.5048 20.2822C62.3679 20.1163 62.1993 19.9793 62.0088 19.8792C59.7279 18.627 57.5436 18.1342 55.5035 18.1232C50.8869 18.0983 47.0361 20.5286 44.5021 22.2523C44.1323 16.3496 47.4955 11.6595 47.9161 11.1338L47.9699 11.0642L48.0173 10.9914C48.5792 10.1084 49.4799 8.84221 49.862 7.34324C50.053 6.59375 50.1414 5.58239 49.4886 4.68226C48.8359 3.78214 47.7305 3.47992 46.6505 3.47992C44.6255 3.47992 42.8157 4.14893 41.3538 4.41964C39.892 4.69036 39.1299 4.68587 38.3986 3.95453C36.2873 1.76207 34.5195 0.344519 32.3616 0.281051ZM32.2666 3.52105C32.8543 3.53833 34.1579 4.21829 36.0857 6.22316L36.0983 6.23265L36.1078 6.24531C37.8064 7.94397 40.1237 7.93948 41.9423 7.60269C43.3284 7.34602 44.6208 6.97536 45.6981 6.81167C45.716 6.92419 45.7278 6.93135 45.5842 7.15656C45.437 7.38724 45.0849 7.76694 44.5527 8.21652C43.4884 9.11568 41.7662 10.2969 39.892 12.0007L39.8889 12.0039L39.8857 12.0071C39.1225 12.7067 38.2053 13.1434 37.5 13.2316C36.7947 13.3197 36.3728 13.2065 35.9085 12.6494C35.0793 11.6063 34.2988 10.8286 33.4247 10.2985C32.5409 9.76254 31.4951 9.52469 30.5422 9.67515C28.6394 9.9756 27.4133 11.2749 25.9417 12.6652C25.1068 13.4479 24.1087 13.6616 22.5973 13.0227C21.3162 12.4812 19.7539 11.1444 18.2467 8.92527C18.8133 8.78728 19.6262 8.66265 20.8918 8.66265C22.5118 8.66265 24.0658 8.68277 25.5841 8.33992C27.1025 7.99706 28.6151 7.18344 29.6626 5.71691L29.6658 5.71375C30.298 4.82122 30.8613 4.21647 31.2953 3.89441C31.7292 3.57235 31.9728 3.51241 32.2666 3.52105ZM31.0485 12.8772C31.2498 12.8454 31.3678 12.8417 31.7446 13.0702C32.1214 13.2987 32.6937 13.8067 33.393 14.6902L33.4057 14.706L33.4184 14.7218C34.5741 16.1087 36.3392 16.6416 37.9018 16.4462C39.4645 16.2509 40.8944 15.4752 42.0752 14.3928C42.2646 14.2208 42.4358 14.1017 42.6226 13.9403C41.5164 16.5996 40.6526 20.1259 41.3348 24.1666C33.751 27.8475 27.722 25.8325 25.4861 24.7962C25.5445 21.5272 24.6529 18.7433 23.4927 16.5412C25.2276 16.697 26.9152 16.1925 28.1565 15.0287H28.1597V15.0256C29.601 13.6643 30.6458 12.9408 31.0485 12.8772ZM42.939 26.9541C54.16 30.2071 65.2805 42.0941 65.2805 53.8613C65.2805 61.1708 63.4543 65.1695 58.8289 67.8021C54.2036 70.4348 46.3156 71.5199 34.5005 71.5199C22.6853 71.5199 14.7974 70.4348 10.172 67.8021C5.5466 65.1695 3.72047 61.1708 3.72047 53.8613C3.72047 48.4513 6.30579 42.3672 10.2163 37.4113C14.0818 32.5125 19.2199 28.7731 23.9989 27.628C26.7406 28.8397 34.1827 31.2621 42.939 26.9541ZM28.0205 35.8799C27.5908 35.88 27.1788 36.0506 26.875 36.3544C26.5712 36.6582 26.4005 37.0703 26.4005 37.4999V48.8399H23.1605C22.9458 48.8369 22.7327 48.8765 22.5335 48.9566C22.3343 49.0366 22.1529 49.1555 22.0001 49.3062C21.8472 49.4569 21.7258 49.6366 21.6429 49.8346C21.5601 50.0327 21.5174 50.2452 21.5174 50.4599C21.5174 50.6746 21.5601 50.8871 21.6429 51.0852C21.7258 51.2833 21.8472 51.4629 22.0001 51.6136C22.1529 51.7643 22.3343 51.8832 22.5335 51.9632C22.7327 52.0433 22.9458 52.0829 23.1605 52.0799H26.4005V55.3199H23.1605C22.9458 55.3169 22.7327 55.3565 22.5335 55.4366C22.3343 55.5166 22.1529 55.6355 22.0001 55.7862C21.8472 55.9369 21.7258 56.1165 21.6429 56.3146C21.5601 56.5127 21.5174 56.7252 21.5174 56.9399C21.5174 57.1546 21.5601 57.3671 21.6429 57.5652C21.7258 57.7633 21.8472 57.9429 22.0001 58.0936C22.1529 58.2443 22.3343 58.3632 22.5335 58.4432C22.7327 58.5233 22.9458 58.5629 23.1605 58.5599H26.4005V63.4199C26.3974 63.6346 26.4371 63.8477 26.5171 64.0469C26.5972 64.2461 26.716 64.4274 26.8668 64.5803C27.0175 64.7332 27.1971 64.8546 27.3952 64.9374C27.5932 65.0203 27.8058 65.063 28.0205 65.063C28.2352 65.063 28.4477 65.0203 28.6458 64.9374C28.8438 64.8546 29.0234 64.7332 29.1742 64.5803C29.3249 64.4274 29.4437 64.2461 29.5238 64.0469C29.6038 63.8477 29.6435 63.6346 29.6405 63.4199V58.5599H36.1205C36.3351 58.5629 36.5483 58.5233 36.7475 58.4432C36.9467 58.3632 37.128 58.2443 37.2809 58.0936C37.4338 57.9429 37.5552 57.7633 37.638 57.5652C37.7209 57.3671 37.7635 57.1546 37.7635 56.9399C37.7635 56.7252 37.7209 56.5127 37.638 56.3146C37.5552 56.1165 37.4338 55.9369 37.2809 55.7862C37.128 55.6355 36.9467 55.5166 36.7475 55.4366C36.5483 55.3565 36.3351 55.3169 36.1205 55.3199H29.6405V52.0799H37.7405C42.1947 52.0799 45.8405 48.4341 45.8405 43.9799C45.8405 39.5257 42.1947 35.8799 37.7405 35.8799H28.0205ZM29.6405 39.1199H37.7405C40.4434 39.1199 42.6005 41.277 42.6005 43.9799C42.6005 46.6828 40.4434 48.8399 37.7405 48.8399H29.6405V39.1199Z" fill="black"/>
</svg>
