<svg width="68" height="68" viewBox="0 0 68 68" fill="none" xmlns="http://www.w3.org/2000/svg">
<path d="M34 0.84375L33.5 1.13281L26.3086 5.28516H17.4219L12.9805 12.9805L5.28516 17.4219V26.3086L0.84375 34L5.28516 41.6914V50.5781L12.9805 55.0195L17.4219 62.7148H26.3086L34 67.1562L41.6914 62.7148H50.5781L55.0195 55.0195L62.7148 50.5781V41.6914L67.1562 34L62.7148 26.3086V17.4219L55.0195 12.9805L50.5781 5.28516H41.6914L34 0.84375ZM34 3.15625L41.1562 7.28516H49.4219L53.5547 14.4453L60.7148 18.5781V26.8438L64.8438 34L60.7148 41.1562V49.4219L53.5547 53.5547L49.4219 60.7148H41.1562L34 64.8438L26.8438 60.7148H18.5781L14.4453 53.5547L7.28516 49.4219V41.1562L3.15625 34L7.28516 26.8438V18.5781L14.4453 14.4453L18.5781 7.28516H26.8438L34 3.15625ZM34 6C33.4492 6 33 6.44922 33 7C33 7.55078 33.4492 8 34 8C34.5508 8 35 7.55078 35 7C35 6.44922 34.5508 6 34 6ZM20.4766 9.61719C20.3086 9.62109 20.1445 9.66797 20 9.75C19.7695 9.88281 19.6016 10.1016 19.5312 10.3594C19.4648 10.6133 19.5 10.8867 19.6328 11.1172C19.7656 11.3477 19.9844 11.5156 20.2422 11.582C20.4961 11.6523 20.7695 11.6172 21 11.4844C21.4766 11.207 21.6406 10.5937 21.3633 10.1172C21.1836 9.80078 20.8438 9.60938 20.4766 9.61719ZM47.4531 9.62109C47.1133 9.63672 46.8047 9.82422 46.6328 10.1211C46.3555 10.5977 46.5234 11.207 47 11.4844C47.4766 11.7617 48.0898 11.5977 48.3633 11.1211C48.5 10.8906 48.5352 10.6172 48.4648 10.3594C48.3984 10.1016 48.2305 9.88281 48 9.75C47.8359 9.65625 47.6445 9.60938 47.4531 9.62109ZM34 10C33.4492 10 33 10.4492 33 11C33 11.5508 33.4492 12 34 12C34.5508 12 35 11.5508 35 11C35 10.4492 34.5508 10 34 10ZM29.5156 10.4414C29.4492 10.4414 29.3828 10.4492 29.3164 10.4609C28.7773 10.5703 28.4258 11.0938 28.5312 11.6367C28.6406 12.1797 29.168 12.5312 29.707 12.4219C30.25 12.3125 30.6016 11.7891 30.4961 11.2461C30.4023 10.7812 29.9922 10.4453 29.5156 10.4414ZM38.5156 10.4414C38.0273 10.4297 37.6016 10.7695 37.5078 11.2461C37.3984 11.7891 37.75 12.3125 38.293 12.4219C38.8359 12.5312 39.3594 12.1797 39.4688 11.6367C39.5781 11.0938 39.2266 10.5703 38.6836 10.4609C38.6289 10.4492 38.5703 10.4414 38.5156 10.4414ZM42.8242 11.75C42.4102 11.7383 42.0352 11.9844 41.875 12.3633C41.7773 12.6094 41.7773 12.8867 41.8789 13.1328C41.9805 13.375 42.1758 13.5703 42.4219 13.6719C42.9297 13.8828 43.5117 13.6406 43.7227 13.1289C43.9375 12.6211 43.6953 12.0352 43.1836 11.8242C43.0703 11.7773 42.9492 11.75 42.8242 11.75ZM25.2031 11.75C25.0703 11.75 24.9414 11.7734 24.8164 11.8281C24.3047 12.0391 24.0625 12.6211 24.2773 13.1328C24.4883 13.6406 25.0703 13.8828 25.5781 13.6719C25.8242 13.5742 26.0195 13.3789 26.1211 13.1328C26.2227 12.8867 26.2227 12.6133 26.125 12.3672C25.9688 11.9961 25.6055 11.7539 25.2031 11.75ZM21.2344 13.875C21.0312 13.8711 20.832 13.9297 20.668 14.043C20.207 14.3516 20.082 14.9687 20.3906 15.4297C20.6953 15.8906 21.3164 16.0117 21.7773 15.707C22 15.5586 22.1523 15.332 22.2031 15.0703C22.2539 14.8086 22.1992 14.5391 22.0508 14.3164C21.8711 14.043 21.5625 13.8789 21.2344 13.875ZM46.7969 13.875C46.457 13.8672 46.1367 14.0352 45.9492 14.3164C45.6406 14.7773 45.7656 15.3984 46.2227 15.7031C46.6836 16.0117 47.3008 15.8867 47.6094 15.4297C47.918 14.9687 47.793 14.3516 47.332 14.043C47.1758 13.9375 46.9883 13.8789 46.7969 13.875ZM17.75 16.7344C17.4805 16.7305 17.2188 16.8359 17.0312 17.0312C16.6406 17.418 16.6406 18.0547 17.0312 18.4414C17.418 18.832 18.0547 18.832 18.4414 18.4414C18.832 18.0547 18.832 17.418 18.4414 17.0312C18.2578 16.8438 18.0117 16.7422 17.75 16.7344ZM50.2773 16.7344C50.0078 16.7344 49.7461 16.8398 49.5586 17.0312C49.168 17.418 49.168 18.0547 49.5586 18.4414C49.9453 18.832 50.582 18.832 50.9688 18.4414C51.3594 18.0547 51.3594 17.418 50.9688 17.0312C50.7852 16.8438 50.5391 16.7383 50.2773 16.7344ZM57.3594 19.5C57.1914 19.5039 57.0273 19.5508 56.8789 19.6328C56.4023 19.9102 56.2383 20.5195 56.5156 21C56.793 21.4766 57.4023 21.6406 57.8789 21.3633C58.1094 21.2344 58.2773 21.0156 58.3477 20.7578C58.418 20.5 58.3828 20.2266 58.25 20C58.0664 19.6836 57.7227 19.4922 57.3594 19.5ZM10.5703 19.5C10.2305 19.5156 9.92188 19.7031 9.75 20C9.47266 20.4766 9.64062 21.0898 10.1172 21.3633C10.5937 21.6406 11.207 21.4766 11.4844 21C11.7578 20.5234 11.5937 19.9102 11.1172 19.6367C10.9531 19.5391 10.7617 19.4922 10.5703 19.5ZM53.1367 20.2188C52.9336 20.2188 52.7344 20.2773 52.5664 20.3906C52.1094 20.6953 51.9844 21.3164 52.293 21.7773C52.6016 22.2344 53.2188 22.3594 53.6797 22.0508C54.1367 21.7422 54.2617 21.125 53.9531 20.6641C53.7734 20.3906 53.4648 20.2227 53.1367 20.2188ZM14.8945 20.2188C14.5547 20.2148 14.2344 20.3828 14.0469 20.668C13.7383 21.125 13.8633 21.7461 14.3242 22.0508C14.7812 22.3594 15.4023 22.2344 15.707 21.7773C15.8555 21.5586 15.9102 21.2852 15.8594 21.0273C15.8086 20.7656 15.6562 20.5352 15.4336 20.3906C15.2734 20.2812 15.0898 20.2227 14.8945 20.2188ZM44.3945 23.5859L31.3555 36.625L25.293 31.0977L21.0977 35.9414L31.6445 45.375L48.9141 28.1055L44.3945 23.5859ZM12.7695 24.1992C12.3594 24.1875 11.9844 24.4336 11.8281 24.8125C11.6133 25.3242 11.8555 25.9102 12.3672 26.1211C12.8789 26.332 13.4609 26.0898 13.6719 25.5781C13.8867 25.0703 13.6445 24.4844 13.1328 24.2734C13.0195 24.2266 12.8945 24.1992 12.7695 24.1992ZM55.2539 24.1992C55.1211 24.1953 54.9922 24.2227 54.8672 24.2734C54.3555 24.4844 54.1133 25.0703 54.3281 25.5781C54.5391 26.0898 55.1211 26.332 55.6328 26.1211C56.1445 25.9102 56.3867 25.3242 56.1719 24.8125C56.0195 24.4414 55.6562 24.1992 55.2539 24.1992ZM44.3945 26.4141L46.0859 28.1055L31.5664 42.625L23.9023 35.7656L25.4648 33.9609L31.4219 39.3906L44.3945 26.4141ZM11.4688 28.5156C10.9805 28.5 10.5547 28.8398 10.4609 29.3164C10.3516 29.8594 10.7031 30.3867 11.2461 30.4961C11.7891 30.6016 12.3125 30.25 12.4219 29.707C12.4727 29.4492 12.4219 29.1797 12.2734 28.957C12.125 28.7383 11.8984 28.582 11.6367 28.5312C11.582 28.5195 11.5234 28.5156 11.4688 28.5156ZM56.5625 28.5156C56.4961 28.5117 56.4297 28.5195 56.3633 28.5312C56.1055 28.582 55.875 28.7344 55.7266 28.957C55.582 29.1758 55.5273 29.4453 55.5781 29.707C55.6289 29.9688 55.7812 30.1953 56.0039 30.3438C56.2227 30.4922 56.4922 30.5469 56.7539 30.4961C57.0156 30.4414 57.2422 30.2891 57.3906 30.0703C57.5391 29.8477 57.5938 29.5781 57.543 29.3164C57.4492 28.8516 57.0391 28.5156 56.5625 28.5156ZM7 33C6.44922 33 6 33.4492 6 34C6 34.5508 6.44922 35 7 35C7.55078 35 8 34.5508 8 34C8 33.4492 7.55078 33 7 33ZM11 33C10.4492 33 10 33.4492 10 34C10 34.5508 10.4492 35 11 35C11.5508 35 12 34.5508 12 34C12 33.4492 11.5508 33 11 33ZM57 33C56.4492 33 56 33.4492 56 34C56 34.5508 56.4492 35 57 35C57.5508 35 58 34.5508 58 34C58 33.4492 57.5508 33 57 33ZM61 33C60.4492 33 60 33.4492 60 34C60 34.5508 60.4492 35 61 35C61.5508 35 62 34.5508 62 34C62 33.4492 61.5508 33 61 33ZM56.582 37.4844C56.0977 37.4727 55.6719 37.8125 55.5781 38.293C55.4688 38.832 55.8203 39.3594 56.3633 39.4688C56.9062 39.5742 57.4297 39.2227 57.5391 38.6836C57.6484 38.1406 57.2969 37.6133 56.7539 37.5039C56.6992 37.4961 56.6406 37.4883 56.582 37.4844ZM11.4492 37.4883C11.3789 37.4883 11.3125 37.4922 11.25 37.5039C10.9883 37.5586 10.7578 37.7109 10.6094 37.9297C10.4648 38.1523 10.4102 38.4219 10.4609 38.6836C10.5117 38.9414 10.6641 39.1719 10.8867 39.3203C11.1055 39.4648 11.375 39.5195 11.6367 39.4688C11.8984 39.418 12.125 39.2656 12.2734 39.043C12.4219 38.8242 12.4766 38.5547 12.4219 38.293C12.332 37.8281 11.9219 37.4922 11.4492 37.4883ZM12.7617 41.8008C12.625 41.8008 12.4922 41.8242 12.3711 41.875C11.8594 42.0898 11.6172 42.6719 11.8281 43.1836C12.0391 43.6953 12.625 43.9375 13.1367 43.7227C13.6445 43.5117 13.8867 42.9297 13.6758 42.418C13.5234 42.0469 13.1602 41.8047 12.7617 41.8008ZM55.2695 41.8008C54.8594 41.793 54.4844 42.0352 54.3281 42.418C54.1133 42.9297 54.3555 43.5117 54.8672 43.7227C55.1133 43.8242 55.3867 43.8242 55.6328 43.7227C55.8789 43.6211 56.0742 43.4258 56.1719 43.1836C56.3867 42.6719 56.1445 42.0859 55.6328 41.875C55.5195 41.8281 55.3945 41.8047 55.2695 41.8008ZM53.1406 45.7773C52.8008 45.7695 52.4805 45.9375 52.293 46.2188C51.9844 46.6797 52.1094 47.3008 52.5664 47.6094C52.7891 47.7539 53.0586 47.8086 53.3203 47.7578C53.582 47.7031 53.8086 47.5508 53.957 47.3281C54.2617 46.8711 54.1406 46.25 53.6797 45.9414C53.5195 45.8359 53.3359 45.7773 53.1406 45.7773ZM14.8906 45.7773C14.6875 45.7734 14.4883 45.832 14.3242 45.9453C13.8633 46.2539 13.7383 46.8711 14.0469 47.332C14.3516 47.793 14.9727 47.9141 15.4336 47.6094C15.6562 47.4609 15.8086 47.2344 15.8594 46.9727C15.9102 46.7109 15.8555 46.4414 15.707 46.2188C15.5273 45.9453 15.2188 45.7812 14.8906 45.7773ZM10.5938 46.5C10.4258 46.5039 10.2617 46.5508 10.1172 46.6328C9.64062 46.9102 9.47266 47.5195 9.75 48C9.88281 48.2266 10.1016 48.3945 10.3594 48.4648C10.6133 48.5352 10.8867 48.5 11.1172 48.3633C11.3477 48.2344 11.5156 48.0156 11.582 47.7578C11.6523 47.5 11.6172 47.2266 11.4844 47C11.3008 46.6836 10.957 46.4922 10.5938 46.5ZM57.332 46.5C56.9922 46.5195 56.6836 46.707 56.5156 47C56.2383 47.4805 56.4023 48.0898 56.8789 48.3672C57.1094 48.5 57.3828 48.5352 57.6406 48.4688C57.8984 48.3984 58.1172 48.2305 58.25 48C58.3828 47.7734 58.418 47.5 58.3477 47.2422C58.2773 46.9844 58.1094 46.7656 57.8789 46.6367C57.7148 46.5391 57.5234 46.4922 57.332 46.5ZM17.75 49.2617C17.4805 49.2578 17.2188 49.3633 17.0312 49.5547C16.6406 49.9453 16.6406 50.5781 17.0312 50.9688C17.418 51.3594 18.0547 51.3594 18.4414 50.9688C18.832 50.5781 18.832 49.9453 18.4414 49.5547C18.2578 49.3711 18.0117 49.2656 17.75 49.2617ZM50.2773 49.2656C50.0078 49.2578 49.7461 49.3633 49.5547 49.5586C49.1641 49.9453 49.1641 50.582 49.5547 50.9688C49.9453 51.3594 50.5781 51.3594 50.9688 50.9688C51.3594 50.582 51.3594 49.9453 50.9688 49.5586C50.7852 49.3711 50.5391 49.2695 50.2773 49.2656ZM46.793 52.1211C46.5898 52.1211 46.3906 52.1797 46.2227 52.293C45.7656 52.5977 45.6406 53.2188 45.9492 53.6758C46.2578 54.1367 46.875 54.2617 47.3359 53.9531C47.793 53.6445 47.918 53.0273 47.6094 52.5664C47.4297 52.293 47.1211 52.125 46.793 52.1211ZM21.2422 52.125C20.9023 52.1172 20.582 52.2852 20.3906 52.5664C20.0859 53.0273 20.2109 53.6445 20.668 53.9531C21.1289 54.2617 21.7461 54.1367 22.0547 53.6758C22.3633 53.2188 22.2383 52.5977 21.7812 52.293C21.6211 52.1836 21.4336 52.125 21.2422 52.125ZM25.2188 54.25C24.8086 54.2383 24.4336 54.4844 24.2773 54.8633C24.0625 55.375 24.3047 55.9609 24.8164 56.1719C25.3281 56.3828 25.9102 56.1406 26.125 55.6289C26.3359 55.1211 26.0938 54.5352 25.582 54.3242C25.4688 54.2773 25.3438 54.25 25.2188 54.25ZM42.8125 54.25C42.6758 54.2461 42.543 54.2734 42.4219 54.3242C41.9102 54.5352 41.668 55.1211 41.8789 55.6289C42.0898 56.1406 42.6758 56.3828 43.1875 56.1719C43.6953 55.9609 43.9375 55.375 43.7266 54.8633C43.5742 54.4961 43.2109 54.25 42.8125 54.25ZM29.543 55.5586C29.0547 55.5469 28.6289 55.8867 28.5312 56.3633C28.4805 56.625 28.5352 56.8945 28.6836 57.1133C28.832 57.3359 29.0586 57.4883 29.3203 57.5391C29.8633 57.6484 30.3867 57.2969 30.4961 56.7539C30.5469 56.4922 30.4922 56.2227 30.3477 56.0039C30.1992 55.7812 29.9688 55.6289 29.707 55.5781C29.6523 55.5664 29.5977 55.5586 29.543 55.5586ZM38.4922 55.5586C38.4258 55.5586 38.3594 55.5664 38.293 55.5781C37.75 55.6875 37.3984 56.2109 37.5078 56.7539C37.6172 57.2969 38.1406 57.6484 38.6836 57.5391C39.2266 57.4297 39.5781 56.9062 39.4688 56.3633C39.375 55.8984 38.9688 55.5625 38.4922 55.5586ZM34 56C33.4492 56 33 56.4492 33 57C33 57.5508 33.4492 58 34 58C34.5508 58 35 57.5508 35 57C35 56.4492 34.5508 56 34 56ZM47.4727 56.3789C47.3086 56.3867 47.1445 56.4297 47 56.5156C46.5195 56.793 46.3555 57.4023 46.6328 57.8789C46.9102 58.3594 47.5195 58.5234 48 58.25C48.2266 58.1172 48.3945 57.8984 48.4648 57.6406C48.5352 57.3828 48.5 57.1094 48.3633 56.8789C48.1836 56.5625 47.8398 56.3711 47.4727 56.3789ZM20.4531 56.3867C20.1133 56.4023 19.8047 56.5898 19.6328 56.8828C19.5 57.1133 19.4648 57.3867 19.5312 57.6406C19.6016 57.8984 19.7695 58.1172 20 58.25C20.4766 58.5273 21.0898 58.3594 21.3633 57.8828C21.6406 57.4062 21.4766 56.793 21 56.5156C20.832 56.4219 20.6445 56.375 20.4531 56.3867ZM34 60C33.4492 60 33 60.4492 33 61C33 61.5508 33.4492 62 34 62C34.5508 62 35 61.5508 35 61C35 60.4492 34.5508 60 34 60Z" fill="white"/>
</svg>
