<svg width="50" height="48" viewBox="0 0 50 48" fill="none" xmlns="http://www.w3.org/2000/svg">
<path d="M24.9629 0.028033C24.7528 0.0358331 24.5505 0.109641 24.3848 0.238971L1.38476 18.1862C1.27761 18.2657 1.18744 18.3658 1.11957 18.4807C1.0517 18.5955 1.00749 18.7228 0.989552 18.855C0.971613 18.9872 0.980304 19.1216 1.01511 19.2504C1.04992 19.3792 1.11015 19.4997 1.19224 19.6049C1.27434 19.7101 1.37664 19.7977 1.49313 19.8628C1.60962 19.9278 1.73795 19.9688 1.87054 19.9835C2.00314 19.9982 2.13734 19.9862 2.26523 19.9482C2.39312 19.9102 2.51212 19.8471 2.61523 19.7624L3.99999 18.6823V44.9753C3.99999 45.5283 4.44799 45.9753 4.99999 45.9753H31.0508C30.5098 45.3683 30.0272 44.7087 29.6172 44.0007H20V26.9753H30V31.3718C30.565 30.5208 31.242 29.7549 32 29.0749V25.0007H18V44.0007H5.99999V17.1218L25 2.29561L44 17.1218V26.698C44.699 26.945 45.367 27.2519 46 27.6179V18.6823L47.3848 19.7624C47.4879 19.8471 47.6069 19.9102 47.7348 19.9482C47.8626 19.9862 47.9968 19.9982 48.1294 19.9835C48.262 19.9688 48.3904 19.9278 48.5069 19.8628C48.6233 19.7977 48.7257 19.7101 48.8077 19.6049C48.8898 19.4998 48.9501 19.3792 48.9849 19.2504C49.0197 19.1217 49.0284 18.9872 49.0104 18.855C48.9925 18.7228 48.9483 18.5955 48.8804 18.4807C48.8125 18.3658 48.7224 18.2657 48.6152 18.1862L41 12.2448V5.00069H35V7.56124L25.6152 0.238971C25.4294 0.0939927 25.1984 0.0192877 24.9629 0.028033ZM37 6.9753H39V10.6843L37 9.12178V6.9753ZM40 28.0007C34.5 28.0007 30 32.5007 30 38.0007C30 43.5007 34.5 48.0007 40 48.0007C45.5 48.0007 50 43.5007 50 38.0007C50 32.5007 45.5 28.0007 40 28.0007ZM40 30.0007C44.4 30.0007 48 33.6007 48 38.0007C48 42.4007 44.4 46.0007 40 46.0007C35.6 46.0007 32 42.4007 32 38.0007C32 33.6007 35.6 30.0007 40 30.0007ZM44.3008 33.4011L38.9004 39.6999L35.5996 37.1999L34.4004 38.8015L39.0996 42.4011L45.8008 34.6999L44.3008 33.4011Z" fill="white"/>
</svg>
