<svg width="100" height="100" viewBox="0 0 100 100" fill="none" xmlns="http://www.w3.org/2000/svg">
<path d="M50 0.265625L49.25 0.699219L38.4629 6.92773H25.1328L18.4707 18.4707L6.92773 25.1328V38.4629L0.265625 50L6.92773 61.5371V74.8672L18.4707 81.5293L25.1328 93.0723H38.4629L50 99.7344L61.5371 93.0723H74.8672L81.5293 81.5293L93.0723 74.8672V61.5371L99.7344 50L93.0723 38.4629V25.1328L81.5293 18.4707L74.8672 6.92773H61.5371L50 0.265625ZM50 3.73438L60.7344 9.92773H73.1328L79.332 20.668L90.0723 26.8672V39.2656L96.2656 50L90.0723 60.7344V73.1328L79.332 79.332L73.1328 90.0723H60.7344L50 96.2656L39.2656 90.0723H26.8672L20.668 79.332L9.92773 73.1328V60.7344L3.73438 50L9.92773 39.2656V26.8672L20.668 20.668L26.8672 9.92773H39.2656L50 3.73438ZM50 8C49.1738 8 48.5 8.67383 48.5 9.5C48.5 10.3262 49.1738 11 50 11C50.8262 11 51.5 10.3262 51.5 9.5C51.5 8.67383 50.8262 8 50 8ZM29.7148 13.4258C29.4629 13.4316 29.2168 13.502 29 13.625C28.6543 13.8242 28.4023 14.1523 28.2969 14.5391C28.1973 14.9199 28.25 15.3301 28.4492 15.6758C28.6484 16.0215 28.9766 16.2734 29.3633 16.373C29.7441 16.4785 30.1543 16.4258 30.5 16.2266C31.2148 15.8105 31.4609 14.8906 31.0449 14.1758C30.7754 13.7012 30.2656 13.4141 29.7148 13.4258ZM70.1797 13.4316C69.6699 13.4551 69.207 13.7363 68.9492 14.1816C68.5332 14.8965 68.7852 15.8105 69.5 16.2266C70.2148 16.6426 71.1348 16.3965 71.5449 15.6816C71.75 15.3359 71.8027 14.9258 71.6973 14.5391C71.5977 14.1523 71.3457 13.8242 71 13.625C70.7539 13.4844 70.4668 13.4141 70.1797 13.4316ZM50 14C49.1738 14 48.5 14.6738 48.5 15.5C48.5 16.3262 49.1738 17 50 17C50.8262 17 51.5 16.3262 51.5 15.5C51.5 14.6738 50.8262 14 50 14ZM43.2734 14.6621C43.1738 14.6621 43.0742 14.6738 42.9746 14.6914C42.166 14.8555 41.6387 15.6406 41.7969 16.4551C41.9609 17.2695 42.752 17.7969 43.5605 17.6328C44.375 17.4688 44.9023 16.6836 44.7441 15.8691C44.6035 15.1719 43.9883 14.668 43.2734 14.6621ZM56.7734 14.6621C56.041 14.6445 55.4023 15.1543 55.2617 15.8691C55.0977 16.6836 55.625 17.4688 56.4395 17.6328C57.2539 17.7969 58.0391 17.2695 58.2031 16.4551C58.3672 15.6406 57.8398 14.8555 57.0254 14.6914C56.9434 14.6738 56.8555 14.6621 56.7734 14.6621ZM63.2363 16.625C62.6152 16.6074 62.0527 16.9766 61.8125 17.5449C61.666 17.9141 61.666 18.3301 61.8184 18.6992C61.9707 19.0625 62.2637 19.3555 62.6328 19.5078C63.3945 19.8242 64.2676 19.4609 64.584 18.6934C64.9062 17.9316 64.543 17.0527 63.7754 16.7363C63.6055 16.666 63.4238 16.625 63.2363 16.625ZM36.8047 16.625C36.6055 16.625 36.4121 16.6602 36.2246 16.7422C35.457 17.0586 35.0938 17.9316 35.416 18.6992C35.7324 19.4609 36.6055 19.8242 37.3672 19.5078C37.7363 19.3613 38.0293 19.0684 38.1816 18.6992C38.334 18.3301 38.334 17.9199 38.1875 17.5508C37.9531 16.9941 37.4082 16.6309 36.8047 16.625ZM30.8516 19.8125C30.5469 19.8066 30.248 19.8945 30.002 20.0645C29.3105 20.5273 29.123 21.4531 29.5859 22.1445C30.043 22.8359 30.9746 23.0176 31.666 22.5605C32 22.3379 32.2285 21.998 32.3047 21.6055C32.3809 21.2129 32.2988 20.8086 32.0762 20.4746C31.8066 20.0645 31.3438 19.8184 30.8516 19.8125ZM69.1953 19.8125C68.6855 19.8008 68.2051 20.0527 67.9238 20.4746C67.4609 21.166 67.6484 22.0977 68.334 22.5547C69.0254 23.0176 69.9512 22.8301 70.4141 22.1445C70.877 21.4531 70.6895 20.5273 69.998 20.0645C69.7637 19.9062 69.4824 19.8184 69.1953 19.8125ZM25.625 24.1016C25.2207 24.0957 24.8281 24.2539 24.5469 24.5469C23.9609 25.127 23.9609 26.082 24.5469 26.6621C25.127 27.248 26.082 27.248 26.6621 26.6621C27.248 26.082 27.248 25.127 26.6621 24.5469C26.3867 24.2656 26.0176 24.1133 25.625 24.1016ZM74.416 24.1016C74.0117 24.1016 73.6191 24.2598 73.3379 24.5469C72.752 25.127 72.752 26.082 73.3379 26.6621C73.918 27.248 74.873 27.248 75.4531 26.6621C76.0391 26.082 76.0391 25.127 75.4531 24.5469C75.1777 24.2656 74.8086 24.1074 74.416 24.1016ZM85.0391 28.25C84.7871 28.2559 84.541 28.3262 84.3184 28.4492C83.6035 28.8652 83.3574 29.7793 83.7734 30.5C84.1895 31.2148 85.1035 31.4609 85.8184 31.0449C86.1641 30.8516 86.416 30.5234 86.5215 30.1367C86.627 29.75 86.5742 29.3398 86.375 29C86.0996 28.5254 85.584 28.2383 85.0391 28.25ZM14.8555 28.25C14.3457 28.2734 13.8828 28.5547 13.625 29C13.209 29.7148 13.4609 30.6348 14.1758 31.0449C14.8906 31.4609 15.8105 31.2148 16.2266 30.5C16.6367 29.7852 16.3906 28.8652 15.6758 28.4551C15.4297 28.3086 15.1426 28.2383 14.8555 28.25ZM78.7051 29.3281C78.4004 29.3281 78.1016 29.416 77.8496 29.5859C77.1641 30.043 76.9766 30.9746 77.4395 31.666C77.9023 32.3516 78.8281 32.5391 79.5195 32.0762C80.2051 31.6133 80.3926 30.6875 79.9297 29.9961C79.6602 29.5859 79.1973 29.334 78.7051 29.3281ZM21.3418 29.3281C20.832 29.3223 20.3516 29.5742 20.0703 30.002C19.6074 30.6875 19.7949 31.6191 20.4863 32.0762C21.1719 32.5391 22.1035 32.3516 22.5605 31.666C22.7832 31.3379 22.8652 30.9277 22.7891 30.541C22.7129 30.1484 22.4844 29.8027 22.1504 29.5859C21.9102 29.4219 21.6348 29.334 21.3418 29.3281ZM65.5918 34.3789L46.0332 53.9375L36.9395 45.6465L30.6465 52.9121L46.4668 67.0625L72.3711 41.1582L65.5918 34.3789ZM18.1543 35.2988C17.5391 35.2812 16.9766 35.6504 16.7422 36.2188C16.4199 36.9863 16.7832 37.8652 17.5508 38.1816C18.3184 38.498 19.1914 38.1348 19.5078 37.3672C19.8301 36.6055 19.4668 35.7266 18.6992 35.4102C18.5293 35.3398 18.3418 35.2988 18.1543 35.2988ZM81.8809 35.2988C81.6816 35.293 81.4883 35.334 81.3008 35.4102C80.5332 35.7266 80.1699 36.6055 80.4922 37.3672C80.8086 38.1348 81.6816 38.498 82.4492 38.1816C83.2168 37.8652 83.5801 36.9863 83.2578 36.2188C83.0293 35.6621 82.4844 35.2988 81.8809 35.2988ZM65.5918 38.6211L68.1289 41.1582L46.3496 62.9375L34.8535 52.6484L37.1973 49.9414L46.1328 58.0859L65.5918 38.6211ZM16.2031 41.7734C15.4707 41.75 14.832 42.2598 14.6914 42.9746C14.5273 43.7891 15.0547 44.5801 15.8691 44.7441C16.6836 44.9023 17.4688 44.375 17.6328 43.5605C17.709 43.1738 17.6328 42.7695 17.4102 42.4355C17.1875 42.1074 16.8477 41.873 16.4551 41.7969C16.373 41.7793 16.2852 41.7734 16.2031 41.7734ZM83.8438 41.7734C83.7441 41.7676 83.6445 41.7793 83.5449 41.7969C83.1582 41.873 82.8125 42.1016 82.5898 42.4355C82.373 42.7637 82.291 43.168 82.3672 43.5605C82.4434 43.9531 82.6719 44.293 83.0059 44.5156C83.334 44.7383 83.7383 44.8203 84.1309 44.7441C84.5234 44.6621 84.8633 44.4336 85.0859 44.1055C85.3086 43.7715 85.3906 43.3672 85.3145 42.9746C85.1738 42.2773 84.5586 41.7734 83.8438 41.7734ZM9.5 48.5C8.67383 48.5 8 49.1738 8 50C8 50.8262 8.67383 51.5 9.5 51.5C10.3262 51.5 11 50.8262 11 50C11 49.1738 10.3262 48.5 9.5 48.5ZM15.5 48.5C14.6738 48.5 14 49.1738 14 50C14 50.8262 14.6738 51.5 15.5 51.5C16.3262 51.5 17 50.8262 17 50C17 49.1738 16.3262 48.5 15.5 48.5ZM84.5 48.5C83.6738 48.5 83 49.1738 83 50C83 50.8262 83.6738 51.5 84.5 51.5C85.3262 51.5 86 50.8262 86 50C86 49.1738 85.3262 48.5 84.5 48.5ZM90.5 48.5C89.6738 48.5 89 49.1738 89 50C89 50.8262 89.6738 51.5 90.5 51.5C91.3262 51.5 92 50.8262 92 50C92 49.1738 91.3262 48.5 90.5 48.5ZM83.873 55.2266C83.1465 55.209 82.5078 55.7188 82.3672 56.4395C82.2031 57.248 82.7305 58.0391 83.5449 58.2031C84.3594 58.3613 85.1445 57.834 85.3086 57.0254C85.4727 56.2109 84.9453 55.4199 84.1309 55.2559C84.0488 55.2441 83.9609 55.2324 83.873 55.2266ZM16.1738 55.2324C16.0684 55.2324 15.9688 55.2383 15.875 55.2559C15.4824 55.3379 15.1367 55.5664 14.9141 55.8945C14.6973 56.2285 14.6152 56.6328 14.6914 57.0254C14.7676 57.4121 14.9961 57.7578 15.3301 57.9805C15.6582 58.1973 16.0625 58.2793 16.4551 58.2031C16.8477 58.127 17.1875 57.8984 17.4102 57.5645C17.6328 57.2363 17.7148 56.832 17.6328 56.4395C17.498 55.7422 16.8828 55.2383 16.1738 55.2324ZM18.1426 61.7012C17.9375 61.7012 17.7383 61.7363 17.5566 61.8125C16.7891 62.1348 16.4258 63.0078 16.7422 63.7754C17.0586 64.543 17.9375 64.9062 18.7051 64.584C19.4668 64.2676 19.8301 63.3945 19.5137 62.627C19.2852 62.0703 18.7402 61.707 18.1426 61.7012ZM81.9043 61.7012C81.2891 61.6895 80.7266 62.0527 80.4922 62.627C80.1699 63.3945 80.5332 64.2676 81.3008 64.584C81.6699 64.7363 82.0801 64.7363 82.4492 64.584C82.8184 64.4316 83.1113 64.1387 83.2578 63.7754C83.5801 63.0078 83.2168 62.1289 82.4492 61.8125C82.2793 61.7422 82.0918 61.707 81.9043 61.7012ZM78.7109 67.666C78.2012 67.6543 77.7207 67.9062 77.4395 68.3281C76.9766 69.0195 77.1641 69.9512 77.8496 70.4141C78.1836 70.6309 78.5879 70.7129 78.9805 70.6367C79.373 70.5547 79.7129 70.3262 79.9355 69.9922C80.3926 69.3066 80.2109 68.375 79.5195 67.9121C79.2793 67.7539 79.0039 67.666 78.7109 67.666ZM21.3359 67.666C21.0312 67.6602 20.7324 67.748 20.4863 67.918C19.7949 68.3809 19.6074 69.3066 20.0703 69.998C20.5273 70.6895 21.459 70.8711 22.1504 70.4141C22.4844 70.1914 22.7129 69.8516 22.7891 69.459C22.8652 69.0664 22.7832 68.6621 22.5605 68.3281C22.291 67.918 21.8281 67.6719 21.3359 67.666ZM14.8906 68.75C14.6387 68.7559 14.3926 68.8262 14.1758 68.9492C13.4609 69.3652 13.209 70.2793 13.625 71C13.8242 71.3398 14.1523 71.5918 14.5391 71.6973C14.9199 71.8027 15.3301 71.75 15.6758 71.5449C16.0215 71.3516 16.2734 71.0234 16.373 70.6367C16.4785 70.25 16.4258 69.8398 16.2266 69.5C15.9512 69.0254 15.4355 68.7383 14.8906 68.75ZM84.998 68.75C84.4883 68.7793 84.0254 69.0605 83.7734 69.5C83.3574 70.2207 83.6035 71.1348 84.3184 71.5508C84.6641 71.75 85.0742 71.8027 85.4609 71.7031C85.8477 71.5977 86.1758 71.3457 86.375 71C86.5742 70.6602 86.627 70.25 86.5215 69.8633C86.416 69.4766 86.1641 69.1484 85.8184 68.9551C85.5723 68.8086 85.2852 68.7383 84.998 68.75ZM25.625 72.8926C25.2207 72.8867 24.8281 73.0449 24.5469 73.332C23.9609 73.918 23.9609 74.8672 24.5469 75.4531C25.127 76.0391 26.082 76.0391 26.6621 75.4531C27.248 74.8672 27.248 73.918 26.6621 73.332C26.3867 73.0566 26.0176 72.8984 25.625 72.8926ZM74.416 72.8984C74.0117 72.8867 73.6191 73.0449 73.332 73.3379C72.7461 73.918 72.7461 74.873 73.332 75.4531C73.918 76.0391 74.8672 76.0391 75.4531 75.4531C76.0391 74.873 76.0391 73.918 75.4531 73.3379C75.1777 73.0566 74.8086 72.9043 74.416 72.8984ZM69.1895 77.1816C68.8848 77.1816 68.5859 77.2695 68.334 77.4395C67.6484 77.8965 67.4609 78.8281 67.9238 79.5137C68.3867 80.2051 69.3125 80.3926 70.0039 79.9297C70.6895 79.4668 70.877 78.541 70.4141 77.8496C70.1445 77.4395 69.6816 77.1875 69.1895 77.1816ZM30.8633 77.1875C30.3535 77.1758 29.873 77.4277 29.5859 77.8496C29.1289 78.541 29.3164 79.4668 30.002 79.9297C30.6934 80.3926 31.6191 80.2051 32.082 79.5137C32.5449 78.8281 32.3574 77.8965 31.6719 77.4395C31.4316 77.2754 31.1504 77.1875 30.8633 77.1875ZM36.8281 80.375C36.2129 80.3574 35.6504 80.7266 35.416 81.2949C35.0938 82.0625 35.457 82.9414 36.2246 83.2578C36.9922 83.5742 37.8652 83.2109 38.1875 82.4434C38.5039 81.6816 38.1406 80.8027 37.373 80.4863C37.2031 80.416 37.0156 80.375 36.8281 80.375ZM63.2188 80.375C63.0137 80.3691 62.8145 80.4102 62.6328 80.4863C61.8652 80.8027 61.502 81.6816 61.8184 82.4434C62.1348 83.2109 63.0137 83.5742 63.7812 83.2578C64.543 82.9414 64.9062 82.0625 64.5898 81.2949C64.3613 80.7441 63.8164 80.375 63.2188 80.375ZM43.3145 82.3379C42.582 82.3203 41.9434 82.8301 41.7969 83.5449C41.7207 83.9375 41.8027 84.3418 42.0254 84.6699C42.248 85.0039 42.5879 85.2324 42.9805 85.3086C43.7949 85.4727 44.5801 84.9453 44.7441 84.1309C44.8203 83.7383 44.7383 83.334 44.5215 83.0059C44.2988 82.6719 43.9531 82.4434 43.5605 82.3672C43.4785 82.3496 43.3965 82.3379 43.3145 82.3379ZM56.7383 82.3379C56.6387 82.3379 56.5391 82.3496 56.4395 82.3672C55.625 82.5312 55.0977 83.3164 55.2617 84.1309C55.4258 84.9453 56.2109 85.4727 57.0254 85.3086C57.8398 85.1445 58.3672 84.3594 58.2031 83.5449C58.0625 82.8477 57.4531 82.3438 56.7383 82.3379ZM50 83C49.1738 83 48.5 83.6738 48.5 84.5C48.5 85.3262 49.1738 86 50 86C50.8262 86 51.5 85.3262 51.5 84.5C51.5 83.6738 50.8262 83 50 83ZM70.209 83.5684C69.9629 83.5801 69.7168 83.6445 69.5 83.7734C68.7793 84.1895 68.5332 85.1035 68.9492 85.8184C69.3652 86.5391 70.2793 86.7852 71 86.375C71.3398 86.1758 71.5918 85.8477 71.6973 85.4609C71.8027 85.0742 71.75 84.6641 71.5449 84.3184C71.2754 83.8438 70.7598 83.5566 70.209 83.5684ZM29.6797 83.5801C29.1699 83.6035 28.707 83.8848 28.4492 84.3242C28.25 84.6699 28.1973 85.0801 28.2969 85.4609C28.4023 85.8477 28.6543 86.1758 29 86.375C29.7148 86.791 30.6348 86.5391 31.0449 85.8242C31.4609 85.1094 31.2148 84.1895 30.5 83.7734C30.248 83.6328 29.9668 83.5625 29.6797 83.5801ZM50 89C49.1738 89 48.5 89.6738 48.5 90.5C48.5 91.3262 49.1738 92 50 92C50.8262 92 51.5 91.3262 51.5 90.5C51.5 89.6738 50.8262 89 50 89Z" fill="white"/>
</svg>
