<svg width="93" height="100" viewBox="0 0 93 100" fill="none" xmlns="http://www.w3.org/2000/svg">
<path d="M0.578125 0.5L2.82812 9.5H4V90.5H31V87.5H7V9.5C7.8265 9.5 8.5 8.8265 8.5 8C8.5 7.1735 7.8265 6.5 7 6.5H5.17188L4.42188 3.5H75.5781L74.8281 6.5H73C72.1735 6.5 71.5 7.1735 71.5 8C71.5 8.8265 72.1735 9.5 73 9.5V23H76V9.5H77.1719L79.4219 0.5H0.578125ZM13 6.5C12.1735 6.5 11.5 7.1735 11.5 8C11.5 8.8265 12.1735 9.5 13 9.5C13.8265 9.5 14.5 8.8265 14.5 8C14.5 7.1735 13.8265 6.5 13 6.5ZM19 6.5C18.1735 6.5 17.5 7.1735 17.5 8C17.5 8.8265 18.1735 9.5 19 9.5C19.8265 9.5 20.5 8.8265 20.5 8C20.5 7.1735 19.8265 6.5 19 6.5ZM25 6.5C24.1735 6.5 23.5 7.1735 23.5 8C23.5 8.8265 24.1735 9.5 25 9.5C25.8265 9.5 26.5 8.8265 26.5 8C26.5 7.1735 25.8265 6.5 25 6.5ZM31 6.5C30.1735 6.5 29.5 7.1735 29.5 8C29.5 8.8265 30.1735 9.5 31 9.5C31.8265 9.5 32.5 8.8265 32.5 8C32.5 7.1735 31.8265 6.5 31 6.5ZM37 6.5C36.1735 6.5 35.5 7.1735 35.5 8C35.5 8.8265 36.1735 9.5 37 9.5C37.8265 9.5 38.5 8.8265 38.5 8C38.5 7.1735 37.8265 6.5 37 6.5ZM43 6.5C42.1735 6.5 41.5 7.1735 41.5 8C41.5 8.8265 42.1735 9.5 43 9.5C43.8265 9.5 44.5 8.8265 44.5 8C44.5 7.1735 43.8265 6.5 43 6.5ZM49 6.5C48.1735 6.5 47.5 7.1735 47.5 8C47.5 8.8265 48.1735 9.5 49 9.5C49.8265 9.5 50.5 8.8265 50.5 8C50.5 7.1735 49.8265 6.5 49 6.5ZM55 6.5C54.1735 6.5 53.5 7.1735 53.5 8C53.5 8.8265 54.1735 9.5 55 9.5C55.8265 9.5 56.5 8.8265 56.5 8C56.5 7.1735 55.8265 6.5 55 6.5ZM61 6.5C60.1735 6.5 59.5 7.1735 59.5 8C59.5 8.8265 60.1735 9.5 61 9.5C61.8265 9.5 62.5 8.8265 62.5 8C62.5 7.1735 61.8265 6.5 61 6.5ZM67 6.5C66.1735 6.5 65.5 7.1735 65.5 8C65.5 8.8265 66.1735 9.5 67 9.5C67.8265 9.5 68.5 8.8265 68.5 8C68.5 7.1735 67.8265 6.5 67 6.5ZM13 15.5V27.5H28V26V15.5H13ZM32.5 15.5V23H35.5V18.5H44.5V23H47.5V15.5H32.5ZM52 15.5V23H55V18.5H64V23H67V15.5H52ZM16 18.5H25V24.5H16V18.5ZM32.0781 27.5L34.3281 36.5H35.5V99.5H89.5V98V36.5H90.6719L92.9219 27.5H32.0781ZM35.9219 30.5H89.0781L88.3281 33.5H86.5C85.6735 33.5 85 34.1735 85 35C85 35.8265 85.6735 36.5 86.5 36.5V96.5H38.5V36.5C39.3265 36.5 40 35.8265 40 35C40 34.1735 39.3265 33.5 38.5 33.5H36.6719L35.9219 30.5ZM13 33.5V35V45.5H28V33.5H13ZM44.5 33.5C43.6735 33.5 43 34.1735 43 35C43 35.8265 43.6735 36.5 44.5 36.5C45.3265 36.5 46 35.8265 46 35C46 34.1735 45.3265 33.5 44.5 33.5ZM50.5 33.5C49.6735 33.5 49 34.1735 49 35C49 35.8265 49.6735 36.5 50.5 36.5C51.3265 36.5 52 35.8265 52 35C52 34.1735 51.3265 33.5 50.5 33.5ZM56.5 33.5C55.6735 33.5 55 34.1735 55 35C55 35.8265 55.6735 36.5 56.5 36.5C57.3265 36.5 58 35.8265 58 35C58 34.1735 57.3265 33.5 56.5 33.5ZM62.5 33.5C61.6735 33.5 61 34.1735 61 35C61 35.8265 61.6735 36.5 62.5 36.5C63.3265 36.5 64 35.8265 64 35C64 34.1735 63.3265 33.5 62.5 33.5ZM68.5 33.5C67.6735 33.5 67 34.1735 67 35C67 35.8265 67.6735 36.5 68.5 36.5C69.3265 36.5 70 35.8265 70 35C70 34.1735 69.3265 33.5 68.5 33.5ZM74.5 33.5C73.6735 33.5 73 34.1735 73 35C73 35.8265 73.6735 36.5 74.5 36.5C75.3265 36.5 76 35.8265 76 35C76 34.1735 75.3265 33.5 74.5 33.5ZM80.5 33.5C79.6735 33.5 79 34.1735 79 35C79 35.8265 79.6735 36.5 80.5 36.5C81.3265 36.5 82 35.8265 82 35C82 34.1735 81.3265 33.5 80.5 33.5ZM16 36.5H25V42.5H16V36.5ZM44.5 42.5V51.5H53.5V50V42.5H44.5ZM58 42.5V51.5H67V50V42.5H58ZM71.5 42.5V51.5H80.5V50V42.5H71.5ZM47.5 45.5H50.5V48.5H47.5V45.5ZM61 45.5H64V48.5H61V45.5ZM74.5 45.5H77.5V48.5H74.5V45.5ZM13 51.5V53V63.5H28V51.5H13ZM16 54.5H25V60.5H16V54.5ZM44.5 56V65H53.5V63.5V56H44.5ZM58 56V65H67V63.5V56H58ZM71.5 56V65H80.5V63.5V56H71.5ZM47.5 59H50.5V62H47.5V59ZM61 59H64V62H61V59ZM74.5 59H77.5V62H74.5V59ZM13 69.5V71V81.5H28V69.5H13ZM44.5 69.5V78.5H53.5V77V69.5H44.5ZM58 69.5V78.5H67V77V69.5H58ZM71.5 69.5V78.5H80.5V77V69.5H71.5ZM16 72.5H25V78.5H16V72.5ZM47.5 72.5H50.5V75.5H47.5V72.5ZM61 72.5H64V75.5H61V72.5ZM74.5 72.5H77.5V75.5H74.5V72.5ZM44.5 83V92H53.5V90.5V83H44.5ZM58 83V92H67V90.5V83H58ZM71.5 83V92H80.5V90.5V83H71.5ZM47.5 86H50.5V89H47.5V86ZM61 86H64V89H61V86ZM74.5 86H77.5V89H74.5V86Z" fill="white"/>
</svg>
