<svg width="28" height="30" viewBox="0 0 28 30" fill="none" xmlns="http://www.w3.org/2000/svg">
<g filter="url(#filter0_d)">
<path d="M13.9984 0.599609C8.69453 0.599609 4.39844 4.8957 4.39844 10.1996C4.39844 14.5848 6.71406 19.298 8.99219 22.9496C11.2703 26.6012 13.5484 29.1934 13.5484 29.1934C13.6633 29.3223 13.8273 29.3973 13.9984 29.3973C14.1695 29.3973 14.3336 29.3223 14.4484 29.1934C14.4484 29.1934 16.7289 26.5473 19.0047 22.8746C21.2805 19.202 23.5984 14.5004 23.5984 10.1996C23.5984 4.8957 19.3023 0.599609 13.9984 0.599609ZM13.9984 6.59961C11.6852 6.59961 9.79844 8.48633 9.79844 10.7996C9.79844 13.1129 11.6852 14.9996 13.9984 14.9996C16.3117 14.9996 18.1984 13.1129 18.1984 10.7996C18.1984 8.48633 16.3117 6.59961 13.9984 6.59961ZM13.9984 7.79961C15.6625 7.79961 16.9984 9.13555 16.9984 10.7996C16.9984 12.4637 15.6625 13.7996 13.9984 13.7996C12.3344 13.7996 10.9984 12.4637 10.9984 10.7996C10.9984 9.13555 12.3344 7.79961 13.9984 7.79961Z" fill="#269944"/>
<circle cx="14" cy="11" r="3.5" stroke="white"/>
</g>
<defs>
<filter id="filter0_d" x="0.398438" y="0.599609" width="27.2" height="36.7977" filterUnits="userSpaceOnUse" color-interpolation-filters="sRGB">
<feFlood flood-opacity="0" result="BackgroundImageFix"/>
<feColorMatrix in="SourceAlpha" type="matrix" values="0 0 0 0 0 0 0 0 0 0 0 0 0 0 0 0 0 0 127 0"/>
<feOffset dy="4"/>
<feGaussianBlur stdDeviation="2"/>
<feColorMatrix type="matrix" values="0 0 0 0 0 0 0 0 0 0 0 0 0 0 0 0 0 0 0.25 0"/>
<feBlend mode="normal" in2="BackgroundImageFix" result="effect1_dropShadow"/>
<feBlend mode="normal" in="SourceGraphic" in2="effect1_dropShadow" result="shape"/>
</filter>
</defs>
</svg>
