<svg width="50" height="62" viewBox="0 0 50 62" fill="none" xmlns="http://www.w3.org/2000/svg">
<path d="M0 0V62H50V14.5859L35.4141 0H0ZM2 2H34V16H48V60H2V2ZM36 3.41406L46.5859 14H36V3.41406ZM7 4C6.44922 4 6 4.44922 6 5C6 5.55078 6.44922 6 7 6C7.55078 6 8 5.55078 8 5C8 4.44922 7.55078 4 7 4ZM7 8C6.44922 8 6 8.44922 6 9C6 9.55078 6.44922 10 7 10C7.55078 10 8 9.55078 8 9C8 8.44922 7.55078 8 7 8ZM7 12C6.44922 12 6 12.4492 6 13C6 13.5508 6.44922 14 7 14C7.55078 14 8 13.5508 8 13C8 12.4492 7.55078 12 7 12ZM14 14V16H30V14H14ZM7 16C6.44922 16 6 16.4492 6 17C6 17.5508 6.44922 18 7 18C7.55078 18 8 17.5508 8 17C8 16.4492 7.55078 16 7 16ZM7 20C6.44922 20 6 20.4492 6 21C6 21.5508 6.44922 22 7 22C7.55078 22 8 21.5508 8 21C8 20.4492 7.55078 20 7 20ZM14 20V22H40V20H14ZM7 24C6.44922 24 6 24.4492 6 25C6 25.5508 6.44922 26 7 26C7.55078 26 8 25.5508 8 25C8 24.4492 7.55078 24 7 24ZM14 26V28H40V26H14ZM7 28C6.44922 28 6 28.4492 6 29C6 29.5508 6.44922 30 7 30C7.55078 30 8 29.5508 8 29C8 28.4492 7.55078 28 7 28ZM7 32C6.44922 32 6 32.4492 6 33C6 33.5508 6.44922 34 7 34C7.55078 34 8 33.5508 8 33C8 32.4492 7.55078 32 7 32ZM14 32V34H40V32H14ZM7 36C6.44922 36 6 36.4492 6 37C6 37.5508 6.44922 38 7 38C7.55078 38 8 37.5508 8 37C8 36.4492 7.55078 36 7 36ZM21.3906 39C20.0195 39 18.8867 39.9062 18.1523 41.0977C17.4141 42.293 17 43.8398 17 45.5312C17 46.9453 17.418 48.6836 18.3555 50.1914C18.5 50.4219 18.7539 50.5781 18.9258 50.7969C18.3477 51.293 17.4492 52.168 17.4492 52.168C16.9883 52.4727 16.8594 53.0938 17.1641 53.5547C17.4727 54.0117 18.0938 54.1406 18.5508 53.832C18.5508 53.832 19.6328 52.8203 20.3633 52.2031C21.1211 52.6719 21.9883 53 23 53C24.4492 53 25.6328 52.5352 26.4961 51.8438C27.3594 51.1484 27.9141 50.2617 28.3125 49.4336C28.6328 48.7617 28.8242 48.2031 29.0078 47.7148C29.0859 47.9336 29.1445 48.082 29.2383 48.3398C29.4297 48.8672 29.6484 49.4492 30.0547 49.9805C30.4609 50.5117 31.168 51 32 51C32.918 51 33.6055 50.4062 34.0469 49.8203C34.4844 49.2344 34.8008 48.5781 35.125 47.9688C35.4531 47.3633 35.7812 46.8047 36.0977 46.4648C36.418 46.125 36.6406 46 37 46C37.3594 46.0039 37.6953 45.8164 37.8789 45.5039C38.0586 45.1914 38.0586 44.8086 37.8789 44.4961C37.6953 44.1836 37.3594 43.9961 37 44C36.0195 44 35.1953 44.5 34.6406 45.0977C34.082 45.6953 33.7031 46.3867 33.3594 47.0312C33.0195 47.6719 32.7148 48.2656 32.4492 48.6172C32.1797 48.9688 32.082 49 32 49C31.8359 49 31.8125 48.9883 31.6445 48.7695C31.4805 48.5508 31.2891 48.1328 31.1211 47.6602C30.9531 47.1914 30.8047 46.6797 30.5703 46.1914C30.4531 45.9492 30.3203 45.7031 30.082 45.4648C29.8438 45.2266 29.4336 45 29 45C28.4414 45 28.0078 45.3672 27.7891 45.6602C27.5703 45.957 27.4453 46.2461 27.3164 46.5586C27.0625 47.1797 26.832 47.8945 26.5117 48.5664C26.1875 49.2383 25.7812 49.8516 25.2461 50.2812C24.707 50.7148 24.0469 51 23 51C22.582 51 22.2734 50.8125 21.9336 50.6836C23.4844 48.8203 25 46.2266 25 43C25 42.1406 24.7734 41.2109 24.1992 40.4102C23.625 39.6133 22.6172 39 21.3906 39ZM7 40C6.44922 40 6 40.4492 6 41C6 41.5508 6.44922 42 7 42C7.55078 42 8 41.5508 8 41C8 40.4492 7.55078 40 7 40ZM21.3906 41C22.0156 41 22.3125 41.2148 22.5781 41.582C22.8438 41.9531 23 42.5195 23 43C23 45.6094 21.6797 47.8242 20.3281 49.4375C20.2461 49.3242 20.1328 49.2617 20.0547 49.1406C19.3555 48.0117 19 46.5156 19 45.5312C19 44.1758 19.3555 42.9609 19.8555 42.1484C20.3516 41.3359 20.918 41 21.3906 41ZM7 44C6.44922 44 6 44.4492 6 45C6 45.5508 6.44922 46 7 46C7.55078 46 8 45.5508 8 45C8 44.4492 7.55078 44 7 44ZM7 48C6.44922 48 6 48.4492 6 49C6 49.5508 6.44922 50 7 50C7.55078 50 8 49.5508 8 49C8 48.4492 7.55078 48 7 48ZM7 52C6.44922 52 6 52.4492 6 53C6 53.5508 6.44922 54 7 54C7.55078 54 8 53.5508 8 53C8 52.4492 7.55078 52 7 52ZM7 56C6.44922 56 6 56.4492 6 57C6 57.5508 6.44922 58 7 58C7.55078 58 8 57.5508 8 57C8 56.4492 7.55078 56 7 56Z" fill="white"/>
</svg>
