<svg width="62" height="62" viewBox="0 0 62 62" fill="none" xmlns="http://www.w3.org/2000/svg">
<path d="M13 0.585938L0.585938 13L18.293 30.707L19.707 29.293L3.41406 13L13 3.41406L29.293 19.707L30.707 18.293L13 0.585938ZM55.5586 1.00391C54.1602 1.00391 52.7656 1.53516 51.7031 2.59375L50.8594 3.44141L50 2.58594L42.5859 10L6.14062 46.4414L0.257812 61.7383L15.5586 55.8594L15.707 55.707L59.4141 12L58.5586 11.1406L59.4062 10.2969C61.0195 8.67969 61.3828 6.28906 60.5352 4.30078H61.1094L59.4062 2.59375C58.3477 1.53906 56.9531 1.00781 55.5586 1.00391ZM55.5547 2.99609C56.4336 2.99609 57.3125 3.33203 57.9883 4.01172C59.3438 5.36328 59.3438 7.52734 57.9883 8.87891L57.1406 9.73047L52.2695 4.85937L53.1211 4.01172C53.7969 3.33203 54.6758 2.99219 55.5547 2.99609ZM50 5.41406L56.5859 12L52.0703 16.5156L45.4844 9.92969L50 5.41406ZM14 8C13.4492 8 13 8.44922 13 9C13 9.55078 13.4492 10 14 10C14.5508 10 15 9.55078 15 9C15 8.44922 14.5508 8 14 8ZM11 11C10.4492 11 10 11.4492 10 12C10 12.5508 10.4492 13 11 13C11.5508 13 12 12.5508 12 12C12 11.4492 11.5508 11 11 11ZM17 11C16.4492 11 16 11.4492 16 12C16 12.5508 16.4492 13 17 13C17.5508 13 18 12.5508 18 12C18 11.4492 17.5508 11 17 11ZM44 11.4141L50.5859 18L15.6562 52.9297C15.4805 52.3789 15.207 51.793 14.707 51.293C13.9727 50.5586 13.0469 50.2891 12.3203 50.1445C12.0898 50.0977 12.0898 50.1211 11.9023 50.0977C11.8789 49.9102 11.9023 49.9102 11.8555 49.6797C11.7109 48.9531 11.4414 48.0273 10.707 47.293C10.207 46.793 9.62109 46.5195 9.07031 46.3438L44 11.4141ZM20 14C19.4492 14 19 14.4492 19 15C19 15.5508 19.4492 16 20 16C20.5508 16 21 15.5508 21 15C21 14.4492 20.5508 14 20 14ZM44 14C43.4492 14 43 14.4492 43 15C43 15.5508 43.4492 16 44 16C44.5508 16 45 15.5508 45 15C45 14.4492 44.5508 14 44 14ZM17 17C16.4492 17 16 17.4492 16 18C16 18.5508 16.4492 19 17 19C17.5508 19 18 18.5508 18 18C18 17.4492 17.5508 17 17 17ZM23 17C22.4492 17 22 17.4492 22 18C22 18.5508 22.4492 19 23 19C23.5508 19 24 18.5508 24 18C24 17.4492 23.5508 17 23 17ZM41 17C40.4492 17 40 17.4492 40 18C40 18.5508 40.4492 19 41 19C41.5508 19 42 18.5508 42 18C42 17.4492 41.5508 17 41 17ZM26 20C25.4492 20 25 20.4492 25 21C25 21.5508 25.4492 22 26 22C26.5508 22 27 21.5508 27 21C27 20.4492 26.5508 20 26 20ZM38 20C37.4492 20 37 20.4492 37 21C37 21.5508 37.4492 22 38 22C38.5508 22 39 21.5508 39 21C39 20.4492 38.5508 20 38 20ZM23 23C22.4492 23 22 23.4492 22 24C22 24.5508 22.4492 25 23 25C23.5508 25 24 24.5508 24 24C24 23.4492 23.5508 23 23 23ZM35 23C34.4492 23 34 23.4492 34 24C34 24.5508 34.4492 25 35 25C35.5508 25 36 24.5508 36 24C36 23.4492 35.5508 23 35 23ZM32 26C31.4492 26 31 26.4492 31 27C31 27.5508 31.4492 28 32 28C32.5508 28 33 27.5508 33 27C33 26.4492 32.5508 26 32 26ZM29 29C28.4492 29 28 29.4492 28 30C28 30.5508 28.4492 31 29 31C29.5508 31 30 30.5508 30 30C30 29.4492 29.5508 29 29 29ZM43.707 31.293L42.293 32.707L58.5859 49L49 58.5859L32.707 42.293L31.293 43.707L49 61.4141L61.4141 49L43.707 31.293ZM26 32C25.4492 32 25 32.4492 25 33C25 33.5508 25.4492 34 26 34C26.5508 34 27 33.5508 27 33C27 32.4492 26.5508 32 26 32ZM23 35C22.4492 35 22 35.4492 22 36C22 36.5508 22.4492 37 23 37C23.5508 37 24 36.5508 24 36C24 35.4492 23.5508 35 23 35ZM41 35.3242C40.4492 35.3242 40 35.7695 40 36.3242C40 36.875 40.4492 37.3242 41 37.3242C41.5508 37.3242 42 36.875 42 36.3242C42 35.7695 41.5508 35.3242 41 35.3242ZM20 38C19.4492 38 19 38.4492 19 39C19 39.5508 19.4492 40 20 40C20.5508 40 21 39.5508 21 39C21 38.4492 20.5508 38 20 38ZM44 38C43.4492 38 43 38.4492 43 39C43 39.5508 43.4492 40 44 40C44.5508 40 45 39.5508 45 39C45 38.4492 44.5508 38 44 38ZM38 38.3242C37.4492 38.3242 37 38.7695 37 39.3242C37 39.875 37.4492 40.3242 38 40.3242C38.5508 40.3242 39 39.875 39 39.3242C39 38.7695 38.5508 38.3242 38 38.3242ZM17 41C16.4492 41 16 41.4492 16 42C16 42.5508 16.4492 43 17 43C17.5508 43 18 42.5508 18 42C18 41.4492 17.5508 41 17 41ZM47 41.3242C46.4492 41.3242 46 41.7695 46 42.3242C46 42.875 46.4492 43.3242 47 43.3242C47.5508 43.3242 48 42.875 48 42.3242C48 41.7695 47.5508 41.3242 47 41.3242ZM14 44C13.4492 44 13 44.4492 13 45C13 45.5508 13.4492 46 14 46C14.5508 46 15 45.5508 15 45C15 44.4492 14.5508 44 14 44ZM50 44C49.4492 44 49 44.4492 49 45C49 45.5508 49.4492 46 50 46C50.5508 46 51 45.5508 51 45C51 44.4492 50.5508 44 50 44ZM44 44.3242C43.4492 44.3242 43 44.7695 43 45.3242C43 45.875 43.4492 46.3242 44 46.3242C44.5508 46.3242 45 45.875 45 45.3242C45 44.7695 44.5508 44.3242 44 44.3242ZM53 47.3242C52.4492 47.3242 52 47.7695 52 48.3242C52 48.875 52.4492 49.3242 53 49.3242C53.5508 49.3242 54 48.875 54 48.3242C54 47.7695 53.5508 47.3242 53 47.3242ZM7.66016 48.0664C7.75391 48.082 7.82422 48.0859 7.92969 48.1055C8.45312 48.2109 9.02734 48.4414 9.29297 48.707C9.55859 48.9727 9.78906 49.5469 9.89453 50.0703C10 50.5938 10 51 10 51V52H11C11 52 11.4062 52 11.9297 52.1055C12.4531 52.2109 13.0273 52.4414 13.293 52.707C13.5586 52.9727 13.7891 53.5469 13.8945 54.0703C13.9141 54.1758 13.918 54.2461 13.9336 54.3398L7.00391 57.0039L4.99609 54.9961L7.66016 48.0664ZM50 50.3242C49.4492 50.3242 49 50.7695 49 51.3242C49 51.875 49.4492 52.3242 50 52.3242C50.5508 52.3242 51 51.875 51 51.3242C51 50.7695 50.5508 50.3242 50 50.3242Z" fill="white"/>
</svg>
