<svg width="76" height="94" viewBox="0 0 76 94" fill="none" xmlns="http://www.w3.org/2000/svg">
<path d="M0.5 0.5V93.5H75.5V0.5H0.5ZM3.5 3.5H72.5V90.5H3.5V3.5ZM11 6.5C10.1738 6.5 9.5 7.17383 9.5 8C9.5 8.82617 10.1738 9.5 11 9.5C11.8262 9.5 12.5 8.82617 12.5 8C12.5 7.17383 11.8262 6.5 11 6.5ZM11 12.5C10.1738 12.5 9.5 13.1738 9.5 14C9.5 14.8262 10.1738 15.5 11 15.5C11.8262 15.5 12.5 14.8262 12.5 14C12.5 13.1738 11.8262 12.5 11 12.5ZM21.5 12.5V15.5H60.5V12.5H21.5ZM11 18.5C10.1738 18.5 9.5 19.1738 9.5 20C9.5 20.8262 10.1738 21.5 11 21.5C11.8262 21.5 12.5 20.8262 12.5 20C12.5 19.1738 11.8262 18.5 11 18.5ZM11 24.5C10.1738 24.5 9.5 25.1738 9.5 26C9.5 26.8262 10.1738 27.5 11 27.5C11.8262 27.5 12.5 26.8262 12.5 26C12.5 25.1738 11.8262 24.5 11 24.5ZM17 24.5C16.1738 24.5 15.5 25.1738 15.5 26C15.5 26.8262 16.1738 27.5 17 27.5C17.8262 27.5 18.5 26.8262 18.5 26C18.5 25.1738 17.8262 24.5 17 24.5ZM23 24.5C22.1738 24.5 21.5 25.1738 21.5 26C21.5 26.8262 22.1738 27.5 23 27.5C23.8262 27.5 24.5 26.8262 24.5 26C24.5 25.1738 23.8262 24.5 23 24.5ZM29 24.5C28.1738 24.5 27.5 25.1738 27.5 26C27.5 26.8262 28.1738 27.5 29 27.5C29.8262 27.5 30.5 26.8262 30.5 26C30.5 25.1738 29.8262 24.5 29 24.5ZM35 24.5C34.1738 24.5 33.5 25.1738 33.5 26C33.5 26.8262 34.1738 27.5 35 27.5C35.8262 27.5 36.5 26.8262 36.5 26C36.5 25.1738 35.8262 24.5 35 24.5ZM41 24.5C40.1738 24.5 39.5 25.1738 39.5 26C39.5 26.8262 40.1738 27.5 41 27.5C41.8262 27.5 42.5 26.8262 42.5 26C42.5 25.1738 41.8262 24.5 41 24.5ZM47 24.5C46.1738 24.5 45.5 25.1738 45.5 26C45.5 26.8262 46.1738 27.5 47 27.5C47.8262 27.5 48.5 26.8262 48.5 26C48.5 25.1738 47.8262 24.5 47 24.5ZM53 24.5C52.1738 24.5 51.5 25.1738 51.5 26C51.5 26.8262 52.1738 27.5 53 27.5C53.8262 27.5 54.5 26.8262 54.5 26C54.5 25.1738 53.8262 24.5 53 24.5ZM59 24.5C58.1738 24.5 57.5 25.1738 57.5 26C57.5 26.8262 58.1738 27.5 59 27.5C59.8262 27.5 60.5 26.8262 60.5 26C60.5 25.1738 59.8262 24.5 59 24.5ZM65 24.5C64.1738 24.5 63.5 25.1738 63.5 26C63.5 26.8262 64.1738 27.5 65 27.5C65.8262 27.5 66.5 26.8262 66.5 26C66.5 25.1738 65.8262 24.5 65 24.5ZM11 30.5C10.1738 30.5 9.5 31.1738 9.5 32C9.5 32.8262 10.1738 33.5 11 33.5C11.8262 33.5 12.5 32.8262 12.5 32C12.5 31.1738 11.8262 30.5 11 30.5ZM11 36.5C10.1738 36.5 9.5 37.1738 9.5 38C9.5 38.8262 10.1738 39.5 11 39.5C11.8262 39.5 12.5 38.8262 12.5 38C12.5 37.1738 11.8262 36.5 11 36.5ZM21.5 36.5V39.5H44V36.5H21.5ZM53 36.5C52.1738 36.5 51.5 37.1738 51.5 38C51.5 38.8262 52.1738 39.5 53 39.5C53.8262 39.5 54.5 38.8262 54.5 38C54.5 37.1738 53.8262 36.5 53 36.5ZM59 36.5C58.1738 36.5 57.5 37.1738 57.5 38C57.5 38.8262 58.1738 39.5 59 39.5C59.8262 39.5 60.5 38.8262 60.5 38C60.5 37.1738 59.8262 36.5 59 36.5ZM11 42.5C10.1738 42.5 9.5 43.1738 9.5 44C9.5 44.8262 10.1738 45.5 11 45.5C11.8262 45.5 12.5 44.8262 12.5 44C12.5 43.1738 11.8262 42.5 11 42.5ZM21.5 45.5V48.5H36.5V45.5H21.5ZM53 45.5C52.1738 45.5 51.5 46.1738 51.5 47C51.5 47.8262 52.1738 48.5 53 48.5C53.8262 48.5 54.5 47.8262 54.5 47C54.5 46.1738 53.8262 45.5 53 45.5ZM59 45.5C58.1738 45.5 57.5 46.1738 57.5 47C57.5 47.8262 58.1738 48.5 59 48.5C59.8262 48.5 60.5 47.8262 60.5 47C60.5 46.1738 59.8262 45.5 59 45.5ZM11 48.5C10.1738 48.5 9.5 49.1738 9.5 50C9.5 50.8262 10.1738 51.5 11 51.5C11.8262 51.5 12.5 50.8262 12.5 50C12.5 49.1738 11.8262 48.5 11 48.5ZM11 54.5C10.1738 54.5 9.5 55.1738 9.5 56C9.5 56.8262 10.1738 57.5 11 57.5C11.8262 57.5 12.5 56.8262 12.5 56C12.5 55.1738 11.8262 54.5 11 54.5ZM21.5 54.5V57.5H44V54.5H21.5ZM53 54.5C52.1738 54.5 51.5 55.1738 51.5 56C51.5 56.8262 52.1738 57.5 53 57.5C53.8262 57.5 54.5 56.8262 54.5 56C54.5 55.1738 53.8262 54.5 53 54.5ZM59 54.5C58.1738 54.5 57.5 55.1738 57.5 56C57.5 56.8262 58.1738 57.5 59 57.5C59.8262 57.5 60.5 56.8262 60.5 56C60.5 55.1738 59.8262 54.5 59 54.5ZM11 60.5C10.1738 60.5 9.5 61.1738 9.5 62C9.5 62.8262 10.1738 63.5 11 63.5C11.8262 63.5 12.5 62.8262 12.5 62C12.5 61.1738 11.8262 60.5 11 60.5ZM11 66.5C10.1738 66.5 9.5 67.1738 9.5 68C9.5 68.8262 10.1738 69.5 11 69.5C11.8262 69.5 12.5 68.8262 12.5 68C12.5 67.1738 11.8262 66.5 11 66.5ZM17 66.5C16.1738 66.5 15.5 67.1738 15.5 68C15.5 68.8262 16.1738 69.5 17 69.5C17.8262 69.5 18.5 68.8262 18.5 68C18.5 67.1738 17.8262 66.5 17 66.5ZM23 66.5C22.1738 66.5 21.5 67.1738 21.5 68C21.5 68.8262 22.1738 69.5 23 69.5C23.8262 69.5 24.5 68.8262 24.5 68C24.5 67.1738 23.8262 66.5 23 66.5ZM29 66.5C28.1738 66.5 27.5 67.1738 27.5 68C27.5 68.8262 28.1738 69.5 29 69.5C29.8262 69.5 30.5 68.8262 30.5 68C30.5 67.1738 29.8262 66.5 29 66.5ZM35 66.5C34.1738 66.5 33.5 67.1738 33.5 68C33.5 68.8262 34.1738 69.5 35 69.5C35.8262 69.5 36.5 68.8262 36.5 68C36.5 67.1738 35.8262 66.5 35 66.5ZM41 66.5C40.1738 66.5 39.5 67.1738 39.5 68C39.5 68.8262 40.1738 69.5 41 69.5C41.8262 69.5 42.5 68.8262 42.5 68C42.5 67.1738 41.8262 66.5 41 66.5ZM47 66.5C46.1738 66.5 45.5 67.1738 45.5 68C45.5 68.8262 46.1738 69.5 47 69.5C47.8262 69.5 48.5 68.8262 48.5 68C48.5 67.1738 47.8262 66.5 47 66.5ZM53 66.5C52.1738 66.5 51.5 67.1738 51.5 68C51.5 68.8262 52.1738 69.5 53 69.5C53.8262 69.5 54.5 68.8262 54.5 68C54.5 67.1738 53.8262 66.5 53 66.5ZM59 66.5C58.1738 66.5 57.5 67.1738 57.5 68C57.5 68.8262 58.1738 69.5 59 69.5C59.8262 69.5 60.5 68.8262 60.5 68C60.5 67.1738 59.8262 66.5 59 66.5ZM65 66.5C64.1738 66.5 63.5 67.1738 63.5 68C63.5 68.8262 64.1738 69.5 65 69.5C65.8262 69.5 66.5 68.8262 66.5 68C66.5 67.1738 65.8262 66.5 65 66.5ZM11 72.5C10.1738 72.5 9.5 73.1738 9.5 74C9.5 74.8262 10.1738 75.5 11 75.5C11.8262 75.5 12.5 74.8262 12.5 74C12.5 73.1738 11.8262 72.5 11 72.5ZM11 78.5C10.1738 78.5 9.5 79.1738 9.5 80C9.5 80.8262 10.1738 81.5 11 81.5C11.8262 81.5 12.5 80.8262 12.5 80C12.5 79.1738 11.8262 78.5 11 78.5ZM33.5 78.5V81.5H47V78.5H33.5ZM53 78.5V81.5H66.5V78.5H53ZM11 84.5C10.1738 84.5 9.5 85.1738 9.5 86C9.5 86.8262 10.1738 87.5 11 87.5C11.8262 87.5 12.5 86.8262 12.5 86C12.5 85.1738 11.8262 84.5 11 84.5Z" fill="white"/>
</svg>
