<svg width="100" height="100" viewBox="0 0 100 100" fill="none" xmlns="http://www.w3.org/2000/svg">
<path d="M50 0.5C22.6777 0.5 0.5 22.6777 0.5 50C0.5 77.3223 22.6777 99.5 50 99.5C77.3223 99.5 99.5 77.3223 99.5 50C99.5 22.6777 77.3223 0.5 50 0.5ZM50 3.5C75.6992 3.5 96.5 24.3008 96.5 50C96.5 75.6992 75.6992 96.5 50 96.5C24.3008 96.5 3.5 75.6992 3.5 50C3.5 24.3008 24.3008 3.5 50 3.5ZM50 8C49.1738 8 48.5 8.67383 48.5 9.5C48.5 10.3262 49.1738 11 50 11C50.8262 11 51.5 10.3262 51.5 9.5C51.5 8.67383 50.8262 8 50 8ZM57.9395 8.77344C57.207 8.75586 56.5742 9.26562 56.4277 9.98633C56.2695 10.7949 56.7969 11.5859 57.6113 11.75C58.4199 11.9082 59.2109 11.3809 59.375 10.5723C59.5332 9.75781 59.0059 8.9668 58.1973 8.80273C58.1094 8.79102 58.0273 8.7793 57.9395 8.77344ZM42.1074 8.7793C42.0078 8.7793 41.9082 8.78516 41.8086 8.80273C40.9941 8.9668 40.4668 9.75781 40.6309 10.5723C40.707 10.959 40.9355 11.3047 41.2695 11.5273C41.5977 11.7441 42.002 11.8262 42.3945 11.75C43.209 11.5859 43.7363 10.8008 43.5723 9.98633C43.4316 9.28906 42.8223 8.78516 42.1074 8.7793ZM34.5137 11.082C34.3145 11.082 34.1152 11.1172 33.9277 11.1934C33.1602 11.5156 32.7969 12.3887 33.1191 13.1562C33.4355 13.9238 34.3086 14.2871 35.0762 13.9707C35.8438 13.6484 36.207 12.7754 35.8906 12.0078C35.6562 11.4512 35.1172 11.0879 34.5137 11.082ZM65.5332 11.082C64.9121 11.0703 64.3496 11.4336 64.1094 12.0078C63.793 12.7754 64.1562 13.6484 64.9238 13.9707C65.6914 14.2871 66.5645 13.9238 66.8809 13.1562C67.2031 12.3887 66.8398 11.5156 66.0723 11.1934C65.9023 11.123 65.7148 11.0879 65.5332 11.082ZM27.5176 14.8203C27.2129 14.8203 26.9141 14.9082 26.6621 15.0781C25.9766 15.5352 25.7891 16.4668 26.252 17.1582C26.709 17.8438 27.6406 18.0312 28.332 17.5684C29.0234 17.1113 29.2051 16.1797 28.748 15.4941C28.4727 15.0781 28.0098 14.8262 27.5176 14.8203ZM72.5234 14.8203C72.0137 14.8145 71.5332 15.0664 71.252 15.4941C70.7891 16.1797 70.9766 17.1113 71.6621 17.5684C72.3535 18.0312 73.2852 17.8438 73.7422 17.1582C73.9648 16.8301 74.0469 16.4199 73.9707 16.0332C73.8945 15.6406 73.666 15.2949 73.332 15.0781C73.0918 14.9141 72.8164 14.8262 72.5234 14.8203ZM21.3828 19.8594C20.9785 19.8594 20.5859 20.0176 20.3047 20.3047C19.7188 20.8848 19.7188 21.8398 20.3047 22.4199C20.8848 23.0059 21.8398 23.0059 22.4199 22.4199C23.0059 21.8398 23.0059 20.8848 22.4199 20.3047C22.1445 20.0234 21.7754 19.8652 21.3828 19.8594ZM78.6582 19.8594C78.2539 19.8594 77.8613 20.0176 77.5801 20.3047C76.9941 20.8848 76.9941 21.8398 77.5801 22.4199C78.1602 23.0059 79.1152 23.0059 79.6953 22.4199C80.2812 21.8398 80.2812 20.8848 79.6953 20.3047C79.4199 20.0234 79.0508 19.8652 78.6582 19.8594ZM83.6914 26C83.3867 25.9941 83.0938 26.082 82.8418 26.252C82.1562 26.709 81.9688 27.6406 82.4316 28.3262C82.8887 29.0176 83.8203 29.2051 84.5059 28.7422C85.1973 28.2793 85.3848 27.3535 84.9219 26.6621C84.6465 26.252 84.1836 26 83.6914 26ZM16.3496 26C15.8398 25.9883 15.3594 26.2402 15.0781 26.6621C14.6211 27.3535 14.8027 28.2852 15.4941 28.7422C16.1855 29.2051 17.1113 29.0176 17.5742 28.332C18.0312 27.6406 17.8496 26.709 17.1582 26.252C16.918 26.0938 16.6426 26.0059 16.3496 26ZM87.4297 33.002C87.2305 32.9961 87.0312 33.0371 86.8438 33.1133C86.0762 33.4297 85.7129 34.3086 86.0293 35.0703C86.3516 35.8379 87.2246 36.2012 87.9922 35.8848C88.7598 35.5684 89.123 34.6895 88.8066 33.9219C88.5723 33.3711 88.0332 33.002 87.4297 33.002ZM12.6172 33.002C11.9961 32.9902 11.4336 33.3535 11.1992 33.9277C10.8828 34.6953 11.2461 35.5684 12.0078 35.8906C12.7754 36.207 13.6543 35.8438 13.9707 35.0762C14.2871 34.3086 13.9238 33.4355 13.1562 33.1191C12.9863 33.043 12.8047 33.0078 12.6172 33.002ZM42.582 33.2656V49.9531H38.0586V54.3594H42.582V58.3672H38.0586V62.1172H42.582V67.0859H47.832V62.1172H57.3477V58.3672H47.832V54.4062H54.0664C60.6289 54.4062 64.9648 49.9531 64.9648 43.8594C64.9648 37.7422 60.7227 33.2656 54.2305 33.2656H42.582ZM47.832 37.9062H52.7539C57.3242 37.9062 59.5977 40.2266 59.5977 43.9062C59.5977 47.5859 57.3242 49.9062 52.7539 49.9062H47.832V37.9062ZM89.7266 40.6016C89.627 40.5957 89.5273 40.6074 89.4277 40.625C88.6191 40.7891 88.0918 41.5801 88.25 42.3887C88.4141 43.2031 89.2051 43.7305 90.0137 43.5723C90.8281 43.4082 91.3555 42.6172 91.1973 41.8027C91.0566 41.1055 90.4414 40.6016 89.7266 40.6016ZM10.3203 40.6016C9.58789 40.584 8.95508 41.0879 8.8086 41.8027C8.73242 42.1953 8.80859 42.6055 9.03125 42.9336C9.25391 43.2676 9.59961 43.4961 9.99219 43.5723C10.3789 43.6484 10.7832 43.5664 11.1172 43.3496C11.4453 43.127 11.6738 42.7812 11.75 42.3887C11.9141 41.5801 11.3867 40.7891 10.5781 40.625C10.4902 40.6133 10.4082 40.6016 10.3203 40.6016ZM9.5 48.5C8.67383 48.5 8 49.1738 8 50C8 50.8262 8.67383 51.5 9.5 51.5C10.3262 51.5 11 50.8262 11 50C11 49.1738 10.3262 48.5 9.5 48.5ZM90.5 48.5C89.6738 48.5 89 49.1738 89 50C89 50.8262 89.6738 51.5 90.5 51.5C91.3262 51.5 92 50.8262 92 50C92 49.1738 91.3262 48.5 90.5 48.5ZM10.2852 56.3984C10.1855 56.3984 10.0859 56.4102 9.98633 56.4277C9.17188 56.5918 8.64453 57.3828 8.8086 58.1973C8.97266 59.0059 9.75781 59.5332 10.5723 59.375C11.3867 59.2109 11.9141 58.4199 11.75 57.6113C11.6094 56.9082 11 56.4043 10.2852 56.3984ZM89.7617 56.3984C89.0293 56.3809 88.3965 56.8906 88.25 57.6113C88.0918 58.4199 88.6191 59.2109 89.4277 59.375C90.2422 59.5332 91.0332 59.0059 91.1973 58.1973C91.3555 57.3828 90.8281 56.5918 90.0137 56.4277C89.9316 56.416 89.8496 56.4043 89.7617 56.3984ZM87.4531 63.9922C86.832 63.9805 86.2695 64.3496 86.0293 64.9238C85.7129 65.6855 86.0762 66.5645 86.8438 66.8809C87.6113 67.1973 88.4844 66.834 88.8066 66.0723C89.123 65.3047 88.7598 64.4258 87.9922 64.1094C87.8223 64.0391 87.6348 63.998 87.4531 63.9922ZM12.5938 63.998C12.3945 63.998 12.1953 64.0332 12.0078 64.1094C11.6445 64.2617 11.3516 64.5547 11.1992 64.9238C11.0469 65.293 11.0469 65.7031 11.1934 66.0723C11.5156 66.8398 12.3887 67.2031 13.1562 66.8809C13.5254 66.7344 13.8184 66.4414 13.9707 66.0723C14.123 65.7031 14.123 65.293 13.9707 64.9238C13.7422 64.3672 13.1973 64.0039 12.5938 63.998ZM83.7031 71C83.1934 70.9883 82.7129 71.2402 82.4316 71.6621C81.9688 72.3535 82.1562 73.2793 82.8418 73.7422C83.1699 73.9648 83.5801 74.0469 83.9668 73.9648C84.3594 73.8887 84.7051 73.6602 84.9219 73.3262C85.3848 72.6406 85.1973 71.709 84.5059 71.252C84.2715 71.0879 83.9902 71 83.7031 71ZM16.3438 71C16.0391 70.9941 15.7461 71.082 15.4941 71.252C14.8086 71.7148 14.6211 72.6406 15.0781 73.332C15.541 74.0176 16.4727 74.2051 17.1641 73.7422C17.8496 73.2852 18.0371 72.3535 17.5742 71.6621C17.2988 71.252 16.8359 71.0059 16.3438 71ZM21.3828 77.1406C20.9785 77.1348 20.5859 77.293 20.3047 77.5801C19.7188 78.1602 19.7188 79.1152 20.3047 79.6953C20.8848 80.2812 21.8398 80.2812 22.4199 79.6953C23.0059 79.1152 23.0059 78.1602 22.4199 77.5801C22.1445 77.2988 21.7754 77.1406 21.3828 77.1406ZM78.6582 77.1406C78.2539 77.1348 77.8613 77.293 77.5801 77.5801C76.9941 78.1602 76.9941 79.1152 77.5801 79.6953C78.1602 80.2812 79.1152 80.2812 79.6953 79.6953C80.2812 79.1152 80.2812 78.1602 79.6953 77.5801C79.4199 77.2988 79.0508 77.1406 78.6582 77.1406ZM27.5293 82.1738C27.0195 82.1621 26.5391 82.4141 26.2578 82.8359C25.7949 83.5273 25.9824 84.459 26.6738 84.9219C27.3594 85.3789 28.291 85.1914 28.748 84.5059C29.2109 83.8145 29.0234 82.8887 28.3379 82.4258C28.0977 82.2676 27.8164 82.1738 27.5293 82.1738ZM72.5176 82.1738C72.2129 82.168 71.9199 82.2559 71.668 82.4199C71.334 82.6426 71.1055 82.9883 71.0293 83.3809C70.9531 83.7676 71.0352 84.1777 71.2578 84.5059C71.7148 85.1914 72.6465 85.3789 73.3379 84.9219C74.0234 84.459 74.2109 83.5273 73.748 82.8359C73.4785 82.4258 73.0156 82.1738 72.5176 82.1738ZM34.5371 85.9121C33.916 85.9004 33.3535 86.2695 33.1191 86.8438C32.8027 87.6055 33.166 88.4844 33.9277 88.8008C34.6953 89.1172 35.5742 88.7539 35.8906 87.9922C36.207 87.2246 35.8438 86.3457 35.0762 86.0293C34.9062 85.959 34.7246 85.918 34.5371 85.9121ZM65.5098 85.9121C65.3105 85.9121 65.1113 85.9531 64.9297 86.0293C64.5605 86.1816 64.2676 86.4746 64.1152 86.8379C63.9629 87.207 63.9629 87.623 64.1094 87.9922C64.4316 88.7539 65.3047 89.1172 66.0723 88.8008C66.4414 88.6484 66.7344 88.3555 66.8867 87.9922C67.0391 87.623 67.0391 87.207 66.8867 86.8438C66.6582 86.2812 66.1133 85.918 65.5098 85.9121ZM42.1426 88.2207C41.4102 88.2031 40.7715 88.7129 40.6309 89.4277C40.4668 90.2422 40.9941 91.0273 41.8086 91.1914C42.623 91.3555 43.4082 90.8281 43.5723 90.0137C43.7363 89.1992 43.209 88.4141 42.3945 88.25C42.3125 88.2324 42.2246 88.2207 42.1426 88.2207ZM57.9043 88.2266C57.8047 88.2207 57.7051 88.2324 57.6113 88.25C56.7969 88.4141 56.2695 89.1992 56.4277 90.0137C56.5098 90.4062 56.7383 90.7461 57.0664 90.9688C57.4004 91.1914 57.8047 91.2734 58.1973 91.1973C58.584 91.1152 58.9297 90.8867 59.1523 90.5586C59.3691 90.2246 59.4512 89.8203 59.375 89.4277C59.2344 88.7305 58.6191 88.2266 57.9043 88.2266ZM50 89C49.1738 89 48.5 89.6738 48.5 90.5C48.5 91.3262 49.1738 92 50 92C50.8262 92 51.5 91.3262 51.5 90.5C51.5 89.6738 50.8262 89 50 89Z" fill="#269944"/>
</svg>
