<svg width="102" height="96" viewBox="0 0 102 96" fill="none" xmlns="http://www.w3.org/2000/svg">
<path d="M38.475 0C17.4577 0 0 14.9844 0 33.8125C0 42.9219 4.13701 51.1797 10.7578 57.25C9.78486 60.0859 7.72031 62.3437 5.50547 64.125C4.27148 65.1172 3.06914 65.9687 2.08828 66.8125C1.59785 67.2344 1.14697 67.6094 0.759375 68.1875C0.371778 68.7656 -0.0158203 69.7656 0.253125 70.75L0.50625 71.5L1.20234 71.9375C3.30645 73.1172 5.86143 73.3125 8.54297 73.125C11.2245 72.9375 14.1196 72.2734 16.9594 71.5C20.8749 70.4375 24.2288 69.1719 27.0211 68.0625C32.5898 80.7812 46.5671 89.625 62.775 89.625C65.5831 89.625 68.2567 89.1875 70.7484 88.8125C73.5724 90.0781 78.627 92.1641 84.1008 93.625C89.7882 95.1484 95.6022 96.2812 99.7945 93.9375L100.554 93.5L100.744 92.75C101.013 91.7734 100.68 90.8359 100.301 90.25C99.9211 89.6641 99.5177 89.2422 99.0352 88.8125C98.0701 87.9453 96.844 87.0703 95.618 86.0625C93.411 84.25 91.3386 81.9687 90.3023 79.1875C96.8994 73.1172 101.06 64.8984 101.06 55.8125C101.06 40.9766 90.1125 28.3203 75.1148 23.8125C70.2817 9.9375 55.6005 0 38.475 0ZM38.475 4C57.5543 4 72.7102 17.4219 72.7102 33.8125C72.7102 50.1875 57.3645 63.625 38.2852 63.625C35.5482 63.625 32.8588 63.4297 30.4383 62.875L29.8055 62.6875L29.1727 62.9375C28.9354 63.0391 28.437 63.2578 28.1602 63.375C28.1127 63.3906 28.0178 63.3594 27.9703 63.375C27.4957 63.4062 27.0448 63.6094 26.7047 63.9375C23.8412 65.1016 20.0681 66.5547 15.8836 67.6875C13.2021 68.4141 10.4968 68.9609 8.22656 69.125C7.22197 69.1953 6.80273 68.8984 6.01172 68.8125C6.66035 68.3125 7.20615 67.9141 8.03672 67.25C10.7341 65.0781 14.0563 61.9375 15.1242 57.25L15.3773 56.0625L14.4914 55.25C8.01299 49.7891 4.05 42.1875 4.05 33.8125C4.05 17.4375 19.3957 4 38.475 4ZM76.2539 28.375C76.6336 28.5156 77.0212 28.6562 77.393 28.8125C77.1319 29.1484 76.95 29.5469 76.95 30C76.95 31.1016 77.8597 32 78.975 32C79.9084 32 80.6361 31.3437 80.8734 30.5C85.3664 32.9531 89.1158 36.2734 91.8844 40.1875C91.6392 40.0859 91.4019 40 91.125 40C90.0097 40 89.1 40.8984 89.1 42C89.1 43.1016 90.0097 44 91.125 44C92.2008 44 93.0788 43.1719 93.15 42.125C94.0834 43.6875 94.8902 45.3594 95.4914 47.0625C95.3253 47.3516 95.175 47.6484 95.175 48C95.175 48.75 95.6338 49.3437 96.2508 49.6875C96.7333 51.6719 97.0102 53.7109 97.0102 55.8125C97.0102 56.5625 96.9469 57.3203 96.8836 58.0625C95.9265 58.2187 95.175 59.0078 95.175 60C95.175 60.7812 95.6575 61.4219 96.3141 61.75C94.9219 67.75 91.481 73.1172 86.5688 77.25L85.6195 78.0625L85.9359 79.3125C86.9643 83.2656 89.4876 86.0781 91.8844 88.1875C91.6392 88.0859 91.4019 88 91.125 88C90.0097 88 89.1 88.8984 89.1 90C89.1 90.2031 89.1712 90.375 89.2266 90.5625C87.9372 90.3906 86.6083 90.1328 85.1766 89.75C80.8418 88.5937 76.6178 86.9453 73.7859 85.75C74.4425 85.4219 74.925 84.7812 74.925 84C74.925 82.8984 74.0153 82 72.9 82C71.7847 82 70.875 82.8984 70.875 84C70.875 84.2734 70.962 84.5078 71.0648 84.75L70.7484 84.8125C68.1302 85.2109 65.417 85.625 62.775 85.625C62.4823 85.625 62.1817 85.6328 61.8891 85.625C62.4111 85.2656 62.775 84.6797 62.775 84C62.775 82.8984 61.8653 82 60.75 82C59.6347 82 58.725 82.8984 58.725 84C58.725 84.5547 58.9307 85.0781 59.2945 85.4375C56.2491 85.1719 53.3145 84.5937 50.5617 83.6875C50.4035 82.7422 49.6046 82 48.6 82C48.1175 82 47.6824 82.1641 47.3344 82.4375C45.6891 81.7187 44.1308 80.9297 42.6516 80C43.7115 79.9297 44.55 79.0625 44.55 78C44.55 76.8984 43.6403 76 42.525 76C41.4097 76 40.5 76.8984 40.5 78C40.5 78.2266 40.5554 78.4219 40.6266 78.625C38.5699 77.1172 36.7189 75.375 35.1211 73.5C35.4771 73.8047 35.9438 74 36.45 74C37.5653 74 38.475 73.1016 38.475 72C38.475 70.8984 37.5653 70 36.45 70C35.3347 70 34.425 70.8984 34.425 72C34.425 72.4531 34.6069 72.8516 34.868 73.1875C33.46 71.4844 32.226 69.6875 31.2609 67.75C31.5773 67.5937 31.8305 67.3516 32.0203 67.0625C34.0928 67.3828 36.1969 67.625 38.2852 67.625C39.2344 67.625 40.1994 67.5625 41.1328 67.5C41.4967 67.8281 41.995 68 42.525 68C43.1815 68 43.7353 67.6719 44.107 67.1875C47.192 66.7734 50.1583 66.0859 52.9664 65.0625C52.8003 65.3516 52.65 65.6484 52.65 66C52.65 67.1016 53.5597 68 54.675 68C55.7903 68 56.7 67.1016 56.7 66C56.7 65.0781 56.0355 64.3594 55.1813 64.125C56.8028 63.4219 58.377 62.6406 59.8641 61.75C60.1409 61.8906 60.4178 62 60.75 62C61.8653 62 62.775 61.1016 62.775 60C62.775 59.9531 62.7117 59.9219 62.7117 59.875C64.3887 58.6562 65.9707 57.3203 67.3945 55.875C68.0906 55.6641 68.5732 55.0859 68.7234 54.375C69.997 52.9297 71.2072 51.4375 72.2039 49.8125C72.4333 49.8984 72.639 50 72.9 50C74.0153 50 74.925 49.1016 74.925 48C74.925 47.2969 74.5295 46.7344 73.9758 46.375C75.7477 42.5 76.7602 38.2656 76.7602 33.8125C76.7602 31.9609 76.5782 30.1406 76.2539 28.375ZM85.05 34C83.9347 34 83.025 34.8984 83.025 36C83.025 37.1016 83.9347 38 85.05 38C86.1653 38 87.075 37.1016 87.075 36C87.075 34.8984 86.1653 34 85.05 34ZM78.975 40C77.8597 40 76.95 40.8984 76.95 42C76.95 43.1016 77.8597 44 78.975 44C80.0903 44 81 43.1016 81 42C81 40.8984 80.0903 40 78.975 40ZM85.05 46C83.9347 46 83.025 46.8984 83.025 48C83.025 49.1016 83.9347 50 85.05 50C86.1653 50 87.075 49.1016 87.075 48C87.075 46.8984 86.1653 46 85.05 46ZM78.975 52C77.8597 52 76.95 52.8984 76.95 54C76.95 55.1016 77.8597 56 78.975 56C80.0903 56 81 55.1016 81 54C81 52.8984 80.0903 52 78.975 52ZM91.125 52C90.0097 52 89.1 52.8984 89.1 54C89.1 55.1016 90.0097 56 91.125 56C92.2403 56 93.15 55.1016 93.15 54C93.15 52.8984 92.2403 52 91.125 52ZM72.9 58C71.7847 58 70.875 58.8984 70.875 60C70.875 61.1016 71.7847 62 72.9 62C74.0153 62 74.925 61.1016 74.925 60C74.925 58.8984 74.0153 58 72.9 58ZM85.05 58C83.9347 58 83.025 58.8984 83.025 60C83.025 61.1016 83.9347 62 85.05 62C86.1653 62 87.075 61.1016 87.075 60C87.075 58.8984 86.1653 58 85.05 58ZM66.825 64C65.7097 64 64.8 64.8984 64.8 66C64.8 67.1016 65.7097 68 66.825 68C67.9403 68 68.85 67.1016 68.85 66C68.85 64.8984 67.9403 64 66.825 64ZM78.975 64C77.8597 64 76.95 64.8984 76.95 66C76.95 67.1016 77.8597 68 78.975 68C80.0903 68 81 67.1016 81 66C81 64.8984 80.0903 64 78.975 64ZM91.125 64C90.0097 64 89.1 64.8984 89.1 66C89.1 67.1016 90.0097 68 91.125 68C92.2403 68 93.15 67.1016 93.15 66C93.15 64.8984 92.2403 64 91.125 64ZM48.6 70C47.4847 70 46.575 70.8984 46.575 72C46.575 73.1016 47.4847 74 48.6 74C49.7153 74 50.625 73.1016 50.625 72C50.625 70.8984 49.7153 70 48.6 70ZM60.75 70C59.6347 70 58.725 70.8984 58.725 72C58.725 73.1016 59.6347 74 60.75 74C61.8653 74 62.775 73.1016 62.775 72C62.775 70.8984 61.8653 70 60.75 70ZM72.9 70C71.7847 70 70.875 70.8984 70.875 72C70.875 73.1016 71.7847 74 72.9 74C74.0153 74 74.925 73.1016 74.925 72C74.925 70.8984 74.0153 70 72.9 70ZM85.05 70C83.9347 70 83.025 70.8984 83.025 72C83.025 73.1016 83.9347 74 85.05 74C86.1653 74 87.075 73.1016 87.075 72C87.075 70.8984 86.1653 70 85.05 70ZM54.675 76C53.5597 76 52.65 76.8984 52.65 78C52.65 79.1016 53.5597 80 54.675 80C55.7903 80 56.7 79.1016 56.7 78C56.7 76.8984 55.7903 76 54.675 76ZM66.825 76C65.7097 76 64.8 76.8984 64.8 78C64.8 79.1016 65.7097 80 66.825 80C67.9403 80 68.85 79.1016 68.85 78C68.85 76.8984 67.9403 76 66.825 76ZM78.975 76C77.8597 76 76.95 76.8984 76.95 78C76.95 79.1016 77.8597 80 78.975 80C80.0903 80 81 79.1016 81 78C81 76.8984 80.0903 76 78.975 76ZM85.05 82C83.9347 82 83.025 82.8984 83.025 84C83.025 85.1016 83.9347 86 85.05 86C86.1653 86 87.075 85.1016 87.075 84C87.075 82.8984 86.1653 82 85.05 82ZM92.7703 88.875C92.8573 88.9453 92.9364 89.0547 93.0234 89.125C93.8619 89.8125 94.4631 90.2344 95.1117 90.75C94.4314 90.8125 93.6879 90.8203 92.8969 90.8125C93.0234 90.5547 93.15 90.3047 93.15 90C93.15 89.5781 92.9997 89.1953 92.7703 88.875Z" fill="white"/>
</svg>
