<svg width="50" height="45" viewBox="0 0 50 45" fill="none" xmlns="http://www.w3.org/2000/svg">
<path d="M34.2169 0.125521C33.1974 0.184115 32.1935 0.434115 31.2481 0.906771L25.7481 3.59427H10.1231L1.24814 1.43802C1.11533 1.39896 0.97861 1.39115 0.841891 1.40677C0.357516 1.46537 -0.00967146 1.8638 -0.033109 2.35208C-0.0565465 2.83646 0.271579 3.27005 0.748141 3.37552L9.74814 5.56302L9.87314 5.59427H21.6544L13.1544 9.75052C13.1192 9.76615 13.0958 9.7974 13.0606 9.81302C11.7403 10.3951 11.3927 12.1997 12.3731 13.2505L12.3419 13.2818C12.3575 13.2974 12.3888 13.2974 12.4044 13.313C15.381 16.5747 20.0958 17.6568 24.2481 16.0318H24.2794L30.1544 13.7505L42.2794 25.9068C43.1974 26.8247 43.1974 28.2701 42.2794 29.188C41.3614 30.106 39.9161 30.106 38.9981 29.188C38.5997 28.8677 38.0255 28.899 37.6622 29.2583C37.3028 29.6216 37.2716 30.1958 37.5919 30.5943C38.5099 31.5122 38.5099 32.9888 37.5919 33.9068C36.6739 34.8247 35.2286 34.8247 34.3106 33.9068L33.5919 33.188C33.1935 32.8677 32.6192 32.899 32.256 33.2583C31.8966 33.6216 31.8653 34.1958 32.1856 34.5943C33.1036 35.5122 33.1036 36.9888 32.1856 37.9068C31.2677 38.8247 29.8224 38.8247 28.9044 37.9068L28.2169 37.188C27.8302 36.7896 27.1935 36.7857 26.795 37.1724C26.3966 37.5591 26.3927 38.1958 26.7794 38.5943C27.6974 39.5122 27.6974 40.9888 26.7794 41.9068C25.8614 42.8247 24.4161 42.8247 23.4981 41.9068L22.2481 40.6568L22.9981 39.9068C24.463 38.4419 24.463 36.0591 22.9981 34.5943C22.2677 33.8638 21.3028 33.5005 20.3419 33.5005C20.3302 33.5005 20.3224 33.5005 20.3106 33.5005C20.3263 32.5161 19.963 31.5279 19.2169 30.7818C18.4864 30.0513 17.5216 29.688 16.5606 29.688C16.5099 29.688 16.4552 29.6841 16.4044 29.688C16.4356 28.6841 16.0763 27.6724 15.3106 26.9068C14.5802 26.1763 13.6153 25.7818 12.6544 25.7818C12.6036 25.7818 12.5489 25.7779 12.4981 25.7818C12.5294 24.7779 12.17 23.7661 11.4044 23.0005C10.6739 22.2701 9.70908 21.9068 8.74814 21.9068C7.7872 21.9068 6.82236 22.2701 6.09189 23.0005L5.18564 23.9068L1.15439 23.2193C1.09189 23.2036 1.02939 23.1919 0.966891 23.188C0.41611 23.1529 -0.0604528 23.5747 -0.095609 24.1255C-0.130765 24.6763 0.29111 25.1529 0.841891 25.188L4.12314 25.7818C3.82627 27.0122 4.13486 28.356 5.09189 29.313C5.86533 30.0865 6.89267 30.4497 7.90439 30.4068C7.86142 31.4185 8.2247 32.4458 8.99814 33.2193C9.77158 33.9927 10.7989 34.356 11.8106 34.313C11.7794 35.3169 12.1388 36.3286 12.9044 37.0943C13.6505 37.8404 14.6388 38.2036 15.6231 38.188C15.5997 39.1763 15.9513 40.1724 16.6856 40.9068L16.7169 40.938C17.7599 41.9576 19.2599 42.2271 20.5606 41.7818L22.0919 43.313C23.7716 44.9927 26.5372 44.9927 28.2169 43.313C29.0333 42.4966 29.4122 41.4185 29.4356 40.3443C30.881 40.7271 32.4669 40.438 33.5919 39.313C34.4083 38.4966 34.8185 37.4185 34.8419 36.3443C36.2833 36.7232 37.8731 36.438 38.9981 35.313C39.9591 34.3521 40.3224 33.0435 40.1856 31.7818C41.4474 31.9224 42.756 31.5552 43.7169 30.5943C44.7911 29.5201 45.1739 28.0122 44.8731 26.6255L45.4669 26.0318L49.1544 25.5005C49.7052 25.4146 50.0841 24.8951 49.9981 24.3443C49.9122 23.7935 49.3927 23.4146 48.8419 23.5005L44.8419 24.1255L44.5294 24.1568L43.9356 24.7505C43.8653 24.6685 43.795 24.5786 43.7169 24.5005L31.4044 12.188C31.3575 12.1411 31.3028 12.0982 31.2481 12.063C31.2364 12.0513 31.2286 12.0435 31.2169 12.0318C30.9552 11.6451 30.463 11.4927 30.0294 11.6568L23.5294 14.1568C20.1114 15.5083 16.2638 14.6294 13.8419 11.938L13.8106 11.9068C13.6817 11.7779 13.6739 11.688 13.8419 11.6255H13.9044L13.9356 11.5943L26.2794 5.56302C26.4903 5.53177 26.6895 5.43412 26.8419 5.28177L32.1231 2.68802H32.1544C33.9981 1.76615 36.1505 1.95365 37.8419 3.09427L38.2169 3.53177L38.3106 3.65677L38.4356 3.71927C40.252 4.96927 42.4395 5.3013 44.4981 4.75052V4.78177L44.5606 4.75052L49.2169 3.78177C49.7599 3.66068 50.1036 3.12162 49.9825 2.57865C49.8614 2.03568 49.3224 1.69193 48.7794 1.81302L44.0919 2.81302L44.0606 2.84427H44.0294C42.5372 3.25833 40.9981 2.9849 39.6544 2.09427L39.2794 1.65677L39.1856 1.56302L39.0606 1.46927C37.9122 0.664584 36.5997 0.227084 35.2481 0.125521C34.9083 0.102084 34.5567 0.10599 34.2169 0.125521ZM8.74814 23.8443C9.18564 23.8443 9.63095 24.0396 9.99814 24.4068C10.7325 25.1411 10.7325 26.1724 9.99814 26.9068L9.21689 27.6568L9.12314 27.7505L8.99814 27.9068C8.26377 28.6411 7.23252 28.6411 6.49814 27.9068C5.89658 27.3052 5.80674 26.5161 6.18564 25.8443C6.36142 25.7193 6.49033 25.5474 6.56064 25.3443L7.37314 24.563L7.49814 24.4068C7.86533 24.0396 8.31064 23.8443 8.74814 23.8443ZM12.6544 27.7505C13.0919 27.7505 13.5372 27.9458 13.9044 28.313C14.6388 29.0474 14.6388 30.0474 13.9044 30.7818L12.9044 31.7818C12.17 32.5161 11.1388 32.5161 10.4044 31.7818C9.67002 31.0474 9.67002 30.0474 10.4044 29.313L11.4044 28.313C11.7716 27.9458 12.2169 27.7505 12.6544 27.7505ZM16.5606 31.6568C16.9981 31.6568 17.4122 31.8521 17.7794 32.2193C18.3849 32.8247 18.4864 33.6138 18.0919 34.2818C17.9552 34.3833 17.8106 34.4693 17.6856 34.5943L16.6856 35.5943V35.6255H16.6544C16.545 35.7466 16.463 35.8716 16.3731 36.0005C15.7052 36.3951 14.9161 36.2935 14.3106 35.688C13.5763 34.9536 13.5763 33.9536 14.3106 33.2193L15.0606 32.438L15.2481 32.2818L15.3106 32.2193C15.6778 31.8521 16.1231 31.6568 16.5606 31.6568ZM20.3419 35.4693C20.7794 35.4693 21.2247 35.6333 21.5919 36.0005C22.3263 36.7349 22.3263 37.7661 21.5919 38.5005L20.5919 39.5005C20.506 39.5865 20.4356 39.6841 20.3419 39.7505C20.3341 39.7544 20.3185 39.7466 20.3106 39.7505C19.6114 40.2349 18.7364 40.1451 18.0919 39.5005C17.6192 39.0279 17.5099 38.0826 17.8419 37.3755C17.9669 37.2779 18.1036 37.2076 18.2169 37.0943L19.2169 36.0943C19.3497 35.9615 19.4513 35.8052 19.5606 35.6568C19.8106 35.5318 20.0802 35.4693 20.3419 35.4693Z" fill="black"/>
</svg>
