<svg width="101" height="82" viewBox="0 0 101 82" fill="none" xmlns="http://www.w3.org/2000/svg">
<path d="M49.998 0.5C47.5137 0.5 45.498 2.51562 45.498 5C45.498 5.28125 45.5273 5.56836 45.5859 5.84375C45.6328 6.10156 45.7031 6.35938 45.8027 6.59961C45.8145 6.65234 45.832 6.69922 45.8496 6.74609C45.8555 6.75195 45.8555 6.76367 45.8613 6.76953C47.3496 10.6074 52.998 14 52.998 14C52.998 14 58.7578 10.543 60.1816 6.6582C60.3926 6.13086 60.498 5.56836 60.498 5C60.498 2.51562 58.4824 0.5 55.998 0.5C54.8906 0.5 53.8242 0.910157 52.998 1.64844C52.1719 0.910157 51.1055 0.5 49.998 0.5ZM9.49805 5C8.67187 5 7.99805 5.67383 7.99805 6.5C7.99805 7.32617 8.67187 8 9.49805 8C10.3242 8 10.998 7.32617 10.998 6.5C10.998 5.67383 10.3242 5 9.49805 5ZM19.998 5C19.1719 5 18.498 5.67383 18.498 6.5C18.498 7.32617 19.1719 8 19.998 8C20.8242 8 21.498 7.32617 21.498 6.5C21.498 5.67383 20.8242 5 19.998 5ZM28.998 5C28.1719 5 27.498 5.67383 27.498 6.5C27.498 7.32617 28.1719 8 28.998 8C29.8242 8 30.498 7.32617 30.498 6.5C30.498 5.67383 29.8242 5 28.998 5ZM36.498 5C35.6719 5 34.998 5.67383 34.998 6.5C34.998 7.32617 35.6719 8 36.498 8C37.3242 8 37.998 7.32617 37.998 6.5C37.998 5.67383 37.3242 5 36.498 5ZM69.498 5C68.6719 5 67.998 5.67383 67.998 6.5C67.998 7.32617 68.6719 8 69.498 8C70.3242 8 70.998 7.32617 70.998 6.5C70.998 5.67383 70.3242 5 69.498 5ZM76.998 5C76.1719 5 75.498 5.67383 75.498 6.5C75.498 7.32617 76.1719 8 76.998 8C77.8242 8 78.498 7.32617 78.498 6.5C78.498 5.67383 77.8242 5 76.998 5ZM85.998 5C85.1719 5 84.498 5.67383 84.498 6.5C84.498 7.32617 85.1719 8 85.998 8C86.8242 8 87.498 7.32617 87.498 6.5C87.498 5.67383 86.8242 5 85.998 5ZM96.498 5C95.6719 5 94.998 5.67383 94.998 6.5C94.998 7.32617 95.6719 8 96.498 8C97.3242 8 97.998 7.32617 97.998 6.5C97.998 5.67383 97.3242 5 96.498 5ZM28.5879 17C21.3281 17 14.8008 20.9727 10.0664 24.834C5.33203 28.7012 2.31445 32.5801 2.31445 32.5801L0.960938 34.3145L3.07617 34.9355C3.07617 34.9355 3.89648 35.1641 4.88086 36.1719C5.85937 37.1738 6.9082 38.8848 6.9082 42.125C6.9082 46.3262 7.55273 49.7188 7.86914 51.1543C7.03711 51.916 6.49805 52.9941 6.49805 54.2012C6.49805 55.1738 6.79102 56.0059 7.02539 56.8203C7.14844 57.2305 7.26562 57.6113 7.3418 57.8984C7.41797 58.1855 7.43555 58.4668 7.43555 58.25C7.43555 60.2891 9.14648 61.8828 11.1621 61.9531C11.5898 70.959 18.0469 78.3535 26.6602 80.0879C27.7207 80.9316 29.0332 81.5 30.498 81.5C31.957 81.5 33.2637 80.9316 34.3184 80.0938C42.9434 78.3652 49.4062 70.9648 49.834 61.9531C51.8496 61.8828 53.5605 60.2891 53.5605 58.25C53.5605 58.4668 53.5781 58.1855 53.6543 57.8984C53.6777 57.8105 53.7188 57.6758 53.748 57.5762C53.7773 57.6758 53.8184 57.8105 53.8418 57.8984C53.918 58.1855 53.9355 58.4668 53.9355 58.25C53.9355 60.2891 55.6465 61.8828 57.6621 61.9531C58.0898 70.959 64.5469 78.3535 73.1602 80.0879C74.2207 80.9316 75.5332 81.5 76.998 81.5C78.457 81.5 79.7637 80.9316 80.8184 80.0938C89.4434 78.3652 95.9062 70.9648 96.334 61.9531C98.3496 61.8828 100.061 60.2891 100.061 58.25C100.061 58.4668 100.078 58.1855 100.154 57.8984C100.23 57.6113 100.348 57.2305 100.465 56.8203C100.705 56.0059 100.998 55.1738 100.998 54.2012C100.998 52.9707 100.441 51.8867 99.5859 51.1191C99.8613 49.5371 100.998 42.7637 100.998 38C100.998 32.6094 98.9824 28.748 96.2637 26.3516C93.8203 24.207 90.9492 23.3457 88.4062 23.1641C87.9961 22.5137 87.2695 21.4941 85.7637 20.3164C83.6016 18.6348 80.1328 17 75.0879 17C63.4746 17 54.5273 25.168 51.5273 28.2734C50.9883 27.5586 50.3965 26.9141 49.7637 26.3516C47.3203 24.207 44.4492 23.3457 41.9062 23.1641C41.4961 22.5137 40.7695 21.4941 39.2637 20.3164C37.1016 18.6348 33.6328 17 28.5879 17ZM28.5879 20C32.9941 20 35.7305 21.3652 37.4121 22.6836C39.0996 24.002 39.6562 25.1621 39.6562 25.1621L40.0664 26H40.998C42.9961 26 45.6855 26.7617 47.7773 28.6074C49.875 30.4531 51.498 33.3359 51.498 38C51.498 42.1836 50.502 48.2891 50.209 50C50.2031 50 50.1973 50 50.1855 50C50.0566 50 50.0801 50.0293 49.998 50.041V45.5C49.998 40.3672 47.9004 36.916 45.791 34.8711C43.6816 32.8262 41.4727 32.0762 41.4727 32.0762L40.6172 31.7891L39.9609 32.416C39.9609 32.416 39.0176 33.3418 36.7383 34.3848C34.459 35.4277 30.9316 36.5 25.998 36.5C23.2969 36.5 19.7402 37.4551 16.6523 39.6113C13.5762 41.7617 11.0156 45.2773 11.0039 50.0469C10.9219 50.0352 10.9395 50 10.8105 50C10.7754 50 10.7402 50.0117 10.7051 50.0117C10.4004 48.5645 9.9082 45.7402 9.9082 42.125C9.9082 38.1992 8.50195 35.5918 7.02539 34.0801C6.4043 33.4355 6.26367 33.5469 5.71875 33.2246C6.75586 32.0059 8.68359 29.8438 11.9648 27.166C16.4238 23.5273 22.4473 20 28.5879 20ZM75.0879 20C79.4941 20 82.2305 21.3652 83.9121 22.6836C85.5996 24.002 86.1562 25.1621 86.1562 25.1621L86.5664 26H87.498C89.4961 26 92.1855 26.7617 94.2773 28.6074C96.375 30.4531 97.998 33.3359 97.998 38C97.998 42.1836 97.002 48.2891 96.709 50C96.7031 50 96.6973 50 96.6855 50C96.5566 50 96.5801 50.0293 96.498 50.041V45.5C96.498 40.3672 94.4004 36.916 92.291 34.8711C90.1816 32.8262 87.9727 32.0762 87.9727 32.0762L87.1172 31.7891L86.4609 32.416C86.4609 32.416 85.5176 33.3418 83.2383 34.3848C80.959 35.4277 77.4316 36.5 72.498 36.5C69.7969 36.5 66.2402 37.4551 63.1523 39.6113C60.0762 41.7617 57.5156 45.2773 57.5039 50.0469C57.4219 50.0352 57.4395 50 57.3105 50C57.2754 50 57.2402 50.0117 57.2051 50.0117C56.9004 48.5645 56.4082 45.7402 56.4082 42.125C56.4082 35.7969 54.2109 32.1113 53.332 30.7637C55.0371 28.9238 63.8145 20 75.0879 20ZM40.998 35.2344C41.3613 35.375 42.3105 35.6738 43.7051 37.0215C45.3457 38.6152 46.998 41.1582 46.998 45.5V54.957L49.2539 53.6328C49.6406 53.4102 49.998 53.2109 50.25 53.082C50.2793 53.0645 50.291 53.0645 50.3203 53.0469C51.0059 53.1172 51.498 53.5977 51.498 54.1953V54.2012C51.498 54.3125 51.3164 55.1914 51.0879 55.9766C50.9707 56.3633 50.8535 56.7559 50.7539 57.1133C50.6602 57.4707 50.5605 57.7227 50.5605 58.25C50.5605 58.6484 50.2324 59 49.7168 59H46.998V61.0508C46.998 69.1836 41.1328 75.9043 33.4102 77.2812L32.9824 77.3516L32.6602 77.6504C32.0742 78.1836 31.3359 78.5 30.498 78.5C29.6602 78.5 28.9219 78.1836 28.3359 77.6504L28.0137 77.3516L27.5859 77.2812C19.8633 75.9043 13.998 69.1836 13.998 61.0508V59H11.2793C10.7637 59 10.4355 58.6484 10.4355 58.25C10.4355 57.7227 10.3359 57.4707 10.2363 57.1133C10.1367 56.7559 10.0195 56.3633 9.90234 55.9766C9.67383 55.1914 9.49805 54.3125 9.49805 54.2012C9.49805 53.5977 9.99023 53.1172 10.6758 53.0469C10.7051 53.0645 10.7168 53.0645 10.7461 53.082C10.998 53.2109 11.3555 53.4102 11.7422 53.6328L13.998 54.957V50.0762C13.998 46.3379 15.8613 43.8242 18.3691 42.0723C20.877 40.3203 24.0645 39.5 25.998 39.5C31.3711 39.5 35.3438 38.3223 37.9863 37.1152C39.9492 36.2188 40.4648 35.668 40.998 35.2344ZM87.498 35.2344C87.8613 35.375 88.8105 35.6738 90.2051 37.0215C91.8457 38.6152 93.498 41.1582 93.498 45.5V54.957L95.7539 53.6328C96.1406 53.4102 96.498 53.2109 96.75 53.082C96.7793 53.0645 96.791 53.0645 96.8203 53.0469C97.5059 53.1172 97.998 53.5977 97.998 54.1953V54.2012C97.998 54.3125 97.8164 55.1914 97.5879 55.9766C97.4707 56.3633 97.3535 56.7559 97.2539 57.1133C97.1602 57.4707 97.0605 57.7227 97.0605 58.25C97.0605 58.6484 96.7324 59 96.2168 59H93.498V61.0508C93.498 69.1836 87.6328 75.9043 79.9102 77.2812L79.4824 77.3516L79.1602 77.6504C78.5742 78.1836 77.8359 78.5 76.998 78.5C76.1602 78.5 75.4219 78.1836 74.8359 77.6504L74.5137 77.3516L74.0859 77.2812C66.3633 75.9043 60.498 69.1836 60.498 61.0508V59H57.7793C57.2637 59 56.9355 58.6484 56.9355 58.25C56.9355 57.7227 56.8359 57.4707 56.7363 57.1133C56.6367 56.7559 56.5195 56.3633 56.4023 55.9766C56.1738 55.1914 55.998 54.3125 55.998 54.2012C55.998 53.5977 56.4902 53.1172 57.1758 53.0469C57.2051 53.0645 57.2168 53.0645 57.2461 53.082C57.498 53.2109 57.8555 53.4102 58.2422 53.6328L60.498 54.957V50.0762C60.498 46.3379 62.3613 43.8242 64.8691 42.0723C67.377 40.3203 70.5645 39.5 72.498 39.5C77.8711 39.5 81.8438 38.3223 84.4863 37.1152C86.4492 36.2188 86.9648 35.668 87.498 35.2344ZM53.707 47.0645C53.918 48.8926 54.1934 50.3516 54.375 51.1543C54.1348 51.3711 53.9297 51.6172 53.748 51.8809C53.5488 51.6055 53.3379 51.3418 53.0859 51.1191C53.1914 50.4863 53.4492 48.9043 53.707 47.0645ZM22.248 53C21.0059 53 19.998 54.0078 19.998 55.25C19.998 56.4922 21.0059 57.5 22.248 57.5C23.4902 57.5 24.498 56.4922 24.498 55.25C24.498 54.0078 23.4902 53 22.248 53ZM38.748 53C37.5059 53 36.498 54.0078 36.498 55.25C36.498 56.4922 37.5059 57.5 38.748 57.5C39.9902 57.5 40.998 56.4922 40.998 55.25C40.998 54.0078 39.9902 53 38.748 53ZM68.748 53C67.5059 53 66.498 54.0078 66.498 55.25C66.498 56.4922 67.5059 57.5 68.748 57.5C69.9902 57.5 70.998 56.4922 70.998 55.25C70.998 54.0078 69.9902 53 68.748 53ZM85.248 53C84.0059 53 82.998 54.0078 82.998 55.25C82.998 56.4922 84.0059 57.5 85.248 57.5C86.4902 57.5 87.498 56.4922 87.498 55.25C87.498 54.0078 86.4902 53 85.248 53Z" fill="white"/>
</svg>
