<svg width="100" height="94" viewBox="0 0 100 94" fill="none" xmlns="http://www.w3.org/2000/svg">
<path d="M74.0004 0.5C60.7633 0.5 50.0004 11.2629 50.0004 24.5C50.0004 37.7371 60.7633 48.5 74.0004 48.5C87.2374 48.5 98.0004 37.7371 98.0004 24.5C98.0004 11.2629 87.2374 0.5 74.0004 0.5ZM74.0004 3.5C85.6161 3.5 95.0004 12.8843 95.0004 24.5C95.0004 36.1157 85.6161 45.5 74.0004 45.5C62.3846 45.5 53.0004 36.1157 53.0004 24.5C53.0004 12.8843 62.3846 3.5 74.0004 3.5ZM74.0004 6.5C73.6025 6.5 73.221 6.65804 72.9397 6.93934C72.6584 7.22064 72.5004 7.60218 72.5004 8C72.5004 8.39782 72.6584 8.77936 72.9397 9.06066C73.221 9.34196 73.6025 9.5 74.0004 9.5C74.3982 9.5 74.7797 9.34196 75.061 9.06066C75.3423 8.77936 75.5004 8.39782 75.5004 8C75.5004 7.60218 75.3423 7.22064 75.061 6.93934C74.7797 6.65804 74.3982 6.5 74.0004 6.5ZM67.6869 7.75684C67.2891 7.75684 66.9075 7.91487 66.6262 8.19618C66.3449 8.47748 66.1869 8.85901 66.1869 9.25684C66.1869 9.65466 66.3449 10.0362 66.6262 10.3175C66.9075 10.5988 67.2891 10.7568 67.6869 10.7568C68.0847 10.7568 68.4662 10.5988 68.7475 10.3175C69.0288 10.0362 69.1869 9.65466 69.1869 9.25684C69.1869 8.85901 69.0288 8.47748 68.7475 8.19618C68.4662 7.91487 68.0847 7.75684 67.6869 7.75684ZM80.3168 7.75684C79.9189 7.75684 79.5374 7.91487 79.2561 8.19618C78.9748 8.47748 78.8168 8.85901 78.8168 9.25684C78.8168 9.65466 78.9748 10.0362 79.2561 10.3175C79.5374 10.5988 79.9189 10.7568 80.3168 10.7568C80.7146 10.7568 81.0961 10.5988 81.3774 10.3175C81.6587 10.0362 81.8168 9.65466 81.8168 9.25684C81.8168 8.85901 81.6587 8.47748 81.3774 8.19618C81.0961 7.91487 80.7146 7.75684 80.3168 7.75684ZM62.3314 11.334C61.9336 11.334 61.5521 11.492 61.2708 11.7733C60.9894 12.0546 60.8314 12.4362 60.8314 12.834C60.8314 13.2318 60.9894 13.6133 61.2708 13.8946C61.5521 14.1759 61.9336 14.334 62.3314 14.334C62.7292 14.334 63.1108 14.1759 63.3921 13.8946C63.6734 13.6133 63.8314 13.2318 63.8314 12.834C63.8314 12.4362 63.6734 12.0546 63.3921 11.7733C63.1108 11.492 62.7292 11.334 62.3314 11.334ZM85.6664 11.334C85.2685 11.334 84.887 11.492 84.6057 11.7733C84.3244 12.0546 84.1664 12.4362 84.1664 12.834C84.1664 13.2318 84.3244 13.6133 84.6057 13.8946C84.887 14.1759 85.2685 14.334 85.6664 14.334C86.0642 14.334 86.4457 14.1759 86.727 13.8946C87.0083 13.6133 87.1664 13.2318 87.1664 12.834C87.1664 12.4362 87.0083 12.0546 86.727 11.7733C86.4457 11.492 86.0642 11.334 85.6664 11.334ZM58.7572 16.6865C58.3594 16.6865 57.9778 16.8446 57.6965 17.1259C57.4152 17.4072 57.2572 17.7887 57.2572 18.1865C57.2572 18.5843 57.4152 18.9659 57.6965 19.2472C57.9778 19.5285 58.3594 19.6865 58.7572 19.6865C59.155 19.6865 59.5366 19.5285 59.8179 19.2472C60.0992 18.9659 60.2572 18.5843 60.2572 18.1865C60.2572 17.7887 60.0992 17.4072 59.8179 17.1259C59.5366 16.8446 59.155 16.6865 58.7572 16.6865ZM89.2435 16.6865C88.8457 16.6865 88.4642 16.8446 88.1829 17.1259C87.9016 17.4072 87.7435 17.7887 87.7435 18.1865C87.7435 18.5843 87.9016 18.9659 88.1829 19.2472C88.4642 19.5285 88.8457 19.6865 89.2435 19.6865C89.6413 19.6865 90.0229 19.5285 90.3042 19.2472C90.5855 18.9659 90.7435 18.5843 90.7435 18.1865C90.7435 17.7887 90.5855 17.4072 90.3042 17.1259C90.0229 16.8446 89.6413 16.6865 89.2435 16.6865ZM57.5004 23C57.1025 23 56.721 23.158 56.4397 23.4393C56.1584 23.7206 56.0004 24.1022 56.0004 24.5C56.0004 24.8978 56.1584 25.2794 56.4397 25.5607C56.721 25.842 57.1025 26 57.5004 26C57.8982 26 58.2797 25.842 58.561 25.5607C58.8423 25.2794 59.0004 24.8978 59.0004 24.5C59.0004 24.1022 58.8423 23.7206 58.561 23.4393C58.2797 23.158 57.8982 23 57.5004 23ZM90.5004 23C90.1025 23 89.721 23.158 89.4397 23.4393C89.1584 23.7206 89.0004 24.1022 89.0004 24.5C89.0004 24.8978 89.1584 25.2794 89.4397 25.5607C89.721 25.842 90.1025 26 90.5004 26C90.8982 26 91.2797 25.842 91.561 25.5607C91.8423 25.2794 92.0004 24.8978 92.0004 24.5C92.0004 24.1022 91.8423 23.7206 91.561 23.4393C91.2797 23.158 90.8982 23 90.5004 23ZM58.7572 29.3164C58.3594 29.3164 57.9778 29.4744 57.6965 29.7557C57.4152 30.0371 57.2572 30.4186 57.2572 30.8164C57.2572 31.2142 57.4152 31.5958 57.6965 31.8771C57.9778 32.1584 58.3594 32.3164 58.7572 32.3164C59.155 32.3164 59.5366 32.1584 59.8179 31.8771C60.0992 31.5958 60.2572 31.2142 60.2572 30.8164C60.2572 30.4186 60.0992 30.0371 59.8179 29.7557C59.5366 29.4744 59.155 29.3164 58.7572 29.3164ZM89.2465 29.3164C88.8486 29.3164 88.4671 29.4744 88.1858 29.7557C87.9045 30.0371 87.7465 30.4186 87.7465 30.8164C87.7465 31.2142 87.9045 31.5958 88.1858 31.8771C88.4671 32.1584 88.8486 32.3164 89.2465 32.3164C89.6443 32.3164 90.0258 32.1584 90.3071 31.8771C90.5884 31.5958 90.7465 31.2142 90.7465 30.8164C90.7465 30.4186 90.5884 30.0371 90.3071 29.7557C90.0258 29.4744 89.6443 29.3164 89.2465 29.3164ZM62.3314 34.666C61.9336 34.666 61.5521 34.8241 61.2708 35.1054C60.9894 35.3867 60.8314 35.7682 60.8314 36.166C60.8314 36.5638 60.9894 36.9454 61.2708 37.2267C61.5521 37.508 61.9336 37.666 62.3314 37.666C62.7292 37.666 63.1108 37.508 63.3921 37.2267C63.6734 36.9454 63.8314 36.5638 63.8314 36.166C63.8314 35.7682 63.6734 35.3867 63.3921 35.1054C63.1108 34.8241 62.7292 34.666 62.3314 34.666ZM85.6664 34.666C85.2685 34.666 84.887 34.8241 84.6057 35.1054C84.3244 35.3867 84.1664 35.7682 84.1664 36.166C84.1664 36.5638 84.3244 36.9454 84.6057 37.2267C84.887 37.508 85.2685 37.666 85.6664 37.666C86.0642 37.666 86.4457 37.508 86.727 37.2267C87.0083 36.9454 87.1664 36.5638 87.1664 36.166C87.1664 35.7682 87.0083 35.3867 86.727 35.1054C86.4457 34.8241 86.0642 34.666 85.6664 34.666ZM67.6898 38.2432C67.292 38.2432 66.9105 38.4012 66.6292 38.6825C66.3478 38.9638 66.1898 39.3453 66.1898 39.7432C66.1898 40.141 66.3478 40.5225 66.6292 40.8038C66.9105 41.0851 67.292 41.2432 67.6898 41.2432C68.0876 41.2432 68.4692 41.0851 68.7505 40.8038C69.0318 40.5225 69.1898 40.141 69.1898 39.7432C69.1898 39.3453 69.0318 38.9638 68.7505 38.6825C68.4692 38.4012 68.0876 38.2432 67.6898 38.2432ZM80.3168 38.2432C79.9189 38.2432 79.5374 38.4012 79.2561 38.6825C78.9748 38.9638 78.8168 39.3453 78.8168 39.7432C78.8168 40.141 78.9748 40.5225 79.2561 40.8038C79.5374 41.0851 79.9189 41.2432 80.3168 41.2432C80.7146 41.2432 81.0961 41.0851 81.3774 40.8038C81.6587 40.5225 81.8168 40.141 81.8168 39.7432C81.8168 39.3453 81.6587 38.9638 81.3774 38.6825C81.0961 38.4012 80.7146 38.2432 80.3168 38.2432ZM74.0004 39.5C73.6025 39.5 73.221 39.658 72.9397 39.9393C72.6584 40.2206 72.5004 40.6022 72.5004 41C72.5004 41.3978 72.6584 41.7794 72.9397 42.0607C73.221 42.342 73.6025 42.5 74.0004 42.5C74.3982 42.5 74.7797 42.342 75.061 42.0607C75.3423 41.7794 75.5004 41.3978 75.5004 41C75.5004 40.6022 75.3423 40.2206 75.061 39.9393C74.7797 39.658 74.3982 39.5 74.0004 39.5ZM24.5004 47C23.0272 47 21.6227 47.2825 20.3285 47.7646C20.2837 47.7712 20.3412 47.7428 20.1703 47.7998L20.2084 47.7852C16.9676 48.772 1.59899 53.0557 1.59899 53.0557C1.40265 53.1023 1.21773 53.188 1.0553 53.3078C0.892865 53.4275 0.756262 53.5788 0.653665 53.7526C0.551067 53.9263 0.484584 54.119 0.458195 54.3191C0.431806 54.5191 0.446052 54.7225 0.500083 54.9169C0.554114 55.1113 0.646817 55.2929 0.772645 55.4506C0.898472 55.6084 1.05484 55.7392 1.23238 55.8351C1.40992 55.931 1.60499 55.9901 1.80592 56.0089C2.00684 56.0277 2.20949 56.0057 2.40173 55.9443C2.40173 55.9443 17.4207 51.7646 20.9789 50.6855C21.085 50.6694 21.1891 50.6419 21.2894 50.6035C22.2955 50.2177 23.3701 50 24.5004 50C26.1477 50 27.6788 50.4469 29.0092 51.2217C29.0612 51.2512 29.115 51.2777 29.1703 51.3008C29.1818 51.3062 29.1938 51.3129 29.2054 51.3184C38.6582 55.7811 57.8557 65.3929 57.9076 65.4189L57.9134 65.4248C57.8251 65.3776 57.8337 65.3833 58.016 65.501C58.0493 65.5228 58.0835 65.5434 58.1185 65.5625C59.5369 66.3272 60.5004 67.7808 60.5004 69.5C60.5004 70.3994 60.235 71.2228 59.7797 71.9287C58.4599 73.9827 55.9087 74.4166 53.5218 73.2676C53.4939 73.254 53.4656 73.2413 53.4369 73.2295L52.4144 72.8135C52.2307 72.7317 52.0325 72.6877 51.8315 72.684C51.6304 72.6804 51.4307 72.7172 51.2442 72.7923C51.0577 72.8674 50.8881 72.9792 50.7457 73.121C50.6032 73.2629 50.4907 73.432 50.4149 73.6182C50.3391 73.8044 50.3015 74.004 50.3043 74.2051C50.3071 74.4061 50.3503 74.6045 50.4314 74.7885C50.5124 74.9725 50.6296 75.1384 50.776 75.2762C50.9224 75.414 51.095 75.521 51.2836 75.5908L52.306 76.0068L52.2211 75.9688C55.2392 77.4217 58.9223 77.0956 61.2826 74.7998L62.9144 75.916C63.1204 76.0566 63.3582 76.1437 63.6063 76.1692C63.8544 76.1948 64.105 76.1581 64.3353 76.0625L88.9476 65.8877L88.3236 64.6426C88.4945 64.9838 88.789 65.247 89.1471 65.3787C89.5052 65.5104 89.9001 65.5007 90.2513 65.3516C90.788 65.1248 91.3753 65 92.0004 65C94.5031 65 96.5004 66.9973 96.5004 69.5C96.5004 71.2083 95.5482 72.6576 94.142 73.4287C93.8119 73.6095 93.5618 73.9077 93.4413 74.2643C93.3208 74.6208 93.3388 75.0096 93.4916 75.3535L92.9291 74.0879L63.3568 89.7852C63.4067 89.7607 63.363 89.7819 63.2953 89.8027C63.225 89.825 63.1565 89.8524 63.0902 89.8848C62.2814 90.2743 61.4175 90.5 60.5004 90.5C59.6169 90.5 58.7861 90.2966 58.0101 89.9404C57.9755 89.9244 57.9404 89.9098 57.9047 89.8965C57.792 89.8548 57.773 89.8465 57.8519 89.8818L20.5834 74.1172C20.2475 73.9755 19.8716 73.9609 19.5258 74.0762L1.52575 80.0762C1.14813 80.202 0.835975 80.4728 0.657962 80.8288C0.479949 81.1848 0.450657 81.597 0.576532 81.9746C0.702406 82.3522 0.973135 82.6644 1.32916 82.8424C1.68519 83.0204 2.09735 83.0497 2.47497 82.9238L19.9388 77.1025L56.6449 92.627C56.8712 92.7298 56.9191 92.7321 56.8646 92.7119C57.9646 93.201 59.1929 93.5 60.5004 93.5C61.9142 93.5 63.2318 93.1473 64.391 92.5889C64.4814 92.5568 64.5615 92.5362 64.6752 92.4805C64.6899 92.4729 64.7046 92.4651 64.7191 92.457L95.5716 76.083C95.8191 75.9498 96.0241 75.7499 96.1634 75.5059C98.1001 74.1561 99.5004 72.0427 99.5004 69.5C99.5004 65.3757 96.1246 62 92.0004 62C91.1796 62 90.4198 62.2231 89.6771 62.4688H89.6742C89.4742 62.4676 89.276 62.5064 89.0912 62.583L63.9369 72.9805L62.7064 72.1396C63.0473 71.2846 63.5004 70.4739 63.5004 69.5C63.5004 66.6502 61.88 64.1802 59.5424 62.9199L59.6449 62.9814C59.6948 63.0137 59.5953 62.92 59.3285 62.7764C59.3159 62.7693 59.3032 62.7625 59.2904 62.7559C59.2904 62.7559 39.9935 53.0904 30.4535 48.5879C30.4428 48.5829 30.4321 48.578 30.4213 48.5732C30.257 48.5003 30.2406 48.4998 30.3217 48.5322C28.5988 47.5701 26.6151 47 24.5004 47ZM33.5004 66.5C33.1025 66.5 32.721 66.658 32.4397 66.9393C32.1584 67.2206 32.0004 67.6022 32.0004 68C32.0004 68.3978 32.1584 68.7794 32.4397 69.0607C32.721 69.342 33.1025 69.5 33.5004 69.5C33.8982 69.5 34.2797 69.342 34.561 69.0607C34.8423 68.7794 35.0004 68.3978 35.0004 68C35.0004 67.6022 34.8423 67.2206 34.561 66.9393C34.2797 66.658 33.8982 66.5 33.5004 66.5ZM38.0004 68C37.6025 68 37.221 68.158 36.9397 68.4393C36.6584 68.7206 36.5004 69.1022 36.5004 69.5C36.5004 69.8978 36.6584 70.2794 36.9397 70.5607C37.221 70.842 37.6025 71 38.0004 71C38.3982 71 38.7797 70.842 39.061 70.5607C39.3423 70.2794 39.5004 69.8978 39.5004 69.5C39.5004 69.1022 39.3423 68.7206 39.061 68.4393C38.7797 68.158 38.3982 68 38.0004 68ZM42.5004 69.5C42.1025 69.5 41.721 69.658 41.4397 69.9393C41.1584 70.2206 41.0004 70.6022 41.0004 71C41.0004 71.3978 41.1584 71.7794 41.4397 72.0607C41.721 72.342 42.1025 72.5 42.5004 72.5C42.8982 72.5 43.2797 72.342 43.561 72.0607C43.8423 71.7794 44.0004 71.3978 44.0004 71C44.0004 70.6022 43.8423 70.2206 43.561 69.9393C43.2797 69.658 42.8982 69.5 42.5004 69.5ZM47.0004 71C46.6025 71 46.221 71.158 45.9397 71.4393C45.6584 71.7206 45.5004 72.1022 45.5004 72.5C45.5004 72.8978 45.6584 73.2794 45.9397 73.5607C46.221 73.842 46.6025 74 47.0004 74C47.3982 74 47.7797 73.842 48.061 73.5607C48.3423 73.2794 48.5004 72.8978 48.5004 72.5C48.5004 72.1022 48.3423 71.7206 48.061 71.4393C47.7797 71.158 47.3982 71 47.0004 71Z" fill="white"/>
</svg>
