<svg width="70" height="72" viewBox="0 0 70 72" fill="none" xmlns="http://www.w3.org/2000/svg">
<path d="M35 0C32.8398 0 31.0312 1.40625 30.3398 3.33594C29.4492 2.52734 28.293 2 27 2C24.25 2 22 4.25 22 7V8.86328C21.2734 8.36328 20.4453 8 19.5 8C17.0273 8 15 10.0273 15 12.5V15H0V55H15.0938L15.3594 57.6719C15.6094 60.1562 17.0547 62.1875 19 63.5V72H21V64C21.5508 64 22 63.5508 22 63C22 62.4492 21.5508 62 21 62C20.793 62 20.5938 62.0625 20.4219 62.1836C18.75 61.2266 17.5547 59.5156 17.3516 57.4688L17.1055 55H41.3281L49.832 47.5977L49.9219 47.3828C49.9219 47.3828 52.0391 42 58.7422 42C61.5078 42 62.4258 43.3711 62.7539 43.9648C62.0234 44.8906 56.7891 51.5273 56.1797 52.2852L47.4805 63.1445C47.0508 63.6758 45 65.7734 45 68.9727V72H47V68.9727C47 66.5898 48.375 65.2188 49.0352 64.3984H49.0391L56.5703 55H70V15H48V7C48 4.25 45.75 2 43 2C41.707 2 40.5508 2.52734 39.6602 3.33594C38.9688 1.40625 37.1602 0 35 0ZM35 2C36.668 2 38 3.33203 38 5V7H40C40 5.33203 41.332 4 43 4C44.668 4 46 5.33203 46 7V15H40C40 14.4492 39.5508 14 39 14C38.4492 14 38 14.4492 38 15H32C32 14.4492 31.5508 14 31 14C30.4492 14 30 14.4492 30 15H17V12.5C17 11.1094 18.1094 10 19.5 10C20.8906 10 22 11.1094 22 12.5H24V7C24 5.33203 25.332 4 27 4C28.668 4 30 5.33203 30 7C30 7.55078 30.4492 8 31 8C31.5508 8 32 7.55078 32 7V5C32 3.33203 33.332 2 35 2ZM31 10C30.4492 10 30 10.4492 30 11C30 11.5508 30.4492 12 31 12C31.5508 12 32 11.5508 32 11C32 10.4492 31.5508 10 31 10ZM39 10C38.4492 10 38 10.4492 38 11C38 11.5508 38.4492 12 39 12C39.5508 12 40 11.5508 40 11C40 10.4492 39.5508 10 39 10ZM2 17H68V53H58.1641C59.4414 51.3945 64.7852 44.6211 64.7852 44.6211L65.1602 44.1406L64.9102 43.5898C64.9102 43.5898 63.1602 40 58.7422 40C51.4375 40 48.5703 45.6094 48.2188 46.3516L40.5781 53H2V17ZM11 19C10.4492 19 10 19.4492 10 20C10 20.5508 10.4492 21 11 21C11.5508 21 12 20.5508 12 20C12 19.4492 11.5508 19 11 19ZM14 19C13.4492 19 13 19.4492 13 20C13 20.5508 13.4492 21 14 21C14.5508 21 15 20.5508 15 20C15 19.4492 14.5508 19 14 19ZM17 19C16.4492 19 16 19.4492 16 20C16 20.5508 16.4492 21 17 21C17.5508 21 18 20.5508 18 20C18 19.4492 17.5508 19 17 19ZM20 19C19.4492 19 19 19.4492 19 20C19 20.5508 19.4492 21 20 21C20.5508 21 21 20.5508 21 20C21 19.4492 20.5508 19 20 19ZM23 19C22.4492 19 22 19.4492 22 20C22 20.5508 22.4492 21 23 21C23.5508 21 24 20.5508 24 20C24 19.4492 23.5508 19 23 19ZM26 19C25.4492 19 25 19.4492 25 20C25 20.5508 25.4492 21 26 21C26.5508 21 27 20.5508 27 20C27 19.4492 26.5508 19 26 19ZM29 19C28.4492 19 28 19.4492 28 20C28 20.5508 28.4492 21 29 21C29.5508 21 30 20.5508 30 20C30 19.4492 29.5508 19 29 19ZM32 19C31.4492 19 31 19.4492 31 20C31 20.5508 31.4492 21 32 21C32.5508 21 33 20.5508 33 20C33 19.4492 32.5508 19 32 19ZM35 19C34.4492 19 34 19.4492 34 20C34 20.5508 34.4492 21 35 21C35.5508 21 36 20.5508 36 20C36 19.4492 35.5508 19 35 19ZM38 19C37.4492 19 37 19.4492 37 20C37 20.5508 37.4492 21 38 21C38.5508 21 39 20.5508 39 20C39 19.4492 38.5508 19 38 19ZM41 19C40.4492 19 40 19.4492 40 20C40 20.5508 40.4492 21 41 21C41.5508 21 42 20.5508 42 20C42 19.4492 41.5508 19 41 19ZM44 19C43.4492 19 43 19.4492 43 20C43 20.5508 43.4492 21 44 21C44.5508 21 45 20.5508 45 20C45 19.4492 44.5508 19 44 19ZM47 19C46.4492 19 46 19.4492 46 20C46 20.5508 46.4492 21 47 21C47.5508 21 48 20.5508 48 20C48 19.4492 47.5508 19 47 19ZM50 19C49.4492 19 49 19.4492 49 20C49 20.5508 49.4492 21 50 21C50.5508 21 51 20.5508 51 20C51 19.4492 50.5508 19 50 19ZM53 19C52.4492 19 52 19.4492 52 20C52 20.5508 52.4492 21 53 21C53.5508 21 54 20.5508 54 20C54 19.4492 53.5508 19 53 19ZM56 19C55.4492 19 55 19.4492 55 20C55 20.5508 55.4492 21 56 21C56.5508 21 57 20.5508 57 20C57 19.4492 56.5508 19 56 19ZM59 19C58.4492 19 58 19.4492 58 20C58 20.5508 58.4492 21 59 21C59.5508 21 60 20.5508 60 20C60 19.4492 59.5508 19 59 19ZM10 22C9.44922 22 9 22.4492 9 23C9 23.5508 9.44922 24 10 24C10.5508 24 11 23.5508 11 23C11 22.4492 10.5508 22 10 22ZM60 22C59.4492 22 59 22.4492 59 23C59 23.5508 59.4492 24 60 24C60.5508 24 61 23.5508 61 23C61 22.4492 60.5508 22 60 22ZM8 24C7.44922 24 7 24.4492 7 25C7 25.5508 7.44922 26 8 26C8.55078 26 9 25.5508 9 25C9 24.4492 8.55078 24 8 24ZM35 24C28.9375 24 24 28.9375 24 35C24 41.0625 28.9375 46 35 46C41.0625 46 46 41.0625 46 35C46 28.9375 41.0625 24 35 24ZM62 24C61.4492 24 61 24.4492 61 25C61 25.5508 61.4492 26 62 26C62.5508 26 63 25.5508 63 25C63 24.4492 62.5508 24 62 24ZM5 25C4.44922 25 4 25.4492 4 26C4 26.5508 4.44922 27 5 27C5.55078 27 6 26.5508 6 26C6 25.4492 5.55078 25 5 25ZM65 25C64.4492 25 64 25.4492 64 26C64 26.5508 64.4492 27 65 27C65.5508 27 66 26.5508 66 26C66 25.4492 65.5508 25 65 25ZM35 26C39.9805 26 44 30.0195 44 35C44 39.9805 39.9805 44 35 44C30.0195 44 26 39.9805 26 35C26 30.0195 30.0195 26 35 26ZM5 28C4.44922 28 4 28.4492 4 29C4 29.5508 4.44922 30 5 30C5.55078 30 6 29.5508 6 29C6 28.4492 5.55078 28 5 28ZM65 28C64.4492 28 64 28.4492 64 29C64 29.5508 64.4492 30 65 30C65.5508 30 66 29.5508 66 29C66 28.4492 65.5508 28 65 28ZM5 31C4.44922 31 4 31.4492 4 32C4 32.5508 4.44922 33 5 33C5.55078 33 6 32.5508 6 32C6 31.4492 5.55078 31 5 31ZM14 31C11.8008 31 10 32.8008 10 35C10 37.1992 11.8008 39 14 39C16.1992 39 18 37.1992 18 35C18 32.8008 16.1992 31 14 31ZM55 31C52.8008 31 51 32.8008 51 35C51 37.1992 52.8008 39 55 39C57.1992 39 59 37.1992 59 35C59 32.8008 57.1992 31 55 31ZM65 31C64.4492 31 64 31.4492 64 32C64 32.5508 64.4492 33 65 33C65.5508 33 66 32.5508 66 32C66 31.4492 65.5508 31 65 31ZM14 33C15.1172 33 16 33.8828 16 35C16 36.1172 15.1172 37 14 37C12.8828 37 12 36.1172 12 35C12 33.8828 12.8828 33 14 33ZM55 33C56.1172 33 57 33.8828 57 35C57 36.1172 56.1172 37 55 37C53.8828 37 53 36.1172 53 35C53 33.8828 53.8828 33 55 33ZM5 34C4.44922 34 4 34.4492 4 35C4 35.5508 4.44922 36 5 36C5.55078 36 6 35.5508 6 35C6 34.4492 5.55078 34 5 34ZM65 34C64.4492 34 64 34.4492 64 35C64 35.5508 64.4492 36 65 36C65.5508 36 66 35.5508 66 35C66 34.4492 65.5508 34 65 34ZM5 37C4.44922 37 4 37.4492 4 38C4 38.5508 4.44922 39 5 39C5.55078 39 6 38.5508 6 38C6 37.4492 5.55078 37 5 37ZM65 37C64.4492 37 64 37.4492 64 38C64 38.5508 64.4492 39 65 39C65.5508 39 66 38.5508 66 38C66 37.4492 65.5508 37 65 37ZM5 40C4.44922 40 4 40.4492 4 41C4 41.5508 4.44922 42 5 42C5.55078 42 6 41.5508 6 41C6 40.4492 5.55078 40 5 40ZM5 43C4.44922 43 4 43.4492 4 44C4 44.5508 4.44922 45 5 45C5.55078 45 6 44.5508 6 44C6 43.4492 5.55078 43 5 43ZM8 44C7.44922 44 7 44.4492 7 45C7 45.5508 7.44922 46 8 46C8.55078 46 9 45.5508 9 45C9 44.4492 8.55078 44 8 44ZM10 46C9.44922 46 9 46.4492 9 47C9 47.5508 9.44922 48 10 48C10.5508 48 11 47.5508 11 47C11 46.4492 10.5508 46 10 46ZM11 49C10.4492 49 10 49.4492 10 50C10 50.5508 10.4492 51 11 51C11.5508 51 12 50.5508 12 50C12 49.4492 11.5508 49 11 49ZM14 49C13.4492 49 13 49.4492 13 50C13 50.5508 13.4492 51 14 51C14.5508 51 15 50.5508 15 50C15 49.4492 14.5508 49 14 49ZM17 49C16.4492 49 16 49.4492 16 50C16 50.5508 16.4492 51 17 51C17.5508 51 18 50.5508 18 50C18 49.4492 17.5508 49 17 49ZM20 49C19.4492 49 19 49.4492 19 50C19 50.5508 19.4492 51 20 51C20.5508 51 21 50.5508 21 50C21 49.4492 20.5508 49 20 49ZM23 49C22.4492 49 22 49.4492 22 50C22 50.5508 22.4492 51 23 51C23.5508 51 24 50.5508 24 50C24 49.4492 23.5508 49 23 49ZM26 49C25.4492 49 25 49.4492 25 50C25 50.5508 25.4492 51 26 51C26.5508 51 27 50.5508 27 50C27 49.4492 26.5508 49 26 49ZM29 49C28.4492 49 28 49.4492 28 50C28 50.5508 28.4492 51 29 51C29.5508 51 30 50.5508 30 50C30 49.4492 29.5508 49 29 49ZM32 49C31.4492 49 31 49.4492 31 50C31 50.5508 31.4492 51 32 51C32.5508 51 33 50.5508 33 50C33 49.4492 32.5508 49 32 49ZM35 49C34.4492 49 34 49.4492 34 50C34 50.5508 34.4492 51 35 51C35.5508 51 36 50.5508 36 50C36 49.4492 35.5508 49 35 49ZM38 49C37.4492 49 37 49.4492 37 50C37 50.5508 37.4492 51 38 51C38.5508 51 39 50.5508 39 50C39 49.4492 38.5508 49 38 49ZM41 49C40.4492 49 40 49.4492 40 50C40 50.5508 40.4492 51 41 51C41.5508 51 42 50.5508 42 50C42 49.4492 41.5508 49 41 49ZM25 62C24.4492 62 24 62.4492 24 63C24 63.5508 24.4492 64 25 64C25.5508 64 26 63.5508 26 63C26 62.4492 25.5508 62 25 62ZM29 62C28.4492 62 28 62.4492 28 63C28 63.5508 28.4492 64 29 64C29.5508 64 30 63.5508 30 63C30 62.4492 29.5508 62 29 62Z" fill="#269944"/>
</svg>
