<svg width="63" height="66" viewBox="0 0 63 66" fill="none" xmlns="http://www.w3.org/2000/svg">
<path d="M0.71875 0L2.21875 6H3V60H21V58H5V6C5.551 6 6 5.551 6 5C6 4.449 5.551 4 5 4H3.78125L3.28125 2H50.7188L50.2188 4H49C48.449 4 48 4.449 48 5C48 5.551 48.449 6 49 6V15H51V6H51.7812L53.2812 0H0.71875ZM9 4C8.449 4 8 4.449 8 5C8 5.551 8.449 6 9 6C9.551 6 10 5.551 10 5C10 4.449 9.551 4 9 4ZM13 4C12.449 4 12 4.449 12 5C12 5.551 12.449 6 13 6C13.551 6 14 5.551 14 5C14 4.449 13.551 4 13 4ZM17 4C16.449 4 16 4.449 16 5C16 5.551 16.449 6 17 6C17.551 6 18 5.551 18 5C18 4.449 17.551 4 17 4ZM21 4C20.449 4 20 4.449 20 5C20 5.551 20.449 6 21 6C21.551 6 22 5.551 22 5C22 4.449 21.551 4 21 4ZM25 4C24.449 4 24 4.449 24 5C24 5.551 24.449 6 25 6C25.551 6 26 5.551 26 5C26 4.449 25.551 4 25 4ZM29 4C28.449 4 28 4.449 28 5C28 5.551 28.449 6 29 6C29.551 6 30 5.551 30 5C30 4.449 29.551 4 29 4ZM33 4C32.449 4 32 4.449 32 5C32 5.551 32.449 6 33 6C33.551 6 34 5.551 34 5C34 4.449 33.551 4 33 4ZM37 4C36.449 4 36 4.449 36 5C36 5.551 36.449 6 37 6C37.551 6 38 5.551 38 5C38 4.449 37.551 4 37 4ZM41 4C40.449 4 40 4.449 40 5C40 5.551 40.449 6 41 6C41.551 6 42 5.551 42 5C42 4.449 41.551 4 41 4ZM45 4C44.449 4 44 4.449 44 5C44 5.551 44.449 6 45 6C45.551 6 46 5.551 46 5C46 4.449 45.551 4 45 4ZM9 10V18H19V17V10H9ZM22 10V15H24V12H30V15H32V10H22ZM35 10V15H37V12H43V15H45V10H35ZM11 12H17V16H11V12ZM21.7188 18L23.2188 24H24V66H60V65V24H60.7812L62.2812 18H21.7188ZM24.2812 20H59.7188L59.2188 22H58C57.449 22 57 22.449 57 23C57 23.551 57.449 24 58 24V64H26V24C26.551 24 27 23.551 27 23C27 22.449 26.551 22 26 22H24.7812L24.2812 20ZM9 22V23V30H19V22H9ZM30 22C29.449 22 29 22.449 29 23C29 23.551 29.449 24 30 24C30.551 24 31 23.551 31 23C31 22.449 30.551 22 30 22ZM34 22C33.449 22 33 22.449 33 23C33 23.551 33.449 24 34 24C34.551 24 35 23.551 35 23C35 22.449 34.551 22 34 22ZM38 22C37.449 22 37 22.449 37 23C37 23.551 37.449 24 38 24C38.551 24 39 23.551 39 23C39 22.449 38.551 22 38 22ZM42 22C41.449 22 41 22.449 41 23C41 23.551 41.449 24 42 24C42.551 24 43 23.551 43 23C43 22.449 42.551 22 42 22ZM46 22C45.449 22 45 22.449 45 23C45 23.551 45.449 24 46 24C46.551 24 47 23.551 47 23C47 22.449 46.551 22 46 22ZM50 22C49.449 22 49 22.449 49 23C49 23.551 49.449 24 50 24C50.551 24 51 23.551 51 23C51 22.449 50.551 22 50 22ZM54 22C53.449 22 53 22.449 53 23C53 23.551 53.449 24 54 24C54.551 24 55 23.551 55 23C55 22.449 54.551 22 54 22ZM11 24H17V28H11V24ZM30 28V34H36V33V28H30ZM39 28V34H45V33V28H39ZM48 28V34H54V33V28H48ZM32 30H34V32H32V30ZM41 30H43V32H41V30ZM50 30H52V32H50V30ZM9 34V35V42H19V34H9ZM11 36H17V40H11V36ZM30 37V43H36V42V37H30ZM39 37V43H45V42V37H39ZM48 37V43H54V42V37H48ZM32 39H34V41H32V39ZM41 39H43V41H41V39ZM50 39H52V41H50V39ZM9 46V47V54H19V46H9ZM30 46V52H36V51V46H30ZM39 46V52H45V51V46H39ZM48 46V52H54V51V46H48ZM11 48H17V52H11V48ZM32 48H34V50H32V48ZM41 48H43V50H41V48ZM50 48H52V50H50V48ZM30 55V61H36V60V55H30ZM39 55V61H45V60V55H39ZM48 55V61H54V60V55H48ZM32 57H34V59H32V57ZM41 57H43V59H41V57ZM50 57H52V59H50V57Z" fill="#269944"/>
</svg>
