<svg width="105" height="101" viewBox="0 0 105 101" fill="none" xmlns="http://www.w3.org/2000/svg">
<path d="M7.5 0.5C3.3645 0.5 0 3.8645 0 8V81.5H54.0439C53.3299 80.552 52.6757 79.556 52.1162 78.5H3V15.5C3.39782 15.5 3.77936 15.342 4.06066 15.0607C4.34196 14.7794 4.5 14.3978 4.5 14C4.5 13.6022 4.34196 13.2206 4.06066 12.9393C3.77936 12.658 3.39782 12.5 3 12.5V8C3 5.519 5.019 3.5 7.5 3.5H82.5C84.981 3.5 87 5.519 87 8V12.5C86.6022 12.5 86.2206 12.658 85.9393 12.9393C85.658 13.2206 85.5 13.6022 85.5 14C85.5 14.3978 85.658 14.7794 85.9393 15.0607C86.2206 15.342 86.6022 15.5 87 15.5V51.2773C88.1055 52.2688 89.109 53.3662 90 54.5557V8C90 3.8645 86.6355 0.5 82.5 0.5H7.5ZM9 12.5C8.60218 12.5 8.22064 12.658 7.93934 12.9393C7.65804 13.2206 7.5 13.6022 7.5 14C7.5 14.3978 7.65804 14.7794 7.93934 15.0607C8.22064 15.342 8.60218 15.5 9 15.5C9.39782 15.5 9.77936 15.342 10.0607 15.0607C10.342 14.7794 10.5 14.3978 10.5 14C10.5 13.6022 10.342 13.2206 10.0607 12.9393C9.77936 12.658 9.39782 12.5 9 12.5ZM15 12.5C14.6022 12.5 14.2206 12.658 13.9393 12.9393C13.658 13.2206 13.5 13.6022 13.5 14C13.5 14.3978 13.658 14.7794 13.9393 15.0607C14.2206 15.342 14.6022 15.5 15 15.5C15.3978 15.5 15.7794 15.342 16.0607 15.0607C16.342 14.7794 16.5 14.3978 16.5 14C16.5 13.6022 16.342 13.2206 16.0607 12.9393C15.7794 12.658 15.3978 12.5 15 12.5ZM21 12.5C20.6022 12.5 20.2206 12.658 19.9393 12.9393C19.658 13.2206 19.5 13.6022 19.5 14C19.5 14.3978 19.658 14.7794 19.9393 15.0607C20.2206 15.342 20.6022 15.5 21 15.5C21.3978 15.5 21.7794 15.342 22.0607 15.0607C22.342 14.7794 22.5 14.3978 22.5 14C22.5 13.6022 22.342 13.2206 22.0607 12.9393C21.7794 12.658 21.3978 12.5 21 12.5ZM27 12.5C26.6022 12.5 26.2206 12.658 25.9393 12.9393C25.658 13.2206 25.5 13.6022 25.5 14C25.5 14.3978 25.658 14.7794 25.9393 15.0607C26.2206 15.342 26.6022 15.5 27 15.5C27.3978 15.5 27.7794 15.342 28.0607 15.0607C28.342 14.7794 28.5 14.3978 28.5 14C28.5 13.6022 28.342 13.2206 28.0607 12.9393C27.7794 12.658 27.3978 12.5 27 12.5ZM33 12.5C32.6022 12.5 32.2206 12.658 31.9393 12.9393C31.658 13.2206 31.5 13.6022 31.5 14C31.5 14.3978 31.658 14.7794 31.9393 15.0607C32.2206 15.342 32.6022 15.5 33 15.5C33.3978 15.5 33.7794 15.342 34.0607 15.0607C34.342 14.7794 34.5 14.3978 34.5 14C34.5 13.6022 34.342 13.2206 34.0607 12.9393C33.7794 12.658 33.3978 12.5 33 12.5ZM39 12.5C38.6022 12.5 38.2206 12.658 37.9393 12.9393C37.658 13.2206 37.5 13.6022 37.5 14C37.5 14.3978 37.658 14.7794 37.9393 15.0607C38.2206 15.342 38.6022 15.5 39 15.5C39.3978 15.5 39.7794 15.342 40.0607 15.0607C40.342 14.7794 40.5 14.3978 40.5 14C40.5 13.6022 40.342 13.2206 40.0607 12.9393C39.7794 12.658 39.3978 12.5 39 12.5ZM45 12.5C44.6022 12.5 44.2206 12.658 43.9393 12.9393C43.658 13.2206 43.5 13.6022 43.5 14C43.5 14.3978 43.658 14.7794 43.9393 15.0607C44.2206 15.342 44.6022 15.5 45 15.5C45.3978 15.5 45.7794 15.342 46.0607 15.0607C46.342 14.7794 46.5 14.3978 46.5 14C46.5 13.6022 46.342 13.2206 46.0607 12.9393C45.7794 12.658 45.3978 12.5 45 12.5ZM51 12.5C50.6022 12.5 50.2206 12.658 49.9393 12.9393C49.658 13.2206 49.5 13.6022 49.5 14C49.5 14.3978 49.658 14.7794 49.9393 15.0607C50.2206 15.342 50.6022 15.5 51 15.5C51.3978 15.5 51.7794 15.342 52.0607 15.0607C52.342 14.7794 52.5 14.3978 52.5 14C52.5 13.6022 52.342 13.2206 52.0607 12.9393C51.7794 12.658 51.3978 12.5 51 12.5ZM57 12.5C56.6022 12.5 56.2206 12.658 55.9393 12.9393C55.658 13.2206 55.5 13.6022 55.5 14C55.5 14.3978 55.658 14.7794 55.9393 15.0607C56.2206 15.342 56.6022 15.5 57 15.5C57.3978 15.5 57.7794 15.342 58.0607 15.0607C58.342 14.7794 58.5 14.3978 58.5 14C58.5 13.6022 58.342 13.2206 58.0607 12.9393C57.7794 12.658 57.3978 12.5 57 12.5ZM63 12.5C62.6022 12.5 62.2206 12.658 61.9393 12.9393C61.658 13.2206 61.5 13.6022 61.5 14C61.5 14.3978 61.658 14.7794 61.9393 15.0607C62.2206 15.342 62.6022 15.5 63 15.5C63.3978 15.5 63.7794 15.342 64.0607 15.0607C64.342 14.7794 64.5 14.3978 64.5 14C64.5 13.6022 64.342 13.2206 64.0607 12.9393C63.7794 12.658 63.3978 12.5 63 12.5ZM69 12.5C68.6022 12.5 68.2206 12.658 67.9393 12.9393C67.658 13.2206 67.5 13.6022 67.5 14C67.5 14.3978 67.658 14.7794 67.9393 15.0607C68.2206 15.342 68.6022 15.5 69 15.5C69.3978 15.5 69.7794 15.342 70.0607 15.0607C70.342 14.7794 70.5 14.3978 70.5 14C70.5 13.6022 70.342 13.2206 70.0607 12.9393C69.7794 12.658 69.3978 12.5 69 12.5ZM75 12.5C74.6022 12.5 74.2206 12.658 73.9393 12.9393C73.658 13.2206 73.5 13.6022 73.5 14C73.5 14.3978 73.658 14.7794 73.9393 15.0607C74.2206 15.342 74.6022 15.5 75 15.5C75.3978 15.5 75.7794 15.342 76.0607 15.0607C76.342 14.7794 76.5 14.3978 76.5 14C76.5 13.6022 76.342 13.2206 76.0607 12.9393C75.7794 12.658 75.3978 12.5 75 12.5ZM81 12.5C80.6022 12.5 80.2206 12.658 79.9393 12.9393C79.658 13.2206 79.5 13.6022 79.5 14C79.5 14.3978 79.658 14.7794 79.9393 15.0607C80.2206 15.342 80.6022 15.5 81 15.5C81.3978 15.5 81.7794 15.342 82.0607 15.0607C82.342 14.7794 82.5 14.3978 82.5 14C82.5 13.6022 82.342 13.2206 82.0607 12.9393C81.7794 12.658 81.3978 12.5 81 12.5ZM19.5 24.5V26.0322C17.5915 26.1891 16.2462 27.2075 15.6416 28.2441C14.9849 29.3701 15 30.5 15 30.5C15 30.5 14.9849 31.6299 15.6416 32.7559C16.2462 33.7925 17.5915 34.8109 19.5 34.9678V37.9385C18.6778 37.8152 18.423 37.4985 18.2402 37.2061C18.0097 36.8372 18 36.5 18 36.5H15C15 36.5 14.9902 37.6628 15.6973 38.7939C16.3234 39.7958 17.6295 40.7473 19.5 40.9531V42.5H21V40.9531C22.8705 40.7473 24.1766 39.7958 24.8027 38.7939C25.5097 37.6628 25.5 36.5 25.5 36.5C25.5 36.5 25.5031 35.302 24.7471 34.168C24.1031 33.2022 22.8294 32.3141 21 32.0703V29.0791C21.805 29.2273 22.068 29.5575 22.251 29.832C22.495 30.198 22.5 30.5 22.5 30.5H25.5C25.5 30.5 25.5031 29.302 24.7471 28.168C24.1031 27.2022 22.8294 26.3141 21 26.0703V24.5H19.5ZM33 29V32H75V29H33ZM19.5 29.041V31.959C18.6492 31.8668 18.4187 31.5602 18.2344 31.2441C18.0162 30.8701 18 30.5 18 30.5C18 30.5 18.0162 30.1299 18.2344 29.7559C18.4187 29.4398 18.6492 29.1332 19.5 29.041ZM21 35.0791C21.805 35.2273 22.068 35.5575 22.251 35.832C22.495 36.198 22.5 36.5 22.5 36.5C22.5 36.5 22.4902 36.8372 22.2598 37.2061C22.077 37.4985 21.8222 37.8152 21 37.9385V35.0791ZM33 36.5V39.5H75V36.5H33ZM19.5 48.5V50.0322C17.5915 50.1891 16.2462 51.2075 15.6416 52.2441C14.9849 53.3701 15 54.5 15 54.5C15 54.5 14.9849 55.6299 15.6416 56.7559C16.2462 57.7925 17.5915 58.8109 19.5 58.9678V61.9385C18.6778 61.8152 18.423 61.4985 18.2402 61.2061C18.0097 60.8372 18 60.5 18 60.5H15C15 60.5 14.9902 61.6628 15.6973 62.7939C16.3234 63.7958 17.6295 64.7473 19.5 64.9531V66.5H21V64.9531C22.8705 64.7473 24.1766 63.7958 24.8027 62.7939C25.5097 61.6628 25.5 60.5 25.5 60.5C25.5 60.5 25.5031 59.302 24.7471 58.168C24.1031 57.2022 22.8294 56.3141 21 56.0703V53.0791C21.805 53.2273 22.068 53.5575 22.251 53.832C22.495 54.198 22.5 54.5 22.5 54.5H25.5C25.5 54.5 25.5031 53.302 24.7471 52.168C24.1031 51.2022 22.8294 50.3141 21 50.0703V48.5H19.5ZM72.0029 50C62.0774 50 54.0029 58.0745 54.0029 68C54.0029 77.9255 62.0774 86 72.0029 86C76.4264 86 80.4753 84.3879 83.6133 81.7314L87.9082 86.0293L87.8525 86.085C86.7185 87.2175 86.7185 89.0613 87.8525 90.1953L97.8076 100.15C98.3566 100.699 99.0858 101 99.8613 101C100.637 101 101.37 100.696 101.918 100.147L104.15 97.915C105.284 96.7825 105.283 94.9372 104.15 93.8047L94.1982 83.8525C93.0972 82.7545 91.18 82.7545 90.085 83.8525L90.0293 83.9082L85.7344 79.6104C88.3909 76.4724 90.0029 72.4235 90.0029 68C90.0029 58.0745 81.9284 50 72.0029 50ZM33 53V56H53.001C53.676 54.935 54.4373 53.9345 55.2773 53H33ZM72.0029 53C80.2739 53 87.0029 59.729 87.0029 68C87.0029 76.271 80.2739 83 72.0029 83C63.7319 83 57.0029 76.271 57.0029 68C57.0029 59.729 63.7319 53 72.0029 53ZM19.5 53.041V55.959C18.6492 55.8668 18.4187 55.5602 18.2344 55.2441C18.0162 54.8701 18 54.5 18 54.5C18 54.5 18.0162 54.1299 18.2344 53.7559C18.4187 53.4398 18.6492 53.1332 19.5 53.041ZM21 59.0791C21.805 59.2273 22.068 59.5575 22.251 59.832C22.495 60.198 22.5 60.5 22.5 60.5C22.5 60.5 22.4902 60.8372 22.2598 61.2061C22.077 61.4985 21.8222 61.8152 21 61.9385V59.0791ZM33 60.5V63.5H49.9541C50.1641 62.4695 50.4689 61.475 50.8154 60.5H33ZM92.0742 85.9736L102.029 95.7939L99.9258 98.0264L90.0381 88.1387L92.0742 85.9736Z" fill="white"/>
</svg>
