<svg width="58" height="56" viewBox="0 0 58 56" fill="none" xmlns="http://www.w3.org/2000/svg">
<path d="M29.002 0.910156L28.3164 2.44531L21.7334 17.2109C21.5928 17.3457 21.5107 17.5303 21.502 17.7236L20.7021 19.5195L0.4375 21.6611L15.5723 35.3047L11.3477 55.2383L29.002 45.0635L46.6562 55.2383L42.4316 35.3047L57.5664 21.6611L37.3018 19.5195L29.002 0.910156ZM29.002 4.59277L36.2822 20.9199L54.0625 22.8008L40.7822 34.7686L44.4912 52.2617L29.002 43.332L27.3408 44.2871C27.2002 44.1055 26.9834 44 26.752 44C26.3389 44 26.002 44.3369 26.002 44.75C26.002 44.8467 26.0195 44.9404 26.0576 45.0283L18.4902 49.3906C18.499 49.3467 18.502 49.2969 18.502 49.25C18.502 48.8369 18.165 48.5 17.752 48.5C17.3389 48.5 17.002 48.8369 17.002 49.25C17.002 49.5693 17.2041 49.8535 17.5059 49.9561L15.915 50.876C15.7949 50.7939 15.6484 50.75 15.502 50.75C15.0889 50.75 14.752 51.0869 14.752 51.5C14.752 51.5146 14.7549 51.5293 14.7549 51.5439L13.5127 52.2617L15.4229 43.2471C15.4492 43.2471 15.4756 43.25 15.502 43.25C15.915 43.25 16.252 42.9131 16.252 42.5C16.252 42.1748 16.041 41.8877 15.7334 41.7881L17.0049 35.7881C17.0254 36.1865 17.3535 36.5 17.752 36.5C18.165 36.5 18.502 36.1631 18.502 35.75C18.502 35.3369 18.165 35 17.752 35C17.4707 35 17.2129 35.1582 17.084 35.4102L17.2217 34.7686L16.1758 33.8281C16.2256 33.7256 16.252 33.6143 16.252 33.5C16.252 33.0869 15.915 32.75 15.502 32.75C15.3613 32.75 15.2236 32.791 15.1064 32.8643L13.8379 31.7188C13.9434 31.5869 14.002 31.4199 14.002 31.25C14.002 30.8369 13.665 30.5 13.252 30.5C13.0557 30.5 12.8652 30.5791 12.7246 30.7168L11.4707 29.5859C11.6465 29.4424 11.752 29.2285 11.752 29C11.752 28.5869 11.415 28.25 11.002 28.25C10.7471 28.25 10.5098 28.3789 10.3691 28.5928L9.07422 27.4268C9.33496 27.3037 9.50195 27.04 9.50195 26.75C9.50195 26.3369 9.16504 26 8.75195 26C8.43555 26 8.15137 26.1992 8.0459 26.501L6.64258 25.2383C6.99707 25.168 7.25195 24.8604 7.25195 24.5C7.25195 24.0869 6.91504 23.75 6.50195 23.75C6.1123 23.75 5.79004 24.0459 5.75488 24.4326L4.1582 22.9941C4.1875 22.9971 4.21973 23 4.25195 23C4.48633 23 4.70605 22.8887 4.84961 22.7041L8.01367 22.3672C8.06934 22.7334 8.38281 23 8.75195 23C9.16504 23 9.50195 22.6631 9.50195 22.25C9.50195 22.2383 9.49902 22.2236 9.49902 22.2119L12.5986 21.8838C12.5342 21.9951 12.502 22.1211 12.502 22.25C12.502 22.6631 12.8389 23 13.252 23C13.665 23 14.002 22.6631 14.002 22.25C14.002 22.0684 13.9346 21.8926 13.8145 21.7549L21.7217 20.9199L23.9248 15.9805C24.0654 16.1504 24.2793 16.25 24.502 16.25C24.915 16.25 25.252 15.9131 25.252 15.5C25.252 15.0869 24.915 14.75 24.502 14.75C24.4902 14.75 24.4814 14.75 24.4697 14.75L26.8135 9.49707C27.2031 9.46191 27.502 9.13965 27.502 8.75C27.502 8.58594 27.4492 8.42773 27.3496 8.2959L29.002 4.59277ZM29.002 5.75C28.5889 5.75 28.252 6.08691 28.252 6.5C28.252 6.91309 28.5889 7.25 29.002 7.25C29.415 7.25 29.752 6.91309 29.752 6.5C29.752 6.08691 29.415 5.75 29.002 5.75ZM29.002 10.25C28.5889 10.25 28.252 10.5869 28.252 11C28.252 11.4131 28.5889 11.75 29.002 11.75C29.415 11.75 29.752 11.4131 29.752 11C29.752 10.5869 29.415 10.25 29.002 10.25ZM26.752 12.5C26.3389 12.5 26.002 12.8369 26.002 13.25C26.002 13.6631 26.3389 14 26.752 14C27.165 14 27.502 13.6631 27.502 13.25C27.502 12.8369 27.165 12.5 26.752 12.5ZM29.002 14.75C28.5889 14.75 28.252 15.0869 28.252 15.5C28.252 15.9131 28.5889 16.25 29.002 16.25C29.415 16.25 29.752 15.9131 29.752 15.5C29.752 15.0869 29.415 14.75 29.002 14.75ZM26.752 17C26.3389 17 26.002 17.3369 26.002 17.75C26.002 18.1631 26.3389 18.5 26.752 18.5C27.165 18.5 27.502 18.1631 27.502 17.75C27.502 17.3369 27.165 17 26.752 17ZM24.502 19.25C24.0889 19.25 23.752 19.5869 23.752 20C23.752 20.4131 24.0889 20.75 24.502 20.75C24.915 20.75 25.252 20.4131 25.252 20C25.252 19.5869 24.915 19.25 24.502 19.25ZM29.002 19.25C28.5889 19.25 28.252 19.5869 28.252 20C28.252 20.4131 28.5889 20.75 29.002 20.75C29.415 20.75 29.752 20.4131 29.752 20C29.752 19.5869 29.415 19.25 29.002 19.25ZM17.752 21.5C17.3389 21.5 17.002 21.8369 17.002 22.25C17.002 22.6631 17.3389 23 17.752 23C18.165 23 18.502 22.6631 18.502 22.25C18.502 21.8369 18.165 21.5 17.752 21.5ZM22.252 21.5C21.8389 21.5 21.502 21.8369 21.502 22.25C21.502 22.6631 21.8389 23 22.252 23C22.665 23 23.002 22.6631 23.002 22.25C23.002 21.8369 22.665 21.5 22.252 21.5ZM26.752 21.5C26.3389 21.5 26.002 21.8369 26.002 22.25C26.002 22.6631 26.3389 23 26.752 23C27.165 23 27.502 22.6631 27.502 22.25C27.502 21.8369 27.165 21.5 26.752 21.5ZM11.002 23.75C10.5889 23.75 10.252 24.0869 10.252 24.5C10.252 24.9131 10.5889 25.25 11.002 25.25C11.415 25.25 11.752 24.9131 11.752 24.5C11.752 24.0869 11.415 23.75 11.002 23.75ZM15.502 23.75C15.0889 23.75 14.752 24.0869 14.752 24.5C14.752 24.9131 15.0889 25.25 15.502 25.25C15.915 25.25 16.252 24.9131 16.252 24.5C16.252 24.0869 15.915 23.75 15.502 23.75ZM20.002 23.75C19.5889 23.75 19.252 24.0869 19.252 24.5C19.252 24.9131 19.5889 25.25 20.002 25.25C20.415 25.25 20.752 24.9131 20.752 24.5C20.752 24.0869 20.415 23.75 20.002 23.75ZM24.502 23.75C24.0889 23.75 23.752 24.0869 23.752 24.5C23.752 24.9131 24.0889 25.25 24.502 25.25C24.915 25.25 25.252 24.9131 25.252 24.5C25.252 24.0869 24.915 23.75 24.502 23.75ZM29.002 23.75C28.5889 23.75 28.252 24.0869 28.252 24.5C28.252 24.9131 28.5889 25.25 29.002 25.25C29.415 25.25 29.752 24.9131 29.752 24.5C29.752 24.0869 29.415 23.75 29.002 23.75ZM13.252 26C12.8389 26 12.502 26.3369 12.502 26.75C12.502 27.1631 12.8389 27.5 13.252 27.5C13.665 27.5 14.002 27.1631 14.002 26.75C14.002 26.3369 13.665 26 13.252 26ZM17.752 26C17.3389 26 17.002 26.3369 17.002 26.75C17.002 27.1631 17.3389 27.5 17.752 27.5C18.165 27.5 18.502 27.1631 18.502 26.75C18.502 26.3369 18.165 26 17.752 26ZM22.252 26C21.8389 26 21.502 26.3369 21.502 26.75C21.502 27.1631 21.8389 27.5 22.252 27.5C22.665 27.5 23.002 27.1631 23.002 26.75C23.002 26.3369 22.665 26 22.252 26ZM26.752 26C26.3389 26 26.002 26.3369 26.002 26.75C26.002 27.1631 26.3389 27.5 26.752 27.5C27.165 27.5 27.502 27.1631 27.502 26.75C27.502 26.3369 27.165 26 26.752 26ZM15.502 28.25C15.0889 28.25 14.752 28.5869 14.752 29C14.752 29.4131 15.0889 29.75 15.502 29.75C15.915 29.75 16.252 29.4131 16.252 29C16.252 28.5869 15.915 28.25 15.502 28.25ZM20.002 28.25C19.5889 28.25 19.252 28.5869 19.252 29C19.252 29.4131 19.5889 29.75 20.002 29.75C20.415 29.75 20.752 29.4131 20.752 29C20.752 28.5869 20.415 28.25 20.002 28.25ZM24.502 28.25C24.0889 28.25 23.752 28.5869 23.752 29C23.752 29.4131 24.0889 29.75 24.502 29.75C24.915 29.75 25.252 29.4131 25.252 29C25.252 28.5869 24.915 28.25 24.502 28.25ZM29.002 28.25C28.5889 28.25 28.252 28.5869 28.252 29C28.252 29.4131 28.5889 29.75 29.002 29.75C29.415 29.75 29.752 29.4131 29.752 29C29.752 28.5869 29.415 28.25 29.002 28.25ZM17.752 30.5C17.3389 30.5 17.002 30.8369 17.002 31.25C17.002 31.6631 17.3389 32 17.752 32C18.165 32 18.502 31.6631 18.502 31.25C18.502 30.8369 18.165 30.5 17.752 30.5ZM22.252 30.5C21.8389 30.5 21.502 30.8369 21.502 31.25C21.502 31.6631 21.8389 32 22.252 32C22.665 32 23.002 31.6631 23.002 31.25C23.002 30.8369 22.665 30.5 22.252 30.5ZM26.752 30.5C26.3389 30.5 26.002 30.8369 26.002 31.25C26.002 31.6631 26.3389 32 26.752 32C27.165 32 27.502 31.6631 27.502 31.25C27.502 30.8369 27.165 30.5 26.752 30.5ZM20.002 32.75C19.5889 32.75 19.252 33.0869 19.252 33.5C19.252 33.9131 19.5889 34.25 20.002 34.25C20.415 34.25 20.752 33.9131 20.752 33.5C20.752 33.0869 20.415 32.75 20.002 32.75ZM24.502 32.75C24.0889 32.75 23.752 33.0869 23.752 33.5C23.752 33.9131 24.0889 34.25 24.502 34.25C24.915 34.25 25.252 33.9131 25.252 33.5C25.252 33.0869 24.915 32.75 24.502 32.75ZM29.002 32.75C28.5889 32.75 28.252 33.0869 28.252 33.5C28.252 33.9131 28.5889 34.25 29.002 34.25C29.415 34.25 29.752 33.9131 29.752 33.5C29.752 33.0869 29.415 32.75 29.002 32.75ZM22.252 35C21.8389 35 21.502 35.3369 21.502 35.75C21.502 36.1631 21.8389 36.5 22.252 36.5C22.665 36.5 23.002 36.1631 23.002 35.75C23.002 35.3369 22.665 35 22.252 35ZM26.752 35C26.3389 35 26.002 35.3369 26.002 35.75C26.002 36.1631 26.3389 36.5 26.752 36.5C27.165 36.5 27.502 36.1631 27.502 35.75C27.502 35.3369 27.165 35 26.752 35ZM20.002 37.25C19.5889 37.25 19.252 37.5869 19.252 38C19.252 38.4131 19.5889 38.75 20.002 38.75C20.415 38.75 20.752 38.4131 20.752 38C20.752 37.5869 20.415 37.25 20.002 37.25ZM24.502 37.25C24.0889 37.25 23.752 37.5869 23.752 38C23.752 38.4131 24.0889 38.75 24.502 38.75C24.915 38.75 25.252 38.4131 25.252 38C25.252 37.5869 24.915 37.25 24.502 37.25ZM29.002 37.25C28.5889 37.25 28.252 37.5869 28.252 38C28.252 38.4131 28.5889 38.75 29.002 38.75C29.415 38.75 29.752 38.4131 29.752 38C29.752 37.5869 29.415 37.25 29.002 37.25ZM17.752 39.5C17.3389 39.5 17.002 39.8369 17.002 40.25C17.002 40.6631 17.3389 41 17.752 41C18.165 41 18.502 40.6631 18.502 40.25C18.502 39.8369 18.165 39.5 17.752 39.5ZM22.252 39.5C21.8389 39.5 21.502 39.8369 21.502 40.25C21.502 40.6631 21.8389 41 22.252 41C22.665 41 23.002 40.6631 23.002 40.25C23.002 39.8369 22.665 39.5 22.252 39.5ZM26.752 39.5C26.3389 39.5 26.002 39.8369 26.002 40.25C26.002 40.6631 26.3389 41 26.752 41C27.165 41 27.502 40.6631 27.502 40.25C27.502 39.8369 27.165 39.5 26.752 39.5ZM20.002 41.75C19.5889 41.75 19.252 42.0869 19.252 42.5C19.252 42.9131 19.5889 43.25 20.002 43.25C20.415 43.25 20.752 42.9131 20.752 42.5C20.752 42.0869 20.415 41.75 20.002 41.75ZM24.502 41.75C24.0889 41.75 23.752 42.0869 23.752 42.5C23.752 42.9131 24.0889 43.25 24.502 43.25C24.915 43.25 25.252 42.9131 25.252 42.5C25.252 42.0869 24.915 41.75 24.502 41.75ZM29.002 41.75C28.5889 41.75 28.252 42.0869 28.252 42.5C28.252 42.9131 28.5889 43.25 29.002 43.25C29.415 43.25 29.752 42.9131 29.752 42.5C29.752 42.0869 29.415 41.75 29.002 41.75ZM17.752 44C17.3389 44 17.002 44.3369 17.002 44.75C17.002 45.1631 17.3389 45.5 17.752 45.5C18.165 45.5 18.502 45.1631 18.502 44.75C18.502 44.3369 18.165 44 17.752 44ZM22.252 44C21.8389 44 21.502 44.3369 21.502 44.75C21.502 45.1631 21.8389 45.5 22.252 45.5C22.665 45.5 23.002 45.1631 23.002 44.75C23.002 44.3369 22.665 44 22.252 44ZM15.502 46.25C15.0889 46.25 14.752 46.5869 14.752 47C14.752 47.4131 15.0889 47.75 15.502 47.75C15.915 47.75 16.252 47.4131 16.252 47C16.252 46.5869 15.915 46.25 15.502 46.25ZM20.002 46.25C19.5889 46.25 19.252 46.5869 19.252 47C19.252 47.4131 19.5889 47.75 20.002 47.75C20.415 47.75 20.752 47.4131 20.752 47C20.752 46.5869 20.415 46.25 20.002 46.25Z" fill="white"/>
</svg>
