<svg width="98" height="107" viewBox="0 0 98 107" fill="none" xmlns="http://www.w3.org/2000/svg">
<path d="M0.5 0.5V93.5H33.5V90.5H3.5V3.5H51.5V24.5H72.5V57.5H75.5V22.3789L53.6211 0.5H0.5ZM54.5 5.6211L70.3789 21.5H54.5V5.6211ZM11 6.5C10.1738 6.5 9.5 7.17383 9.5 8C9.5 8.82617 10.1738 9.5 11 9.5C11.8262 9.5 12.5 8.82617 12.5 8C12.5 7.17383 11.8262 6.5 11 6.5ZM11 12.5C10.1738 12.5 9.5 13.1738 9.5 14C9.5 14.8262 10.1738 15.5 11 15.5C11.8262 15.5 12.5 14.8262 12.5 14C12.5 13.1738 11.8262 12.5 11 12.5ZM11 18.5C10.1738 18.5 9.5 19.1738 9.5 20C9.5 20.8262 10.1738 21.5 11 21.5C11.8262 21.5 12.5 20.8262 12.5 20C12.5 19.1738 11.8262 18.5 11 18.5ZM11 24.5C10.1738 24.5 9.5 25.1738 9.5 26C9.5 26.8262 10.1738 27.5 11 27.5C11.8262 27.5 12.5 26.8262 12.5 26C12.5 25.1738 11.8262 24.5 11 24.5ZM11 30.5C10.1738 30.5 9.5 31.1738 9.5 32C9.5 32.8262 10.1738 33.5 11 33.5C11.8262 33.5 12.5 32.8262 12.5 32C12.5 31.1738 11.8262 30.5 11 30.5ZM11 36.5C10.1738 36.5 9.5 37.1738 9.5 38C9.5 38.8262 10.1738 39.5 11 39.5C11.8262 39.5 12.5 38.8262 12.5 38C12.5 37.1738 11.8262 36.5 11 36.5ZM20 36.5V39.5H60.5V36.5H20ZM11 42.5C10.1738 42.5 9.5 43.1738 9.5 44C9.5 44.8262 10.1738 45.5 11 45.5C11.8262 45.5 12.5 44.8262 12.5 44C12.5 43.1738 11.8262 42.5 11 42.5ZM20 45.5V48.5H54.5V45.5H20ZM11 48.5C10.1738 48.5 9.5 49.1738 9.5 50C9.5 50.8262 10.1738 51.5 11 51.5C11.8262 51.5 12.5 50.8262 12.5 50C12.5 49.1738 11.8262 48.5 11 48.5ZM11 54.5C10.1738 54.5 9.5 55.1738 9.5 56C9.5 56.8262 10.1738 57.5 11 57.5C11.8262 57.5 12.5 56.8262 12.5 56C12.5 55.1738 11.8262 54.5 11 54.5ZM20 54.5V57.5H60.5V54.5H20ZM11 60.5C10.1738 60.5 9.5 61.1738 9.5 62C9.5 62.8262 10.1738 63.5 11 63.5C11.8262 63.5 12.5 62.8262 12.5 62C12.5 61.1738 11.8262 60.5 11 60.5ZM44 62C40.7012 62 38 64.7012 38 68V101C38 104.299 40.7012 107 44 107H92C95.2988 107 98 104.299 98 101V68C98 64.7012 95.2988 62 92 62H44ZM20 63.5V66.5H33.5V63.5H20ZM44 65H92C93.6758 65 95 66.3242 95 68V71.0059L70.6191 85.291C68.9961 86.2402 67.0039 86.2402 65.3809 85.291L41 71.0059V68C41 66.3242 42.3242 65 44 65ZM11 66.5C10.1738 66.5 9.5 67.1738 9.5 68C9.5 68.8262 10.1738 69.5 11 69.5C11.8262 69.5 12.5 68.8262 12.5 68C12.5 67.1738 11.8262 66.5 11 66.5ZM11 72.5C10.1738 72.5 9.5 73.1738 9.5 74C9.5 74.8262 10.1738 75.5 11 75.5C11.8262 75.5 12.5 74.8262 12.5 74C12.5 73.1738 11.8262 72.5 11 72.5ZM41 74.4863L63.8691 87.875C66.418 89.375 69.582 89.3691 72.1309 87.875L95 74.4863V101C95 102.676 93.6758 104 92 104H44C42.3242 104 41 102.676 41 101V74.4863ZM11 78.5C10.1738 78.5 9.5 79.1738 9.5 80C9.5 80.8262 10.1738 81.5 11 81.5C11.8262 81.5 12.5 80.8262 12.5 80C12.5 79.1738 11.8262 78.5 11 78.5ZM11 84.5C10.1738 84.5 9.5 85.1738 9.5 86C9.5 86.8262 10.1738 87.5 11 87.5C11.8262 87.5 12.5 86.8262 12.5 86C12.5 85.1738 11.8262 84.5 11 84.5Z" fill="white"/>
</svg>
