<svg width="93" height="84" viewBox="0 0 93 84" fill="none" xmlns="http://www.w3.org/2000/svg">
<path d="M42.9989 0C41.8974 0 40.9989 0.898438 40.9989 2V17.5L30.9989 37.5V34C30.9989 32.8984 30.1005 32 28.9989 32H2.99892C2.42861 32 1.88173 32.2578 1.49892 32.6875C1.11611 33.1172 0.928607 33.6797 0.998919 34.25L6.99892 82.25C7.12392 83.25 7.99111 84 8.99892 84H28.9989C30.1005 84 30.9989 83.1094 30.9989 82V80H33.3114C34.1395 82.3281 36.3895 84 38.9989 84H76.9989C81.413 84 84.9989 80.4141 84.9989 76C84.9989 74.3516 84.4755 72.8359 83.6239 71.5625C86.7411 70.4688 88.9989 67.4844 88.9989 64C88.9989 62.0391 88.2958 60.2656 87.1239 58.875C89.4442 57.4766 90.9989 54.9062 90.9989 52C90.9989 50.0391 90.2958 48.2656 89.1239 46.875C91.4442 45.4766 92.9989 42.9062 92.9989 40C92.9989 35.5859 89.413 32 84.9989 32H55.7489C56.9677 28.1406 58.9989 21.2344 58.9989 18C58.9989 10.4688 53.4833 0 48.0614 0H42.9989ZM44.9989 4H48.0614C49.8974 4 54.9989 10.9609 54.9989 18C54.9989 21.1328 52.202 30.1641 51.1239 33.375C50.913 33.9844 50.9989 34.6641 51.3739 35.1875C51.7489 35.7109 52.3583 36 52.9989 36H84.9989C87.202 36 88.9989 37.7969 88.9989 40C88.9989 42.2031 87.202 44 84.9989 44H82.9989C81.8895 44 80.9989 44.8906 80.9989 46C80.9989 47.1094 81.8895 48 82.9989 48C85.202 48 86.9989 49.7969 86.9989 52C86.9989 54.2031 85.202 56 82.9989 56H80.9989C79.8895 56 78.9989 56.8906 78.9989 58C78.9989 59.1094 79.8895 60 80.9989 60C83.202 60 84.9989 61.7969 84.9989 64C84.9989 66.2031 83.202 68 80.9989 68H76.9989C75.8895 68 74.9989 68.8906 74.9989 70C74.9989 71.1094 75.8895 72 76.9989 72C79.202 72 80.9989 73.7969 80.9989 76C80.9989 78.2031 79.202 80 76.9989 80H38.9989C37.8974 80 36.9989 79.1016 36.9989 78C36.9989 76.8906 36.1005 76 34.9989 76H30.9989V42H31.9989C32.7567 42 33.4677 41.5547 33.8114 40.875L44.8114 18.875C44.952 18.6016 44.9989 18.3125 44.9989 18V4ZM5.24892 36H26.9989V80H10.7489L5.24892 36ZM19.9989 70C18.3427 70 16.9989 71.3438 16.9989 73C16.9989 74.6562 18.3427 76 19.9989 76C21.6552 76 22.9989 74.6562 22.9989 73C22.9989 71.3438 21.6552 70 19.9989 70Z" fill="white"/>
</svg>
