<svg width="20" height="28" viewBox="0 0 20 28" fill="none" xmlns="http://www.w3.org/2000/svg">
<path d="M10 0C4.49219 0 0 4.49219 0 10C0 11.5469 0.632812 13.2422 1.50781 15.0312C2.38281 16.8281 3.52344 18.7031 4.67188 20.4141C6.95313 23.8438 9.22656 26.6328 9.22656 26.6328L10 27.5859L10.7734 26.6328C10.7734 26.6328 13.0469 23.8438 15.3359 20.4141C16.4766 18.7031 17.6172 16.8281 18.4922 15.0312C19.3672 13.2422 20 11.5469 20 10C20 4.49219 15.5078 0 10 0ZM10 2C14.4297 2 18 5.57031 18 10C18 10.9375 17.5078 12.4922 16.6953 14.1562C15.8828 15.8281 14.7734 17.6406 13.6719 19.3125C11.8359 22.0625 10.5859 23.5781 10 24.3125C9.41406 23.5781 8.16406 22.0625 6.32813 19.3125C5.22656 17.6406 4.11719 15.8281 3.30469 14.1562C2.49219 12.4922 2 10.9375 2 10C2 5.57031 5.57031 2 10 2ZM10 8C8.89844 8 8 8.89844 8 10C8 11.1016 8.89844 12 10 12C11.1016 12 12 11.1016 12 10C12 8.89844 11.1016 8 10 8Z" fill="white"/>
</svg>
