<svg width="94" height="91" viewBox="0 0 94 91" fill="none" xmlns="http://www.w3.org/2000/svg">
<path d="M47.75 0C42.3828 0 38 4.38281 38 9.75C38 15.1172 42.3828 19.5 47.75 19.5C53.1172 19.5 57.5 15.1172 57.5 9.75C57.5 4.38281 53.1172 0 47.75 0ZM47.75 3C51.4941 3 54.5 6.00586 54.5 9.75C54.5 13.4941 51.4941 16.5 47.75 16.5C44.0059 16.5 41 13.4941 41 9.75C41 6.00586 44.0059 3 47.75 3ZM17.75 16.5C15.9746 16.5 14.4043 17.4023 13.4551 18.7559C13.4375 18.7793 13.4258 18.7969 13.4082 18.8145L3.11914 32.0098C2.9082 32.2793 2.79688 32.6191 2.80273 32.959C2.42773 33.6738 2 34.377 2 35.25C2 38.1328 4.36719 40.5 7.25 40.5C8.79102 40.5 10.1035 39.7383 11.0645 38.666C11.1465 38.748 11.2461 38.8242 11.3516 38.8828L13.7363 40.3066C12.6641 42.3516 11.7441 44.8652 11.4043 45.9844C11.1816 46.7109 8.56836 55.623 5.95508 64.541C3.3418 73.459 0.769533 82.2422 0.769533 82.2422C0.722658 82.3945 0.705078 82.5586 0.710938 82.7168C0.611329 83.1211 0.5 83.5254 0.5 84C0.5 87.2988 3.20117 90 6.5 90C8.7793 90 10.584 88.5879 11.5918 86.707C11.8613 86.5254 12.0605 86.2676 12.166 85.9688L21.7344 58.8516L29 68.6484V84C29 87.2988 31.7012 90 35 90C38.2988 90 41 87.2988 41 84V66C41 65.2148 40.8184 64.4883 40.5547 63.8203C40.5312 63.6973 40.4902 63.5801 40.4375 63.4688L35.5859 53.3203L42.5352 57.4629C42.582 57.4863 42.6348 57.5156 42.6875 57.5391C43.2676 59.8008 45.3125 61.5 47.75 61.5C48.1895 61.5 48.6113 61.4238 49.0215 61.3184L64.0977 70.3008C63.9277 70.4941 63.7402 70.7402 63.5996 70.8516C63.6816 70.7871 63.3887 70.9395 62.8203 70.9863C62.2578 71.0273 61.4727 71.0273 60.6113 71.0625C58.8828 71.1445 56.6445 71.3965 55.0684 73.1543C53.7676 74.6133 52.209 77.0391 50.8906 79.8164C49.5664 82.5938 48.5 85.6699 48.5 88.5C48.4941 89.0391 48.7754 89.543 49.2441 89.8184C49.7129 90.0879 50.2871 90.0879 50.7559 89.8184C51.2246 89.543 51.5059 89.0391 51.5 88.5C51.5 86.4785 52.3906 83.6484 53.5977 81.0996C54.8047 78.5566 56.3398 76.2363 57.3066 75.1582C58.0039 74.3789 59.2285 74.1328 60.7461 74.0625C61.5078 74.0273 62.293 74.0391 63.0723 73.9746C63.8457 73.9102 64.6719 73.834 65.4688 73.2012C67.5195 71.5723 68.9668 68.584 70.8066 65.9766C71.7266 64.6758 72.6934 63.4922 73.6484 62.6895C74.6035 61.8867 75.4707 61.5 76.3379 61.5C77.8262 61.5 81.1953 63.627 84.0898 67.5117C86.9844 71.3965 89.5625 76.834 90.5234 82.7402C90.5879 83.2852 90.9453 83.7539 91.4609 83.959C91.9707 84.1582 92.5508 84.0645 92.9727 83.7129C93.3945 83.3555 93.5879 82.7988 93.4766 82.2598C92.4336 75.8086 89.6797 69.9902 86.4922 65.7188C83.3105 61.4473 79.8535 58.5 76.3379 58.5C74.5566 58.5 73.0039 59.3145 71.7207 60.3926C70.4316 61.4707 69.3477 62.8418 68.3516 64.248C67.4668 65.502 66.6465 66.7617 65.8906 67.8809L51.8281 59.502C52.5488 58.6055 53 57.4805 53 56.25C53 56.0156 52.9707 55.8574 52.9473 55.6816C52.9473 55.5938 52.9414 55.5059 52.9297 55.4121L52.9062 55.2949C52.9062 55.2773 52.9062 55.2598 52.9004 55.2422V55.2305L48.4004 27.4102C48.377 27.2754 48.3359 27.1406 48.2832 27.0176C47.8965 25.5762 46.9531 24.4102 45.7461 23.6074L45.7227 23.5781C45.5996 23.4199 45.4473 23.2852 45.2715 23.1797L35 17.3145C34.9121 17.2617 34.8184 17.2207 34.7246 17.1855C33.9219 16.7754 33.002 16.5 32 16.5H17.75ZM17.75 19.5H32C32.5215 19.5 33.0078 19.6465 33.4707 19.9043C33.5527 19.957 33.6465 19.998 33.7402 20.0273L33.6816 20.0156L43.5195 25.6406L43.3613 25.4297C43.4961 25.6055 43.666 25.7461 43.8652 25.8516C44.6797 26.2676 45.2656 27.0234 45.4414 27.9316C45.4766 28.125 45.5586 28.3125 45.6641 28.4766L45.5 28.2539L49.7363 54.4688L51.1484 54.1875C50.3984 54.334 49.8887 55.0195 49.9473 55.7754C49.9473 55.8164 49.9531 55.8574 49.959 55.8984C49.9883 56.0742 50 56.1855 50 56.25C50 57.5098 49.0098 58.5 47.75 58.5C46.5488 58.5 45.6055 57.5918 45.5234 56.4141C45.5176 56.3613 45.5117 56.3145 45.5059 56.2676C45.1191 54.0469 42.9395 41.584 41.6094 36.2344C41.4688 35.6426 40.9824 35.1973 40.3848 35.1094C39.7812 35.0156 39.1895 35.2969 38.873 35.8125L31.7422 47.5371L17.9141 39.3047L26.8496 26.3496C27.166 25.8926 27.2012 25.2949 26.9434 24.8027C26.6855 24.3105 26.1758 24 25.6191 24H19.25C18.7812 24 18.3359 24.2227 18.0547 24.6035L9.17188 36.4219C9.1543 36.4453 9.13672 36.4688 9.125 36.4922C8.71484 37.1016 8.04102 37.5 7.25 37.5C5.99023 37.5 5 36.5098 5 35.25C5 34.7344 5.18164 34.2715 5.49219 33.8672C5.53906 33.8086 5.58008 33.75 5.61523 33.6855L15.623 20.8477L15.4297 20.9766C15.5996 20.8652 15.7461 20.7188 15.8574 20.543C16.2676 19.9102 16.9473 19.5 17.75 19.5ZM20 27H22.7598L15.3301 37.7578L12.9746 36.3574L20 27ZM39.4238 40.6816C40.3555 45.1348 41.3281 50.2383 41.9609 53.625L34.3203 49.0723L39.4238 40.6816ZM16.3203 41.8418L30.9395 50.5547L37.6484 64.5938L37.6191 64.4355C37.6426 64.5527 37.6777 64.6641 37.7246 64.7637C37.9062 65.1621 38 65.5664 38 66V84C38 85.6758 36.6758 87 35 87C33.3242 87 32 85.6758 32 84V68.1562C32 67.834 31.8945 67.5234 31.7012 67.2656L22.4609 54.7969C22.127 54.3574 21.5762 54.1289 21.0312 54.2109C20.4805 54.293 20.0234 54.6738 19.8359 55.1953L9.81055 83.6191L11.1641 84.0234C10.3965 83.7949 9.58203 84.2109 9.31836 84.9727C8.9082 86.1504 7.82422 87 6.5 87C4.82422 87 3.5 85.6758 3.5 84C3.5 83.7246 3.55273 83.4375 3.6582 83.1094C3.67578 83.0391 3.69336 82.9688 3.70508 82.8926C3.75781 82.7051 6.24805 74.209 8.83789 65.3848C11.4512 56.4668 14.1523 47.2559 14.2754 46.8516C14.2754 46.8574 14.2754 46.8574 14.2754 46.8516C14.5156 46.0547 15.4531 43.5879 16.3203 41.8418ZM77 69C76.1738 69 75.5 69.6738 75.5 70.5C75.5 71.3262 76.1738 72 77 72C77.8262 72 78.5 71.3262 78.5 70.5C78.5 69.6738 77.8262 69 77 69ZM81.5 73.5C80.6738 73.5 80 74.1738 80 75C80 75.8262 80.6738 76.5 81.5 76.5C82.3262 76.5 83 75.8262 83 75C83 74.1738 82.3262 73.5 81.5 73.5ZM68 76.5C67.1738 76.5 66.5 77.1738 66.5 78C66.5 78.8262 67.1738 79.5 68 79.5C68.8262 79.5 69.5 78.8262 69.5 78C69.5 77.1738 68.8262 76.5 68 76.5ZM56 87C55.1738 87 54.5 87.6738 54.5 88.5C54.5 89.3262 55.1738 90 56 90C56.8262 90 57.5 89.3262 57.5 88.5C57.5 87.6738 56.8262 87 56 87ZM62 87C61.1738 87 60.5 87.6738 60.5 88.5C60.5 89.3262 61.1738 90 62 90C62.8262 90 63.5 89.3262 63.5 88.5C63.5 87.6738 62.8262 87 62 87ZM68 87C67.1738 87 66.5 87.6738 66.5 88.5C66.5 89.3262 67.1738 90 68 90C68.8262 90 69.5 89.3262 69.5 88.5C69.5 87.6738 68.8262 87 68 87ZM74 87C73.1738 87 72.5 87.6738 72.5 88.5C72.5 89.3262 73.1738 90 74 90C74.8262 90 75.5 89.3262 75.5 88.5C75.5 87.6738 74.8262 87 74 87ZM80 87C79.1738 87 78.5 87.6738 78.5 88.5C78.5 89.3262 79.1738 90 80 90C80.8262 90 81.5 89.3262 81.5 88.5C81.5 87.6738 80.8262 87 80 87ZM86 87C85.1738 87 84.5 87.6738 84.5 88.5C84.5 89.3262 85.1738 90 86 90C86.8262 90 87.5 89.3262 87.5 88.5C87.5 87.6738 86.8262 87 86 87ZM92 87C91.1738 87 90.5 87.6738 90.5 88.5C90.5 89.3262 91.1738 90 92 90C92.8262 90 93.5 89.3262 93.5 88.5C93.5 87.6738 92.8262 87 92 87Z" fill="white"/>
</svg>
