<svg width="90" height="91" viewBox="0 0 90 91" fill="none" xmlns="http://www.w3.org/2000/svg">
<path d="M41.0742 0.101562L1.10156 13.6426L8.42578 35.4043L27.5391 28.9297L31.1367 38.8965C30.9434 39.2012 30.7617 39.5176 30.6211 39.8574C30.3516 40.0742 30.1699 40.3848 30.0996 40.7188L27.4453 54.0254L21.9727 59H10.5C4.7168 59 0 63.7168 0 69.5V90.5H3V69.5C3 65.3398 6.33984 62 10.5 62H22.5527C22.9277 62 23.2852 61.8594 23.5605 61.6074L29.8301 55.9121C30.0645 55.6953 30.2285 55.4141 30.293 55.0977L32.8066 42.5176H31.5703C32.291 42.5176 32.9062 42.0137 33.0469 41.3105C33.2461 40.2793 34.1426 39.5 35.25 39.5C36.5098 39.5 37.5 40.4902 37.5 41.75C37.5 41.8906 37.4824 42.0371 37.4531 42.1953V42.2012C37.4531 42.207 37.4531 42.2129 37.4531 42.2188C37.4473 42.2246 37.4473 42.2246 37.4473 42.2305L34.7637 55.6895L36.1816 55.9297C35.3672 55.7891 34.5996 56.334 34.4531 57.1484C34.3711 57.6406 34.1191 58.0742 33.7559 58.4082C33.1758 58.9355 33.0996 59.8262 33.5859 60.4473L32.6719 59.416L24.4922 66.8457C24.1816 67.1328 24 67.5312 24 67.9531V90.5H27V68.6152L35.7891 60.6406C36.0469 60.4062 36.2109 60.084 36.2637 59.7441C36.5391 59.375 36.75 58.9824 36.9199 58.5547C37.1836 58.332 37.3594 58.0332 37.4238 57.7051L40.3828 42.8574C40.3828 42.8457 40.3887 42.8281 40.3887 42.8047C40.3945 42.8047 40.3945 42.7988 40.3945 42.7871L40.4004 42.7754V42.7695C40.418 42.6758 40.4238 42.5762 40.4297 42.4766C40.459 42.2422 40.5 42.0078 40.5 41.75C40.5 38.8672 38.1328 36.5 35.25 36.5C34.6523 36.5 34.0898 36.6172 33.5801 36.8223L30.3809 27.9688L42.4453 23.8848L40.0957 30.7637L57.7148 36.7871L54.2168 47.0527C51.5859 47.3281 49.5 49.5488 49.5 52.25C49.5 52.5078 49.541 52.748 49.5703 52.9824C49.5762 53.082 49.582 53.1758 49.5996 53.2695C49.5996 53.2754 49.5996 53.2754 49.5996 53.2812L49.6055 53.293C49.6055 53.2988 49.6055 53.3047 49.6113 53.3047C49.6172 53.3457 49.623 53.3809 49.6348 53.416C49.6406 53.4219 49.6055 53.3047 49.623 53.375L52.5762 68.2051C52.6406 68.5332 52.8164 68.832 53.0742 69.0488C53.2441 69.4824 53.4609 69.875 53.7363 70.2441C53.7891 70.5898 53.9531 70.9062 54.2109 71.1406L63 79.1152V90.5H66V78.4531C66 78.0312 65.8184 77.6328 65.5078 77.3457L57.3281 69.916L56.3555 71.0117C56.9004 70.3965 56.8535 69.459 56.2441 68.9082C55.8809 68.5742 55.6289 68.1406 55.5469 67.6484C55.4004 66.834 54.6328 66.2891 53.8184 66.4297L55.2363 66.1953L52.5527 52.7363L52.5469 52.7188C52.5469 52.7129 52.5469 52.707 52.5469 52.7012V52.6953C52.5176 52.5371 52.5 52.3906 52.5 52.25C52.5 50.9902 53.4902 50 54.75 50C55.8574 50 56.748 50.7793 56.9531 51.8047C57.0938 52.5078 57.709 53.0176 58.4238 53.0176H57.1934L59.7012 65.5977C59.7656 65.9141 59.9297 66.1953 60.1641 66.4121L66.4395 72.1074C66.7148 72.3594 67.0723 72.5 67.4473 72.5H79.5C83.6602 72.5 87 75.8398 87 80V90.5H90V80C90 74.2168 85.2832 69.5 79.5 69.5H68.0273L62.5547 64.5254L59.9004 51.2246V51.2188C59.8301 50.8848 59.6484 50.5801 59.3848 50.3633C58.9219 49.2559 58.1543 48.3066 57.1699 47.7031L60.5566 37.7598L79.998 44.4043L87.4043 22.7363L47.502 9.0957L45.791 14.1113L41.0742 0.101562ZM39.1875 3.9043L44.3027 19.1035C44.3262 19.2266 44.3672 19.3496 44.4258 19.4609L44.6016 19.9883L44.5664 20C44.4434 20.0234 44.3203 20.0645 44.2031 20.123L10.3125 31.6016L4.89844 15.5234L39.1875 3.9043ZM49.3711 12.9043L83.5957 24.5996L78.1289 40.5957L43.9043 28.9004L46.0312 22.6719L48.3984 21.8691L47.9238 20.4512L47.3613 18.7871L49.3711 12.9043ZM13.5 38C8.54883 38 4.5 42.0488 4.5 47C4.5 51.9512 8.54883 56 13.5 56C18.4512 56 22.5 51.9512 22.5 47C22.5 42.0488 18.4512 38 13.5 38ZM13.5 41C16.834 41 19.5 43.666 19.5 47C19.5 50.334 16.834 53 13.5 53C10.166 53 7.5 50.334 7.5 47C7.5 43.666 10.166 41 13.5 41ZM76.5 48.5C71.5488 48.5 67.5 52.5488 67.5 57.5C67.5 62.4512 71.5488 66.5 76.5 66.5C81.4512 66.5 85.5 62.4512 85.5 57.5C85.5 52.5488 81.4512 48.5 76.5 48.5ZM76.5 51.5C79.834 51.5 82.5 54.166 82.5 57.5C82.5 60.834 79.834 63.5 76.5 63.5C73.166 63.5 70.5 60.834 70.5 57.5C70.5 54.166 73.166 51.5 76.5 51.5ZM7.5 69.5C6.67383 69.5 6 70.1738 6 71C6 71.8262 6.67383 72.5 7.5 72.5C8.32617 72.5 9 71.8262 9 71C9 70.1738 8.32617 69.5 7.5 69.5ZM7.5 75.5C6.67383 75.5 6 76.1738 6 77C6 77.8262 6.67383 78.5 7.5 78.5C8.32617 78.5 9 77.8262 9 77C9 76.1738 8.32617 75.5 7.5 75.5ZM81 75.5C80.1738 75.5 79.5 76.1738 79.5 77C79.5 77.8262 80.1738 78.5 81 78.5C81.8262 78.5 82.5 77.8262 82.5 77C82.5 76.1738 81.8262 75.5 81 75.5ZM7.5 81.5C6.67383 81.5 6 82.1738 6 83C6 83.8262 6.67383 84.5 7.5 84.5C8.32617 84.5 9 83.8262 9 83C9 82.1738 8.32617 81.5 7.5 81.5ZM81 81.5C80.1738 81.5 79.5 82.1738 79.5 83C79.5 83.8262 80.1738 84.5 81 84.5C81.8262 84.5 82.5 83.8262 82.5 83C82.5 82.1738 81.8262 81.5 81 81.5ZM7.5 87.5C6.67383 87.5 6 88.1738 6 89C6 89.8262 6.67383 90.5 7.5 90.5C8.32617 90.5 9 89.8262 9 89C9 88.1738 8.32617 87.5 7.5 87.5ZM81 87.5C80.1738 87.5 79.5 88.1738 79.5 89C79.5 89.8262 80.1738 90.5 81 90.5C81.8262 90.5 82.5 89.8262 82.5 89C82.5 88.1738 81.8262 87.5 81 87.5Z" fill="white"/>
</svg>
