<svg width="94" height="98" viewBox="0 0 94 98" fill="none" xmlns="http://www.w3.org/2000/svg">
<path d="M51.4311 0.482679C50.8861 0.511977 50.3998 0.834242 50.1596 1.33229L44.3881 12.8753C43.1576 13.1858 36.5541 15.0315 32.3061 23.2171L32.265 23.2815L31.1459 26.094C30.9701 26.0296 30.7826 26.0003 30.5951 26.0003C26.5053 26.0003 22.8725 28.051 20.6811 31.1741L8.55801 47.2639L1.44473 50.1116C0.923245 50.2932 0.548245 50.7444 0.460354 51.2893C0.372465 51.8342 0.595121 52.3792 1.02872 52.7131C1.46817 53.053 2.0541 53.1174 2.55801 52.8889L10.058 49.8889C10.31 49.7893 10.5326 49.6194 10.6967 49.4026L23.1127 32.9378C23.1244 32.9202 23.1303 32.9085 23.142 32.8909C24.6772 30.6995 27.1439 29.2288 29.974 29.0413L24.0326 43.9299L13.9311 54.8049L14.9916 55.8245C14.9916 55.8245 16.0932 56.885 17.9447 58.6663C20.5815 61.1917 24.4897 61.426 28.2162 60.4241C31.9428 59.4221 35.6752 57.1956 38.4936 54.2659C39.1674 53.5569 40.0522 52.2971 41.3119 50.4924C42.5775 48.6878 44.0951 46.4612 45.5541 44.2932C48.2494 40.2913 50.3647 37.0745 50.7455 36.5003H84.5014C84.5072 36.5003 84.5072 36.5003 84.5131 36.5003C87.8354 36.5061 90.5014 39.1721 90.5014 42.5003C90.5014 45.8284 87.8295 48.5003 84.5014 48.5003H81.5014C80.6811 48.512 80.0248 49.1799 80.0248 50.0003C80.0248 50.8206 80.6811 51.4885 81.5014 51.5003C84.8295 51.5003 87.5014 54.1721 87.5014 57.5003C87.5014 60.8284 84.8295 63.5003 81.5014 63.5003H80.0014C79.1811 63.512 78.5248 64.1799 78.5248 65.0003C78.5248 65.8206 79.1811 66.4885 80.0014 66.5003C83.3295 66.5003 86.0014 69.1721 86.0014 72.5003C86.0014 75.3596 84.015 77.7151 81.3549 78.3303C80.7807 78.4651 80.3354 78.9163 80.224 79.4964C80.1068 80.0706 80.3354 80.6624 80.8158 81.0081C82.14 81.969 83.0014 83.4924 83.0014 85.2503C83.0014 88.1682 80.6693 90.5003 77.7514 90.5003H69.5014V86.0003C69.5014 81.8753 66.1264 78.5003 62.0014 78.5003C59.4877 78.5003 57.3666 79.8303 56.0014 81.7405C54.6361 79.8303 52.515 78.5003 50.0014 78.5003C47.4877 78.5003 45.3666 79.8303 44.0014 81.7405C42.6361 79.8303 40.515 78.5003 38.0014 78.5003C35.4877 78.5003 33.3666 79.8303 32.0014 81.7405C30.6361 79.8303 28.515 78.5003 26.0014 78.5003C21.8764 78.5003 18.5014 81.8753 18.5014 86.0003V90.5003H2.00137C1.46231 90.4944 0.958402 90.7757 0.68301 91.2444C0.413478 91.7132 0.413478 92.2874 0.68301 92.7561C0.958402 93.2249 1.46231 93.5061 2.00137 93.5003H19.14C20.3061 96.1428 22.9428 98.0003 26.0014 98.0003C28.515 98.0003 30.6361 96.6702 32.0014 94.76C33.3666 96.6702 35.4877 98.0003 38.0014 98.0003C40.515 98.0003 42.6361 96.6702 44.0014 94.76C45.3666 96.6702 47.4877 98.0003 50.0014 98.0003C52.515 98.0003 54.6361 96.6702 56.0014 94.76C57.3666 96.6702 59.4877 98.0003 62.0014 98.0003C65.06 98.0003 67.6967 96.1428 68.8627 93.5003H77.7514C82.2924 93.5003 86.0014 89.7913 86.0014 85.2503C86.0014 83.3635 85.2045 81.7639 84.1322 80.3753C86.9975 78.8694 89.0014 75.9514 89.0014 72.5003C89.0014 69.6174 87.5424 67.1565 85.4154 65.51C88.3979 64.0335 90.5014 61.0335 90.5014 57.5003C90.5014 54.8635 89.3061 52.5432 87.4897 50.8909C90.9643 49.6487 93.5014 46.3967 93.5014 42.5003C93.5014 38.2346 90.5014 34.6546 86.5053 33.7346L87.2143 31.6018C88.3393 28.2268 87.8119 24.6057 86.0717 21.5237L88.9252 12.9749C89.0834 12.5178 89.0131 12.0139 88.7377 11.6155C88.4565 11.2171 88.0053 10.9827 87.519 10.9768C86.8627 10.9768 86.2768 11.3987 86.0775 12.0256L82.4213 23.0003H83.5053C84.8178 25.3382 85.2279 28.0921 84.3666 30.6585L83.4232 33.5003H50.2065C49.6029 33.4007 48.9994 33.6702 48.683 34.1858C48.683 34.1858 45.976 38.2932 43.0639 42.6174C41.6107 44.7796 40.099 46.9944 38.8568 48.7698C37.6147 50.5452 36.5014 52.0042 36.3315 52.1858C33.9115 54.6995 30.5541 56.6917 27.4369 57.5237C24.3256 58.3616 21.6361 58.0452 20.0248 56.4983C18.8412 55.3616 18.6127 55.1389 18.1322 54.6819L26.6107 45.5647L34.9779 24.5823C39.0561 16.7542 45.7943 15.471 45.7943 15.471L46.515 15.3303L52.8432 2.66823C53.0893 2.19362 53.0658 1.6194 52.7729 1.16823C52.4799 0.717055 51.9701 0.453383 51.4311 0.482679ZM72.5014 15.5003C71.6752 15.5003 71.0014 16.1741 71.0014 17.0003C71.0014 17.8264 71.6752 18.5003 72.5014 18.5003C73.3275 18.5003 74.0014 17.8264 74.0014 17.0003C74.0014 16.1741 73.3275 15.5003 72.5014 15.5003ZM78.5014 17.0003C77.6752 17.0003 77.0014 17.6741 77.0014 18.5003C77.0014 19.3264 77.6752 20.0003 78.5014 20.0003C79.3275 20.0003 80.0014 19.3264 80.0014 18.5003C80.0014 17.6741 79.3275 17.0003 78.5014 17.0003ZM69.5014 48.5003C68.6752 48.5003 68.0014 49.1741 68.0014 50.0003C68.0014 50.8264 68.6752 51.5003 69.5014 51.5003C70.3275 51.5003 71.0014 50.8264 71.0014 50.0003C71.0014 49.1741 70.3275 48.5003 69.5014 48.5003ZM75.5014 48.5003C74.6752 48.5003 74.0014 49.1741 74.0014 50.0003C74.0014 50.8264 74.6752 51.5003 75.5014 51.5003C76.3275 51.5003 77.0014 50.8264 77.0014 50.0003C77.0014 49.1741 76.3275 48.5003 75.5014 48.5003ZM74.0014 63.5003C73.1752 63.5003 72.5014 64.1741 72.5014 65.0003C72.5014 65.8264 73.1752 66.5003 74.0014 66.5003C74.8275 66.5003 75.5014 65.8264 75.5014 65.0003C75.5014 64.1741 74.8275 63.5003 74.0014 63.5003ZM75.5014 78.5003C74.6752 78.5003 74.0014 79.1741 74.0014 80.0003C74.0014 80.8264 74.6752 81.5003 75.5014 81.5003C76.3275 81.5003 77.0014 80.8264 77.0014 80.0003C77.0014 79.1741 76.3275 78.5003 75.5014 78.5003ZM26.0014 81.5003C28.5033 81.5003 30.5014 83.4983 30.5014 86.0003C30.5131 86.8206 31.1811 87.4768 32.0014 87.4768C32.8217 87.4768 33.4897 86.8206 33.5014 86.0003C33.5014 83.4983 35.4994 81.5003 38.0014 81.5003C40.5033 81.5003 42.5014 83.4983 42.5014 86.0003C42.5014 86.053 42.5072 86.0999 42.5072 86.1467C42.519 86.2464 42.5424 86.346 42.5717 86.4456C42.6068 86.5393 42.6479 86.6331 42.6947 86.721C42.7416 86.803 42.8002 86.885 42.8705 86.9612C43.0346 87.1545 43.2397 87.2952 43.4799 87.3831C43.5736 87.4182 43.6674 87.4475 43.767 87.4592C43.8139 87.471 43.8666 87.4768 43.9135 87.4768C44.019 87.4827 44.1186 87.4768 44.2123 87.4651C44.265 87.4592 44.3119 87.4475 44.3588 87.4358C44.4584 87.4124 44.5522 87.3772 44.6459 87.3362C44.6928 87.3128 44.7338 87.2893 44.7748 87.2659C44.9037 87.1839 45.0209 87.0901 45.1205 86.9788C45.185 86.9026 45.2436 86.8206 45.2963 86.7327C45.3959 86.5628 45.4662 86.3694 45.4897 86.1702C45.4955 86.1116 45.5014 86.0589 45.5014 86.0003C45.5014 83.4983 47.4994 81.5003 50.0014 81.5003C52.5033 81.5003 54.5014 83.4983 54.5014 86.0003C54.5014 86.053 54.5072 86.0999 54.5072 86.1467C54.519 86.1995 54.5248 86.2522 54.5365 86.2991C54.6244 86.6975 54.8647 87.0374 55.2045 87.2542C55.2514 87.2776 55.2924 87.301 55.3393 87.3245C55.3861 87.3479 55.4272 87.3655 55.4799 87.3831C55.5736 87.4182 55.6674 87.4475 55.767 87.4592C55.8139 87.471 55.8666 87.4768 55.9135 87.4768C55.9662 87.4768 56.019 87.4768 56.0658 87.4768C56.1654 87.471 56.265 87.4592 56.3588 87.4358C56.4584 87.4124 56.5522 87.3772 56.6459 87.3362C56.7338 87.2893 56.8217 87.2366 56.8979 87.178C56.9389 87.1487 56.9799 87.1194 57.015 87.0842C57.1674 86.9495 57.2846 86.7854 57.3666 86.6038C57.39 86.5569 57.4076 86.51 57.4252 86.4632C57.4369 86.4104 57.4545 86.3635 57.4604 86.3167C57.4721 86.2698 57.4838 86.2171 57.4897 86.1702C57.4955 86.1116 57.5014 86.0589 57.5014 86.0003C57.5014 83.4983 59.4994 81.5003 62.0014 81.5003C64.5033 81.5003 66.5014 83.4983 66.5014 86.0003V90.5003C66.5014 93.0022 64.5033 95.0003 62.0014 95.0003C59.4994 95.0003 57.5014 93.0022 57.5014 90.5003C57.5014 90.4475 57.4955 90.4007 57.4955 90.3538C57.4838 90.2542 57.4604 90.1545 57.4311 90.0549C57.3959 89.9612 57.3549 89.8674 57.308 89.7796C57.2611 89.6975 57.2025 89.6155 57.1322 89.5393C57.0385 89.428 56.9213 89.3284 56.7982 89.2464C56.7514 89.2229 56.7104 89.1995 56.6635 89.176C56.6166 89.1526 56.5756 89.135 56.5229 89.1174C56.476 89.0999 56.4291 89.0823 56.3822 89.0706C56.2357 89.0354 56.0893 89.0178 55.9369 89.0237C55.8373 89.0295 55.7377 89.0413 55.644 89.0647C55.5912 89.0764 55.5443 89.094 55.4975 89.1116C55.4506 89.1233 55.4037 89.1467 55.3568 89.1643C55.2221 89.2288 55.0932 89.3167 54.9877 89.4163C54.8764 89.5217 54.7826 89.6389 54.7065 89.7678C54.683 89.8089 54.6596 89.8557 54.6361 89.8967C54.6127 89.9436 54.5951 89.9905 54.5775 90.0374C54.5658 90.0901 54.5482 90.137 54.5424 90.1839C54.519 90.2835 54.5014 90.3772 54.5014 90.4768C54.5014 90.4885 54.5014 90.4944 54.5014 90.5003C54.5014 93.0022 52.5033 95.0003 50.0014 95.0003C47.4994 95.0003 45.5014 93.0022 45.5014 90.5003C45.5014 90.4475 45.4955 90.4007 45.4955 90.3538C45.4838 90.301 45.4779 90.2483 45.4662 90.2014C45.4428 90.1018 45.4135 90.0081 45.3783 89.9143C45.2553 89.6389 45.0502 89.4045 44.7982 89.2464C44.4057 89.0061 43.9311 88.9534 43.4975 89.1116C43.4037 89.1409 43.31 89.1878 43.2279 89.2346C43.14 89.2874 43.058 89.346 42.9877 89.4163C42.9115 89.4866 42.8471 89.5628 42.7826 89.6389C42.7592 89.6799 42.7299 89.7268 42.7065 89.7678C42.683 89.8089 42.6596 89.8557 42.6361 89.8967C42.5951 89.9905 42.56 90.0842 42.5424 90.1839C42.519 90.2835 42.5014 90.3772 42.5014 90.4768C42.5014 90.4885 42.5014 90.4944 42.5014 90.5003C42.5014 93.0022 40.5033 95.0003 38.0014 95.0003C35.4994 95.0003 33.5014 93.0022 33.5014 90.5003C33.4897 89.6799 32.8217 89.0237 32.0014 89.0237C31.1811 89.0237 30.5131 89.6799 30.5014 90.5003C30.5014 93.0022 28.5033 95.0003 26.0014 95.0003C23.4994 95.0003 21.5014 93.0022 21.5014 90.5003V86.0003C21.5014 83.4983 23.4994 81.5003 26.0014 81.5003Z" fill="#269944"/>
</svg>
