<svg width="70" height="70" viewBox="0 0 70 70" fill="none" xmlns="http://www.w3.org/2000/svg">
<path d="M5 0C2.24219 0 0 2.24219 0 5V54H30.5156L29.5156 52H2V10C2.55078 10 3 9.55078 3 9C3 8.44922 2.55078 8 2 8V5C2 3.34766 3.34766 2 5 2H55C56.6523 2 58 3.34766 58 5V8C57.4492 8 57 8.44922 57 9C57 9.55078 57.4492 10 58 10V34.5156L60 36.5156V5C60 2.24219 57.7578 0 55 0H5ZM6 8C5.44922 8 5 8.44922 5 9C5 9.55078 5.44922 10 6 10C6.55078 10 7 9.55078 7 9C7 8.44922 6.55078 8 6 8ZM10 8C9.44922 8 9 8.44922 9 9C9 9.55078 9.44922 10 10 10C10.5508 10 11 9.55078 11 9C11 8.44922 10.5508 8 10 8ZM14 8C13.4492 8 13 8.44922 13 9C13 9.55078 13.4492 10 14 10C14.5508 10 15 9.55078 15 9C15 8.44922 14.5508 8 14 8ZM18 8C17.4492 8 17 8.44922 17 9C17 9.55078 17.4492 10 18 10C18.5508 10 19 9.55078 19 9C19 8.44922 18.5508 8 18 8ZM22 8C21.4492 8 21 8.44922 21 9C21 9.55078 21.4492 10 22 10C22.5508 10 23 9.55078 23 9C23 8.44922 22.5508 8 22 8ZM26 8C25.4492 8 25 8.44922 25 9C25 9.55078 25.4492 10 26 10C26.5508 10 27 9.55078 27 9C27 8.44922 26.5508 8 26 8ZM30 8C29.4492 8 29 8.44922 29 9C29 9.55078 29.4492 10 30 10C30.5508 10 31 9.55078 31 9C31 8.44922 30.5508 8 30 8ZM34 8C33.4492 8 33 8.44922 33 9C33 9.55078 33.4492 10 34 10C34.5508 10 35 9.55078 35 9C35 8.44922 34.5508 8 34 8ZM38 8C37.4492 8 37 8.44922 37 9C37 9.55078 37.4492 10 38 10C38.5508 10 39 9.55078 39 9C39 8.44922 38.5508 8 38 8ZM42 8C41.4492 8 41 8.44922 41 9C41 9.55078 41.4492 10 42 10C42.5508 10 43 9.55078 43 9C43 8.44922 42.5508 8 42 8ZM46 8C45.4492 8 45 8.44922 45 9C45 9.55078 45.4492 10 46 10C46.5508 10 47 9.55078 47 9C47 8.44922 46.5508 8 46 8ZM50 8C49.4492 8 49 8.44922 49 9C49 9.55078 49.4492 10 50 10C50.5508 10 51 9.55078 51 9C51 8.44922 50.5508 8 50 8ZM54 8C53.4492 8 53 8.44922 53 9C53 9.55078 53.4492 10 54 10C54.5508 10 55 9.55078 55 9C55 8.44922 54.5508 8 54 8ZM13 19C11.8945 19 11 19.8945 11 21C11 22.1055 11.8945 23 13 23C14.1055 23 15 22.1055 15 21C15 19.8945 14.1055 19 13 19ZM18 20V22H47V20H18ZM13 27C11.8945 27 11 27.8945 11 29C11 30.1055 11.8945 31 13 31C14.1055 31 15 30.1055 15 29C15 27.8945 14.1055 27 13 27ZM18 28V30H47V28H18ZM46 32C38.2812 32 32 38.2812 32 46C32 53.7188 38.2812 60 46 60C49.5 60 52.6953 58.6992 55.1562 56.5664L57.0156 58.4297L56.7812 58.6641C55.9336 59.5117 55.9336 60.9141 56.7812 61.7578L64.3828 69.3594C65.2266 70.2031 66.6289 70.207 67.4766 69.3594L69.3594 67.4766C70.2031 66.6328 70.207 65.2305 69.3594 64.3828L61.7578 56.7812C61.3359 56.3594 60.7734 56.1484 60.2109 56.1445C59.6484 56.1445 59.0859 56.3594 58.6641 56.7812L58.4297 57.0156L56.5664 55.1562C58.6992 52.6953 60 49.5 60 46C60 38.2812 53.7188 32 46 32ZM46 34C52.6406 34 58 39.3594 58 46C58 52.6406 52.6406 58 46 58C39.3594 58 34 52.6406 34 46C34 39.3594 39.3594 34 46 34ZM13 35C11.8945 35 11 35.8945 11 37C11 38.1055 11.8945 39 13 39C14.1055 39 15 38.1055 15 37C15 35.8945 14.1055 35 13 35ZM18 36V38H31L32 36H18ZM46 36C45.4492 36 45 36.4492 45 37C45 37.5508 45.4492 38 46 38C46.5508 38 47 37.5508 47 37C47 36.4492 46.5508 36 46 36ZM41.4727 37.2031C41.3086 37.207 41.1445 37.2539 41 37.3398C40.7695 37.4688 40.6016 37.6875 40.5312 37.9453C40.4648 38.2031 40.5 38.4766 40.6328 38.7031C40.9102 39.1836 41.5195 39.3477 42 39.0703C42.4766 38.793 42.6406 38.1836 42.3633 37.7031C42.1836 37.3867 41.8398 37.1953 41.4727 37.2031ZM50.4531 37.207C50.1133 37.2266 49.8047 37.4141 49.6328 37.707C49.3555 38.1836 49.5195 38.7969 50 39.0742C50.2266 39.207 50.5 39.2422 50.7578 39.1719C51.0156 39.1055 51.2344 38.9375 51.3633 38.707C51.6406 38.2305 51.4766 37.6172 51 37.3438C50.832 37.2461 50.6406 37.1992 50.4531 37.207ZM53.7695 40.5C53.6016 40.5039 53.4375 40.5508 53.293 40.6328C52.8164 40.9102 52.6484 41.5195 52.9258 42C53.0586 42.2266 53.2773 42.3945 53.5352 42.4648C53.7891 42.5352 54.0625 42.5 54.293 42.3633C54.5234 42.2344 54.6914 42.0156 54.7578 41.7578C54.8281 41.5 54.793 41.2266 54.6562 41C54.4766 40.6836 54.1328 40.4922 53.7695 40.5ZM38.1562 40.5C37.8164 40.5195 37.5078 40.707 37.3398 41C37.0625 41.4805 37.2266 42.0898 37.7031 42.3672C38.1836 42.6445 38.793 42.4805 39.0703 42C39.2031 41.7734 39.2383 41.5 39.1719 41.2422C39.1016 40.9844 38.9336 40.7656 38.7031 40.6367C38.5391 40.5391 38.3477 40.4922 38.1562 40.5ZM37 45C36.4492 45 36 45.4492 36 46C36 46.5508 36.4492 47 37 47C37.5508 47 38 46.5508 38 46C38 45.4492 37.5508 45 37 45ZM55 45C54.4492 45 54 45.4492 54 46C54 46.5508 54.4492 47 55 47C55.5508 47 56 46.5508 56 46C56 45.4492 55.5508 45 55 45ZM38.1836 49.5C38.0156 49.5039 37.8516 49.5469 37.7031 49.6328C37.2266 49.9102 37.0625 50.5195 37.3398 51C37.4688 51.2266 37.6875 51.3945 37.9453 51.4648C38.2031 51.5352 38.4766 51.5 38.7031 51.3633C38.9336 51.2344 39.1016 51.0156 39.1719 50.7578C39.2383 50.5 39.2031 50.2266 39.0703 50C38.8867 49.6797 38.5469 49.4883 38.1836 49.5ZM53.7461 49.5039C53.4062 49.5195 53.0977 49.707 52.9258 50C52.6484 50.4805 52.8164 51.0898 53.293 51.3672C53.7695 51.6445 54.3828 51.4805 54.6562 51C54.9336 50.5234 54.7695 49.9141 54.293 49.6367C54.1289 49.5391 53.9375 49.4961 53.7461 49.5039ZM50.4727 52.793C50.3086 52.7969 50.1445 52.8438 50 52.9258C49.7695 53.0586 49.6016 53.2773 49.5312 53.5352C49.4648 53.7891 49.5 54.0625 49.6328 54.293C49.9102 54.7695 50.5195 54.9336 51 54.6562C51.4766 54.3828 51.6406 53.7695 51.3633 53.293C51.1836 52.9766 50.8398 52.7852 50.4727 52.793ZM41.4531 52.7969C41.1133 52.8125 40.8047 53 40.6328 53.2969C40.3555 53.7734 40.5195 54.3828 41 54.6602C41.2266 54.793 41.5 54.8281 41.7578 54.7617C42.0156 54.6914 42.2344 54.5234 42.3633 54.2969C42.6406 53.8164 42.4766 53.207 42 52.9297C41.832 52.832 41.6406 52.7891 41.4531 52.7969ZM46 54C45.4492 54 45 54.4492 45 55C45 55.5508 45.4492 56 46 56C46.5508 56 47 55.5508 47 55C47 54.4492 46.5508 54 46 54ZM60.2109 58.1367C60.2578 58.1367 60.3008 58.1562 60.3438 58.1953L67.9453 65.7969C68.0273 65.8789 68.0273 65.9805 67.9453 66.0625L66.0625 67.9453C65.9805 68.0273 65.8789 68.0273 65.7969 67.9453L58.1953 60.3438C58.1133 60.2617 58.1133 60.1602 58.1953 60.0781L60.0781 58.1953C60.1172 58.1562 60.1641 58.1328 60.2109 58.1367Z" fill="black"/>
</svg>
