<svg width="77" height="97" viewBox="0 0 77 97" fill="none" xmlns="http://www.w3.org/2000/svg">
<path d="M35.5766 0.3125C33.977 0.3125 32.6516 1.63789 32.6516 3.2375V4.02588C21.997 6.61382 14.0561 16.0001 13.7076 27.3459C11.1197 28.4713 9.25156 30.9564 9.25156 33.95V36.875H15.1016V44.1875H15.1244C15.1701 45.0102 15.4101 45.7357 15.6214 46.4498C15.7357 46.8497 15.85 47.221 15.9242 47.501C15.9985 47.7809 16.0156 48.0551 16.0156 47.8438C16.0156 49.8318 17.6838 51.3857 19.649 51.4543C19.9175 57.1215 22.6483 62.126 26.8016 65.4223V69.4156C24.6935 70.0555 19.6319 71.6894 14.4789 74.123C11.114 75.7112 7.73194 77.625 5.09829 79.8931C2.46465 82.1611 0.476562 84.8747 0.476562 88.0625V96.8375H76.5266V88.0625C76.5266 84.8747 74.5385 82.1611 71.9048 79.8931C69.2712 77.625 65.8892 75.7112 62.5243 74.123C57.3712 71.6894 52.3096 70.0555 50.2016 69.4156V65.428C54.3548 62.1317 57.0856 57.1272 57.3541 51.4543C59.3193 51.3857 60.9875 49.8318 60.9875 47.8438C60.9875 48.0551 61.0046 47.7809 61.0789 47.501C61.1532 47.221 61.2674 46.8497 61.3817 46.4498C61.5931 45.7357 61.833 45.0102 61.8787 44.1875H61.9016V36.875H67.7516V33.95C67.7516 30.9564 65.8835 28.4713 63.2955 27.3459C62.947 16.0001 55.0061 6.61382 44.3516 4.02588V3.2375C44.3516 1.63789 43.0262 0.3125 41.4266 0.3125H35.5766ZM35.5766 3.2375H41.4266V6.33389L41.438 6.3396C41.5294 7.07085 42.1521 7.625 42.8891 7.625C43.4032 7.625 43.8774 7.35649 44.1402 6.9166C53.0637 9.28174 59.7478 17.1141 60.3705 26.6375C59.5936 26.6775 58.9766 27.3173 58.9766 28.1C58.9766 28.9055 59.6335 29.5625 60.4391 29.5625C60.5476 29.5625 60.6562 29.5511 60.7647 29.5225L61.5131 29.7167C63.4155 30.2023 64.8266 31.8876 64.8266 33.95H12.1766C12.1766 31.8876 13.5819 30.2023 15.4843 29.7167L16.2384 29.5225C16.347 29.5511 16.4555 29.5625 16.5641 29.5625C17.3696 29.5625 18.0266 28.9055 18.0266 28.1C18.0266 27.3173 17.4096 26.6775 16.6326 26.6375C17.2553 17.1141 23.9394 9.28174 32.8629 6.9166C33.1257 7.35649 33.5999 7.625 34.1141 7.625C34.851 7.625 35.4737 7.07085 35.5651 6.3396L35.5766 6.33389V3.2375ZM34.1141 10.55C33.3085 10.55 32.6516 11.207 32.6516 12.0125C32.6516 12.818 33.3085 13.475 34.1141 13.475C34.9196 13.475 35.5766 12.818 35.5766 12.0125C35.5766 11.207 34.9196 10.55 34.1141 10.55ZM42.8891 10.55C42.0835 10.55 41.4266 11.207 41.4266 12.0125C41.4266 12.818 42.0835 13.475 42.8891 13.475C43.6946 13.475 44.3516 12.818 44.3516 12.0125C44.3516 11.207 43.6946 10.55 42.8891 10.55ZM34.1141 16.4C33.3085 16.4 32.6516 17.057 32.6516 17.8625C32.6516 18.668 33.3085 19.325 34.1141 19.325C34.9196 19.325 35.5766 18.668 35.5766 17.8625C35.5766 17.057 34.9196 16.4 34.1141 16.4ZM42.8891 16.4C42.0835 16.4 41.4266 17.057 41.4266 17.8625C41.4266 18.668 42.0835 19.325 42.8891 19.325C43.6946 19.325 44.3516 18.668 44.3516 17.8625C44.3516 17.057 43.6946 16.4 42.8891 16.4ZM22.4141 26.6375C21.6085 26.6375 20.9516 27.2945 20.9516 28.1C20.9516 28.9055 21.6085 29.5625 22.4141 29.5625C23.2196 29.5625 23.8766 28.9055 23.8766 28.1C23.8766 27.2945 23.2196 26.6375 22.4141 26.6375ZM54.5891 26.6375C53.7836 26.6375 53.1266 27.2945 53.1266 28.1C53.1266 28.9055 53.7836 29.5625 54.5891 29.5625C55.3946 29.5625 56.0516 28.9055 56.0516 28.1C56.0516 27.2945 55.3946 26.6375 54.5891 26.6375ZM18.0266 36.875H19.8718C19.6376 37.8062 19.5005 38.7945 19.4948 39.8457C19.4148 39.8343 19.4376 39.8 19.3063 39.8C18.8606 39.8 18.4322 39.8857 18.0266 40.0171V36.875ZM22.8997 36.875H54.0635C54.372 37.7319 54.5891 38.7146 54.5891 39.8V44.6331L56.7885 43.342C57.1656 43.1249 57.5141 42.9307 57.7597 42.805C57.7883 42.7878 57.7997 42.7878 57.8283 42.7707C58.4967 42.8393 58.9766 43.3077 58.9766 43.8961C58.9766 44.0047 58.8052 44.8616 58.5824 45.6271C58.4681 46.0042 58.3539 46.387 58.2567 46.7354C58.1596 47.0839 58.0625 47.3296 58.0625 47.8438C58.0625 48.2322 57.7426 48.575 57.2398 48.575H54.5891V50.5745C54.5891 58.504 48.8705 65.0567 41.3409 66.3992L40.9238 66.4678L40.6096 66.7591C40.0383 67.279 39.3185 67.5875 38.5016 67.5875C37.6846 67.5875 36.9648 67.279 36.3935 66.7591L36.0793 66.4678L35.6623 66.3992C28.1327 65.0567 22.4141 58.504 22.4141 50.5745V48.575H19.7633C19.2605 48.575 18.9406 48.2322 18.9406 47.8438C18.9406 47.3296 18.8435 47.0839 18.7464 46.7354C18.6493 46.387 18.535 46.0042 18.4208 45.6271C18.198 44.8616 18.0266 44.0047 18.0266 43.8961C18.0266 43.3077 18.5064 42.8393 19.1749 42.7707C19.2034 42.7878 19.2148 42.7878 19.2434 42.805C19.4891 42.9307 19.8375 43.1249 20.2146 43.342L22.4141 44.6331V39.8743C22.4141 38.7603 22.5912 37.7719 22.8997 36.875ZM57.1313 36.875H58.9766V40.0171C58.5709 39.8857 58.1425 39.8 57.6969 39.8C57.5712 39.8 57.594 39.8286 57.5141 39.84V39.8C57.5141 38.7431 57.3655 37.7605 57.1313 36.875ZM30.4578 42.725C29.2467 42.725 28.2641 43.7076 28.2641 44.9188C28.2641 46.1299 29.2467 47.1125 30.4578 47.1125C31.6689 47.1125 32.6516 46.1299 32.6516 44.9188C32.6516 43.7076 31.6689 42.725 30.4578 42.725ZM46.5453 42.725C45.3342 42.725 44.3516 43.7076 44.3516 44.9188C44.3516 46.1299 45.3342 47.1125 46.5453 47.1125C47.7564 47.1125 48.7391 46.1299 48.7391 44.9188C48.7391 43.7076 47.7564 42.725 46.5453 42.725ZM29.7266 67.3304C31.2862 68.1474 32.9715 68.7758 34.7596 69.1357C35.7937 69.9584 37.0733 70.5125 38.5016 70.5125C39.9241 70.5125 41.198 69.9584 42.2264 69.1414C44.0202 68.7872 45.7112 68.1588 47.2766 67.3361V71.975C47.2766 73.6832 46.3396 75.9855 44.7343 77.7564C43.1233 79.5274 40.941 80.75 38.5016 80.75C33.3828 80.75 29.7266 77.0938 29.7266 71.975V67.3304ZM26.8244 72.4834C27.0872 78.8133 32.0917 83.675 38.5016 83.675C41.9122 83.675 44.8486 81.9726 46.8938 79.7217C48.8133 77.6079 50.0245 75.0085 50.173 72.4834C52.5153 73.2204 56.8342 74.6715 61.2789 76.7738C64.4952 78.2935 67.6944 80.1273 69.9967 82.1097C72.299 84.092 73.6016 86.1315 73.6016 88.0625V93.9125H3.40156V88.0625C3.40156 86.1315 4.7041 84.092 7.0064 82.1097C9.30869 80.1273 12.5079 78.2935 15.7243 76.7738C20.1689 74.6772 24.4821 73.2204 26.8244 72.4834ZM9.25156 88.0625C8.44605 88.0625 7.78906 88.7195 7.78906 89.525C7.78906 90.3305 8.44605 90.9875 9.25156 90.9875C10.0571 90.9875 10.7141 90.3305 10.7141 89.525C10.7141 88.7195 10.0571 88.0625 9.25156 88.0625ZM15.1016 88.0625C14.296 88.0625 13.6391 88.7195 13.6391 89.525C13.6391 90.3305 14.296 90.9875 15.1016 90.9875C15.9071 90.9875 16.5641 90.3305 16.5641 89.525C16.5641 88.7195 15.9071 88.0625 15.1016 88.0625ZM20.9516 88.0625C20.146 88.0625 19.4891 88.7195 19.4891 89.525C19.4891 90.3305 20.146 90.9875 20.9516 90.9875C21.7571 90.9875 22.4141 90.3305 22.4141 89.525C22.4141 88.7195 21.7571 88.0625 20.9516 88.0625ZM26.8016 88.0625C25.996 88.0625 25.3391 88.7195 25.3391 89.525C25.3391 90.3305 25.996 90.9875 26.8016 90.9875C27.6071 90.9875 28.2641 90.3305 28.2641 89.525C28.2641 88.7195 27.6071 88.0625 26.8016 88.0625ZM32.6516 88.0625C31.846 88.0625 31.1891 88.7195 31.1891 89.525C31.1891 90.3305 31.846 90.9875 32.6516 90.9875C33.4571 90.9875 34.1141 90.3305 34.1141 89.525C34.1141 88.7195 33.4571 88.0625 32.6516 88.0625ZM38.5016 88.0625C37.696 88.0625 37.0391 88.7195 37.0391 89.525C37.0391 90.3305 37.696 90.9875 38.5016 90.9875C39.3071 90.9875 39.9641 90.3305 39.9641 89.525C39.9641 88.7195 39.3071 88.0625 38.5016 88.0625ZM44.3516 88.0625C43.546 88.0625 42.8891 88.7195 42.8891 89.525C42.8891 90.3305 43.546 90.9875 44.3516 90.9875C45.1571 90.9875 45.8141 90.3305 45.8141 89.525C45.8141 88.7195 45.1571 88.0625 44.3516 88.0625ZM50.2016 88.0625C49.396 88.0625 48.7391 88.7195 48.7391 89.525C48.7391 90.3305 49.396 90.9875 50.2016 90.9875C51.0071 90.9875 51.6641 90.3305 51.6641 89.525C51.6641 88.7195 51.0071 88.0625 50.2016 88.0625ZM56.0516 88.0625C55.246 88.0625 54.5891 88.7195 54.5891 89.525C54.5891 90.3305 55.246 90.9875 56.0516 90.9875C56.8571 90.9875 57.5141 90.3305 57.5141 89.525C57.5141 88.7195 56.8571 88.0625 56.0516 88.0625ZM61.9016 88.0625C61.0961 88.0625 60.4391 88.7195 60.4391 89.525C60.4391 90.3305 61.0961 90.9875 61.9016 90.9875C62.7071 90.9875 63.3641 90.3305 63.3641 89.525C63.3641 88.7195 62.7071 88.0625 61.9016 88.0625ZM67.7516 88.0625C66.9461 88.0625 66.2891 88.7195 66.2891 89.525C66.2891 90.3305 66.9461 90.9875 67.7516 90.9875C68.5571 90.9875 69.2141 90.3305 69.2141 89.525C69.2141 88.7195 68.5571 88.0625 67.7516 88.0625Z" fill="white"/>
</svg>
