<svg width="100" height="88" viewBox="0 0 100 88" fill="none" xmlns="http://www.w3.org/2000/svg">
<path d="M52.4734 0.506563C49.9367 0.574377 47.4895 1.90613 46.1365 4.23606L45.1257 5.9382L44.2966 5.47238C42.576 4.50323 40.3527 5.09225 39.3572 6.80246L36.9841 10.8864C36.0005 12.5829 36.605 14.7967 38.2937 15.779L38.3201 15.7937L38.6043 15.9431L31.6697 28.3298L15.325 33.9782L15.322 33.9812C12.8135 34.8186 10.7993 36.7173 9.81715 39.1726L1.07789 60.0407L1.07203 60.0525C-0.583393 64.191 1.50684 68.9256 5.68043 70.4909H5.68336L5.93531 70.5876H6.19312C7.18255 70.8852 8.18973 70.9884 9.17262 70.9245C8.26642 73.2819 7.44556 75.5338 6.91969 77.2321C6.60904 78.2354 6.37815 79.291 6.55933 80.4167C6.6559 81.0167 6.92315 81.6147 7.31812 82.1482C7.30784 82.1651 7.29287 82.1777 7.28297 82.195L6.17262 84.1345C5.55612 85.213 5.93201 86.5868 7.01051 87.2048C7.36301 87.4058 7.74579 87.5007 8.12379 87.5007C8.90529 87.5007 9.66532 87.0944 10.0808 86.3669L11.1912 84.4275C11.1938 84.4228 11.1944 84.4175 11.197 84.4128C11.9659 84.5169 12.732 84.4342 13.3767 84.1667C14.4426 83.7246 15.2535 82.9824 15.9695 82.2155C18.7885 79.1945 23.9178 73.8659 27.2107 69.2429C27.6569 69.6164 28.1379 69.956 28.6814 70.2243C28.6855 70.2264 42.0292 76.8634 51.5506 81.3571C51.5613 81.3612 51.572 81.3651 51.5828 81.3689C51.6931 81.4179 51.658 81.3996 51.6502 81.3952C53.3797 82.3672 55.3773 82.9421 57.5037 82.9421C60.0807 82.9421 65.5769 82.1919 70.6551 81.4538C74.8101 80.85 77.2656 80.4458 78.5007 80.2468V83.0007H99.5008V81.5007V37.4206L78.5007 44.4197V47.3288L74.3054 48.3777L54.5154 34.4118C56.8803 30.8349 59.3372 27.1066 61.2302 24.4099C61.2342 24.4031 61.2381 24.3962 61.242 24.3894C61.7959 23.5732 62.0589 22.6044 61.992 21.6062C61.925 20.608 61.4697 19.5358 60.5476 18.8171C60.47 18.7563 60.3866 18.7033 60.2986 18.6589L59.9705 18.4948L60.0174 18.4157C61.011 16.7043 60.3865 14.468 58.6668 13.4968L58.6638 13.4939L58.2273 13.2478L59.1824 11.6394L59.1853 11.6335C61.247 8.083 59.9749 3.5004 56.3875 1.47922C55.4904 0.973592 54.5315 0.670078 53.5633 0.556368C53.2001 0.513726 52.8358 0.496876 52.4734 0.506563ZM52.324 3.50949C53.1943 3.44648 54.0938 3.63032 54.9138 4.0925C57.0984 5.32332 57.8308 7.99023 56.5896 10.1277L54.0818 14.3581L57.1902 16.1101C57.5078 16.2913 57.5944 16.6124 57.4216 16.9099L55.0486 20.9939C54.8781 21.2879 54.5093 21.3936 54.1902 21.2195L54.1697 21.2107L51.6765 19.9392L31.3181 56.2468C30.6778 56.289 30.0469 56.375 29.4431 56.5632C27.6925 57.1089 26.1742 58.3642 25.2771 60.1814C24.2144 62.3339 24.3173 64.7516 25.2947 66.7673C25.2877 66.777 25.2809 66.7868 25.2742 66.7966C22.3032 71.1771 16.7892 76.9408 13.7781 80.1677C13.207 80.7794 12.634 81.2257 12.2254 81.3952C11.8167 81.5648 11.6518 81.5917 11.1941 81.3337L10.1189 80.7273C9.62807 80.4509 9.58119 80.3145 9.52125 79.9421C9.46131 79.5697 9.54057 78.909 9.78492 78.1198C10.3799 76.1983 11.402 73.434 12.5359 70.5876H14.4783L12.7849 69.9519C14.3097 66.1755 16.0376 62.3011 17.4724 59.8298L17.4783 59.821L41.2556 17.3493L45.9226 19.8249C46.0971 19.9252 46.2899 19.9893 46.4897 20.0135C46.6895 20.0377 46.8921 20.0214 47.0854 19.9657C47.2788 19.91 47.4589 19.8159 47.6152 19.6891C47.7715 19.5624 47.9006 19.4054 47.995 19.2277C48.0893 19.05 48.147 18.8551 48.1645 18.6547C48.182 18.4542 48.159 18.2523 48.0968 18.0609C48.0347 17.8695 47.9347 17.6926 47.8027 17.5406C47.6708 17.3887 47.5097 17.2649 47.3289 17.1765L39.8025 13.1863C39.4902 13.0046 39.4085 12.6879 39.5798 12.3923L41.95 8.31125C42.1245 8.01147 42.5037 7.90582 42.823 8.08566H42.8259L46.2127 9.98996L48.7263 5.74777L48.7293 5.74191C49.5051 4.40588 50.8734 3.61452 52.324 3.50949ZM58.4617 21.0964L58.7254 21.2282C58.8858 21.3683 58.9792 21.5308 58.9978 21.8083C59.0177 22.105 58.9116 22.4737 58.7605 22.6989V22.7048C56.8327 25.4521 54.3964 29.1503 52.0633 32.6804L49.365 30.7761C49.2886 30.7207 49.2072 30.6726 49.1218 30.6325L52.8836 23.9206L52.7898 23.8738L52.7517 23.8532C54.4666 24.7891 56.6598 24.1977 57.6443 22.4997L58.4617 21.0964ZM29.4666 32.2644L14.8679 58.3445C13.4821 60.7345 11.9406 64.0862 10.5408 67.4558L9.99 67.7517C8.96012 68.0799 7.82918 68.0911 6.73512 67.6814C4.10264 66.694 2.81563 63.7794 3.85816 61.1687V61.1657L12.5974 40.2976L12.6033 40.2859C13.2587 38.6474 14.5995 37.3812 16.2742 36.823H16.283L29.4666 32.2644ZM47.657 33.24L50.3963 35.1736C49.6559 36.2828 48.7735 37.6347 48.1726 38.5017L48.199 38.4665C47.203 39.8177 46.8567 41.3334 47.0095 42.6706C47.2943 45.1599 49.0193 46.6345 49.0193 46.6345C49.1672 46.7699 49.3407 46.8743 49.5297 46.9414C49.7186 47.0086 49.9191 47.0372 50.1192 47.0256C50.3194 47.014 50.5152 46.9624 50.6951 46.8738C50.875 46.7852 51.0353 46.6614 51.1665 46.5098C51.2977 46.3582 51.3972 46.1818 51.4591 45.9911C51.521 45.8004 51.5441 45.5992 51.5269 45.3994C51.5097 45.1997 51.4527 45.0054 51.3591 44.828C51.2655 44.6507 51.1374 44.4939 50.9822 44.3669C50.9822 44.3669 50.1392 43.6185 49.992 42.3308C49.9168 41.673 50.019 41.0536 50.6131 40.2478C50.622 40.2362 50.6308 40.2245 50.6394 40.2126C51.2461 39.3372 52.113 38.0059 52.8484 36.905L73.1365 51.2253C73.3125 51.3498 73.5132 51.4349 73.725 51.4749C73.9369 51.5148 74.1548 51.5086 74.364 51.4568L78.5007 50.4226V77.2116C77.5309 77.3689 74.6046 77.8495 70.2244 78.4861C65.1775 79.2195 59.4267 79.9421 57.5037 79.9421C55.8563 79.9421 54.3252 79.4952 52.9949 78.7204C52.9419 78.6908 52.8871 78.6644 52.8308 78.6413C52.8161 78.6344 52.8104 78.6307 52.7957 78.6237C43.3282 74.1544 30.0144 67.5378 30.0144 67.5378L30.0086 67.5349C27.7637 66.4266 26.8583 63.7533 27.9666 61.5085C28.5365 60.3542 29.3033 59.7505 30.3367 59.4284C31.37 59.1063 32.7204 59.126 34.2449 59.5632C34.5785 59.6601 37.5935 60.5066 37.5935 60.5066C37.7853 60.568 37.9875 60.5902 38.1881 60.5718C38.3887 60.5534 38.5835 60.4948 38.7609 60.3995C38.9384 60.3042 39.0948 60.1742 39.2209 60.0171C39.347 59.8601 39.4402 59.6792 39.4949 59.4854C39.5496 59.2915 39.5647 59.0887 39.5393 58.8889C39.5139 58.6891 39.4486 58.4964 39.3472 58.3224C39.2457 58.1484 39.1103 57.9966 38.9489 57.8761C38.7876 57.7555 38.6036 57.6687 38.408 57.6208C38.408 57.6208 35.0107 56.6611 35.0769 56.6804L35.0711 56.6775C34.9065 56.6303 34.7431 56.6067 34.5789 56.5661L47.657 33.24ZM96.5008 41.5837V80.0007H81.5007V78.5622C81.5025 78.5203 81.5025 78.4782 81.5007 78.4362V46.5818L96.5008 41.5837ZM86.0007 50.0007C85.6029 50.0007 85.2214 50.1587 84.9401 50.44C84.6588 50.7213 84.5007 51.1029 84.5007 51.5007C84.5007 51.8985 84.6588 52.2801 84.9401 52.5614C85.2214 52.8427 85.6029 53.0007 86.0007 53.0007C86.3986 53.0007 86.7801 52.8427 87.0614 52.5614C87.3427 52.2801 87.5007 51.8985 87.5007 51.5007C87.5007 51.1029 87.3427 50.7213 87.0614 50.44C86.7801 50.1587 86.3986 50.0007 86.0007 50.0007ZM86.0007 56.0007C85.6029 56.0007 85.2214 56.1587 84.9401 56.44C84.6588 56.7213 84.5007 57.1029 84.5007 57.5007C84.5007 57.8985 84.6588 58.2801 84.9401 58.5614C85.2214 58.8427 85.6029 59.0007 86.0007 59.0007C86.3986 59.0007 86.7801 58.8427 87.0614 58.5614C87.3427 58.2801 87.5007 57.8985 87.5007 57.5007C87.5007 57.1029 87.3427 56.7213 87.0614 56.44C86.7801 56.1587 86.3986 56.0007 86.0007 56.0007ZM53.0008 57.5007C52.6029 57.5007 52.2214 57.6587 51.9401 57.94C51.6588 58.2213 51.5008 58.6029 51.5008 59.0007C51.5008 59.3985 51.6588 59.7801 51.9401 60.0614C52.2214 60.3427 52.6029 60.5007 53.0008 60.5007C53.3986 60.5007 53.7801 60.3427 54.0614 60.0614C54.3427 59.7801 54.5008 59.3985 54.5008 59.0007C54.5008 58.6029 54.3427 58.2213 54.0614 57.94C53.7801 57.6587 53.3986 57.5007 53.0008 57.5007ZM42.5007 59.0007C42.1029 59.0007 41.7214 59.1587 41.4401 59.44C41.1588 59.7213 41.0007 60.1029 41.0007 60.5007C41.0007 60.8985 41.1588 61.2801 41.4401 61.5614C41.7214 61.8427 42.1029 62.0007 42.5007 62.0007C42.8986 62.0007 43.2801 61.8427 43.5614 61.5614C43.8427 61.2801 44.0007 60.8985 44.0007 60.5007C44.0007 60.1029 43.8427 59.7213 43.5614 59.44C43.2801 59.1587 42.8986 59.0007 42.5007 59.0007ZM47.0007 60.5007C46.6029 60.5007 46.2214 60.6587 45.9401 60.94C45.6588 61.2213 45.5007 61.6029 45.5007 62.0007C45.5007 62.3985 45.6588 62.7801 45.9401 63.0614C46.2214 63.3427 46.6029 63.5007 47.0007 63.5007C47.3986 63.5007 47.7801 63.3427 48.0614 63.0614C48.3427 62.7801 48.5008 62.3985 48.5008 62.0007C48.5008 61.6029 48.3427 61.2213 48.0614 60.94C47.7801 60.6587 47.3986 60.5007 47.0007 60.5007ZM51.5008 62.0007C51.1029 62.0007 50.7214 62.1587 50.4401 62.44C50.1588 62.7213 50.0008 63.1029 50.0008 63.5007C50.0008 63.8985 50.1588 64.2801 50.4401 64.5614C50.7214 64.8427 51.1029 65.0007 51.5008 65.0007C51.8986 65.0007 52.2801 64.8427 52.5614 64.5614C52.8427 64.2801 53.0008 63.8985 53.0008 63.5007C53.0008 63.1029 52.8427 62.7213 52.5614 62.44C52.2801 62.1587 51.8986 62.0007 51.5008 62.0007ZM86.0007 62.0007C85.6029 62.0007 85.2214 62.1587 84.9401 62.44C84.6588 62.7213 84.5007 63.1029 84.5007 63.5007C84.5007 63.8985 84.6588 64.2801 84.9401 64.5614C85.2214 64.8427 85.6029 65.0007 86.0007 65.0007C86.3986 65.0007 86.7801 64.8427 87.0614 64.5614C87.3427 64.2801 87.5007 63.8985 87.5007 63.5007C87.5007 63.1029 87.3427 62.7213 87.0614 62.44C86.7801 62.1587 86.3986 62.0007 86.0007 62.0007ZM86.0007 68.0007C85.6029 68.0007 85.2214 68.1587 84.9401 68.44C84.6588 68.7214 84.5007 69.1029 84.5007 69.5007C84.5007 69.8985 84.6588 70.2801 84.9401 70.5614C85.2214 70.8427 85.6029 71.0007 86.0007 71.0007C86.3986 71.0007 86.7801 70.8427 87.0614 70.5614C87.3427 70.2801 87.5007 69.8985 87.5007 69.5007C87.5007 69.1029 87.3427 68.7214 87.0614 68.44C86.7801 68.1587 86.3986 68.0007 86.0007 68.0007ZM86.0007 74.0007C85.6029 74.0007 85.2214 74.1587 84.9401 74.44C84.6588 74.7214 84.5007 75.1029 84.5007 75.5007C84.5007 75.8985 84.6588 76.2801 84.9401 76.5614C85.2214 76.8427 85.6029 77.0007 86.0007 77.0007C86.3986 77.0007 86.7801 76.8427 87.0614 76.5614C87.3427 76.2801 87.5007 75.8985 87.5007 75.5007C87.5007 75.1029 87.3427 74.7214 87.0614 74.44C86.7801 74.1587 86.3986 74.0007 86.0007 74.0007Z" fill="#269944"/>
</svg>
