<svg width="63" height="66" viewBox="0 0 63 66" fill="none" xmlns="http://www.w3.org/2000/svg">
<path d="M34.954 0.987802C34.5908 1.00733 34.2665 1.22218 34.1064 1.55421L30.2587 9.24952C29.4384 9.45655 25.0361 10.687 22.204 16.1441L22.1767 16.187L21.4306 18.062C21.3134 18.0191 21.1884 17.9995 21.0634 17.9995C18.3369 17.9995 15.915 19.3667 14.454 21.4487L6.37201 32.1753L1.62982 34.0737C1.28216 34.1948 1.03216 34.4956 0.973569 34.8589C0.914976 35.2222 1.06341 35.5855 1.35248 35.8081C1.64544 36.0347 2.03607 36.0776 2.37201 35.9253L7.37201 33.9253C7.53998 33.8589 7.68841 33.7456 7.79779 33.6011L16.0751 22.6245C16.0829 22.6128 16.0869 22.605 16.0947 22.5933C17.1181 21.1323 18.7626 20.1519 20.6494 20.0269L16.6884 29.9526L9.95404 37.2026L10.6611 37.8823C10.6611 37.8823 11.3954 38.5894 12.6298 39.7769C14.3876 41.4605 16.9931 41.6167 19.4775 40.9487C21.9619 40.2808 24.4501 38.7964 26.329 36.8433C26.7783 36.3706 27.3681 35.5308 28.2079 34.3276C29.0517 33.1245 30.0634 31.6401 31.0361 30.1948C32.8329 27.5269 34.2431 25.3823 34.497 24.9995H57.0009C57.0048 24.9995 57.0048 24.9995 57.0087 24.9995C59.2236 25.0034 61.0009 26.7808 61.0009 28.9995C61.0009 31.2183 59.2197 32.9995 57.0009 32.9995H55.0009C54.454 33.0073 54.0165 33.4526 54.0165 33.9995C54.0165 34.5464 54.454 34.9917 55.0009 34.9995C57.2197 34.9995 59.0009 36.7808 59.0009 38.9995C59.0009 41.2183 57.2197 42.9995 55.0009 42.9995H54.0009C53.454 43.0073 53.0165 43.4526 53.0165 43.9995C53.0165 44.5464 53.454 44.9917 54.0009 44.9995C56.2197 44.9995 58.0009 46.7808 58.0009 48.9995C58.0009 50.9058 56.6767 52.4761 54.9033 52.8862C54.5204 52.9761 54.2236 53.2769 54.1493 53.6636C54.0712 54.0464 54.2236 54.4409 54.5439 54.6714C55.4267 55.312 56.0009 56.3276 56.0009 57.4995C56.0009 59.4448 54.4462 60.9995 52.5009 60.9995H47.0009V57.9995C47.0009 55.2495 44.7509 52.9995 42.0009 52.9995C40.3251 52.9995 38.9111 53.8862 38.0009 55.1597C37.0908 53.8862 35.6767 52.9995 34.0009 52.9995C32.3251 52.9995 30.9111 53.8862 30.0009 55.1597C29.0908 53.8862 27.6767 52.9995 26.0009 52.9995C24.3251 52.9995 22.9111 53.8862 22.0009 55.1597C21.0908 53.8862 19.6767 52.9995 18.0009 52.9995C15.2509 52.9995 13.0009 55.2495 13.0009 57.9995V60.9995H2.00091C1.64154 60.9956 1.3056 61.1831 1.12201 61.4956C0.942319 61.8081 0.942319 62.1909 1.12201 62.5034C1.3056 62.8159 1.64154 63.0034 2.00091 62.9995H13.4267C14.204 64.7612 15.9619 65.9995 18.0009 65.9995C19.6767 65.9995 21.0908 65.1128 22.0009 63.8394C22.9111 65.1128 24.3251 65.9995 26.0009 65.9995C27.6767 65.9995 29.0908 65.1128 30.0009 63.8394C30.9111 65.1128 32.3251 65.9995 34.0009 65.9995C35.6767 65.9995 37.0908 65.1128 38.0009 63.8394C38.9111 65.1128 40.3251 65.9995 42.0009 65.9995C44.04 65.9995 45.7978 64.7612 46.5751 62.9995H52.5009C55.5283 62.9995 58.0009 60.5269 58.0009 57.4995C58.0009 56.2417 57.4697 55.1753 56.7548 54.2495C58.665 53.2456 60.0009 51.3003 60.0009 48.9995C60.0009 47.0776 59.0283 45.437 57.6103 44.3394C59.5986 43.355 61.0009 41.355 61.0009 38.9995C61.0009 37.2417 60.204 35.6948 58.9931 34.5933C61.3095 33.7651 63.0009 31.5972 63.0009 28.9995C63.0009 26.1558 61.0009 23.7691 58.3368 23.1558L58.8095 21.7339C59.5595 19.4839 59.2079 17.0698 58.0478 15.0151L59.9501 9.31593C60.0556 9.01124 60.0087 8.6753 59.8251 8.40968C59.6376 8.14405 59.3368 7.9878 59.0126 7.9839C58.5751 7.9839 58.1845 8.26515 58.0517 8.68312L55.6142 15.9995H56.3368C57.2118 17.5581 57.4853 19.3941 56.9111 21.105L56.2822 22.9995H34.1376C33.7353 22.9331 33.3329 23.1128 33.122 23.4566C33.122 23.4566 31.3173 26.1948 29.3759 29.0776C28.4072 30.5191 27.3994 31.9956 26.5712 33.1792C25.7431 34.3628 25.0009 35.3355 24.8876 35.4566C23.2744 37.1323 21.0361 38.4605 18.9579 39.0151C16.8837 39.5737 15.0908 39.3628 14.0165 38.3316C13.2275 37.5737 13.0751 37.4253 12.7548 37.1206L18.4072 31.0425L23.9853 17.0542C26.704 11.8355 31.1962 10.98 31.1962 10.98L31.6767 10.8862L35.8954 2.44483C36.0595 2.12843 36.0439 1.74562 35.8486 1.44483C35.6533 1.14405 35.3134 0.968271 34.954 0.987802ZM49.0009 10.9995C48.4501 10.9995 48.0009 11.4487 48.0009 11.9995C48.0009 12.5503 48.4501 12.9995 49.0009 12.9995C49.5517 12.9995 50.0009 12.5503 50.0009 11.9995C50.0009 11.4487 49.5517 10.9995 49.0009 10.9995ZM53.0009 11.9995C52.4501 11.9995 52.0009 12.4487 52.0009 12.9995C52.0009 13.5503 52.4501 13.9995 53.0009 13.9995C53.5517 13.9995 54.0009 13.5503 54.0009 12.9995C54.0009 12.4487 53.5517 11.9995 53.0009 11.9995ZM47.0009 32.9995C46.4501 32.9995 46.0009 33.4487 46.0009 33.9995C46.0009 34.5503 46.4501 34.9995 47.0009 34.9995C47.5517 34.9995 48.0009 34.5503 48.0009 33.9995C48.0009 33.4487 47.5517 32.9995 47.0009 32.9995ZM51.0009 32.9995C50.4501 32.9995 50.0009 33.4487 50.0009 33.9995C50.0009 34.5503 50.4501 34.9995 51.0009 34.9995C51.5517 34.9995 52.0009 34.5503 52.0009 33.9995C52.0009 33.4487 51.5517 32.9995 51.0009 32.9995ZM50.0009 42.9995C49.4501 42.9995 49.0009 43.4487 49.0009 43.9995C49.0009 44.5503 49.4501 44.9995 50.0009 44.9995C50.5517 44.9995 51.0009 44.5503 51.0009 43.9995C51.0009 43.4487 50.5517 42.9995 50.0009 42.9995ZM51.0009 52.9995C50.4501 52.9995 50.0009 53.4487 50.0009 53.9995C50.0009 54.5503 50.4501 54.9995 51.0009 54.9995C51.5517 54.9995 52.0009 54.5503 52.0009 53.9995C52.0009 53.4487 51.5517 52.9995 51.0009 52.9995ZM18.0009 54.9995C19.6689 54.9995 21.0009 56.3316 21.0009 57.9995C21.0087 58.5464 21.454 58.9839 22.0009 58.9839C22.5478 58.9839 22.9931 58.5464 23.0009 57.9995C23.0009 56.3316 24.3329 54.9995 26.0009 54.9995C27.6689 54.9995 29.0009 56.3316 29.0009 57.9995C29.0009 58.0347 29.0048 58.0659 29.0048 58.0972C29.0126 58.1636 29.0283 58.23 29.0478 58.2964C29.0712 58.3589 29.0986 58.4214 29.1298 58.48C29.1611 58.5347 29.2001 58.5894 29.247 58.6401C29.3564 58.7691 29.4931 58.8628 29.6533 58.9214C29.7158 58.9448 29.7783 58.9644 29.8447 58.9722C29.8759 58.98 29.9111 58.9839 29.9423 58.9839C30.0126 58.9878 30.079 58.9839 30.1415 58.9761C30.1767 58.9722 30.2079 58.9644 30.2392 58.9566C30.3056 58.9409 30.3681 58.9175 30.4306 58.8901C30.4619 58.8745 30.4892 58.8589 30.5165 58.8433C30.6025 58.7886 30.6806 58.7261 30.747 58.6519C30.79 58.6011 30.829 58.5464 30.8642 58.4878C30.9306 58.3745 30.9775 58.2456 30.9931 58.1128C30.997 58.0737 31.0009 58.0386 31.0009 57.9995C31.0009 56.3316 32.3329 54.9995 34.0009 54.9995C35.6689 54.9995 37.0009 56.3316 37.0009 57.9995C37.0009 58.0347 37.0048 58.0659 37.0048 58.0972C37.0126 58.1323 37.0165 58.1675 37.0243 58.1987C37.0829 58.4644 37.2431 58.6909 37.4697 58.8355C37.5009 58.8511 37.5283 58.8667 37.5595 58.8823C37.5908 58.898 37.6181 58.9097 37.6533 58.9214C37.7158 58.9448 37.7783 58.9644 37.8447 58.9722C37.8759 58.98 37.9111 58.9839 37.9423 58.9839C37.9775 58.9839 38.0126 58.9839 38.0439 58.9839C38.1103 58.98 38.1767 58.9722 38.2392 58.9566C38.3056 58.9409 38.3681 58.9175 38.4306 58.8901C38.4892 58.8589 38.5478 58.8237 38.5986 58.7847C38.6259 58.7651 38.6533 58.7456 38.6767 58.7222C38.7783 58.6323 38.8564 58.523 38.9111 58.4019C38.9267 58.3706 38.9384 58.3394 38.9501 58.3081C38.9579 58.273 38.9697 58.2417 38.9736 58.2105C38.9814 58.1792 38.9892 58.1441 38.9931 58.1128C38.997 58.0737 39.0009 58.0386 39.0009 57.9995C39.0009 56.3316 40.3329 54.9995 42.0009 54.9995C43.6689 54.9995 45.0009 56.3316 45.0009 57.9995V60.9995C45.0009 62.6675 43.6689 63.9995 42.0009 63.9995C40.3329 63.9995 39.0009 62.6675 39.0009 60.9995C39.0009 60.9644 38.997 60.9331 38.997 60.9019C38.9892 60.8355 38.9736 60.7691 38.954 60.7026C38.9306 60.6401 38.9033 60.5776 38.872 60.5191C38.8408 60.4644 38.8017 60.4097 38.7548 60.3589C38.6923 60.2847 38.6142 60.2183 38.5322 60.1636C38.5009 60.148 38.4736 60.1323 38.4423 60.1167C38.4111 60.1011 38.3837 60.0894 38.3486 60.0776C38.3173 60.0659 38.2861 60.0542 38.2548 60.0464C38.1572 60.023 38.0595 60.0112 37.9579 60.0151C37.8915 60.0191 37.8251 60.0269 37.7626 60.0425C37.7275 60.0503 37.6962 60.062 37.665 60.0737C37.6337 60.0816 37.6025 60.0972 37.5712 60.1089C37.4814 60.1519 37.3954 60.2105 37.3251 60.2769C37.2509 60.3472 37.1884 60.4253 37.1376 60.5112C37.122 60.5386 37.1064 60.5698 37.0908 60.5972C37.0751 60.6284 37.0634 60.6597 37.0517 60.6909C37.0439 60.7261 37.0322 60.7573 37.0283 60.7886C37.0126 60.855 37.0009 60.9175 37.0009 60.9839C37.0009 60.9917 37.0009 60.9956 37.0009 60.9995C37.0009 62.6675 35.6689 63.9995 34.0009 63.9995C32.3329 63.9995 31.0009 62.6675 31.0009 60.9995C31.0009 60.9644 30.997 60.9331 30.997 60.9019C30.9892 60.8667 30.9853 60.8316 30.9775 60.8003C30.9619 60.7339 30.9423 60.6714 30.9189 60.6089C30.8369 60.4253 30.7001 60.2691 30.5322 60.1636C30.2704 60.0034 29.954 59.9683 29.665 60.0737C29.6025 60.0933 29.54 60.1245 29.4853 60.1558C29.4267 60.1909 29.372 60.23 29.3251 60.2769C29.2744 60.3237 29.2314 60.3745 29.1884 60.4253C29.1728 60.4526 29.1533 60.4839 29.1376 60.5112C29.122 60.5386 29.1064 60.5698 29.0908 60.5972C29.0634 60.6597 29.04 60.7222 29.0283 60.7886C29.0126 60.855 29.0009 60.9175 29.0009 60.9839C29.0009 60.9917 29.0009 60.9956 29.0009 60.9995C29.0009 62.6675 27.6689 63.9995 26.0009 63.9995C24.3329 63.9995 23.0009 62.6675 23.0009 60.9995C22.9931 60.4526 22.5478 60.0151 22.0009 60.0151C21.454 60.0151 21.0087 60.4526 21.0009 60.9995C21.0009 62.6675 19.6689 63.9995 18.0009 63.9995C16.3329 63.9995 15.0009 62.6675 15.0009 60.9995V57.9995C15.0009 56.3316 16.3329 54.9995 18.0009 54.9995Z" fill="#269944"/>
</svg>
