<svg width="62" height="61" viewBox="0 0 62 61" fill="none" xmlns="http://www.w3.org/2000/svg">
<path d="M0.999023 0V33.832C0.979492 33.9414 0.979492 34.0508 0.999023 34.1562V60H7.99902C8.3584 60.0039 8.69434 59.8164 8.87793 59.5039C9.05762 59.1914 9.05762 58.8086 8.87793 58.4961C8.69434 58.1836 8.3584 57.9961 7.99902 58H2.99902V35H5.99902C6.3584 35.0039 6.69434 34.8164 6.87793 34.5039C7.05762 34.1914 7.05762 33.8086 6.87793 33.4961C6.69434 33.1836 6.3584 32.9961 5.99902 33H2.99902V2H24.999V14.0859L26.0811 13.9961C26.0811 13.9961 29.2686 13.7422 32.4756 12.0039C35.4795 10.375 38.4756 7.20312 38.8545 2H58.999V33H55.999C55.6396 32.9961 55.3037 33.1836 55.1201 33.4961C54.9404 33.8086 54.9404 34.1914 55.1201 34.5039C55.3037 34.8164 55.6396 35.0039 55.999 35H58.999V58H54.999C54.6396 57.9961 54.3037 58.1836 54.1201 58.4961C53.9404 58.8086 53.9404 59.1914 54.1201 59.5039C54.3037 59.8164 54.6396 60.0039 54.999 60H60.999V34.168C61.0186 34.0586 61.0186 33.9492 60.999 33.8438V0H36.999V1C36.999 6.13672 34.3154 8.73438 31.5225 10.2461C29.5928 11.293 28.0146 11.6406 26.999 11.8125V0H0.999023ZM30.9834 32.9844C30.9365 32.9883 30.8857 32.9922 30.8389 33H25.999C25.6396 32.9961 25.3037 33.1836 25.1201 33.4961C24.9404 33.8086 24.9404 34.1914 25.1201 34.5039C25.3037 34.8164 25.6396 35.0039 25.999 35H29.999V58H22.999C22.6396 57.9961 22.3037 58.1836 22.1201 58.4961C21.9404 58.8086 21.9404 59.1914 22.1201 59.5039C22.3037 59.8164 22.6396 60.0039 22.999 60H30.8311C30.9404 60.0195 31.0498 60.0195 31.1553 60H38.999C39.3584 60.0039 39.6943 59.8164 39.8779 59.5039C40.0576 59.1914 40.0576 58.8086 39.8779 58.4961C39.6943 58.1836 39.3584 57.9961 38.999 58H31.999V35H35.999C36.3584 35.0039 36.6943 34.8164 36.8779 34.5039C37.0576 34.1914 37.0576 33.8086 36.8779 33.4961C36.6943 33.1836 36.3584 32.9961 35.999 33H31.1553C31.0967 32.9922 31.042 32.9844 30.9834 32.9844ZM9.99902 33C9.44824 33 8.99902 33.4492 8.99902 34C8.99902 34.5508 9.44824 35 9.99902 35C10.5498 35 10.999 34.5508 10.999 34C10.999 33.4492 10.5498 33 9.99902 33ZM13.999 33C13.4482 33 12.999 33.4492 12.999 34C12.999 34.5508 13.4482 35 13.999 35C14.5498 35 14.999 34.5508 14.999 34C14.999 33.4492 14.5498 33 13.999 33ZM17.999 33C17.4482 33 16.999 33.4492 16.999 34C16.999 34.5508 17.4482 35 17.999 35C18.5498 35 18.999 34.5508 18.999 34C18.999 33.4492 18.5498 33 17.999 33ZM21.999 33C21.4482 33 20.999 33.4492 20.999 34C20.999 34.5508 21.4482 35 21.999 35C22.5498 35 22.999 34.5508 22.999 34C22.999 33.4492 22.5498 33 21.999 33ZM39.999 33C39.4482 33 38.999 33.4492 38.999 34C38.999 34.5508 39.4482 35 39.999 35C40.5498 35 40.999 34.5508 40.999 34C40.999 33.4492 40.5498 33 39.999 33ZM43.999 33C43.4482 33 42.999 33.4492 42.999 34C42.999 34.5508 43.4482 35 43.999 35C44.5498 35 44.999 34.5508 44.999 34C44.999 33.4492 44.5498 33 43.999 33ZM47.999 33C47.4482 33 46.999 33.4492 46.999 34C46.999 34.5508 47.4482 35 47.999 35C48.5498 35 48.999 34.5508 48.999 34C48.999 33.4492 48.5498 33 47.999 33ZM51.999 33C51.4482 33 50.999 33.4492 50.999 34C50.999 34.5508 51.4482 35 51.999 35C52.5498 35 52.999 34.5508 52.999 34C52.999 33.4492 52.5498 33 51.999 33ZM11.999 58C11.4482 58 10.999 58.4492 10.999 59C10.999 59.5508 11.4482 60 11.999 60C12.5498 60 12.999 59.5508 12.999 59C12.999 58.4492 12.5498 58 11.999 58ZM15.999 58C15.4482 58 14.999 58.4492 14.999 59C14.999 59.5508 15.4482 60 15.999 60C16.5498 60 16.999 59.5508 16.999 59C16.999 58.4492 16.5498 58 15.999 58ZM19.999 58C19.4482 58 18.999 58.4492 18.999 59C18.999 59.5508 19.4482 60 19.999 60C20.5498 60 20.999 59.5508 20.999 59C20.999 58.4492 20.5498 58 19.999 58ZM42.999 58C42.4482 58 41.999 58.4492 41.999 59C41.999 59.5508 42.4482 60 42.999 60C43.5498 60 43.999 59.5508 43.999 59C43.999 58.4492 43.5498 58 42.999 58ZM46.999 58C46.4482 58 45.999 58.4492 45.999 59C45.999 59.5508 46.4482 60 46.999 60C47.5498 60 47.999 59.5508 47.999 59C47.999 58.4492 47.5498 58 46.999 58ZM50.999 58C50.4482 58 49.999 58.4492 49.999 59C49.999 59.5508 50.4482 60 50.999 60C51.5498 60 51.999 59.5508 51.999 59C51.999 58.4492 51.5498 58 50.999 58Z" fill="white"/>
</svg>
