<svg width="70" height="52" viewBox="0 0 70 52" fill="none" xmlns="http://www.w3.org/2000/svg">
<path d="M13.9844 0.98448C13.4336 0.996199 12.9922 1.44932 13 2.0001H5C4.64062 1.9962 4.30469 2.1837 4.12109 2.4962C3.94141 2.8087 3.94141 3.19151 4.12109 3.50401C4.30469 3.81651 4.64062 4.00401 5 4.0001H13V9.0001H12.1562C10.4258 9.0001 9 10.4259 9 12.1564C9 13.7032 10.1367 15.0353 11.6602 15.2814L24.543 17.3399L25.1523 21.0001H18C14.6953 21.0001 12 23.6993 12 27.0001V46.0001H14V44.0001C14.5508 44.0001 15 43.5509 15 43.0001C15 42.4493 14.5508 42.0001 14 42.0001V27.0001C14 24.7814 15.7773 23.0001 18 23.0001H25.4844L25.7344 24.4962C25.9766 25.9337 27.2344 27.0001 28.6914 27.0001H41.3086C42.7656 27.0001 44.0234 25.9337 44.2656 24.4962L44.5156 23.0001H52C54.2188 23.0001 56 24.7814 56 27.0001V42.0001C55.4492 42.0001 55 42.4493 55 43.0001C55 43.5509 55.4492 44.0001 56 44.0001V46.0001H58V27.0001C58 23.6993 55.3008 21.0001 52 21.0001H44.8477L45.457 17.3399L58.3438 15.2814C59.8672 15.0353 61 13.7032 61 12.1564C61 10.4259 59.5742 9.0001 57.8438 9.0001H57V4.0001H65C65.3594 4.00401 65.6953 3.81651 65.8789 3.50401C66.0586 3.19151 66.0586 2.8087 65.8789 2.4962C65.6953 2.1837 65.3594 1.9962 65 2.0001H57C57.0039 1.73057 56.8984 1.46885 56.707 1.27745C56.5156 1.08604 56.2539 0.980574 55.9844 0.98448C55.4336 0.996199 54.9922 1.44932 55 2.0001H47C46.6406 1.9962 46.3047 2.1837 46.1211 2.4962C45.9414 2.8087 45.9414 3.19151 46.1211 3.50401C46.3047 3.81651 46.6406 4.00401 47 4.0001H55V9.0001H15V4.0001H23C23.3594 4.00401 23.6953 3.81651 23.8789 3.50401C24.0586 3.19151 24.0586 2.8087 23.8789 2.4962C23.6953 2.1837 23.3594 1.9962 23 2.0001H15C15.0039 1.73057 14.8984 1.46885 14.707 1.27745C14.5156 1.08604 14.2539 0.980574 13.9844 0.98448ZM1 2.0001C0.449219 2.0001 0 2.44932 0 3.0001C0 3.55089 0.449219 4.0001 1 4.0001C1.55078 4.0001 2 3.55089 2 3.0001C2 2.44932 1.55078 2.0001 1 2.0001ZM27 2.0001C26.4492 2.0001 26 2.44932 26 3.0001C26 3.55089 26.4492 4.0001 27 4.0001C27.5508 4.0001 28 3.55089 28 3.0001C28 2.44932 27.5508 2.0001 27 2.0001ZM43 2.0001C42.4492 2.0001 42 2.44932 42 3.0001C42 3.55089 42.4492 4.0001 43 4.0001C43.5508 4.0001 44 3.55089 44 3.0001C44 2.44932 43.5508 2.0001 43 2.0001ZM69 2.0001C68.4492 2.0001 68 2.44932 68 3.0001C68 3.55089 68.4492 4.0001 69 4.0001C69.5508 4.0001 70 3.55089 70 3.0001C70 2.44932 69.5508 2.0001 69 2.0001ZM12.1562 11.0001H13.832C13.9414 11.0196 14.0508 11.0196 14.1562 11.0001H55.832C55.9414 11.0196 56.0508 11.0196 56.1562 11.0001H57.8438C58.4922 11.0001 59 11.5079 59 12.1564C59 12.7345 58.5938 13.211 58.0273 13.3009L43.7227 15.5939L42.293 24.1642C42.2109 24.6524 41.8008 25.0001 41.3086 25.0001H28.6914C28.1992 25.0001 27.7891 24.6524 27.707 24.1642L26.2812 15.5939L11.9766 13.3009C11.4062 13.211 11 12.7345 11 12.1564C11 11.5079 11.5039 11.0001 12.1562 11.0001ZM29 16.0001C28.4492 16.0001 28 16.4493 28 17.0001C28 17.5509 28.4492 18.0001 29 18.0001C29.5508 18.0001 30 17.5509 30 17.0001C30 16.4493 29.5508 16.0001 29 16.0001ZM33 16.0001C32.4492 16.0001 32 16.4493 32 17.0001C32 17.5509 32.4492 18.0001 33 18.0001C33.5508 18.0001 34 17.5509 34 17.0001C34 16.4493 33.5508 16.0001 33 16.0001ZM37 16.0001C36.4492 16.0001 36 16.4493 36 17.0001C36 17.5509 36.4492 18.0001 37 18.0001C37.5508 18.0001 38 17.5509 38 17.0001C38 16.4493 37.5508 16.0001 37 16.0001ZM41 16.0001C40.4492 16.0001 40 16.4493 40 17.0001C40 17.5509 40.4492 18.0001 41 18.0001C41.5508 18.0001 42 17.5509 42 17.0001C42 16.4493 41.5508 16.0001 41 16.0001ZM32.6172 32.0001C31.8633 32.0001 31.1641 32.4298 30.8281 33.1095L30.3828 34.0001H25C23.3555 34.0001 22 35.3556 22 37.0001V42.0001C21.4492 42.0001 21 42.4493 21 43.0001C21 43.5509 21.4492 44.0001 22 44.0001V49.0001C22 50.6446 23.3555 52.0001 25 52.0001H45C46.6445 52.0001 48 50.6446 48 49.0001V44.0001C48.5508 44.0001 49 43.5509 49 43.0001C49 42.4493 48.5508 42.0001 48 42.0001V37.0001C48 35.3556 46.6445 34.0001 45 34.0001H39.6172L39.1719 33.1056C38.832 32.4298 38.1367 32.0001 37.3828 32.0001H32.6172ZM32.6211 34.0001H37.3789L38.3828 36.0001H45C45.5664 36.0001 46 36.4337 46 37.0001V49.0001C46 49.5665 45.5664 50.0001 45 50.0001H25C24.4336 50.0001 24 49.5665 24 49.0001V37.0001C24 36.4337 24.4336 36.0001 25 36.0001H31.6172L32.6211 34.0001ZM35 38.0001C32.25 38.0001 30 40.2501 30 43.0001C30 45.7501 32.25 48.0001 35 48.0001C37.75 48.0001 40 45.7501 40 43.0001C40 40.2501 37.75 38.0001 35 38.0001ZM35 40.0001C36.668 40.0001 38 41.3321 38 43.0001C38 44.6681 36.668 46.0001 35 46.0001C33.332 46.0001 32 44.6681 32 43.0001C32 41.3321 33.332 40.0001 35 40.0001ZM18 42.0001C17.4492 42.0001 17 42.4493 17 43.0001C17 43.5509 17.4492 44.0001 18 44.0001C18.5508 44.0001 19 43.5509 19 43.0001C19 42.4493 18.5508 42.0001 18 42.0001ZM52 42.0001C51.4492 42.0001 51 42.4493 51 43.0001C51 43.5509 51.4492 44.0001 52 44.0001C52.5508 44.0001 53 43.5509 53 43.0001C53 42.4493 52.5508 42.0001 52 42.0001Z" fill="white"/>
</svg>
